<svg width="75" height="39" viewBox="0 0 75 39" fill="none" xmlns="http://www.w3.org/2000/svg">
<rect x="10" y="-1" width="5" height="5" transform="rotate(90 10 -1)" fill="#181235"/>
<rect width="5" height="5" transform="matrix(4.37114e-08 1 1 -4.37114e-08 65 -1)" fill="#181235"/>
<rect width="5" height="5" transform="matrix(4.37114e-08 1 1 -4.37114e-08 15 4)" fill="#7B79F7"/>
<rect width="5" height="5" transform="matrix(4.37114e-08 1 1 -4.37114e-08 10 4)" fill="#181235"/>
<rect x="60" y="4" width="5" height="5" transform="rotate(90 60 4)" fill="#7B79F7"/>
<rect x="65" y="4" width="5" height="5" transform="rotate(90 65 4)" fill="#181235"/>
<rect width="5" height="5" transform="matrix(4.37114e-08 1 1 -4.37114e-08 15 9)" fill="#181235"/>
<rect x="60" y="9" width="5" height="5" transform="rotate(90 60 9)" fill="#181235"/>
<rect width="5" height="5" transform="matrix(4.37114e-08 1 1 -4.37114e-08 15 14)" fill="#181235"/>
<rect x="60" y="14" width="5" height="5" transform="rotate(90 60 14)" fill="#181235"/>
<rect width="5" height="5" transform="matrix(4.37114e-08 1 1 -4.37114e-08 15 19)" fill="#181235"/>
<rect x="60" y="19" width="5" height="5" transform="rotate(90 60 19)" fill="#181235"/>
<rect width="5" height="5" transform="matrix(4.37114e-08 1 1 -4.37114e-08 25 24)" fill="#181235"/>
<rect width="5" height="5" transform="matrix(4.37114e-08 1 1 -4.37114e-08 25 29)" fill="#181235"/>
<rect x="50" y="24" width="5" height="5" transform="rotate(90 50 24)" fill="#181235"/>
<rect x="50" y="29" width="5" height="5" transform="rotate(90 50 29)" fill="#181235"/>
<rect x="50" y="34" width="5" height="5" transform="rotate(90 50 34)" fill="#181235"/>
<rect width="5" height="5" transform="matrix(4.37114e-08 1 1 -4.37114e-08 20 29)" fill="#181235"/>
<rect width="5" height="5" transform="matrix(4.37114e-08 1 1 -4.37114e-08 20 34)" fill="#181235"/>
<rect x="55" y="29" width="5" height="5" transform="rotate(90 55 29)" fill="#181235"/>
<rect width="5" height="5" transform="matrix(4.37114e-08 1 1 -4.37114e-08 30 19)" fill="#181235"/>
<rect width="5" height="5" transform="matrix(4.37114e-08 1 1 -4.37114e-08 35 14)" fill="#181235"/>
<rect x="45" y="19" width="5" height="5" transform="rotate(90 45 19)" fill="#181235"/>
<rect x="20" y="-1" width="5" height="5" transform="rotate(90 20 -1)" fill="#7B79F7"/>
<rect width="5" height="5" transform="matrix(4.37114e-08 1 1 -4.37114e-08 55 -1)" fill="#7B79F7"/>
<rect x="40" y="-1" width="5" height="5" transform="rotate(90 40 -1)" fill="#7B79F7"/>
<rect x="40" y="4" width="5" height="5" transform="rotate(90 40 4)" fill="#7B79F7"/>
<rect x="40" y="9" width="5" height="5" transform="rotate(90 40 9)" fill="#7B79F7"/>
<rect x="25" y="-1" width="5" height="5" transform="rotate(90 25 -1)" fill="#7B79F7"/>
<rect width="5" height="5" transform="matrix(4.37114e-08 1 1 -4.37114e-08 50 -1)" fill="#7B79F7"/>
<rect x="15" y="-1" width="5" height="5" transform="rotate(90 15 -1)" fill="#7B79F7"/>
<rect width="5" height="5" transform="matrix(4.37114e-08 1 1 -4.37114e-08 60 -1)" fill="#7B79F7"/>
<rect x="35" y="-1" width="5" height="5" transform="rotate(90 35 -1)" fill="#7B79F7"/>
<rect width="5" height="5" transform="matrix(4.37114e-08 1 1 -4.37114e-08 40 -1)" fill="#7B79F7"/>
<rect x="35" y="4" width="5" height="5" transform="rotate(90 35 4)" fill="#7B79F7"/>
<rect width="5" height="5" transform="matrix(4.37114e-08 1 1 -4.37114e-08 40 4)" fill="#7B79F7"/>
<rect x="35" y="9" width="5" height="5" transform="rotate(90 35 9)" fill="#7B79F7"/>
<rect width="5" height="5" transform="matrix(4.37114e-08 1 1 -4.37114e-08 40 9)" fill="#7B79F7"/>
<rect x="35" y="14" width="5" height="5" transform="rotate(90 35 14)" fill="#7B79F7"/>
<rect width="5" height="5" transform="matrix(4.37114e-08 1 1 -4.37114e-08 40 14)" fill="#7B79F7"/>
<rect x="30" y="-1" width="5" height="5" transform="rotate(90 30 -1)" fill="#7B79F7"/>
<rect width="5" height="5" transform="matrix(4.37114e-08 1 1 -4.37114e-08 45 -1)" fill="#7B79F7"/>
<rect x="30" y="4" width="5" height="5" transform="rotate(90 30 4)" fill="#7B79F7"/>
<rect width="5" height="5" transform="matrix(4.37114e-08 1 1 -4.37114e-08 45 4)" fill="#7B79F7"/>
<rect x="30" y="9" width="5" height="5" transform="rotate(90 30 9)" fill="#7B79F7"/>
<rect width="5" height="5" transform="matrix(4.37114e-08 1 1 -4.37114e-08 45 9)" fill="#7B79F7"/>
<rect x="25" y="9" width="5" height="5" transform="rotate(90 25 9)" fill="#7B79F7"/>
<rect width="5" height="5" transform="matrix(4.37114e-08 1 1 -4.37114e-08 50 9)" fill="#7B79F7"/>
<rect x="30" y="14" width="5" height="5" transform="rotate(90 30 14)" fill="#7B79F7"/>
<rect width="5" height="5" transform="matrix(4.37114e-08 1 1 -4.37114e-08 45 14)" fill="#7B79F7"/>
<rect x="30" y="19" width="5" height="5" transform="rotate(90 30 19)" fill="#7B79F7"/>
<rect width="5" height="5" transform="matrix(4.37114e-08 1 1 -4.37114e-08 45 19)" fill="#7B79F7"/>
<rect x="25" y="14" width="5" height="5" transform="rotate(90 25 14)" fill="#7B79F7"/>
<rect width="5" height="5" transform="matrix(4.37114e-08 1 1 -4.37114e-08 50 14)" fill="#7B79F7"/>
<rect x="25" y="19" width="5" height="5" transform="rotate(90 25 19)" fill="#7B79F7"/>
<rect width="5" height="5" transform="matrix(4.37114e-08 1 1 -4.37114e-08 50 19)" fill="#7B79F7"/>
<rect x="25" y="24" width="5" height="5" transform="rotate(90 25 24)" fill="#7B79F7"/>
<rect x="20" y="24" width="5" height="5" transform="rotate(90 20 24)" fill="#181235"/>
<rect width="5" height="5" transform="matrix(4.37114e-08 1 1 -4.37114e-08 50 24)" fill="#7B79F7"/>
<rect width="5" height="5" transform="matrix(4.37114e-08 1 1 -4.37114e-08 55 24)" fill="#181235"/>
<rect x="25" y="4" width="5" height="5" transform="rotate(90 25 4)" fill="#7B79F7"/>
<rect width="5" height="5" transform="matrix(4.37114e-08 1 1 -4.37114e-08 50 4)" fill="#7B79F7"/>
</svg>
