<svg width="40" height="40" viewBox="0 0 40 40" fill="none" xmlns="http://www.w3.org/2000/svg">
<rect x="8" y="24" width="3.99999" height="4.00001" transform="rotate(-180 8 24)" fill="#181235"/>
<rect x="8" y="16" width="3.99999" height="3.99999" transform="rotate(-180 8 16)" fill="#181235"/>
<rect x="8" y="28" width="3.99999" height="4.00001" transform="rotate(-180 8 28)" fill="#181235"/>
<rect x="8" y="20" width="3.99999" height="4.00001" transform="rotate(-180 8 20)" fill="#181235"/>
<rect x="24" y="8" width="4.00001" height="4" transform="rotate(-180 24 8)" fill="#181235"/>
<rect x="28" y="8" width="4.00001" height="4" transform="rotate(-180 28 8)" fill="#181235"/>
<rect x="24" y="24" width="4.00001" height="4.00001" transform="rotate(-180 24 24)" fill="#181235"/>
<rect x="24" y="16" width="4.00001" height="3.99999" transform="rotate(-180 24 16)" fill="#181235"/>
<rect x="24" y="32" width="4.00001" height="4.00001" transform="rotate(-180 24 32)" fill="#181235"/>
<rect x="24" y="12" width="4.00001" height="4" transform="rotate(-180 24 12)" fill="#181235"/>
<rect x="24" y="28" width="4.00001" height="4.00001" transform="rotate(-180 24 28)" fill="#181235"/>
<rect x="24" y="20" width="4.00001" height="4.00001" transform="rotate(-180 24 20)" fill="#181235"/>
<rect x="24" y="36" width="4.00001" height="4.00001" transform="rotate(-180 24 36)" fill="#181235"/>
<rect x="28" y="36" width="4.00001" height="4.00001" transform="rotate(-180 28 36)" fill="#181235"/>
<rect x="16" y="24" width="4.00001" height="4.00001" transform="rotate(-180 16 24)" fill="#181235"/>
<rect x="16" y="16" width="4.00001" height="3.99999" transform="rotate(-180 16 16)" fill="#181235"/>
<rect x="16" y="32" width="4.00001" height="4.00001" transform="rotate(-180 16 32)" fill="#181235"/>
<rect x="16" y="12" width="4.00001" height="4" transform="rotate(-180 16 12)" fill="#181235"/>
<rect x="16" y="28" width="4.00001" height="4.00001" transform="rotate(-180 16 28)" fill="#181235"/>
<rect x="16" y="20" width="4.00001" height="4.00001" transform="rotate(-180 16 20)" fill="#181235"/>
<rect x="32" y="24" width="4.00001" height="4.00001" transform="rotate(-180 32 24)" fill="#181235"/>
<rect x="32" y="16" width="4.00001" height="3.99999" transform="rotate(-180 32 16)" fill="#181235"/>
<rect x="32" y="32" width="4.00001" height="4.00001" transform="rotate(-180 32 32)" fill="#181235"/>
<rect x="32" y="12" width="4.00001" height="4" transform="rotate(-180 32 12)" fill="#181235"/>
<rect x="32" y="28" width="4.00001" height="4.00001" transform="rotate(-180 32 28)" fill="#181235"/>
<rect x="32" y="20" width="4.00001" height="4.00001" transform="rotate(-180 32 20)" fill="#181235"/>
<rect x="12" y="24" width="4.00001" height="4.00001" transform="rotate(-180 12 24)" fill="#181235"/>
<rect x="12" y="16" width="4.00001" height="3.99999" transform="rotate(-180 12 16)" fill="#181235"/>
<rect x="12" y="32" width="4.00001" height="4.00001" transform="rotate(-180 12 32)" fill="#181235"/>
<rect x="12" y="12" width="4.00001" height="4" transform="rotate(-180 12 12)" fill="#181235"/>
<rect x="12" y="28" width="4.00001" height="4.00001" transform="rotate(-180 12 28)" fill="#181235"/>
<rect x="12" y="20" width="4.00001" height="4.00001" transform="rotate(-180 12 20)" fill="#181235"/>
<rect x="28" y="24" width="4.00001" height="4.00001" transform="rotate(-180 28 24)" fill="#181235"/>
<rect x="28" y="16" width="4.00001" height="3.99999" transform="rotate(-180 28 16)" fill="#181235"/>
<rect x="28" y="32" width="4.00001" height="4.00001" transform="rotate(-180 28 32)" fill="#181235"/>
<rect x="28" y="12" width="4.00001" height="4" transform="rotate(-180 28 12)" fill="#181235"/>
<rect x="28" y="28" width="4.00001" height="4.00001" transform="rotate(-180 28 28)" fill="#181235"/>
<rect x="28" y="20" width="4.00001" height="4.00001" transform="rotate(-180 28 20)" fill="#181235"/>
<rect x="20" y="8" width="4.00001" height="4" transform="rotate(-180 20 8)" fill="#181235"/>
<rect x="16" y="8" width="4.00001" height="4" transform="rotate(-180 16 8)" fill="#181235"/>
<rect x="20" y="24" width="4.00001" height="4.00001" transform="rotate(-180 20 24)" fill="#181235"/>
<rect x="20" y="16" width="4.00001" height="3.99999" transform="rotate(-180 20 16)" fill="#181235"/>
<rect x="20" y="32" width="4.00001" height="4.00001" transform="rotate(-180 20 32)" fill="#181235"/>
<rect x="20" y="12" width="4.00001" height="4" transform="rotate(-180 20 12)" fill="#181235"/>
<rect x="20" y="28" width="4.00001" height="4.00001" transform="rotate(-180 20 28)" fill="#181235"/>
<rect x="20" y="20" width="4.00001" height="4.00001" transform="rotate(-180 20 20)" fill="#181235"/>
<rect x="20" y="36" width="4.00001" height="4.00001" transform="rotate(-180 20 36)" fill="#181235"/>
<rect x="16" y="36" width="4.00001" height="4.00001" transform="rotate(-180 16 36)" fill="#181235"/>
<rect x="36" y="24" width="4.00001" height="4.00001" transform="rotate(-180 36 24)" fill="#181235"/>
<rect x="36" y="16" width="4.00001" height="3.99999" transform="rotate(-180 36 16)" fill="#181235"/>
<rect x="36" y="28" width="4.00001" height="4.00001" transform="rotate(-180 36 28)" fill="#181235"/>
<rect x="36" y="20" width="4.00001" height="4.00001" transform="rotate(-180 36 20)" fill="#181235"/>
<rect x="11.4681" y="21.5" width="3.49999" height="3.49998" transform="rotate(-90 11.4681 21.5)" fill="white"/>
<rect x="8" y="21.5" width="3.49999" height="3.50001" transform="rotate(-90 8 21.5)" fill="white"/>
<rect x="11.4681" y="25" width="3.49999" height="3.49998" transform="rotate(-90 11.4681 25)" fill="white"/>
<rect width="3.49999" height="3.49998" transform="matrix(4.37114e-08 1 1 -4.37118e-08 11.4681 14.5)" fill="white"/>
<rect x="21.9683" y="21.5" width="3.49999" height="3.49997" transform="rotate(-90 21.9683 21.5)" fill="white"/>
<rect x="14.9681" y="21.5" width="3.49999" height="3.50001" transform="rotate(-90 14.9681 21.5)" fill="white"/>
<rect x="14.9681" y="28.5" width="3.49999" height="3.50001" transform="rotate(-90 14.9681 28.5)" fill="white"/>
<rect width="3.49999" height="3.50001" transform="matrix(4.37114e-08 1 1 -4.37118e-08 14.9681 11)" fill="white"/>
<rect x="25.4681" y="21.5" width="3.49999" height="3.5" transform="rotate(-90 25.4681 21.5)" fill="white"/>
<rect x="18.4681" y="21.5" width="3.49999" height="3.50003" transform="rotate(-90 18.4681 21.5)" fill="white"/>
<rect x="28.9681" y="21.5" width="3.49999" height="3.5" transform="rotate(-90 28.9681 21.5)" fill="white"/>
</svg>
