<svg width="1650" height="2200" viewBox="0 0 1650 2200" fill="none" xmlns="http://www.w3.org/2000/svg">
<rect x="550" y="990" width="110" height="110" fill="#7B79F7"/>
<rect x="770" y="990" width="110" height="110" fill="#7B79F7"/>
<rect x="880" y="990" width="110" height="110" fill="#376237"/>
<rect x="990" y="990" width="110" height="110" fill="#376237"/>
<rect x="660" y="990" width="110" height="110" fill="#FBF0FD"/>
<rect x="770" y="880" width="110" height="110" fill="#FBF0FD"/>
<rect x="770" y="770" width="110" height="110" fill="#FBF0FD"/>
<rect x="770" y="660" width="110" height="110" fill="#FBF0FD"/>
<rect x="660" y="880" width="110" height="110" fill="#7B79F7"/>
<rect x="880" y="880" width="110" height="110" fill="#7B79F7"/>
<rect x="660" y="770" width="110" height="110" fill="#7B79F7"/>
<rect x="880" y="770" width="110" height="110" fill="#7B79F7"/>
<rect x="660" y="660" width="110" height="110" fill="#7B79F7"/>
<rect x="880" y="660" width="110" height="110" fill="#7B79F7"/>
<rect x="550" y="1100" width="110" height="110" fill="#7B79F7"/>
<rect x="550" y="1210" width="110" height="110" fill="#7B79F7"/>
<rect x="440" y="990" width="110" height="110" fill="#040529"/>
<rect width="110" height="110" transform="matrix(-1 0 0 1 1210 990)" fill="#040529"/>
<rect x="550" y="880" width="110" height="110" fill="#040529"/>
<rect x="990" y="880" width="110" height="110" fill="#040529"/>
<rect x="550" y="770" width="110" height="110" fill="#040529"/>
<rect x="990" y="770" width="110" height="110" fill="#040529"/>
<rect x="550" y="660" width="110" height="110" fill="#040529"/>
<rect x="990" y="660" width="110" height="110" fill="#040529"/>
<rect x="550" y="550" width="110" height="110" fill="#040529"/>
<rect x="550" y="440" width="110" height="110" fill="#040529"/>
<rect x="550" y="220" width="110" height="110" fill="#040529"/>
<rect x="990" y="220" width="110" height="110" fill="#040529"/>
<rect x="440" y="440" width="110" height="110" fill="#040529"/>
<rect x="440" y="330" width="110" height="110" fill="#040529"/>
<rect x="660" y="550" width="110" height="110" fill="#040529"/>
<rect x="660" y="440" width="110" height="110" fill="#040529"/>
<rect x="770" y="550" width="110" height="110" fill="#040529"/>
<rect x="770" y="440" width="110" height="110" fill="#040529"/>
<rect x="880" y="550" width="110" height="110" fill="#040529"/>
<rect x="990" y="550" width="110" height="110" fill="#040529"/>
<rect x="880" y="440" width="110" height="110" fill="#040529"/>
<rect x="990" y="440" width="110" height="110" fill="#040529"/>
<rect x="990" y="330" width="110" height="110" fill="#040529"/>
<rect x="1100" y="330" width="110" height="110" fill="#040529"/>
<rect x="880" y="330" width="110" height="110" fill="#040529"/>
<rect x="770" y="330" width="110" height="110" fill="#040529"/>
<rect x="660" y="330" width="110" height="110" fill="#040529"/>
<rect x="660" y="220" width="110" height="110" fill="#605EE8"/>
<rect x="660" y="110" width="110" height="110" fill="#605EE8"/>
<rect x="770" y="110" width="110" height="110" fill="#605EE8"/>
<rect x="770" y="220" width="110" height="110" fill="#605EE8"/>
<rect x="880" y="110" width="110" height="110" fill="#605EE8"/>
<rect x="880" y="220" width="110" height="110" fill="#605EE8"/>
<rect x="550" y="330" width="110" height="110" fill="#040529"/>
<rect x="550" y="110" width="110" height="110" fill="#040529"/>
<rect x="660" width="110" height="110" fill="#040529"/>
<rect x="770" width="110" height="110" fill="#040529"/>
<rect x="880" width="110" height="110" fill="#040529"/>
<rect x="990" y="110" width="110" height="110" fill="#040529"/>
<rect x="1100" y="440" width="110" height="110" fill="#040529"/>
<rect x="440" y="1100" width="110" height="110" fill="#7B79F7"/>
<rect width="110" height="110" transform="matrix(-1 0 0 1 1210 1100)" fill="#7B79F7"/>
<rect width="110" height="110" transform="matrix(-1 0 0 1 1100 1100)" fill="#7B79F7"/>
<rect width="110" height="110" transform="matrix(-1 0 0 1 1100 1210)" fill="#7B79F7"/>
<rect width="110" height="110" transform="matrix(-1 0 0 1 990 1100)" fill="#7B79F7"/>
<rect width="110" height="110" transform="matrix(-1 0 0 1 990 1210)" fill="#7B79F7"/>
<rect width="110" height="110" transform="matrix(-1 0 0 1 880 1100)" fill="#7B79F7"/>
<rect width="110" height="110" transform="matrix(-1 0 0 1 880 1210)" fill="#7B79F7"/>
<rect width="110" height="110" transform="matrix(-1 0 0 1 770 1100)" fill="#7B79F7"/>
<rect width="110" height="110" transform="matrix(-1 0 0 1 770 1210)" fill="#7B79F7"/>
<rect x="330" y="990" width="110" height="110" fill="#040529"/>
<rect width="110" height="110" transform="matrix(-1 0 0 1 1320 990)" fill="#040529"/>
<rect x="330" y="1100" width="110" height="110" fill="#7B79F7"/>
<rect width="110" height="110" transform="matrix(-1 0 0 1 1320 1100)" fill="#7B79F7"/>
<rect x="330" y="1210" width="110" height="110" fill="#7B79F7"/>
<rect width="110" height="110" transform="matrix(-1 0 0 1 1320 1210)" fill="#7B79F7"/>
<rect x="220" y="1210" width="110" height="110" fill="#7B79F7"/>
<rect width="110" height="110" transform="matrix(-1 0 0 1 1430 1210)" fill="#7B79F7"/>
<rect x="220" y="1320" width="110" height="110" fill="#F09BB9"/>
<rect width="110" height="110" transform="matrix(-1 0 0 1 1430 1320)" fill="#F09BB9"/>
<rect x="550" y="1320" width="110" height="110" fill="#F09BB9"/>
<rect x="770" y="1320" width="110" height="110" fill="#F09BB9"/>
<rect x="990" y="1320" width="110" height="110" fill="#F09BB9"/>
<rect x="550" y="1540" width="110" height="110" fill="#F09BB9"/>
<rect x="880" y="1430" width="110" height="110" fill="#F09BB9"/>
<rect x="220" y="1430" width="110" height="110" fill="#E54369"/>
<rect width="110" height="110" transform="matrix(-1 0 0 1 1430 1430)" fill="#E54369"/>
<rect x="330" y="1430" width="110" height="110" fill="#FBF0FD"/>
<rect width="110" height="110" transform="matrix(-1 0 0 1 1320 1430)" fill="#B62850"/>
<rect x="330" y="1320" width="110" height="110" fill="#FBF0FD"/>
<rect width="110" height="110" transform="matrix(-1 0 0 1 1320 1320)" fill="#FBF0FD"/>
<rect x="440" y="1210" width="110" height="110" fill="#FBF0FD"/>
<rect width="110" height="110" transform="matrix(-1 0 0 1 1210 1210)" fill="#FBF0FD"/>
<rect x="220" y="1540" width="110" height="110" fill="#E54369"/>
<rect width="110" height="110" transform="matrix(-1 0 0 1 1430 1540)" fill="#E54369"/>
<rect x="220" y="1650" width="110" height="110" fill="#E54369"/>
<rect width="110" height="110" transform="matrix(-1 0 0 1 1430 1650)" fill="#E54369"/>
<rect x="330" y="1650" width="110" height="110" fill="#E54369"/>
<rect width="110" height="110" transform="matrix(-1 0 0 1 1320 1650)" fill="#B62850"/>
<rect x="220" y="1760" width="110" height="110" fill="#E54369"/>
<rect width="110" height="110" transform="matrix(-1 0 0 1 1430 1760)" fill="#E54369"/>
<rect x="330" y="1760" width="110" height="110" fill="#E54369"/>
<rect width="110" height="110" transform="matrix(-1 0 0 1 1320 1760)" fill="#B62850"/>
<rect x="330" y="1870" width="110" height="110" fill="#E54369"/>
<rect x="440" y="1980" width="110" height="110" fill="#B62850"/>
<rect x="440" y="1870" width="110" height="110" fill="#E54369"/>
<rect x="440" y="1760" width="110" height="110" fill="#E54369"/>
<rect x="440" y="1650" width="110" height="110" fill="#E54369"/>
<rect x="440" y="1540" width="110" height="110" fill="#E54369"/>
<rect x="440" y="1430" width="110" height="110" fill="#E54369"/>
<rect x="550" y="1430" width="110" height="110" fill="#E54369"/>
<rect x="660" y="1430" width="110" height="110" fill="#E54369"/>
<rect x="770" y="1430" width="110" height="110" fill="#E54369"/>
<rect x="990" y="1430" width="110" height="110" fill="#E54369"/>
<rect x="770" y="1980" width="110" height="110" fill="#B62850"/>
<rect x="770" y="1870" width="110" height="110" fill="#E54369"/>
<rect x="770" y="1760" width="110" height="110" fill="#E54369"/>
<rect x="770" y="1650" width="110" height="110" fill="#E54369"/>
<rect x="770" y="1540" width="110" height="110" fill="#E54369"/>
<rect x="880" y="1540" width="110" height="110" fill="#E54369"/>
<rect x="550" y="1980" width="110" height="110" fill="#B62850"/>
<rect x="550" y="1870" width="110" height="110" fill="#E54369"/>
<rect x="550" y="1760" width="110" height="110" fill="#E54369"/>
<rect x="550" y="1650" width="110" height="110" fill="#E54369"/>
<rect x="880" y="1980" width="110" height="110" fill="#B62850"/>
<rect x="880" y="1870" width="110" height="110" fill="#E54369"/>
<rect x="880" y="1760" width="110" height="110" fill="#E54369"/>
<rect x="880" y="1650" width="110" height="110" fill="#E54369"/>
<rect x="660" y="1980" width="110" height="110" fill="#B62850"/>
<rect x="660" y="1870" width="110" height="110" fill="#E54369"/>
<rect x="660" y="1760" width="110" height="110" fill="#E54369"/>
<rect x="660" y="1650" width="110" height="110" fill="#E54369"/>
<rect x="660" y="1540" width="110" height="110" fill="#E54369"/>
<rect x="990" y="1980" width="110" height="110" fill="#B62850"/>
<rect x="990" y="1870" width="110" height="110" fill="#B62850"/>
<rect x="990" y="1760" width="110" height="110" fill="#E54369"/>
<rect x="990" y="1650" width="110" height="110" fill="#E54369"/>
<rect x="990" y="1540" width="110" height="110" fill="#E54369"/>
<rect x="1100" y="1980" width="110" height="110" fill="#B62850"/>
<rect x="1100" y="1870" width="110" height="110" fill="#B62850"/>
<rect x="1100" y="1760" width="110" height="110" fill="#B62850"/>
<rect x="1100" y="1650" width="110" height="110" fill="#B62850"/>
<rect width="110" height="110" transform="matrix(-1 0 0 1 1320 1870)" fill="#B62850"/>
<rect x="330" y="1540" width="110" height="110" fill="#FBF0FD"/>
<rect width="110" height="110" transform="matrix(-1 0 0 1 1320 1540)" fill="#B62850"/>
<rect x="110" y="1320" width="110" height="110" fill="#F09BB9"/>
<rect width="110" height="110" transform="matrix(-1 0 0 1 1540 1320)" fill="#F09BB9"/>
<rect x="440" y="1320" width="110" height="110" fill="#F09BB9"/>
<rect x="660" y="1320" width="110" height="110" fill="#F09BB9"/>
<rect x="880" y="1320" width="110" height="110" fill="#F09BB9"/>
<rect width="110" height="110" transform="matrix(-1 0 0 1 1210 1320)" fill="#F09BB9"/>
<rect x="110" y="1430" width="110" height="110" fill="#B62850"/>
<rect width="110" height="110" transform="matrix(-1 0 0 1 1540 1430)" fill="#B62850"/>
<rect width="110" height="110" transform="matrix(-1 0 0 1 1210 1430)" fill="#E54369"/>
<rect x="110" y="1540" width="110" height="110" fill="#B62850"/>
<rect width="110" height="110" transform="matrix(-1 0 0 1 1540 1540)" fill="#B62850"/>
<rect width="110" height="110" transform="matrix(-1 0 0 1 1210 1540)" fill="#B62850"/>
<rect x="220" y="1100" width="110" height="110" fill="#040529"/>
<rect width="110" height="110" transform="matrix(-1 0 0 1 1430 1100)" fill="#040529"/>
<rect x="110" y="1210" width="110" height="110" fill="#040529"/>
<rect width="110" height="110" transform="matrix(-1 0 0 1 1540 1210)" fill="#040529"/>
<rect y="1320" width="110" height="110" fill="#040529"/>
<rect width="110" height="110" transform="matrix(-1 0 0 1 1650 1320)" fill="#040529"/>
<rect y="1540" width="110" height="110" fill="#040529"/>
<rect width="110" height="110" transform="matrix(-1 0 0 1 1650 1540)" fill="#040529"/>
<rect y="1430" width="110" height="110" fill="#040529"/>
<rect width="110" height="110" transform="matrix(-1 0 0 1 1650 1430)" fill="#040529"/>
<rect x="110" y="1650" width="110" height="110" fill="#040529"/>
<rect width="110" height="110" transform="matrix(-1 0 0 1 1540 1650)" fill="#040529"/>
<rect x="110" y="1760" width="110" height="110" fill="#040529"/>
<rect width="110" height="110" transform="matrix(-1 0 0 1 1540 1760)" fill="#040529"/>
<rect x="220" y="1870" width="110" height="110" fill="#040529"/>
<rect width="110" height="110" transform="matrix(-1 0 0 1 1430 1870)" fill="#040529"/>
<rect x="330" y="1980" width="110" height="110" fill="#040529"/>
<rect width="110" height="110" transform="matrix(-1 0 0 1 1320 1980)" fill="#040529"/>
<rect x="220" y="1980" width="110" height="110" fill="#040529"/>
<rect width="110" height="110" transform="matrix(-1 0 0 1 1430 1980)" fill="#040529"/>
<rect x="440" y="2090" width="110" height="110" fill="#040529"/>
<rect width="110" height="110" transform="matrix(-1 0 0 1 1210 2090)" fill="#040529"/>
<rect x="660" y="2090" width="110" height="110" fill="#040529"/>
<rect x="880" y="2090" width="110" height="110" fill="#040529"/>
<rect x="550" y="2090" width="110" height="110" fill="#040529"/>
<rect x="770" y="2090" width="110" height="110" fill="#040529"/>
<rect x="990" y="2090" width="110" height="110" fill="#040529"/>
</svg>
