<svg width="110" height="82" viewBox="0 0 110 82" fill="none" xmlns="http://www.w3.org/2000/svg">
<rect x="68.75" y="13.6667" width="13.75" height="13.6667" fill="#7B79F7"/>
<rect x="82.5" y="13.6667" width="13.75" height="13.6667" fill="#7B79F7"/>
<rect x="68.75" width="13.75" height="13.6667" fill="#7B79F7"/>
<rect x="41.25" y="13.6667" width="13.75" height="13.6667" fill="#7B79F7"/>
<rect x="41.25" width="13.75" height="13.6667" fill="#7B79F7"/>
<rect x="55" y="13.6667" width="13.75" height="13.6667" fill="#7B79F7"/>
<rect x="55" y="27.3333" width="13.75" height="13.6667" fill="#7B79F7"/>
<rect x="55" width="13.75" height="13.6667" fill="#7B79F7"/>
<rect x="27.5" y="13.6667" width="13.75" height="13.6667" fill="#7B79F7"/>
<rect x="13.75" y="13.6667" width="13.75" height="13.6667" fill="#7B79F7"/>
<rect x="13.75" width="13.75" height="13.6667" fill="#7B79F7"/>
<rect y="13.6667" width="13.75" height="13.6667" fill="#7B79F7"/>
<rect x="27.5" width="13.75" height="13.6667" fill="#7B79F7"/>
<rect x="13.75" y="27.3333" width="13.75" height="13.6667" fill="#7B79F7"/>
<rect y="27.3333" width="13.75" height="13.6667" fill="#7B79F7"/>
<rect x="13.75" y="41" width="13.75" height="13.6667" fill="#7B79F7"/>
<rect y="41" width="13.75" height="13.6667" fill="#7B79F7"/>
<rect y="54.6667" width="13.75" height="13.6667" fill="#221B47"/>
<rect x="13.75" y="54.6667" width="13.75" height="13.6667" fill="#221B47"/>
<rect x="13.75" y="68.3333" width="13.75" height="13.6667" fill="#221B47"/>
<rect x="27.5" y="27.3333" width="13.75" height="13.6667" fill="#221B47"/>
<rect x="41.25" y="27.3333" width="13.75" height="13.6667" fill="#221B47"/>
<rect x="41.25" y="13.6667" width="13.75" height="13.6667" fill="#221B47"/>
<rect x="68.75" y="27.3333" width="13.75" height="13.6667" fill="#221B47"/>
<rect x="27.5" y="41" width="13.75" height="13.6667" fill="#7B79F7"/>
<rect x="41.25" y="41" width="13.75" height="13.6667" fill="#7B79F7"/>
<rect x="41.25" y="54.6667" width="13.75" height="13.6667" fill="#7B79F7"/>
<rect x="55" y="41" width="13.75" height="13.6667" fill="#7B79F7"/>
<rect x="68.75" y="41" width="13.75" height="13.6667" fill="#7B79F7"/>
<rect x="68.75" y="54.6667" width="13.75" height="13.6667" fill="#7B79F7"/>
<rect x="82.5" y="41" width="13.75" height="13.6667" fill="#7B79F7"/>
<rect x="96.25" y="41" width="13.75" height="13.6667" fill="#7B79F7"/>
<rect x="96.25" y="54.6667" width="13.75" height="13.6667" fill="#221B47"/>
<rect x="27.5" y="54.6667" width="13.75" height="13.6667" fill="#7B79F7"/>
<rect x="27.5" y="68.3333" width="13.75" height="13.6667" fill="#7B79F7"/>
<rect x="55" y="54.6667" width="13.75" height="13.6667" fill="#7B79F7"/>
<rect x="55" y="68.3333" width="13.75" height="13.6667" fill="#7B79F7"/>
<rect x="82.5" y="68.3333" width="13.75" height="13.6667" fill="#7B79F7"/>
<rect x="82.5" y="54.6667" width="13.75" height="13.6667" fill="#7B79F7"/>
</svg>
