<svg width="180" height="133" viewBox="0 0 180 133" fill="none" xmlns="http://www.w3.org/2000/svg">
<rect x="48" y="12.0059" width="12" height="12.0059" fill="#7B79F7"/>
<rect x="48" width="12" height="12.0059" fill="#7B79F7"/>
<rect x="48" y="48.0237" width="12" height="12.0059" fill="#2624D0"/>
<rect x="48" y="84.0415" width="12" height="12.0059" fill="#7B79F7"/>
<rect x="48" y="24.0118" width="12" height="12.0059" fill="#7B79F7"/>
<rect x="48" y="60.0297" width="12" height="12.0059" fill="#7B79F7"/>
<rect x="48" y="96.0474" width="12" height="12.0059" fill="#7B79F7"/>
<rect x="48" y="36.0178" width="12" height="12.0059" fill="#7B79F7"/>
<rect x="48" y="72.0356" width="12" height="12.0059" fill="#7B79F7"/>
<rect x="48" y="108.053" width="12" height="12.0059" fill="#7B79F7"/>
<rect x="72" y="12.0059" width="12" height="12.0059" fill="#7B79F7"/>
<rect x="84" y="12.0059" width="11.9999" height="12.0059" fill="#7B79F7"/>
<rect x="72" width="12" height="12.0059" fill="#7B79F7"/>
<rect x="84" width="11.9999" height="12.0059" fill="#7B79F7"/>
<rect x="72" y="48.0237" width="12" height="12.0059" fill="#2624D0"/>
<rect x="84" y="48.0237" width="11.9999" height="12.0059" fill="#2624D0"/>
<rect x="72" y="84.0415" width="12" height="12.0059" fill="#7B79F7"/>
<rect x="84" y="84.0415" width="11.9999" height="12.0059" fill="#7B79F7"/>
<rect x="72" y="24.0118" width="12" height="12.0059" fill="#7B79F7"/>
<rect x="84" y="24.0118" width="11.9999" height="12.0059" fill="#7B79F7"/>
<rect x="72" y="60.0297" width="12" height="12.0059" fill="#7B79F7"/>
<rect x="84" y="60.0297" width="11.9999" height="12.0059" fill="#2624D0"/>
<rect x="72" y="96.0474" width="12" height="12.0059" fill="#7B79F7"/>
<rect x="84" y="96.0474" width="11.9999" height="12.0059" fill="#7B79F7"/>
<rect x="72" y="36.0178" width="12" height="12.0059" fill="#7B79F7"/>
<rect x="84" y="36.0178" width="11.9999" height="12.0059" fill="#2624D0"/>
<rect x="72" y="72.0356" width="12" height="12.0059" fill="#7B79F7"/>
<rect x="84" y="72.0356" width="11.9999" height="12.0059" fill="#7B79F7"/>
<rect x="72" y="108.053" width="12" height="12.0059" fill="#7B79F7"/>
<rect x="84" y="108.053" width="11.9999" height="12.0059" fill="#7B79F7"/>
<rect x="108" y="12.0059" width="12.0001" height="12.0059" fill="#7B79F7"/>
<rect x="108" width="12.0001" height="12.0059" fill="#7B79F7"/>
<rect x="12" y="12.0059" width="12" height="12.0059" fill="#7B79F7"/>
<rect x="108" y="48.0237" width="12.0001" height="12.0059" fill="#2624D0"/>
<rect x="156" y="48.0237" width="12" height="12.0059" fill="#2624D0"/>
<rect x="12" y="48.0237" width="12" height="12.0059" fill="#2624D0"/>
<rect x="108" y="84.0415" width="12.0001" height="12.0059" fill="#7B79F7"/>
<rect x="12" y="84.0415" width="12" height="12.0059" fill="#7B79F7"/>
<rect x="108" y="24.0118" width="12.0001" height="12.0059" fill="#7B79F7"/>
<rect x="12" y="24.0118" width="12" height="12.0059" fill="#7B79F7"/>
<rect x="108" y="60.0297" width="12.0001" height="12.0059" fill="#7B79F7"/>
<rect x="12" y="60.0297" width="12" height="12.0059" fill="#7B79F7"/>
<rect x="108" y="96.0474" width="12.0001" height="12.0059" fill="#7B79F7"/>
<rect x="12" y="96.0474" width="12" height="12.0059" fill="#7B79F7"/>
<rect x="108" y="36.0178" width="12.0001" height="12.0059" fill="#7B79F7"/>
<rect x="12" y="36.0178" width="12" height="12.0059" fill="#7B79F7"/>
<rect x="108" y="72.0356" width="12.0001" height="12.0059" fill="#7B79F7"/>
<rect x="12" y="72.0356" width="12" height="12.0059" fill="#7B79F7"/>
<rect x="108" y="108.053" width="12.0001" height="12.0059" fill="#7B79F7"/>
<rect x="12" y="108.053" width="12" height="12.0059" fill="#7B79F7"/>
<rect x="12" y="120.059" width="12" height="12.0059" fill="#7B79F7"/>
<rect x="156" y="120.059" width="12" height="12.0059" fill="#7B79F7"/>
<rect x="60" y="12.0059" width="12" height="12.0059" fill="#7B79F7"/>
<rect x="60" width="12" height="12.0059" fill="#7B79F7"/>
<rect x="60" y="48.0237" width="12" height="12.0059" fill="#2624D0"/>
<rect x="60" y="84.0415" width="12" height="12.0059" fill="#7B79F7"/>
<rect x="60" y="24.0118" width="12" height="12.0059" fill="#7B79F7"/>
<rect x="60" y="60.0297" width="12" height="12.0059" fill="#7B79F7"/>
<rect x="60" y="96.0474" width="12" height="12.0059" fill="#7B79F7"/>
<rect x="60" y="36.0178" width="12" height="12.0059" fill="#7B79F7"/>
<rect x="60" y="72.0356" width="12" height="12.0059" fill="#7B79F7"/>
<rect x="60" y="108.053" width="12" height="12.0059" fill="#7B79F7"/>
<rect x="96" y="12.0059" width="12" height="12.0059" fill="#7B79F7"/>
<rect x="96" width="12" height="12.0059" fill="#7B79F7"/>
<rect y="12.0059" width="12" height="12.0059" fill="#7B79F7"/>
<rect x="96" y="48.0237" width="12" height="12.0059" fill="#2624D0"/>
<rect x="144" y="48.0237" width="12" height="12.0059" fill="#2624D0"/>
<rect x="96" y="84.0415" width="12" height="12.0059" fill="#7B79F7"/>
<rect y="84.0415" width="12" height="12.0059" fill="#7B79F7"/>
<rect x="96" y="24.0118" width="12" height="12.0059" fill="#7B79F7"/>
<rect y="24.0118" width="12" height="12.0059" fill="#7B79F7"/>
<rect x="96" y="60.0297" width="12" height="12.0059" fill="#7B79F7"/>
<rect y="60.0297" width="12" height="12.0059" fill="#7B79F7"/>
<rect x="96" y="96.0474" width="12" height="12.0059" fill="#7B79F7"/>
<rect y="96.0474" width="12" height="12.0059" fill="#7B79F7"/>
<rect x="96" y="36.0178" width="12" height="12.0059" fill="#7B79F7"/>
<rect y="36.0178" width="12" height="12.0059" fill="#7B79F7"/>
<rect x="96" y="72.0356" width="12" height="12.0059" fill="#7B79F7"/>
<rect y="72.0356" width="12" height="12.0059" fill="#7B79F7"/>
<rect x="96" y="108.053" width="12" height="12.0059" fill="#7B79F7"/>
<rect y="108.053" width="12" height="12.0059" fill="#7B79F7"/>
<rect x="120" y="12.0059" width="12" height="12.0059" fill="#7B79F7"/>
<rect x="120" width="12" height="12.0059" fill="#7B79F7"/>
<rect x="24" y="12.0059" width="12" height="12.0059" fill="#7B79F7"/>
<rect x="132" y="12.0059" width="12" height="12.0059" fill="#2624D0"/>
<rect x="36" y="12.0059" width="12" height="12.0059" fill="#2624D0"/>
<rect x="120" y="48.0237" width="12" height="12.0059" fill="#2624D0"/>
<rect x="24" y="48.0237" width="12" height="12.0059" fill="#2624D0"/>
<rect x="132" y="48.0237" width="12" height="12.0059" fill="#2624D0"/>
<rect x="36" y="48.0237" width="12" height="12.0059" fill="#2624D0"/>
<rect x="120" y="84.0415" width="12" height="12.0059" fill="#7B79F7"/>
<rect x="24" y="84.0415" width="12" height="12.0059" fill="#7B79F7"/>
<rect x="36" y="84.0415" width="12" height="12.0059" fill="#2624D0"/>
<rect x="120" y="24.0118" width="12" height="12.0059" fill="#7B79F7"/>
<rect x="24" y="24.0118" width="12" height="12.0059" fill="#7B79F7"/>
<rect x="132" y="24.0118" width="12" height="12.0059" fill="#2624D0"/>
<rect x="36" y="24.0118" width="12" height="12.0059" fill="#2624D0"/>
<rect x="120" y="60.0297" width="12" height="12.0059" fill="#7B79F7"/>
<rect x="24" y="60.0297" width="12" height="12.0059" fill="#7B79F7"/>
<rect x="36" y="60.0297" width="12" height="12.0059" fill="#2624D0"/>
<rect x="120" y="96.0474" width="12" height="12.0059" fill="#7B79F7"/>
<rect x="24" y="96.0474" width="12" height="12.0059" fill="#7B79F7"/>
<rect x="36" y="96.0474" width="12" height="12.0059" fill="#2624D0"/>
<rect x="120" y="36.0178" width="12" height="12.0059" fill="#7B79F7"/>
<rect x="156" y="12.0059" width="12" height="12.0059" fill="#7B79F7"/>
<rect x="156" y="24.0118" width="12" height="12.0059" fill="#7B79F7"/>
<rect x="156" y="36.0178" width="12" height="12.0059" fill="#7B79F7"/>
<rect x="144" y="12.0059" width="12" height="12.0059" fill="#7B79F7"/>
<rect x="144" y="24.0118" width="12" height="12.0059" fill="#7B79F7"/>
<rect x="144" y="36.0178" width="12" height="12.0059" fill="#7B79F7"/>
<rect x="168" y="12.0059" width="12" height="12.0059" fill="#7B79F7"/>
<rect x="168" y="24.0118" width="12" height="12.0059" fill="#7B79F7"/>
<rect x="168" y="36.0178" width="12" height="12.0059" fill="#7B79F7"/>
<rect x="24" y="36.0178" width="12" height="12.0059" fill="#7B79F7"/>
<rect x="132" y="36.0178" width="12" height="12.0059" fill="#2624D0"/>
<rect x="36" y="36.0178" width="12" height="12.0059" fill="#2624D0"/>
<rect x="120" y="72.0356" width="12" height="12.0059" fill="#7B79F7"/>
<rect x="24" y="72.0356" width="12" height="12.0059" fill="#7B79F7"/>
<rect x="36" y="72.0356" width="12" height="12.0059" fill="#2624D0"/>
<rect x="120" y="108.053" width="12" height="12.0059" fill="#7B79F7"/>
<rect x="24" y="108.053" width="12" height="12.0059" fill="#7B79F7"/>
<rect x="150" y="24.0118" width="4" height="4.00859" fill="#FED955"/>
<rect x="150" y="28.0204" width="4" height="4.00859" fill="#FED955"/>
<rect x="150" y="32.029" width="4" height="4.00859" fill="#FED955"/>
<rect x="150" y="40.0463" width="4" height="4.00859" fill="#FED955"/>
<rect x="154" y="40.0463" width="4" height="4.00859" fill="#FED955"/>
<rect x="150" y="44.0548" width="4" height="4.00858" fill="#FED955"/>
<rect x="154" y="44.0548" width="4" height="4.00858" fill="#FED955"/>
<rect x="150" y="48.0634" width="4" height="4.00859" fill="#FED955"/>
<rect x="154" y="48.0634" width="4" height="4.00859" fill="#FED955"/>
<rect x="150" y="52.072" width="4" height="4.00859" fill="#FED955"/>
<rect x="154" y="52.072" width="4" height="4.00859" fill="#FED955"/>
<rect x="146" y="28.0204" width="4.00001" height="4.00859" fill="#FED955"/>
<rect x="146" y="32.029" width="4.00001" height="4.00859" fill="#FED955"/>
<rect x="146" y="36.0375" width="4.00001" height="4.00859" fill="#FED955"/>
<rect x="142" y="28.0204" width="4" height="4.00859" fill="#FED955"/>
<rect x="142" y="32.029" width="4" height="4.00859" fill="#FED955"/>
<rect x="138" y="36.0375" width="4" height="4.00859" fill="#FED955"/>
<rect x="138" y="44.0548" width="4" height="4.00858" fill="#FED955"/>
<rect x="138" y="52.072" width="4" height="4.00859" fill="#FED955"/>
<rect x="138" y="40.0463" width="4" height="4.00859" fill="#FED955"/>
<rect x="138" y="48.0634" width="4" height="4.00859" fill="#FED955"/>
<rect x="142" y="36.0375" width="4" height="4.00859" fill="#FED955"/>
<rect x="142" y="44.0548" width="4" height="4.00858" fill="#FED955"/>
<rect x="160" y="44.0548" width="4" height="4.00858" fill="#FED955"/>
<rect x="164" y="44.0548" width="3.99999" height="4.00858" fill="#FED955"/>
<rect x="142" y="52.072" width="4" height="4.00859" fill="#FED955"/>
<rect x="160" y="52.072" width="4" height="4.00859" fill="#FED955"/>
<rect x="164" y="52.072" width="3.99999" height="4.00859" fill="#FED955"/>
<rect x="142" y="40.0463" width="4" height="4.00859" fill="#FED955"/>
<rect x="160" y="40.0463" width="4" height="4.00859" fill="#FED955"/>
<rect x="158" y="36.0375" width="4" height="4.00859" fill="#FED955"/>
<rect x="162" y="36.0375" width="4" height="4.00859" fill="#FED955"/>
<rect x="164" y="40.0463" width="3.99999" height="4.00859" fill="#FED955"/>
<rect x="142" y="48.0634" width="4" height="4.00859" fill="#FED955"/>
<rect x="160" y="48.0634" width="4" height="4.00859" fill="#FED955"/>
<rect x="164" y="48.0634" width="3.99999" height="4.00859" fill="#FED955"/>
<rect x="142" y="56.0806" width="4" height="4.00859" fill="#FED955"/>
<rect x="142" y="60.0892" width="4" height="4.00859" fill="#FED955"/>
<rect x="150" y="60.0892" width="4" height="4.00859" fill="#FED955"/>
<rect x="150" y="64.0978" width="4" height="4.00859" fill="#FED955"/>
<rect x="146" y="56.0806" width="4.00001" height="4.00859" fill="#FED955"/>
<rect x="146" y="60.0892" width="4.00001" height="4.00859" fill="#FED955"/>
<rect x="146" y="64.0978" width="4.00001" height="4.00859" fill="#FED955"/>
<rect x="154" y="60.0892" width="4" height="4.00859" fill="#FED955"/>
<rect x="154" y="64.0978" width="4" height="4.00859" fill="#FED955"/>
<rect x="158" y="60.0892" width="4" height="4.00859" fill="#FED955"/>
<rect x="158" y="56.0806" width="4" height="4.00859" fill="#FED955"/>
<rect x="162" y="56.0806" width="4" height="4.00859" fill="#FED955"/>
<rect x="150" y="56.0806" width="4" height="4.00859" fill="#FDEB95"/>
<rect x="154" y="56.0806" width="4" height="4.00859" fill="#FDEB95"/>
<rect x="154" y="24.0118" width="4" height="4.00859" fill="#FED955"/>
<rect x="158" y="24.0118" width="4" height="4.00859" fill="#FED955"/>
<rect x="162" y="24.0118" width="4" height="4.00859" fill="#C4925C"/>
<rect x="158" y="28.0204" width="4" height="4.00859" fill="#FDEB95"/>
<rect x="154" y="28.0204" width="4" height="4.00859" fill="#FDEB95"/>
<rect x="154" y="32.029" width="4" height="4.00859" fill="#FDEB95"/>
<rect x="162" y="28.0204" width="4" height="4.00859" fill="#C4925C"/>
<rect x="158" y="32.029" width="4" height="4.00859" fill="#FDEB95"/>
<rect x="154" y="36.0375" width="4" height="4.00859" fill="#C4925C"/>
<rect x="150" y="36.0375" width="4" height="4.00859" fill="#C4925C"/>
<rect x="146" y="40.0463" width="4.00001" height="4.00859" fill="#C4925C"/>
<rect x="158" y="40.0463" width="4" height="4.00859" fill="#FDEB95"/>
<rect x="146" y="44.0548" width="4.00001" height="4.00858" fill="#C4925C"/>
<rect x="158" y="44.0548" width="4" height="4.00858" fill="#FDEB95"/>
<rect x="146" y="48.0634" width="4.00001" height="4.00859" fill="#C4925C"/>
<rect x="158" y="48.0634" width="4" height="4.00859" fill="#FDEB95"/>
<rect x="146" y="52.072" width="4.00001" height="4.00859" fill="#C4925C"/>
<rect x="158" y="52.072" width="4" height="4.00859" fill="#FDEB95"/>
<rect x="166" y="28.0204" width="4" height="4.00859" fill="#C4925C"/>
<rect x="166" y="36.0375" width="4" height="4.00859" fill="#C4925C"/>
<rect x="166" y="40.0463" width="4" height="4.00859" fill="#C4925C"/>
<rect x="170" y="40.0463" width="4" height="4.00859" fill="#C4925C"/>
<rect x="170" y="48.0634" width="4" height="4.00859" fill="#C4925C"/>
<rect x="168" y="44.0548" width="4" height="4.00858" fill="#C4925C"/>
<rect x="168" y="48.0634" width="4" height="4.00859" fill="#C4925C"/>
<rect x="168" y="52.072" width="4" height="4.00859" fill="#C4925C"/>
<rect x="166" y="56.0806" width="4" height="4.00859" fill="#C4925C"/>
<rect x="166" y="60.0892" width="4" height="4.00859" fill="#C4925C"/>
<rect x="162" y="60.0892" width="4" height="4.00859" fill="#C4925C"/>
<rect x="162" y="64.0978" width="4" height="4.00859" fill="#C4925C"/>
<rect x="158" y="64.0978" width="4" height="4.00859" fill="#C4925C"/>
<rect x="170" y="36.0375" width="4" height="4.00859" fill="#C4925C"/>
<rect x="170" y="44.0548" width="4" height="4.00858" fill="#C4925C"/>
<rect x="162" y="32.029" width="4" height="4.00859" fill="#C4925C"/>
<rect x="166" y="32.029" width="4" height="4.00859" fill="#C4925C"/>
<rect x="166" y="40.0463" width="4" height="4.00859" fill="#C4925C"/>
<rect x="156" y="84.0415" width="12" height="12.0059" fill="#7B79F7"/>
<rect x="156" y="60.0297" width="12" height="12.0059" fill="#7B79F7"/>
<rect x="156" y="96.0475" width="12" height="12.0059" fill="#7B79F7"/>
<rect x="156" y="72.0356" width="12" height="12.0059" fill="#7B79F7"/>
<rect x="156" y="108.053" width="12" height="12.0059" fill="#7B79F7"/>
<rect x="144" y="84.0415" width="12" height="12.0059" fill="#7B79F7"/>
<rect x="144" y="60.0297" width="12" height="12.0059" fill="#7B79F7"/>
<rect x="144" y="96.0475" width="12" height="12.0059" fill="#7B79F7"/>
<rect x="144" y="72.0356" width="12" height="12.0059" fill="#7B79F7"/>
<rect x="144" y="108.053" width="12" height="12.0059" fill="#7B79F7"/>
<rect x="168" y="84.0415" width="12" height="12.0059" fill="#7B79F7"/>
<rect x="132" y="84.0415" width="12" height="12.0059" fill="#2624D0"/>
<rect x="168" y="60.0297" width="12" height="12.0059" fill="#7B79F7"/>
<rect x="132" y="60.0297" width="12" height="12.0059" fill="#2624D0"/>
<rect x="168" y="96.0475" width="12" height="12.0059" fill="#7B79F7"/>
<rect x="132" y="96.0475" width="12" height="12.0059" fill="#2624D0"/>
<rect x="168" y="72.0356" width="12" height="12.0059" fill="#7B79F7"/>
<rect x="132" y="72.0356" width="12" height="12.0059" fill="#2624D0"/>
<rect x="168" y="108.053" width="12" height="12.0059" fill="#7B79F7"/>
<rect x="132" y="108.053" width="12" height="12.0059" fill="#2624D0"/>
<rect x="36" y="108.053" width="12" height="12.0059" fill="#2624D0"/>
</svg>
