<svg width="990" height="1210" viewBox="0 0 990 1210" fill="none" xmlns="http://www.w3.org/2000/svg">
<rect x="330" width="110" height="110" fill="#FED955"/>
<rect x="330" y="110" width="110" height="110" fill="#FED955"/>
<rect x="330" y="220" width="110" height="110" fill="#FED955"/>
<rect x="330" y="440" width="110" height="110" fill="#FED955"/>
<rect x="440" y="440" width="110" height="110" fill="#FED955"/>
<rect x="330" y="550" width="110" height="110" fill="#FED955"/>
<rect x="440" y="550" width="110" height="110" fill="#FED955"/>
<rect x="330" y="660" width="110" height="110" fill="#FED955"/>
<rect x="440" y="660" width="110" height="110" fill="#FED955"/>
<rect x="330" y="770" width="110" height="110" fill="#FED955"/>
<rect x="440" y="770" width="110" height="110" fill="#FED955"/>
<rect x="220" y="110" width="110" height="110" fill="#FED955"/>
<rect x="220" y="220" width="110" height="110" fill="#FED955"/>
<rect x="220" y="330" width="110" height="110" fill="#FED955"/>
<rect x="110" y="110" width="110" height="110" fill="#FED955"/>
<rect x="110" y="220" width="110" height="110" fill="#FED955"/>
<rect y="330" width="110" height="110" fill="#FED955"/>
<rect y="550" width="110" height="110" fill="#FED955"/>
<rect y="770" width="110" height="110" fill="#FED955"/>
<rect y="440" width="110" height="110" fill="#FED955"/>
<rect y="660" width="110" height="110" fill="#FED955"/>
<rect x="110" y="330" width="110" height="110" fill="#FED955"/>
<rect x="110" y="550" width="110" height="110" fill="#FED955"/>
<rect x="605" y="550" width="110" height="110" fill="#FED955"/>
<rect x="715" y="550" width="110" height="110" fill="#FED955"/>
<rect x="110" y="770" width="110" height="110" fill="#FED955"/>
<rect x="605" y="770" width="110" height="110" fill="#FED955"/>
<rect x="715" y="770" width="110" height="110" fill="#FED955"/>
<rect x="110" y="440" width="110" height="110" fill="#FED955"/>
<rect x="605" y="440" width="110" height="110" fill="#FED955"/>
<rect x="550" y="330" width="110" height="110" fill="#FED955"/>
<rect x="660" y="330" width="110" height="110" fill="#FED955"/>
<rect x="715" y="440" width="110" height="110" fill="#FED955"/>
<rect x="110" y="660" width="110" height="110" fill="#FED955"/>
<rect x="605" y="660" width="110" height="110" fill="#FED955"/>
<rect x="715" y="660" width="110" height="110" fill="#FED955"/>
<rect x="110" y="880" width="110" height="110" fill="#FED955"/>
<rect x="110" y="990" width="110" height="110" fill="#FED955"/>
<rect x="330" y="990" width="110" height="110" fill="#FED955"/>
<rect x="330" y="1100" width="110" height="110" fill="#FED955"/>
<rect x="220" y="880" width="110" height="110" fill="#FED955"/>
<rect x="220" y="990" width="110" height="110" fill="#FED955"/>
<rect x="220" y="1100" width="110" height="110" fill="#FED955"/>
<rect x="440" y="990" width="110" height="110" fill="#FED955"/>
<rect x="440" y="1100" width="110" height="110" fill="#FED955"/>
<rect x="550" y="990" width="110" height="110" fill="#FED955"/>
<rect x="550" y="880" width="110" height="110" fill="#FED955"/>
<rect x="660" y="880" width="110" height="110" fill="#FED955"/>
<rect x="330" y="880" width="110" height="110" fill="#FDEB95"/>
<rect x="440" y="880" width="110" height="110" fill="#FDEB95"/>
<rect x="440" width="110" height="110" fill="#FED955"/>
<rect x="550" width="110" height="110" fill="#FED955"/>
<rect x="660" width="110" height="110" fill="#C4925C"/>
<rect x="550" y="110" width="110" height="110" fill="#FDEB95"/>
<rect x="440" y="110" width="110" height="110" fill="#FDEB95"/>
<rect x="440" y="220" width="110" height="110" fill="#FDEB95"/>
<rect x="660" y="110" width="110" height="110" fill="#C4925C"/>
<rect x="550" y="220" width="110" height="110" fill="#FDEB95"/>
<rect x="440" y="330" width="110" height="110" fill="#C4925C"/>
<rect x="330" y="330" width="110" height="110" fill="#C4925C"/>
<rect x="220" y="440" width="110" height="110" fill="#C4925C"/>
<rect x="550" y="440" width="110" height="110" fill="#FDEB95"/>
<rect x="220" y="550" width="110" height="110" fill="#C4925C"/>
<rect x="550" y="550" width="110" height="110" fill="#FDEB95"/>
<rect x="220" y="660" width="110" height="110" fill="#C4925C"/>
<rect x="550" y="660" width="110" height="110" fill="#FDEB95"/>
<rect x="220" y="770" width="110" height="110" fill="#C4925C"/>
<rect x="550" y="770" width="110" height="110" fill="#FDEB95"/>
<rect x="770" y="110" width="110" height="110" fill="#C4925C"/>
<rect x="770" y="330" width="110" height="110" fill="#C4925C"/>
<rect x="770" y="440" width="110" height="110" fill="#C4925C"/>
<rect x="880" y="440" width="110" height="110" fill="#C4925C"/>
<rect x="880" y="660" width="110" height="110" fill="#C4925C"/>
<rect x="825" y="550" width="110" height="110" fill="#C4925C"/>
<rect x="825" y="660" width="110" height="110" fill="#C4925C"/>
<rect x="825" y="770" width="110" height="110" fill="#C4925C"/>
<rect x="770" y="880" width="110" height="110" fill="#C4925C"/>
<rect x="770" y="990" width="110" height="110" fill="#C4925C"/>
<rect x="660" y="990" width="110" height="110" fill="#C4925C"/>
<rect x="660" y="1100" width="110" height="110" fill="#C4925C"/>
<rect x="550" y="1100" width="110" height="110" fill="#C4925C"/>
<rect x="880" y="330" width="110" height="110" fill="#C4925C"/>
<rect x="880" y="550" width="110" height="110" fill="#C4925C"/>
<rect x="660" y="220" width="110" height="110" fill="#C4925C"/>
<rect x="770" y="220" width="110" height="110" fill="#C4925C"/>
<rect x="770" y="440" width="110" height="110" fill="#C4925C"/>
</svg>
