<svg width="35" height="42" viewBox="0 0 35 42" fill="none" xmlns="http://www.w3.org/2000/svg">
<path fill-rule="evenodd" clip-rule="evenodd" d="M7.79481 0.924152C7.71186 0.971472 7.70192 1.07755 7.70126 1.92359C7.7002 3.12427 7.8213 3.00961 6.57501 2.99011C6.00446 2.98127 5.53952 2.98569 5.54177 2.99999C5.54403 3.01429 5.53038 3.06109 5.5113 3.10399C5.49235 3.14689 5.47062 3.62659 5.4632 4.16999L5.44955 5.15799L4.44255 5.17138C3.8887 5.17866 3.39978 5.19998 3.35605 5.21857C3.31233 5.23729 3.2645 5.25068 3.24992 5.24847C3.18341 5.23859 3.23137 11.5366 3.29815 11.577C3.57627 11.7457 33.8719 11.7409 34.0792 11.5722C34.1324 11.5289 34.1491 11.2892 34.1491 10.5712C34.1491 9.34413 34.2482 9.43629 32.9527 9.45787C32.1775 9.47061 31.9716 9.45982 31.9501 9.40471C31.9352 9.36661 31.9231 8.92085 31.9231 8.41411C31.9231 7.76684 31.9041 7.47421 31.8595 7.4304C31.8114 7.3832 31.0173 7.368 28.6106 7.368C26.2038 7.368 25.4098 7.35278 25.3617 7.30559C25.3144 7.25918 25.2978 6.71591 25.2973 5.18659C25.2969 4.05546 25.2778 3.10126 25.2551 3.06616C25.2253 3.02014 24.9273 2.9983 24.1872 2.98816L23.1606 2.97399L23.1732 1.99444C23.1847 1.09913 23.1775 1.00891 23.0891 0.943133C22.9672 0.852523 7.95288 0.833802 7.79481 0.924152ZM13.4658 2.26965C13.6363 2.27199 13.6381 2.27446 13.6381 2.5264C13.6381 2.80668 13.6786 2.84399 13.9839 2.84399C14.1555 2.84399 14.1625 2.85205 14.1783 3.06499C14.1946 3.28547 14.1952 3.28612 14.4331 3.31199L14.6716 3.33799L14.6867 3.89699L14.7016 4.45599H14.9373C15.2161 4.45599 15.2213 4.44455 15.2413 3.77999L15.2546 3.33799L15.4931 3.31199C15.7212 3.28716 15.7322 3.27819 15.7477 3.10399C15.7672 2.88559 15.8766 2.79199 16.1126 2.79199C16.2805 2.79199 16.2881 2.78341 16.2881 2.59387C16.2881 2.23767 16.3526 2.20335 16.9408 2.24664L17.4541 2.28434V2.53264C17.4541 2.8111 17.4938 2.84399 17.8294 2.84399H18.0371V3.07799V3.31199H18.3021C18.4754 3.31199 18.5692 3.33448 18.5733 3.37699C18.5966 3.61853 18.6063 3.79702 18.6128 4.10499L18.6201 4.45599H18.8586H19.0971L19.101 4.85899C19.1033 5.08064 19.1029 5.41409 19.1001 5.59999C19.0939 6.01807 19.1194 6.05668 19.416 6.07735L19.6536 6.09399L19.6676 7.719L19.6815 9.344H19.4529C19.123 9.344 19.0923 9.39573 19.1308 9.88791C19.1735 10.4324 19.1591 10.4448 18.5061 10.4251L18.0106 10.41L17.9968 8.04867C17.9819 5.50743 17.9868 5.54799 17.6967 5.54799C17.4386 5.54799 17.4011 5.47441 17.4011 4.96845V4.51371L17.1493 4.49785C17.0108 4.48914 16.7723 4.49005 16.6193 4.4998L16.3411 4.51761V5.0328V5.54799H16.1397C15.8016 5.54799 15.8111 5.49196 15.8111 7.50839V9.344H15.5783C15.327 9.344 15.2811 9.3921 15.2811 9.6547C15.2811 9.73997 15.2462 9.81395 15.1972 9.83241C15.0883 9.87349 14.3078 9.87349 14.1989 9.83241C14.1243 9.80433 14.1151 9.57032 14.1151 7.72952C14.1151 5.47844 14.1332 5.60324 13.7989 5.55033L13.6116 5.52056L13.5845 5.04411C13.551 4.45391 13.6007 4.48732 12.7787 4.50318L12.5289 4.50799L12.5137 5.01499L12.4986 5.52199L12.2866 5.5385C11.9737 5.56281 11.986 5.46219 11.9864 7.98302C11.987 10.6957 12.0519 10.4463 11.3511 10.4251L10.8556 10.41L10.8291 10.15C10.8041 9.90559 10.793 9.88908 10.6436 9.8757C10.5561 9.8679 10.4306 9.84982 10.3646 9.83552L10.2447 9.80966L10.2586 7.95183L10.2726 6.09399L10.5376 6.06799L10.8026 6.04199L10.8291 5.26199L10.8556 4.48199L11.0941 4.45599L11.3326 4.42999L11.3591 3.88399L11.3856 3.33799L11.6241 3.31199C11.8565 3.28664 11.863 3.28105 11.8791 3.08839C11.8973 2.87259 12.0161 2.79199 12.3165 2.79199C12.4595 2.79199 12.4721 2.77704 12.4721 2.60661C12.4721 2.25938 12.538 2.20751 12.94 2.23936C13.1344 2.2547 13.3711 2.26835 13.4658 2.26965ZM20.9521 2.99999V3.72799H20.2631H19.5741V3.0347C19.5741 2.19945 19.5052 2.27199 20.2984 2.27199H20.9521V2.99999ZM22.6226 4.00099C22.639 4.06534 22.6454 4.38709 22.6369 4.71599L22.6216 5.31399L21.9193 5.32855L21.2171 5.34298V4.64813C21.2171 4.26606 21.233 3.93768 21.2524 3.9187C21.3629 3.81028 22.5931 3.88412 22.6226 4.00099Z" fill="#F80606"/>
<path fill-rule="evenodd" clip-rule="evenodd" d="M12.5581 2.40354C12.4514 2.67602 12.5136 2.79198 12.7664 2.79198H13.0079L12.9916 2.57098C12.9736 2.32593 12.6389 2.19671 12.5581 2.40354ZM16.3832 2.44098C16.3402 2.72217 16.3909 2.79198 16.6386 2.79198H16.8708V2.55798V2.32398H16.636C16.4332 2.32398 16.3987 2.33984 16.3832 2.44098ZM15.9566 2.87986C15.7335 2.93706 15.8368 3.31198 16.0758 3.31198C16.3089 3.31198 16.4138 2.95448 16.204 2.87557C16.1153 2.84216 16.1027 2.84229 15.9566 2.87986ZM12.0139 2.97411C11.9416 3.1591 12.0413 3.31198 12.2344 3.31198C12.4142 3.31198 12.4188 3.30678 12.4188 3.10398C12.4188 2.87973 12.0918 2.77482 12.0139 2.97411ZM11.476 3.40675C11.4263 3.43873 11.4118 3.5842 11.423 3.94027L11.4383 4.42998L11.6619 4.44584C11.9339 4.46521 11.9542 4.41698 11.9311 3.80585L11.9153 3.38998L11.7298 3.37646C11.6278 3.36892 11.5136 3.38257 11.476 3.40675ZM13.0787 3.43002C12.9863 3.6661 13.082 4.43011 13.206 4.44727C13.5583 4.49628 13.59 4.44857 13.5734 3.89555L13.5583 3.38998L13.3326 3.37399C13.1771 3.36294 13.098 3.38036 13.0787 3.43002ZM15.3912 3.41104C15.3357 3.4464 15.3149 3.58615 15.3117 3.94443L15.3073 4.42998H15.5193H15.7313V3.90998C15.7313 3.36047 15.6522 3.24451 15.3912 3.41104ZM16.9617 3.39622C16.859 3.49697 16.9216 4.39631 17.0337 4.43115C17.3493 4.52943 17.4059 4.44428 17.3894 3.89555L17.3743 3.38998L17.187 3.37451C17.0839 3.36593 16.9825 3.37568 16.9617 3.39622ZM10.9197 4.54022C10.8663 4.59248 10.8739 5.92316 10.9279 6.00688C10.9547 6.04822 11.0441 6.06902 11.1524 6.05888L11.3323 6.04198V5.28798V4.53398L11.145 4.51851C11.0419 4.50993 10.9405 4.51968 10.9197 4.54022ZM13.6732 4.54269C13.5966 4.61783 13.6358 5.33062 13.7212 5.41421C13.9772 5.6655 14.2435 5.09168 14.0903 4.61835C14.0551 4.50915 13.7616 4.45598 13.6732 4.54269ZM17.5068 4.97494C17.5068 5.43709 17.5083 5.44242 17.6476 5.47661C17.9017 5.53927 17.9557 5.45295 17.9727 4.95752L17.9879 4.50798H17.7475H17.5068V4.97494ZM14.2336 7.66698L14.2473 9.78598L14.6703 9.80132C15.1291 9.81809 15.2278 9.76778 15.2278 9.51701C15.2278 9.38727 15.1087 9.33995 14.8303 9.35906L14.6713 9.36998L14.6574 7.45898L14.6435 5.54798H14.4316H14.2196L14.2336 7.66698ZM18.0722 5.58269C17.9984 5.65497 18.0318 10.2632 18.1065 10.324C18.1529 10.3617 18.3169 10.3682 18.5968 10.3434L19.0173 10.306L19.0335 10.088L19.0497 9.86996L18.8044 9.85397L18.5593 9.83798L18.5647 7.77943C18.5678 6.64726 18.5549 5.68201 18.5364 5.63443C18.5022 5.5472 18.1485 5.50781 18.0722 5.58269ZM10.376 6.18537C10.3619 6.22125 10.3567 7.0461 10.3644 8.01837L10.3783 9.78598L10.6301 9.80184L10.8818 9.8177V10.0191C10.8818 10.3246 10.9763 10.3851 11.4002 10.3515C11.8884 10.3127 11.8888 10.3125 11.8888 10.0737V9.86398H11.6238H11.3588V9.63102C11.3588 9.38519 11.2246 9.28366 11.0077 9.3653C10.7887 9.44772 10.7758 9.35581 10.7758 7.69961V6.11998H10.5886C10.4858 6.11998 10.39 6.14936 10.376 6.18537ZM3.20704 12.7999L3.22334 13.866L2.16333 13.8799L1.10333 13.894L1.08982 18.223L1.07617 22.552H2.13657H3.19683V32.276V42H4.32958H5.46232L5.4704 31.2299C5.4765 23.1933 5.46311 20.4416 5.41767 20.3879C5.3697 20.3311 5.13544 20.316 4.30334 20.316H3.24983V18.158V16H4.36336H5.47703L5.46312 13.881L5.44933 11.762L4.32004 11.7479L3.19074 11.7339L3.20704 12.7999ZM25.4064 11.8353C25.2896 12.0494 25.3357 33.1825 25.4531 33.2867C25.5609 33.3823 27.3929 33.3975 27.4523 33.3032C27.4666 33.2808 27.4999 33.2754 27.5265 33.2915C27.5978 33.3348 27.5938 11.9682 27.5225 11.8375C27.4378 11.6824 25.4909 11.6805 25.4064 11.8353ZM9.90054 16.117C9.88438 16.1813 9.87802 16.6552 9.88623 17.17L9.90134 18.106L10.9665 18.12L12.0315 18.1341L12.0636 17.5088C12.0812 17.1648 12.0814 16.6847 12.0639 16.4417L12.0321 16H10.9809C9.93499 16 9.92969 16.0005 9.90054 16.117ZM20.964 17.053L20.9783 18.106L22.0516 18.12L23.1248 18.1342V17.067V16H22.0373H20.9496L20.964 17.053ZM14.3504 22.5665C14.3361 22.6032 14.3309 23.0771 14.3389 23.6195L14.3533 24.606H15.4133H16.4733L16.4878 23.5957C16.4988 22.8224 16.4863 22.5756 16.4348 22.5435C16.3149 22.4689 14.3804 22.4902 14.3504 22.5665ZM18.7568 22.5853C18.7158 22.69 18.7182 24.3646 18.7595 24.516L18.7918 24.6342L19.8321 24.62L20.8723 24.606V23.566V22.526L19.8301 22.516C18.9389 22.5074 18.7833 22.5175 18.7568 22.5853ZM7.68527 29.0337C7.66527 29.0533 7.64883 30.0248 7.64883 31.1927V33.316H8.76237H9.87603L9.86212 31.171L9.84834 29.026L8.78502 29.0119C8.20017 29.0043 7.70528 29.014 7.68527 29.0337ZM12.1362 29.0347C12.0922 29.0777 12.0905 30.8547 12.1342 31.015L12.1662 31.132H17.6456H23.1248V30.0976C23.1248 29.2023 23.1136 29.0589 23.041 29.0316C22.9261 28.9883 12.1803 28.9914 12.1362 29.0347ZM9.87484 34.4329V35.5H10.9624H12.0501L12.0356 34.447L12.0213 33.394L10.9481 33.3799L9.87484 33.3658V34.4329ZM23.1468 33.4387C23.1312 33.4789 23.1258 33.959 23.1348 34.5057L23.1513 35.4996L17.6393 35.5129L12.1273 35.526L12.1104 36.618C12.1011 37.2186 12.1098 38.6752 12.1299 39.855L12.1663 42H13.2507H14.3349L14.3177 39.816L14.3003 37.632H18.7391H23.1778V36.592V35.552H24.2389H25.3L25.2857 34.473L25.2713 33.394L24.2234 33.3799C23.3631 33.3682 23.1703 33.3789 23.1468 33.4387Z" fill="#060506"/>
<path fill-rule="evenodd" clip-rule="evenodd" d="M16.8909 3.91C16.891 4.2246 16.8996 4.34654 16.9102 4.18105C16.9208 4.01556 16.9207 3.75816 16.91 3.60905C16.8994 3.45994 16.8907 3.5954 16.8909 3.91ZM11.9616 3.936C11.9616 4.2363 11.9704 4.35915 11.9811 4.209C11.9918 4.05885 11.9918 3.81315 11.9811 3.663C11.9704 3.51285 11.9616 3.6357 11.9616 3.936ZM15.8301 3.884C15.8301 4.1557 15.8391 4.26685 15.85 4.131C15.8608 3.99515 15.8608 3.77285 15.85 3.637C15.8391 3.50115 15.8301 3.6123 15.8301 3.884ZM17.4728 3.962C17.4727 4.2194 17.4816 4.3312 17.4927 4.21056C17.5038 4.08992 17.5039 3.87932 17.4931 3.74256C17.4821 3.6058 17.4729 3.7046 17.4728 3.962ZM11.3713 5.756C11.3713 5.8561 11.3822 5.89705 11.3956 5.847C11.4088 5.79695 11.4088 5.71505 11.3956 5.665C11.3822 5.61495 11.3713 5.6559 11.3713 5.756ZM18.5912 7.706C18.5912 8.8786 18.5981 9.36571 18.6066 8.78851C18.6152 8.21131 18.6152 7.25191 18.6067 6.65651C18.5981 6.06111 18.5912 6.5334 18.5912 7.706ZM11.0019 9.32931C11.0826 9.34127 11.2019 9.34101 11.2669 9.32866C11.3321 9.31631 11.2662 9.30643 11.1205 9.30682C10.9747 9.30721 10.9214 9.31735 11.0019 9.32931ZM14.8709 9.32931C14.9516 9.34127 15.0709 9.34101 15.1359 9.32866C15.2011 9.31631 15.1352 9.30643 14.9895 9.30682C14.8437 9.30721 14.7903 9.31735 14.8709 9.32931ZM34.1357 11.6159C34.0847 11.6289 34.043 11.6612 34.043 11.6878C34.043 11.7612 34.1282 11.7454 34.202 11.658C34.2383 11.6151 34.2591 11.5827 34.2482 11.586C34.2374 11.5894 34.1868 11.6027 34.1357 11.6159ZM7.73406 11.8258C7.71644 11.8431 7.702 14.2519 7.702 17.1787V22.5H8.7885H9.875V23.566V24.632H10.988H12.101V25.749V26.8659L11.0012 26.88L9.9015 26.894L9.92097 30.092L9.94058 33.29L11.0222 33.316L12.1036 33.342L12.123 34.408C12.1336 34.9943 12.1449 35.4802 12.1482 35.4879C12.1513 35.4957 14.6165 35.4957 17.6262 35.4879L23.0985 35.474L23.1128 34.396L23.1271 33.3182L24.1993 33.304L25.2715 33.29L25.2851 30.079L25.2988 26.868H24.2119H23.125V25.75V24.632H24.2119H25.2988L25.2851 21.4055L25.2715 18.1789L23.337 18.1885C21.3266 18.1986 21.0054 18.1987 20.9387 18.1895C20.9169 18.1865 20.899 17.2012 20.899 16V13.816H23.0997H25.3002L25.2859 12.815L25.2715 11.814L16.5188 11.8042C11.7048 11.7988 7.75168 11.8085 7.73406 11.8258ZM14.3013 15.987C14.28 17.181 14.2572 18.1638 14.2507 18.1709C14.2399 18.1827 10.3554 18.1988 10.0207 18.1885L9.875 18.184V16V13.816H12.1075H14.3401L14.3013 15.987ZM20.0907 22.4993L20.952 22.5V23.5864C20.952 24.5627 20.9429 24.6763 20.8615 24.7069C20.7605 24.745 18.8434 24.7365 18.7392 24.6976C18.6892 24.6789 18.673 24.4084 18.673 23.5898V22.5066L18.8452 22.4847C18.94 22.4726 19.0652 22.4707 19.1235 22.4806C19.1818 22.4905 19.6171 22.499 20.0907 22.4993ZM16.553 23.5642C16.553 24.8507 16.6824 24.7296 15.334 24.703L14.3005 24.6824L14.2862 23.5912L14.2719 22.5H15.4124H16.553V23.5642ZM20.7797 28.9867L23.178 29.0126V30.0692C23.178 30.6786 23.1568 31.1388 23.1278 31.1563C23.1002 31.1731 20.6019 31.1869 17.576 31.187L12.0745 31.1871L12.0602 30.0941L12.0459 29.0012L14.2862 28.9841C17.6627 28.9585 18.1809 28.9588 20.7797 28.9867ZM5.48819 36.579L5.5025 37.658L6.57575 37.672L7.649 37.6862L7.6429 37.568C7.63827 37.48 7.63058 37.4731 7.61243 37.541C7.58778 37.6337 5.83905 37.6857 5.61287 37.6004C5.54039 37.5731 5.529 37.4321 5.529 36.5604V35.552H6.55813C7.33179 35.552 7.59374 35.5681 7.61388 35.617C7.62992 35.6559 7.64237 35.6453 7.64476 35.591C7.64873 35.5071 7.56353 35.5 6.56144 35.5H5.47388L5.48819 36.579ZM7.68437 37.7187C7.63535 37.7667 7.63959 39.7522 7.68875 39.7821C7.71061 39.7953 7.7285 39.3463 7.7285 38.7841V37.762L8.77405 37.748L9.81948 37.7338L9.83538 38.658L9.85115 39.582L9.86307 38.633L9.875 37.684H8.79738C8.20457 37.684 7.70372 37.6996 7.68437 37.7187ZM9.82147 39.8073C9.85472 39.8181 9.87937 40.2397 9.88653 40.9253L9.89819 42.026L9.92627 40.96L9.9545 39.894L10.8555 39.8792C12.1332 39.8581 11.9929 39.7246 12.0065 40.974L12.0181 42.026L12.0463 40.986C12.0642 40.3273 12.055 39.9231 12.0215 39.8837C11.9843 39.8399 11.6411 39.8166 10.8682 39.8057C10.263 39.797 9.79192 39.7978 9.82147 39.8073Z" fill="#B19374"/>
<path fill-rule="evenodd" clip-rule="evenodd" d="M12.5042 2.3543C12.4864 2.39954 12.472 2.52824 12.472 2.6403V2.84402H12.21H11.9481L11.9318 3.06501L11.9155 3.28601L11.6505 3.31201L11.3855 3.33801L11.3705 3.89428L11.3554 4.45042L11.1055 4.46628L10.8555 4.48201L10.829 5.26201L10.8025 6.04201L10.564 6.06801L10.3255 6.09401L10.3116 7.95302C10.3039 8.97547 10.3158 9.81201 10.3381 9.81201C10.3603 9.81201 10.3785 8.98716 10.3785 7.97902V6.14601L10.5743 6.13003L10.7703 6.11403L10.7898 6.39003L10.8094 6.66601L10.8192 6.36701C10.8246 6.20256 10.8469 6.06801 10.8687 6.06801C10.8906 6.06814 10.9085 5.72299 10.9085 5.30101V4.53401H11.1205C11.4254 4.53401 11.4405 4.50385 11.4218 3.93146L11.405 3.41965L11.542 3.38598C11.6174 3.36739 11.7334 3.36246 11.8001 3.37494C11.9601 3.40497 12.0257 3.32554 12.0234 3.10402C12.0215 2.92722 12.0275 2.92175 12.2335 2.91512C12.3501 2.91122 12.4813 2.89458 12.525 2.87794C12.5687 2.8613 12.6999 2.83907 12.8165 2.82854C13.024 2.80995 13.0231 2.80931 12.7767 2.80073C12.5298 2.79215 12.525 2.78889 12.5258 2.62301C12.527 2.3712 12.5893 2.3079 12.8104 2.33325C12.9157 2.34521 13.002 2.33649 13.002 2.31361C13.002 2.23015 12.5378 2.26811 12.5042 2.3543ZM16.3482 2.41228C16.3542 2.53487 16.359 2.53942 16.3784 2.44101C16.3981 2.34065 16.4348 2.32402 16.6362 2.32402H16.871V2.55801V2.79201H16.6325C16.4217 2.79201 16.3935 2.77836 16.3898 2.67501C16.3871 2.59818 16.3756 2.58479 16.3564 2.63601C16.3403 2.67891 16.2908 2.75496 16.2464 2.80501C16.1997 2.85753 16.1901 2.89601 16.2237 2.89601C16.2557 2.89601 16.291 2.99546 16.3022 3.11701L16.3224 3.33801L16.3317 3.09374L16.341 2.84948L16.6192 2.83374L16.8975 2.81801V2.55801V2.29801L16.6192 2.28228C16.3446 2.26681 16.3411 2.26837 16.3482 2.41228ZM15.7796 2.97479C15.7612 3.04681 15.7581 3.15094 15.7728 3.20632C15.7966 3.29485 15.767 3.30877 15.527 3.32255L15.2545 3.33801L15.2394 3.89701C15.2312 4.20446 15.2431 4.45588 15.2659 4.45575C15.2888 4.45549 15.3084 4.23176 15.3096 3.9585C15.3119 3.42784 15.3409 3.36635 15.5906 3.36479C15.6749 3.36427 15.7255 3.40171 15.7477 3.48101C15.7879 3.62492 15.8472 3.41705 15.8578 3.09478C15.8621 2.95984 15.8913 2.89666 15.9567 2.87989C16.0271 2.86182 16.021 2.85467 15.9313 2.84999C15.8465 2.8457 15.8036 2.88106 15.7796 2.97479ZM17.4095 3.89272C17.4036 4.23696 17.3802 4.40493 17.3347 4.42572C17.2817 4.4499 17.2817 4.46212 17.3347 4.4863C17.3799 4.50697 17.401 4.65309 17.401 4.94442C17.401 5.44752 17.4511 5.53657 17.7455 5.55841L17.9575 5.57401L17.9713 7.96328C17.9855 10.419 17.9866 10.433 18.1886 10.4352C18.2334 10.4358 18.2176 10.4014 18.1474 10.345C18.0341 10.2541 18.0339 10.2506 18.0487 7.90101C18.0569 6.60686 18.0456 5.54801 18.0237 5.54801C18.0019 5.54801 17.984 5.51265 17.984 5.46962C17.984 5.40631 17.965 5.40268 17.8859 5.45116C17.6166 5.61627 17.507 5.4795 17.507 4.97783V4.51373L17.7587 4.49424L18.0105 4.47473L17.719 4.46551L17.4275 4.45628L17.4447 4.10073C17.4543 3.90508 17.4521 3.66522 17.4399 3.56759C17.4279 3.46996 17.4141 3.61621 17.4095 3.89272ZM13.0205 3.88402C13.0205 4.12712 13.0297 4.22656 13.0408 4.10501C13.0519 3.98346 13.0519 3.78456 13.0408 3.66301C13.0297 3.54146 13.0205 3.64092 13.0205 3.88402ZM15.7765 4.04001C15.7765 4.28311 15.7857 4.38256 15.7968 4.26101C15.8079 4.13946 15.8079 3.94057 15.7968 3.81902C15.7857 3.69747 15.7765 3.79691 15.7765 4.04001ZM13.4512 4.4581C13.4377 4.47955 13.4614 4.51022 13.5038 4.52621C13.5621 4.54805 13.5847 4.6735 13.5963 5.03867L13.6115 5.52201L13.85 5.54801L14.0885 5.57401L14.102 7.65402C14.1175 10.0636 14.0652 9.86948 14.6948 9.85453L15.0955 9.8449L14.6715 9.81553L14.2475 9.78601L14.2336 7.69782C14.2222 5.97298 14.2062 5.58389 14.1412 5.46182C14.0882 5.36211 14.0625 5.34365 14.0623 5.40501C14.0619 5.52279 13.8367 5.5276 13.7192 5.41216C13.6524 5.34677 13.6371 5.24173 13.6491 4.93116L13.6645 4.53401H13.8872C14.0098 4.53401 14.0933 4.51919 14.0727 4.50112C14.0158 4.45081 13.4791 4.41364 13.4512 4.4581ZM14.6565 7.4299C14.6502 8.47926 14.6629 9.34869 14.6847 9.36208C14.7209 9.38405 14.72 7.90881 14.6829 6.19801C14.6748 5.82621 14.6629 6.38054 14.6565 7.4299ZM10.7988 8.07001C10.7988 8.72781 10.8063 8.98977 10.8156 8.65203C10.8249 8.31442 10.8248 7.77621 10.8155 7.45602C10.8062 7.13596 10.7987 7.41221 10.7988 8.07001ZM15.1617 9.37847C15.2435 9.41084 15.2475 9.57516 15.1698 9.71751C15.124 9.80162 15.1268 9.81917 15.1831 9.80096C15.3021 9.76262 15.3096 9.3431 15.1913 9.34818C15.1356 9.35051 15.1233 9.36326 15.1617 9.37847ZM18.5625 9.82839C18.5865 9.85192 18.6986 9.8631 18.8117 9.85348L19.0175 9.8358L18.7683 9.81071C18.6311 9.79693 18.5385 9.80486 18.5625 9.82839ZM10.6832 9.84932C10.8168 9.86908 10.829 9.89001 10.829 10.0996C10.829 10.4298 10.9614 10.4745 11.7167 10.3999L11.942 10.3776L11.9327 10.1078C11.9236 9.84244 11.9232 9.84179 11.903 10.0619C11.8799 10.3154 11.8837 10.3132 11.4003 10.3515C10.9754 10.3853 10.882 10.3249 10.882 10.0162C10.882 9.8189 10.8762 9.81228 10.7097 9.81982C10.5494 9.8271 10.5476 9.82904 10.6832 9.84932ZM11.4789 9.84932C11.5596 9.86128 11.6788 9.86103 11.7439 9.84868C11.8091 9.83633 11.7432 9.82645 11.5975 9.82684C11.4517 9.82723 11.3983 9.83736 11.4789 9.84932ZM19.0338 10.085L19.0175 10.306L18.6995 10.3363C18.5246 10.3529 18.4173 10.3734 18.461 10.3817C18.58 10.4044 19.0534 10.3922 19.0803 10.3657C19.1247 10.3223 19.1365 9.86402 19.0933 9.86402C19.0696 9.86402 19.0428 9.96346 19.0338 10.085ZM4.30999 11.7191C5.13825 11.7329 5.40908 11.7537 5.44949 11.8067C5.48328 11.8511 5.49733 12.6201 5.48805 13.9328L5.47361 15.9892L4.41917 16.0076C3.83922 16.0177 3.34486 16.0455 3.32062 16.0693C3.26192 16.1269 3.23237 19.6387 3.28762 20.004L3.33082 20.29L4.37134 20.3041C5.1205 20.3142 5.42458 20.336 5.45718 20.3821C5.48209 20.4173 5.49057 24.0613 5.47599 28.48C5.46142 32.8987 5.4589 37.7484 5.47043 39.257L5.49136 42H7.65668H9.822L9.83365 41.259C9.84001 40.8515 9.84598 40.3776 9.8469 40.206L9.8485 39.894L8.74874 39.88L7.64899 39.8659V38.83C7.64899 38.0643 7.6319 37.7839 7.58354 37.7545C7.5475 37.7326 7.06454 37.7137 6.51029 37.7124L5.50249 37.71L5.48818 36.6127L5.47387 35.5152L5.83268 35.4819C6.29233 35.4394 6.78549 35.4393 7.29548 35.4816L7.69987 35.5151L7.71418 36.5606L7.72849 37.606L8.81499 37.632L9.90149 37.658L9.9158 38.739L9.93011 39.8199L10.9608 39.8138C11.5277 39.8104 12.0101 39.8191 12.033 39.8329C12.0777 39.8601 12.0614 35.5999 12.0167 35.5559C12.0019 35.5415 11.5438 35.5346 10.9987 35.5407C10.4535 35.5468 9.97821 35.5332 9.94244 35.5105C9.8954 35.4808 9.87327 35.1816 9.86294 34.4317L9.8485 33.394L8.76199 33.368L7.67549 33.342L7.66171 31.171L7.6478 29H8.76146H9.87499V27.908V26.816H10.9592H12.0434L12.059 25.893C12.0675 25.3854 12.0669 24.9057 12.0577 24.827L12.041 24.684H10.9591H9.87712L9.8628 23.605L9.8485 22.526L8.74874 22.512L7.64899 22.4979V17.1708C7.64899 12.1505 7.64369 11.8409 7.55624 11.7952C7.50523 11.7684 6.50949 11.7364 5.34349 11.7238C4.17749 11.7113 3.71242 11.7091 4.30999 11.7191ZM25.351 11.7684C25.351 11.8349 25.3668 11.8399 25.4253 11.7922C25.4778 11.7495 25.799 11.7361 26.512 11.7468C27.0686 11.7551 27.5241 11.7445 27.524 11.723C27.524 11.7016 27.0351 11.684 26.4375 11.684C25.4706 11.684 25.351 11.6932 25.351 11.7684ZM25.2859 12.867L25.2715 13.842L23.1117 13.8555L20.952 13.8692V14.8784C20.952 15.4333 20.9356 15.9303 20.9156 15.9827C20.8846 16.064 20.8914 16.0683 20.9622 16.0118C21.0245 15.9623 21.3019 15.9493 22.0719 15.9598L23.0985 15.974V17.0741C23.0985 17.6791 23.1164 18.1633 23.1382 18.15C23.1601 18.1367 23.178 17.6471 23.178 17.0619V15.9978L24.2247 16.012L25.2715 16.026L25.285 20.354L25.2987 24.6818L24.225 24.696L23.1515 24.71L23.1372 25.763L23.1227 26.816H24.2059C24.9846 26.816 25.295 26.833 25.3098 26.8767C25.3212 26.9101 25.3328 23.5522 25.3356 19.4147C25.3385 15.2772 25.3318 11.892 25.3207 11.892C25.3095 11.892 25.2939 12.3308 25.2859 12.867ZM9.87499 14.921L9.87486 15.974L10.8649 15.9578C11.4093 15.9487 11.9102 15.955 11.9779 15.9717L12.101 16.002V17.0626C12.101 17.7351 12.0811 18.1331 12.0467 18.1498C12.0169 18.1644 12.0228 18.1702 12.0599 18.1628C12.1115 18.1526 12.1309 17.895 12.1418 17.0747L12.1561 16H13.2151H14.274V14.934V13.868H12.0745H9.87499V14.921ZM20.8989 23.6025C20.8844 24.1946 20.8909 24.6609 20.9134 24.6388C20.9358 24.6167 20.9478 24.1323 20.9398 23.5622L20.9252 22.526L20.8989 23.6025ZM18.6832 23.7319C18.6776 24.2236 18.6909 24.6368 18.7127 24.6501C18.7346 24.6635 18.7463 24.4017 18.7386 24.0682C18.713 22.9498 18.6935 22.8313 18.6832 23.7319ZM25.3228 29.936C25.3228 31.5805 25.3295 32.2533 25.3377 31.431C25.346 30.6088 25.346 29.2633 25.3377 28.441C25.3295 27.6188 25.3228 28.2915 25.3228 29.936ZM12.0624 29.312C12.0624 29.4407 12.0728 29.4934 12.0854 29.429C12.0981 29.3647 12.0981 29.2594 12.0854 29.195C12.0728 29.1307 12.0624 29.1833 12.0624 29.312ZM12.0657 29.988C12.0657 30.2025 12.0752 30.2903 12.0866 30.183C12.0981 30.0758 12.0981 29.9003 12.0866 29.793C12.0752 29.6858 12.0657 29.7735 12.0657 29.988Z" fill="#614524"/>
<path fill-rule="evenodd" clip-rule="evenodd" d="M13.055 2.5523V2.8383L12.8032 2.85416L12.5515 2.87002L12.5353 3.11702L12.5191 3.36402H12.2589H11.9985L11.9836 3.92302L11.9685 4.48202L11.6915 4.49775L11.4147 4.51335L11.4 5.30375L11.3855 6.09402L11.1337 6.10988L10.882 6.12574V7.70602V9.2863L11.1337 9.30216L11.3855 9.31802L11.4016 9.56502L11.4178 9.81202H11.6792H11.9408L11.9547 7.66702L11.9685 5.52202L12.2202 5.50616C12.5007 5.48848 12.4936 5.50551 12.4728 4.91193C12.4588 4.51296 12.4957 4.45602 12.767 4.45602H13.002V3.88402V3.31202H13.32H13.638V3.88402V4.45602H13.903H14.168V4.89373C14.168 5.47067 14.1804 5.49602 14.4652 5.49602H14.698V7.38726V9.27863L15.1777 9.31542C15.8609 9.36781 15.8033 9.5424 15.809 7.40468C15.8143 5.41217 15.7993 5.51006 16.1025 5.48653L16.3145 5.47002L16.3296 4.96302L16.3448 4.45602H16.6061H16.8674L16.8823 3.89702L16.8975 3.33802H17.189H17.4805L17.4956 3.89702L17.5105 4.45602H17.7738H18.037V4.97329V5.49056L18.3152 5.50629L18.5935 5.52202L18.6072 7.66702L18.6211 9.81202H18.8559H19.0909L19.1072 9.59102C19.1235 9.37054 19.1241 9.36989 19.362 9.34402L19.6005 9.31802L19.6145 7.71902L19.6285 6.12002H19.4465C19.0914 6.12002 19.097 6.13276 19.097 5.31883C19.097 4.49619 19.0817 4.45602 18.7702 4.45602H18.5707L18.5556 3.92302L18.5405 3.39002L18.2755 3.36402L18.0105 3.33802L17.9943 3.09102L17.9781 2.84402H17.7171C17.4353 2.84402 17.4241 2.83063 17.389 2.45402C17.3755 2.30907 17.3595 2.29802 17.1625 2.29802H16.9505L16.9346 2.56842L16.9187 2.83882L16.6431 2.85442L16.3675 2.87002L16.3513 3.11702L16.3351 3.36402H16.0995H15.864V3.90443C15.864 4.54884 15.889 4.52752 15.1909 4.47721C14.7247 4.44367 14.6666 4.42001 14.6954 4.27584C14.701 4.24815 14.6891 4.0317 14.6689 3.79484L14.6324 3.36402H14.4298C14.2044 3.36402 14.1613 3.32125 14.1173 3.05384C14.0889 2.88029 14.0739 2.86859 13.8493 2.84402L13.6115 2.81802L13.585 2.55802L13.5585 2.29802L13.3067 2.28216L13.055 2.2663V2.5523ZM5.52896 36.5604C5.52896 37.7594 5.39686 37.632 6.64011 37.632C7.75787 37.632 7.63664 37.7594 7.64631 36.5751C7.65572 35.4362 7.77894 35.552 6.55676 35.552H5.52896V36.5604ZM7.73734 37.7707C7.69308 37.814 7.69017 39.6215 7.73416 39.7337C7.76185 39.8047 7.90177 39.8159 8.75441 39.8152C9.75452 39.8145 9.85416 39.8002 9.8413 39.66C9.83746 39.6171 9.8315 39.1667 9.82805 38.659L9.82196 37.736H8.79734C8.23368 37.736 7.75668 37.7516 7.73734 37.7707ZM9.96334 39.9027C9.94386 39.9217 9.92796 40.4014 9.92796 40.9687V42H10.9615H11.995V40.9656C11.995 40.0703 11.9837 39.9269 11.9111 39.8996C11.7967 39.8564 10.0075 39.8593 9.96334 39.9027Z" fill="#F8DF23"/>
<path fill-rule="evenodd" clip-rule="evenodd" d="M13.5723 2.46697C13.6047 2.80133 13.6255 2.82863 13.632 2.54497C13.6353 2.39482 13.619 2.27197 13.5957 2.27197C13.5724 2.27197 13.5619 2.35972 13.5723 2.46697ZM17.3891 2.46697C17.4195 2.76883 17.4454 2.7908 17.4499 2.51897C17.4523 2.38312 17.435 2.27197 17.4117 2.27197C17.3884 2.27197 17.3783 2.35972 17.3891 2.46697ZM19.6095 2.30668C19.59 2.32566 19.5741 2.65326 19.5741 3.03468V3.72797H20.2631H20.9521V2.99997V2.27197H20.2985C19.9389 2.27197 19.6288 2.28757 19.6095 2.30668ZM7.52324 2.83344C7.50893 2.85632 7.51939 2.90897 7.54656 2.95044C7.59584 3.02558 7.69893 2.94602 7.70131 2.83097C7.70237 2.77884 7.55636 2.78092 7.52324 2.83344ZM23.1251 2.86997C23.1251 2.91287 23.149 2.94797 23.1781 2.94797C23.2073 2.94797 23.2311 2.91287 23.2311 2.86997C23.2311 2.82707 23.2073 2.79197 23.1781 2.79197C23.149 2.79197 23.1251 2.82707 23.1251 2.86997ZM14.105 3.02597C14.117 3.12607 14.136 3.20797 14.1474 3.20797C14.1588 3.20797 14.1681 3.12607 14.1681 3.02597C14.1681 2.92587 14.149 2.84397 14.1257 2.84397C14.1024 2.84397 14.0931 2.92587 14.105 3.02597ZM18.0052 3.07797L18.0106 3.33797L18.248 3.35461C18.3787 3.36371 18.5164 3.39621 18.554 3.42689C18.6065 3.46966 18.6147 3.46264 18.5891 3.39738C18.5646 3.33446 18.4881 3.31197 18.2993 3.31197H18.0429L18.0213 3.06497L17.9997 2.81797L18.0052 3.07797ZM5.37064 3.37697C5.37488 3.55572 5.3766 4.01202 5.37435 4.39097L5.37011 5.07997H4.33661C3.54519 5.07997 3.30311 5.09518 3.30298 5.14497C3.30298 5.19567 3.53883 5.20425 4.37623 5.18397L5.44961 5.15797L5.47611 4.10484C5.49744 3.25464 5.4891 3.05184 5.43265 3.05184C5.38151 3.05197 5.36494 3.13868 5.37064 3.37697ZM14.2015 3.32302C14.2158 3.34551 14.3201 3.36397 14.4334 3.36397C14.6372 3.36397 14.6395 3.36631 14.6598 3.58497L14.6802 3.80597L14.676 3.57197L14.6716 3.33797L14.4237 3.31002C14.2874 3.29455 14.1873 3.3004 14.2015 3.32302ZM21.2525 3.91868C21.233 3.93766 21.2171 4.26604 21.2171 4.64811V5.34296L21.9194 5.32853L22.6216 5.31397L22.637 4.71597C22.66 3.81871 22.7146 3.88397 21.9404 3.88397C21.5815 3.88397 21.2718 3.89957 21.2525 3.91868ZM18.5794 4.09197C18.5794 4.19207 18.5903 4.23302 18.6037 4.18297C18.6169 4.13292 18.6169 4.05102 18.6037 4.00097C18.5903 3.95092 18.5794 3.99187 18.5794 4.09197ZM12.645 4.49328C12.7257 4.50524 12.845 4.50498 12.91 4.49263C12.9752 4.48028 12.9094 4.4704 12.7636 4.47079C12.6179 4.47118 12.5645 4.48132 12.645 4.49328ZM16.4604 4.49328C16.5405 4.50511 16.6717 4.50511 16.7519 4.49328C16.832 4.48132 16.7664 4.47157 16.6061 4.47157C16.4458 4.47157 16.3802 4.48132 16.4604 4.49328ZM12.4885 4.84597C12.4888 5.01757 12.4987 5.08153 12.5105 4.98806C12.5223 4.89459 12.5221 4.75419 12.51 4.67606C12.4979 4.59793 12.4883 4.67437 12.4885 4.84597ZM12.4793 5.32411C12.4724 5.48375 12.4622 5.49103 12.2204 5.50975L11.9686 5.52925L12.2221 5.53861C12.4953 5.54875 12.5524 5.49714 12.51 5.27874C12.4919 5.18527 12.485 5.19541 12.4793 5.32411ZM16.0761 5.49597L15.8376 5.53237L16.0894 5.54017C16.2278 5.54446 16.3411 5.52457 16.3411 5.49597C16.3411 5.46737 16.3351 5.44748 16.3279 5.45177C16.3206 5.45606 16.2073 5.47595 16.0761 5.49597ZM11.9649 7.23797C11.9649 7.89577 11.9725 8.15772 11.9817 7.81998C11.991 7.48237 11.9909 6.94417 11.9816 6.62398C11.9723 6.30392 11.9648 6.58017 11.9649 7.23797ZM19.4162 6.10489L19.63 6.12608L19.6153 7.73509C19.6072 8.62 19.6189 9.34397 19.6412 9.34397C19.6634 9.34397 19.6753 8.61272 19.6677 7.71897L19.6536 6.09397L19.428 6.0889L19.2023 6.08383L19.4162 6.10489ZM25.2981 7.2056C25.2981 7.27112 25.4537 7.38864 25.4914 7.35159C25.5458 7.29842 25.4647 7.15997 25.3793 7.15997C25.3347 7.15997 25.2981 7.18051 25.2981 7.2056ZM11.9566 8.71997C11.9566 8.84867 11.9669 8.90132 11.9795 8.83697C11.9922 8.77262 11.9922 8.66732 11.9795 8.60297C11.9669 8.53862 11.9566 8.59127 11.9566 8.71997ZM11.9566 9.39597C11.9566 9.52467 11.9669 9.57732 11.9795 9.51297C11.9922 9.44862 11.9922 9.34332 11.9795 9.27897C11.9669 9.21462 11.9566 9.26727 11.9566 9.39597ZM34.1382 10.4702C34.1479 11.0281 34.1732 11.3634 34.2045 11.3445C34.2851 11.2957 34.2702 9.62074 34.1889 9.59006C34.1371 9.57056 34.1261 9.76244 34.1382 10.4702ZM34.1491 11.5311C34.1491 11.59 34.173 11.6236 34.2021 11.606C34.2313 11.5883 34.2551 11.5401 34.2551 11.4989C34.2551 11.4576 34.2313 11.424 34.2021 11.424C34.173 11.424 34.1491 11.4722 34.1491 11.5311ZM7.76743 11.7653C7.80414 11.8014 25.0409 11.7976 25.0776 11.7616C25.0921 11.7475 21.1963 11.736 16.4206 11.736C11.6449 11.736 7.75087 11.7492 7.76743 11.7653Z" fill="#F96361"/>
<path fill-rule="evenodd" clip-rule="evenodd" d="M12.4313 3.104C12.4313 3.2041 12.4421 3.24505 12.4555 3.195C12.4688 3.14495 12.4688 3.06305 12.4555 3.013C12.4421 2.96295 12.4313 3.0039 12.4313 3.104ZM0.970947 18.158C0.970947 21.0357 0.989099 22.552 1.02368 22.552C1.058 22.552 1.08105 21.0487 1.08993 18.223L1.10345 13.894L2.1767 13.88C2.83191 13.8714 3.24995 13.846 3.24995 13.815C3.24995 13.7832 2.81866 13.764 2.11045 13.764H0.970947V18.158ZM25.3205 14.96C25.3205 15.5749 25.3282 15.8265 25.3374 15.519C25.3468 15.2116 25.3468 14.7084 25.3374 14.401C25.3282 14.0935 25.3205 14.3451 25.3205 14.96ZM10.4712 15.9867C10.7554 15.9961 11.2205 15.9961 11.5047 15.9867C11.7889 15.9774 11.5564 15.9697 10.9879 15.9697C10.4195 15.9697 10.187 15.9774 10.4712 15.9867ZM21.5245 15.9869C21.8249 15.9961 22.3019 15.9961 22.5845 15.9867C22.8672 15.9774 22.6214 15.9698 22.0384 15.9698C21.4554 15.9698 21.2242 15.9775 21.5245 15.9869ZM3.25882 16.221L3.2677 16.442L3.28837 16.2501C3.30679 16.0785 3.32693 16.0559 3.47824 16.0374C3.64109 16.0174 3.64003 16.0164 3.4487 16.0083L3.24995 16L3.25882 16.221ZM12.0649 16.312C12.0649 16.4979 12.0746 16.5739 12.0862 16.481C12.098 16.3881 12.098 16.236 12.0862 16.143C12.0746 16.0501 12.0649 16.1261 12.0649 16.312ZM20.9105 17.0426C20.8962 18.3046 20.776 18.1867 22.0623 18.1727L23.0984 18.1614L22.0384 18.1337L20.9784 18.106L20.9502 17.066L20.922 16.026L20.9105 17.0426ZM12.0668 17.69C12.0666 17.9474 12.0755 18.0592 12.0866 17.9386C12.0978 17.8179 12.0979 17.6073 12.087 17.4706C12.076 17.3338 12.0669 17.4326 12.0668 17.69ZM9.92106 18.1462C9.94358 18.1683 10.4255 18.1798 10.9918 18.172L12.0214 18.1577L10.9507 18.1319C10.3619 18.1177 9.89853 18.1241 9.92106 18.1462ZM3.24995 20.108C3.24995 20.2224 3.2685 20.316 3.29115 20.316C3.31368 20.316 3.32309 20.2224 3.31209 20.108C3.30096 19.9936 3.28241 19.9 3.27088 19.9C3.25935 19.9 3.24995 19.9936 3.24995 20.108ZM14.3093 22.5347C14.2424 22.6004 14.2688 24.5541 14.3375 24.6216C14.409 24.6917 16.4219 24.7138 16.4652 24.645C16.4789 24.6236 16.0092 24.606 15.4217 24.606H14.3534V23.553C14.3534 22.9739 14.3515 22.5 14.3491 22.5C14.3466 22.5 14.3287 22.5156 14.3093 22.5347ZM18.7429 24.554C18.7543 24.6629 20.7467 24.7499 20.8528 24.6462C20.8754 24.6241 20.42 24.6128 19.8407 24.6211C18.8669 24.635 18.7854 24.6291 18.7597 24.5431C18.7372 24.4673 18.734 24.4692 18.7429 24.554ZM25.3203 25.75C25.3205 26.3506 25.3282 26.5892 25.3376 26.2801C25.347 25.9711 25.3468 25.4797 25.3374 25.1881C25.328 24.8966 25.3203 25.1494 25.3203 25.75ZM12.1179 31.054C12.1288 31.1572 12.168 31.158 17.5871 31.1584L23.0454 31.1588L17.6035 31.1451C12.479 31.1323 12.16 31.1263 12.1343 31.0407C12.1133 30.9707 12.1096 30.9737 12.1179 31.054ZM27.5045 33.1956C27.486 33.2475 27.457 33.3193 27.4399 33.355C27.4218 33.3934 27.4459 33.42 27.4986 33.42C27.5548 33.42 27.5773 33.3921 27.5591 33.3454C27.543 33.3043 27.5584 33.2605 27.5931 33.2479C27.6399 33.231 27.6409 33.2087 27.5973 33.1631C27.552 33.1157 27.5302 33.1233 27.5045 33.1956ZM25.326 33.2615C25.3039 33.2965 24.9158 33.316 24.2379 33.316C23.6584 33.316 23.1732 33.3336 23.1597 33.355C23.146 33.3765 23.6157 33.394 24.2032 33.394H25.2714L25.2858 34.473C25.2945 35.1333 25.3202 35.552 25.352 35.552C25.3843 35.552 25.4039 35.1372 25.4039 34.4569C25.4039 33.7402 25.4222 33.3729 25.4569 33.394C25.5383 33.4433 25.5199 33.3368 25.4352 33.2679C25.3841 33.2262 25.3495 33.2242 25.326 33.2615ZM7.78145 33.3501C7.83975 33.3611 8.8176 33.3754 9.95445 33.382L12.0214 33.394L12.0358 34.444L12.0501 35.4939L11.8238 35.5139L11.5974 35.5338L11.8227 35.5429L12.0479 35.552V37.6407C12.0479 38.7894 12.0599 39.7176 12.0744 39.7033C12.1343 39.6445 12.1029 33.459 12.0424 33.3874C11.9928 33.3289 11.5955 33.3173 9.8287 33.323C8.64442 33.3269 7.72315 33.3391 7.78145 33.3501ZM27.0469 33.368C27.0469 33.3966 27.1066 33.42 27.1794 33.42C27.2523 33.42 27.3119 33.3966 27.3119 33.368C27.3119 33.3394 27.2523 33.316 27.1794 33.316C27.1066 33.316 27.0469 33.3394 27.0469 33.368ZM10.2857 35.5385C10.4679 35.5486 10.766 35.5486 10.9482 35.5385C11.1304 35.5283 10.9813 35.52 10.6169 35.52C10.2526 35.52 10.1035 35.5283 10.2857 35.5385ZM14.2739 37.736C14.2739 37.7932 14.2993 37.84 14.3301 37.84C14.361 37.84 14.3715 37.8166 14.3534 37.788C14.3317 37.7536 15.8104 37.736 18.7493 37.736C21.6664 37.736 23.1779 37.7182 23.1779 37.684C23.1779 37.6498 21.6586 37.632 18.7259 37.632C14.3093 37.632 14.2739 37.6328 14.2739 37.736ZM12.1232 40.986C12.1232 41.558 12.1309 41.7992 12.1404 41.5217C12.15 41.2444 12.15 40.7764 12.1406 40.4817C12.131 40.1872 12.1232 40.414 12.1232 40.986Z" fill="#444C4C"/>
<path fill-rule="evenodd" clip-rule="evenodd" d="M16.4735 2.24639C16.5972 2.28864 16.924 2.29968 16.924 2.26159C16.924 2.23871 16.8107 2.22181 16.6722 2.22415C16.5338 2.22636 16.4443 2.23638 16.4735 2.24639ZM13.0179 2.584C13.0179 2.7413 13.0278 2.80564 13.04 2.72699C13.052 2.64834 13.052 2.51964 13.04 2.44099C13.0278 2.36234 13.0179 2.4267 13.0179 2.584ZM12.4853 3.07799C12.4859 3.19239 12.4967 3.23308 12.5095 3.16834C12.5222 3.10373 12.5217 3.01013 12.5084 2.96034C12.4952 2.91068 12.4847 2.96359 12.4853 3.07799ZM15.7703 3.33319C15.8012 3.36569 15.9405 3.38128 16.0958 3.36984C16.4048 3.34683 16.3793 3.32967 15.9889 3.29834C15.7933 3.28248 15.7316 3.29237 15.7703 3.33319ZM11.942 3.35359C11.942 3.37647 12.0314 3.38675 12.1407 3.37661C12.4815 3.34476 12.5093 3.32434 12.2202 3.31797C12.0672 3.31472 11.942 3.33071 11.942 3.35359ZM13.0062 3.40039C13.0086 3.45499 13.0214 3.46683 13.0371 3.429C13.0534 3.38948 13.1652 3.364 13.3226 3.364H13.5814L13.5991 3.89699L13.6169 4.42999L13.6141 3.884L13.6115 3.33799L13.3067 3.3224C13.0414 3.30888 13.0025 3.31888 13.0062 3.40039ZM17.136 3.34787C17.2767 3.36023 17.4036 3.4052 17.4455 3.45746C17.5109 3.5391 17.515 3.5378 17.498 3.44199C17.4823 3.35372 17.4357 3.33721 17.1884 3.33253C16.9445 3.32785 16.936 3.33033 17.136 3.34787ZM11.3468 4.83949C11.3719 5.58582 11.39 5.63965 11.4145 5.04138C11.4295 4.67764 11.4185 4.44936 11.3855 4.43688C11.3521 4.4244 11.3378 4.57364 11.3468 4.83949ZM13.1742 4.49187C13.2252 4.50487 13.3087 4.50487 13.3597 4.49187C13.4107 4.47874 13.369 4.46808 13.267 4.46808C13.1649 4.46808 13.1232 4.47874 13.1742 4.49187ZM14.115 4.98887L14.1415 5.52199L14.433 5.52694L14.7245 5.53187L14.4462 5.5112L14.168 5.49053V4.97326C14.168 4.68882 14.1501 4.45599 14.1282 4.45586C14.1064 4.45586 14.1004 4.69572 14.115 4.98887ZM15.4804 4.49278C15.5462 4.50526 15.6416 4.50474 15.6924 4.49174C15.743 4.47874 15.6891 4.46848 15.5725 4.46913C15.4559 4.46965 15.4144 4.4803 15.4804 4.49278ZM17.0174 4.49278C17.0832 4.50526 17.1786 4.50474 17.2294 4.49174C17.28 4.47874 17.2261 4.46848 17.1095 4.46913C16.9929 4.46965 16.9514 4.4803 17.0174 4.49278ZM17.9984 5.23599C17.9984 5.36469 18.0087 5.41734 18.0213 5.35299C18.034 5.28864 18.034 5.18335 18.0213 5.11899C18.0087 5.05465 17.9984 5.10729 17.9984 5.23599ZM18.037 5.5255C18.215 5.5645 18.6082 5.57139 18.5852 5.53499C18.5717 5.51354 18.4249 5.49872 18.259 5.50197C18.0931 5.50535 17.9932 5.51588 18.037 5.5255ZM11.359 5.98128C11.359 6.0507 11.306 6.06799 11.094 6.06799H10.829L10.8414 7.693L10.8539 9.318L10.8687 7.719L10.8836 6.11999H11.1228C11.349 6.11999 11.4875 6.0208 11.392 5.92707C11.3738 5.90926 11.359 5.9337 11.359 5.98128ZM10.2701 6.13325C10.256 6.16926 10.2509 7.01752 10.2586 8.01826L10.2726 9.838L10.299 7.953C10.3135 6.91625 10.3187 6.06799 10.3105 6.06799C10.3024 6.06799 10.2841 6.09737 10.2701 6.13325ZM11.8717 9.85242C11.9061 9.87387 11.9438 9.98463 11.9556 10.0986C11.9769 10.304 11.9772 10.3037 11.9861 10.059C11.9934 9.85476 11.9789 9.81213 11.9022 9.81278C11.8409 9.8133 11.8305 9.82681 11.8717 9.85242ZM6.48296 11.7333C7.05139 11.7491 7.54932 11.7828 7.5896 11.8083C7.64115 11.8409 7.65546 11.8332 7.63823 11.7823C7.61836 11.7239 7.40622 11.7095 6.53159 11.7073L5.44946 11.7045L6.48296 11.7333ZM10.9783 13.855C11.5997 13.8633 12.6014 13.8633 13.2043 13.8549C13.8072 13.8465 13.2988 13.8398 12.0745 13.8398C10.8502 13.8398 10.3569 13.8467 10.9783 13.855ZM20.9227 13.8826C20.9082 13.9191 20.9036 14.4046 20.9122 14.9616L20.9278 15.974L20.9399 14.9215L20.952 13.8692L23.1117 13.855L25.2715 13.8408L23.11 13.8283C21.3941 13.8186 20.9432 13.8296 20.9227 13.8826ZM12.1427 17.079L12.1275 18.158L13.1875 18.132L14.2475 18.106L14.2634 17.053L14.2793 16H13.2186H12.1581L12.1427 17.079ZM23.1667 17.086C23.1584 17.6845 23.1656 18.1655 23.1831 18.155C23.2005 18.1443 23.684 18.133 24.2574 18.1298L25.3001 18.1239L25.2858 17.075L25.2715 16.026L24.2267 16.012L23.1821 15.9978L23.1667 17.086ZM25.2306 17.7826C25.2195 17.9032 25.2106 17.7914 25.2108 17.534C25.2109 17.2766 25.22 17.1778 25.231 17.3146C25.2419 17.4513 25.2418 17.6619 25.2306 17.7826ZM12.0698 25.906C12.07 26.4208 12.0779 26.6244 12.0874 26.3584C12.0971 26.0924 12.0971 25.6712 12.0874 25.4224C12.0776 25.1736 12.0698 25.3912 12.0698 25.906ZM10.3917 26.8547C10.6905 26.8641 11.1794 26.8641 11.4782 26.8547C11.777 26.8455 11.5325 26.838 10.935 26.838C10.3374 26.838 10.0929 26.8455 10.3917 26.8547ZM9.89232 30.742C9.89258 30.9422 9.90213 31.0177 9.91365 30.9098C9.92518 30.8019 9.92492 30.6381 9.91326 30.5458C9.90146 30.4535 9.89206 30.5418 9.89232 30.742ZM6.25983 35.4866C6.44308 35.4967 6.72928 35.4966 6.89583 35.4863C7.06225 35.4761 6.91226 35.4678 6.56246 35.4679C6.21266 35.4679 6.07645 35.4763 6.25983 35.4866ZM7.66049 36.579C7.65281 37.3149 7.63028 37.684 7.59278 37.684C7.56191 37.684 7.55277 37.7095 7.57238 37.7405C7.59795 37.7812 7.62405 37.7812 7.66552 37.7405C7.70329 37.7035 8.09496 37.684 8.79906 37.684H9.87496V38.75V39.816L8.74871 39.8274L7.62246 39.8387L8.73546 39.8664C9.56849 39.8871 9.8588 39.8783 9.88927 39.8317C9.9118 39.7974 9.92372 39.2943 9.91577 38.7137L9.90146 37.658L8.81496 37.632L7.72846 37.606L7.70024 36.54L7.67215 35.474L7.66049 36.579ZM5.52221 37.6983C5.54486 37.7205 5.95522 37.7321 6.43394 37.7242L7.30446 37.7097L6.39273 37.6839C5.89122 37.6697 5.49955 37.6762 5.52221 37.6983ZM12.0661 40.362C12.0664 40.5908 12.0757 40.6779 12.0868 40.5556C12.098 40.4334 12.0979 40.2462 12.0865 40.1396C12.0751 40.0331 12.066 40.1332 12.0661 40.362ZM9.84303 41.272C9.84303 41.6867 9.85125 41.8563 9.86132 41.649C9.87139 41.4416 9.87139 41.1023 9.86132 40.895C9.85125 40.6876 9.84303 40.8573 9.84303 41.272Z" fill="#946E20"/>
<path fill-rule="evenodd" clip-rule="evenodd" d="M7.66229 0.841719C7.57882 0.934799 7.56623 2.79198 7.64904 2.79198C7.6823 2.79198 7.70204 2.45463 7.70204 1.8838C7.70204 1.03919 7.7092 0.971848 7.8046 0.921798C7.94452 0.848348 22.9993 0.846528 23.0455 0.919978C23.1009 1.00786 23.178 0.977698 23.178 0.867978C23.178 0.730178 7.78578 0.704179 7.66229 0.841719ZM12.6443 2.25586C12.6953 2.26886 12.7788 2.26886 12.8298 2.25586C12.8808 2.24273 12.8391 2.23207 12.737 2.23207C12.635 2.23207 12.5933 2.24273 12.6443 2.25586ZM5.63504 2.94798C5.63504 2.98074 5.98842 2.99998 6.58904 2.99998C7.18966 2.99998 7.54304 2.98074 7.54304 2.94798C7.54304 2.91522 7.18966 2.89598 6.58904 2.89598C5.98842 2.89598 5.63504 2.91522 5.63504 2.94798ZM11.9014 3.05198C11.9014 3.15208 11.9122 3.19303 11.9256 3.14298C11.9389 3.09293 11.9389 3.01103 11.9256 2.96098C11.9122 2.91093 11.9014 2.95188 11.9014 3.05198ZM23.2045 2.94798C23.1831 2.98191 23.5289 2.99998 24.2028 2.99998C25.094 2.99998 25.238 3.01116 25.2658 3.08227C25.2836 3.12751 25.298 4.06351 25.298 5.16227C25.298 6.45941 25.3166 7.15998 25.351 7.15998C25.3855 7.15998 25.404 6.42535 25.404 5.06009V2.96007L25.2848 2.92874C25.079 2.87466 23.2401 2.89169 23.2045 2.94798ZM3.14404 6.14598C3.14404 6.64869 3.16405 6.95198 3.19704 6.95198C3.23004 6.95198 3.25004 6.64869 3.25004 6.14598C3.25004 5.64327 3.23004 5.33998 3.19704 5.33998C3.16405 5.33998 3.14404 5.64327 3.14404 6.14598ZM25.51 7.31598C25.51 7.35004 26.593 7.36798 28.6529 7.36798C31.0268 7.36798 31.8113 7.38319 31.8594 7.43038C31.9038 7.47393 31.923 7.75629 31.923 8.36638C31.923 8.91407 31.9428 9.23998 31.976 9.23998C32.0669 9.23998 32.0453 7.42856 31.9534 7.33821C31.8598 7.24656 25.51 7.22459 25.51 7.31598ZM3.14404 10.384C3.14404 10.9733 3.16365 11.32 3.19704 11.32C3.23043 11.32 3.25004 10.9733 3.25004 10.384C3.25004 9.79469 3.23043 9.44798 3.19704 9.44798C3.16365 9.44798 3.14404 9.79469 3.14404 10.384ZM3.14404 11.4717C3.14404 11.6822 3.15835 11.6844 4.43499 11.6729L5.66154 11.6619L4.46904 11.6315C3.14762 11.5977 3.25004 11.6086 3.25004 11.502C3.25004 11.4591 3.22619 11.424 3.19704 11.424C3.16789 11.424 3.14404 11.4454 3.14404 11.4717ZM34.0641 11.5801C34.032 11.6116 32.7822 11.6313 30.7472 11.6328C27.5157 11.635 27.482 11.636 27.5093 11.7383C27.544 11.8688 27.63 11.9249 27.63 11.8171C27.63 11.7446 27.9655 11.736 30.8139 11.736C34.0209 11.736 34.3095 11.72 34.1386 11.5524C34.1259 11.5399 34.0923 11.5524 34.0641 11.5801ZM25.9738 11.6707C26.2434 11.6802 26.6847 11.6802 26.9543 11.6707C27.2239 11.6612 27.0033 11.6536 26.464 11.6536C25.9248 11.6536 25.7042 11.6612 25.9738 11.6707ZM25.1655 11.736C25.0749 11.7742 25.0729 11.7812 25.1523 11.7843C25.2033 11.7863 25.2623 11.7898 25.2835 11.7919C25.3047 11.7941 25.3305 11.7706 25.3408 11.7399C25.363 11.6747 25.3134 11.6737 25.1655 11.736ZM7.64984 11.853C7.6505 11.9476 7.66044 11.955 7.70204 11.892C7.76843 11.7911 7.76843 11.736 7.70204 11.736C7.67289 11.736 7.64944 11.7886 7.64984 11.853ZM7.67448 17.17C7.67448 20.03 7.68097 21.2076 7.68879 19.7869C7.69661 18.3662 7.69661 16.0262 7.68879 14.5869C7.68097 13.1476 7.67448 14.31 7.67448 17.17ZM14.2962 15.012C14.2962 15.5697 14.304 15.7978 14.3135 15.519C14.3231 15.2401 14.3231 14.7838 14.3135 14.505C14.304 14.2261 14.2962 14.4543 14.2962 15.012ZM25.2109 17.534C25.2107 17.7914 25.2196 17.9032 25.2307 17.7825C25.2419 17.6619 25.242 17.4513 25.2311 17.3145C25.2201 17.1778 25.211 17.2766 25.2109 17.534ZM13.1875 18.132L12.1275 18.1614L13.2008 18.1727C13.8886 18.1799 14.274 18.1653 14.274 18.132C14.274 18.1034 14.2681 18.085 14.2608 18.0913C14.2535 18.0975 13.7705 18.1159 13.1875 18.132ZM24.185 18.1329L23.1515 18.1632L24.2255 18.1697C24.8706 18.1734 25.2872 18.1569 25.269 18.1281C25.2525 18.1016 25.2342 18.085 25.2286 18.0913C25.223 18.0975 24.7535 18.1162 24.185 18.1329ZM16.5224 23.566C16.5226 24.1666 16.5303 24.4051 16.5397 24.0961C16.5491 23.7871 16.5489 23.2957 16.5395 23.0041C16.5301 22.7125 16.5224 22.9654 16.5224 23.566ZM10.4183 24.6707C10.7025 24.6801 11.1676 24.6801 11.4518 24.6707C11.736 24.6614 11.5035 24.6537 10.935 24.6537C10.3666 24.6537 10.1341 24.6614 10.4183 24.6707ZM23.6181 24.6707C23.9037 24.6802 24.3569 24.6801 24.6251 24.6707C24.8931 24.6612 24.6594 24.6536 24.1055 24.6537C23.5517 24.6537 23.3323 24.6614 23.6181 24.6707ZM15.9577 24.7217C16.053 24.7332 16.1961 24.733 16.2757 24.7212C16.3554 24.7093 16.2774 24.6998 16.1025 24.7001C15.9276 24.7004 15.8625 24.7101 15.9577 24.7217ZM19.5608 24.7227C19.8013 24.7323 20.1948 24.7323 20.4353 24.7227C20.6758 24.713 20.479 24.7052 19.998 24.7052C19.5171 24.7052 19.3203 24.713 19.5608 24.7227ZM23.245 26.8533C23.3256 26.8652 23.4449 26.865 23.51 26.8526C23.5751 26.8403 23.5093 26.8304 23.3635 26.8308C23.2178 26.8312 23.1644 26.8413 23.245 26.8533ZM24.0409 26.8543C24.1803 26.865 24.3949 26.8649 24.5179 26.8539C24.6408 26.843 24.5269 26.8343 24.2645 26.8344C24.0022 26.8346 23.9015 26.8435 24.0409 26.8543ZM16.8335 28.9866C17.0315 28.9966 17.3415 28.9966 17.5225 28.9865C17.7034 28.9763 17.5415 28.9681 17.1625 28.9681C16.7836 28.9683 16.6355 28.9766 16.8335 28.9866ZM18.9513 28.9868C19.2938 28.9958 19.8543 28.9958 20.1968 28.9868C20.5393 28.9777 20.2591 28.9703 19.574 28.9703C18.889 28.9703 18.6088 28.9777 18.9513 28.9868ZM9.89598 29.702C9.89598 30.1024 9.90432 30.2593 9.91439 30.0506C9.92446 29.8421 9.92447 29.5145 9.91426 29.3226C9.90406 29.1309 9.89585 29.3016 9.89598 29.702ZM23.1474 30.066C23.1476 30.6666 23.1552 30.9051 23.1647 30.5961C23.1741 30.2871 23.1739 29.7957 23.1645 29.5041C23.1551 29.2125 23.1474 29.4654 23.1474 30.066ZM9.89744 32.146C9.89757 32.7466 9.90525 32.9851 9.91466 32.6761C9.92407 32.3671 9.92394 31.8757 9.91453 31.5841C9.90512 31.2925 9.89744 31.5454 9.89744 32.146ZM12.1155 35.032C12.1155 35.1607 12.1258 35.2133 12.1384 35.149C12.1511 35.0846 12.1511 34.9793 12.1384 34.915C12.1258 34.8506 12.1155 34.9033 12.1155 35.032ZM12.0684 41.376C12.0684 41.7335 12.0769 41.8797 12.0873 41.701C12.0976 41.5222 12.0976 41.2297 12.0873 41.051C12.0769 40.8722 12.0684 41.0185 12.0684 41.376Z" fill="#AB5E5D"/>
</svg>
