<svg width="84" height="14" viewBox="0 0 84 14" fill="none" xmlns="http://www.w3.org/2000/svg">
<path d="M9.25 11.25V2.25H11.5V11.25H9.25ZM0.25 13.5V0H9.25V2.25H2.5V11.25H9.25V13.5H0.25Z" fill="white"/>
<path d="M13.75 13.5V0H16V13.5H13.75Z" fill="white"/>
<path d="M18.25 13.5V11.25H27.25V13.5H18.25ZM27.25 11.25V6.75H29.5V11.25H27.25ZM20.5 6.75V4.5H27.25V6.75H20.5ZM18.25 4.5V2.25H20.5V4.5H18.25ZM20.5 2.25V0H29.5V2.25H20.5Z" fill="white"/>
<path d="M34 13.5V11.25H40.75V13.5H34ZM40.75 11.25V9H43V11.25H40.75ZM31.75 11.25V2.25H34V11.25H31.75ZM40.75 4.5V2.25H43V4.5H40.75ZM34 2.25V0H40.75V2.25H34Z" fill="white"/>
<path d="M47.5 13.5V11.25H54.25V13.5H47.5ZM45.25 11.25V2.25H47.5V11.25H45.25ZM54.25 11.25V2.25H56.5V11.25H54.25ZM47.5 2.25V0H54.25V2.25H47.5Z" fill="white"/>
<path d="M67.75 13.5V6.75H70V13.5H67.75ZM67.75 4.5V2.25H70V4.5H67.75ZM58.75 13.5V0H67.75V2.25H61V4.5H67.75V6.75H61V13.5H58.75Z" fill="white"/>
<path d="M81.25 11.25V2.25H83.5V11.25H81.25ZM72.25 13.5V0H81.25V2.25H74.5V11.25H81.25V13.5H72.25Z" fill="white"/>
</svg>
