<svg width="16" height="16" viewBox="0 0 16 16" fill="none" xmlns="http://www.w3.org/2000/svg">
<rect x="2" y="10" width="1.99999" height="2.00001" transform="rotate(-180 2 10)" fill="white"/>
<rect x="2" y="6" width="1.99999" height="1.99999" transform="rotate(-180 2 6)" fill="white"/>
<rect x="2" y="12" width="1.99999" height="2.00001" transform="rotate(-180 2 12)" fill="white"/>
<rect x="2" y="8" width="1.99999" height="2.00001" transform="rotate(-180 2 8)" fill="white"/>
<rect x="10" y="2" width="2.00001" height="2" transform="rotate(-180 10 2)" fill="white"/>
<rect x="12" y="2" width="2.00001" height="2" transform="rotate(-180 12 2)" fill="white"/>
<rect x="10" y="10" width="2.00001" height="2.00001" transform="rotate(-180 10 10)" fill="white"/>
<rect x="10" y="6" width="2.00001" height="1.99999" transform="rotate(-180 10 6)" fill="white"/>
<rect x="10" y="14" width="2.00001" height="2.00001" transform="rotate(-180 10 14)" fill="white"/>
<rect x="10" y="4" width="2.00001" height="2" transform="rotate(-180 10 4)" fill="white"/>
<rect x="10" y="12" width="2.00001" height="2.00001" transform="rotate(-180 10 12)" fill="white"/>
<rect x="10" y="8" width="2.00001" height="2.00001" transform="rotate(-180 10 8)" fill="white"/>
<rect x="10" y="16" width="2.00001" height="2.00001" transform="rotate(-180 10 16)" fill="white"/>
<rect x="12" y="16" width="2.00001" height="2.00001" transform="rotate(-180 12 16)" fill="white"/>
<rect x="6" y="10" width="2.00001" height="2.00001" transform="rotate(-180 6 10)" fill="white"/>
<rect x="6" y="6" width="2.00001" height="1.99999" transform="rotate(-180 6 6)" fill="white"/>
<rect x="6" y="14" width="2.00001" height="2.00001" transform="rotate(-180 6 14)" fill="white"/>
<rect x="6" y="4" width="2.00001" height="2" transform="rotate(-180 6 4)" fill="white"/>
<rect x="6" y="12" width="2.00001" height="2.00001" transform="rotate(-180 6 12)" fill="white"/>
<rect x="6" y="8" width="2.00001" height="2.00001" transform="rotate(-180 6 8)" fill="white"/>
<rect x="14" y="10" width="2.00001" height="2.00001" transform="rotate(-180 14 10)" fill="white"/>
<rect x="14" y="6" width="2.00001" height="1.99999" transform="rotate(-180 14 6)" fill="white"/>
<rect x="14" y="14" width="2.00001" height="2.00001" transform="rotate(-180 14 14)" fill="white"/>
<rect x="14" y="4" width="2.00001" height="2" transform="rotate(-180 14 4)" fill="white"/>
<rect x="14" y="12" width="2.00001" height="2.00001" transform="rotate(-180 14 12)" fill="white"/>
<rect x="14" y="8" width="2.00001" height="2.00001" transform="rotate(-180 14 8)" fill="white"/>
<rect x="4" y="10" width="2.00001" height="2.00001" transform="rotate(-180 4 10)" fill="white"/>
<rect x="4" y="6" width="2.00001" height="1.99999" transform="rotate(-180 4 6)" fill="white"/>
<rect x="4" y="14" width="2.00001" height="2.00001" transform="rotate(-180 4 14)" fill="white"/>
<rect x="4" y="4" width="2.00001" height="2" transform="rotate(-180 4 4)" fill="white"/>
<rect x="4" y="12" width="2.00001" height="2.00001" transform="rotate(-180 4 12)" fill="white"/>
<rect x="4" y="8" width="2.00001" height="2.00001" transform="rotate(-180 4 8)" fill="white"/>
<rect x="12" y="10" width="2.00001" height="2.00001" transform="rotate(-180 12 10)" fill="white"/>
<rect x="12" y="6" width="2.00001" height="1.99999" transform="rotate(-180 12 6)" fill="white"/>
<rect x="12" y="14" width="2.00001" height="2.00001" transform="rotate(-180 12 14)" fill="white"/>
<rect x="12" y="4" width="2.00001" height="2" transform="rotate(-180 12 4)" fill="white"/>
<rect x="12" y="12" width="2.00001" height="2.00001" transform="rotate(-180 12 12)" fill="white"/>
<rect x="12" y="8" width="2.00001" height="2.00001" transform="rotate(-180 12 8)" fill="white"/>
<rect x="8" y="2" width="2.00001" height="2" transform="rotate(-180 8 2)" fill="white"/>
<rect x="6" y="2" width="2.00001" height="2" transform="rotate(-180 6 2)" fill="white"/>
<rect x="8" y="10" width="2.00001" height="2.00001" transform="rotate(-180 8 10)" fill="white"/>
<rect x="8" y="6" width="2.00001" height="1.99999" transform="rotate(-180 8 6)" fill="white"/>
<rect x="8" y="14" width="2.00001" height="2.00001" transform="rotate(-180 8 14)" fill="white"/>
<rect x="8" y="4" width="2.00001" height="2" transform="rotate(-180 8 4)" fill="white"/>
<rect x="8" y="12" width="2.00001" height="2.00001" transform="rotate(-180 8 12)" fill="white"/>
<rect x="8" y="8" width="2.00001" height="2.00001" transform="rotate(-180 8 8)" fill="white"/>
<rect x="8" y="16" width="2.00001" height="2.00001" transform="rotate(-180 8 16)" fill="white"/>
<rect x="6" y="16" width="2.00001" height="2.00001" transform="rotate(-180 6 16)" fill="white"/>
<rect x="16" y="10" width="2.00001" height="2.00001" transform="rotate(-180 16 10)" fill="white"/>
<rect x="16" y="6" width="2.00001" height="1.99999" transform="rotate(-180 16 6)" fill="white"/>
<rect x="16" y="12" width="2.00001" height="2.00001" transform="rotate(-180 16 12)" fill="white"/>
<rect x="16" y="8" width="2.00001" height="2.00001" transform="rotate(-180 16 8)" fill="white"/>
<path d="M8.23782 12V6.64756H7.2063V12H8.23782ZM7.2063 5.15759C7.06877 5.0277 7 4.86724 7 4.67622C7 4.4852 7.06877 4.32474 7.2063 4.19484C7.35148 4.06495 7.5234 4 7.72206 4C7.92073 4 8.08883 4.06495 8.22636 4.19484C8.37154 4.32474 8.44413 4.4852 8.44413 4.67622C8.44413 4.86724 8.37154 5.0277 8.22636 5.15759C8.08883 5.28749 7.92073 5.35244 7.72206 5.35244C7.5234 5.35244 7.35148 5.28749 7.2063 5.15759Z" fill="#181235"/>
</svg>
