<svg width="14" height="14" viewBox="0 0 14 14" fill="none" xmlns="http://www.w3.org/2000/svg">
<path d="M7.00016 0.333008C3.32016 0.333008 0.333496 3.31967 0.333496 6.99967C0.333496 10.6797 3.32016 13.6663 7.00016 13.6663C10.6802 13.6663 13.6668 10.6797 13.6668 6.99967C13.6668 3.31967 10.6802 0.333008 7.00016 0.333008ZM7.00016 12.333C4.06016 12.333 1.66683 9.93967 1.66683 6.99967C1.66683 4.05967 4.06016 1.66634 7.00016 1.66634C9.94016 1.66634 12.3335 4.05967 12.3335 6.99967C12.3335 9.93967 9.94016 12.333 7.00016 12.333ZM6.3335 9.66634H7.66683V10.9997H6.3335V9.66634ZM7.40683 3.02634C6.0335 2.82634 4.82016 3.67301 4.4535 4.88634C4.3335 5.27301 4.62683 5.66634 5.0335 5.66634H5.16683C5.44016 5.66634 5.66016 5.47301 5.7535 5.21967C5.96683 4.62634 6.60016 4.21967 7.28683 4.36634C7.92016 4.49967 8.38683 5.11967 8.3335 5.76634C8.26683 6.65967 7.2535 6.85301 6.70016 7.68634C6.70016 7.69301 6.6935 7.69301 6.6935 7.69967C6.68683 7.71301 6.68016 7.71968 6.6735 7.73301C6.6135 7.83301 6.5535 7.94634 6.50683 8.06634C6.50016 8.08634 6.48683 8.09967 6.48016 8.11967C6.4735 8.13301 6.4735 8.14634 6.46683 8.16634C6.38683 8.39301 6.3335 8.66634 6.3335 8.99967H7.66683C7.66683 8.71968 7.74016 8.48634 7.8535 8.28634C7.86683 8.26634 7.8735 8.24634 7.88683 8.22634C7.94016 8.13301 8.00683 8.04634 8.0735 7.96634C8.08016 7.95967 8.08683 7.94634 8.0935 7.93967C8.16016 7.85967 8.2335 7.78634 8.3135 7.71301C8.9535 7.10634 9.82016 6.61301 9.64016 5.33967C9.48016 4.17967 8.56683 3.19967 7.40683 3.02634Z" fill="#55BCC0"/>
</svg>
