<svg width="36" height="36" viewBox="0 0 36 36" fill="none" xmlns="http://www.w3.org/2000/svg">
<rect x="23.1431" y="5.14282" width="2.57143" height="2.57143" transform="rotate(90 23.1431 5.14282)" fill="#FED955"/>
<rect x="25.7144" y="7.71436" width="2.57143" height="2.57143" transform="rotate(90 25.7144 7.71436)" fill="#FED955"/>
<rect x="20.5713" y="7.71436" width="2.57143" height="2.57143" transform="rotate(90 20.5713 7.71436)" fill="#FED955"/>
<rect x="23.1431" y="10.2856" width="2.57143" height="2.57143" transform="rotate(90 23.1431 10.2856)" fill="#FED955"/>
<rect x="5.14307" y="20.5715" width="2.57143" height="2.57143" transform="rotate(90 5.14307 20.5715)" fill="#FED955"/>
<rect x="7.71436" y="20.5715" width="2.57143" height="2.57143" transform="rotate(90 7.71436 20.5715)" fill="#FED955"/>
<rect x="2.57129" y="23.1431" width="2.57143" height="2.57143" transform="rotate(90 2.57129 23.1431)" fill="#FED955"/>
<rect x="2.57129" y="25.7144" width="2.57143" height="2.57143" transform="rotate(90 2.57129 25.7144)" fill="#FED955"/>
<rect x="5.14307" y="28.2859" width="2.57143" height="2.57143" transform="rotate(90 5.14307 28.2859)" fill="#FED955"/>
<rect x="7.71436" y="28.2859" width="2.57143" height="2.57143" transform="rotate(90 7.71436 28.2859)" fill="#FED955"/>
<rect x="10.2856" y="23.1431" width="2.57143" height="2.57143" transform="rotate(90 10.2856 23.1431)" fill="#FED955"/>
<rect x="10.2856" y="25.7144" width="2.57143" height="2.57143" transform="rotate(90 10.2856 25.7144)" fill="#FED955"/>
<rect x="33.4287" width="2.57143" height="2.57143" transform="rotate(90 33.4287 0)" fill="#FED955"/>
<rect x="36" y="2.57153" width="2.57143" height="2.57143" transform="rotate(90 36 2.57153)" fill="#FED955"/>
<rect x="33.4287" y="2.57153" width="2.57143" height="2.57143" transform="rotate(90 33.4287 2.57153)" fill="#FED955"/>
<rect x="30.8569" y="2.57153" width="2.57143" height="2.57143" transform="rotate(90 30.8569 2.57153)" fill="#FED955"/>
<rect x="33.4287" y="5.14282" width="2.57143" height="2.57143" transform="rotate(90 33.4287 5.14282)" fill="#FED955"/>
<rect x="25.7144" y="25.7144" width="2.57143" height="2.57143" transform="rotate(90 25.7144 25.7144)" fill="#7B79F7"/>
<rect x="33.4287" y="33.4285" width="2.57143" height="2.57143" transform="rotate(90 33.4287 33.4285)" fill="#7B79F7"/>
<rect x="33.4287" y="30.8572" width="2.57143" height="2.57143" transform="rotate(90 33.4287 30.8572)" fill="#9695F8"/>
<rect x="36" y="30.8572" width="2.57143" height="2.57143" transform="rotate(90 36 30.8572)" fill="#7B79F7"/>
<rect x="10.2856" y="10.2856" width="2.57143" height="2.57143" transform="rotate(90 10.2856 10.2856)" fill="#605EE8"/>
<rect x="30.8569" y="30.8572" width="2.57143" height="2.57143" transform="rotate(90 30.8569 30.8572)" fill="#7B79F7"/>
<rect x="15.4287" y="15.4285" width="2.57143" height="2.57143" transform="rotate(90 15.4287 15.4285)" fill="#7B79F7"/>
<rect x="33.4287" y="28.2856" width="2.57143" height="2.57143" transform="rotate(90 33.4287 28.2856)" fill="#7B79F7"/>
<rect x="18" y="12.8572" width="2.57143" height="2.57143" transform="rotate(90 18 12.8572)" fill="#7B79F7"/>
<rect x="30.8569" y="25.7144" width="2.57143" height="2.57143" transform="rotate(90 30.8569 25.7144)" fill="#7B79F7"/>
<rect x="15.4287" y="10.2856" width="2.57143" height="2.57143" transform="rotate(90 15.4287 10.2856)" fill="#7B79F7"/>
<rect x="18" y="15.4285" width="2.57143" height="2.57143" transform="rotate(90 18 15.4285)" fill="#9695F8"/>
<rect x="18" y="18" width="2.57143" height="2.57143" transform="rotate(90 18 18)" fill="#7B79F7"/>
<rect x="20.5713" y="20.5715" width="2.57143" height="2.57143" transform="rotate(90 20.5713 20.5715)" fill="#7B79F7"/>
<rect x="20.5713" y="18" width="2.57143" height="2.57143" transform="rotate(90 20.5713 18)" fill="#9695F8"/>
<rect x="23.1431" y="20.5715" width="2.57143" height="2.57143" transform="rotate(90 23.1431 20.5715)" fill="#9695F8"/>
<rect x="23.1431" y="23.1428" width="2.57143" height="2.57143" transform="rotate(90 23.1431 23.1428)" fill="#7B79F7"/>
<rect x="25.7144" y="23.1428" width="2.57143" height="2.57143" transform="rotate(90 25.7144 23.1428)" fill="#9695F8"/>
<rect x="25.7144" y="20.5715" width="2.57143" height="2.57143" transform="rotate(90 25.7144 20.5715)" fill="#7B79F7"/>
<rect x="20.5713" y="15.4285" width="2.57143" height="2.57143" transform="rotate(90 20.5713 15.4285)" fill="#7B79F7"/>
<rect x="23.1431" y="18" width="2.57143" height="2.57143" transform="rotate(90 23.1431 18)" fill="#7B79F7"/>
<rect x="28.2856" y="25.7144" width="2.57143" height="2.57143" transform="rotate(90 28.2856 25.7144)" fill="#9695F8"/>
<rect x="12.8569" y="10.2856" width="2.57143" height="2.57143" transform="rotate(90 12.8569 10.2856)" fill="#605EE8"/>
<rect x="10.2856" y="7.71436" width="2.57143" height="2.57143" transform="rotate(90 10.2856 7.71436)" fill="#9695F8"/>
<rect x="7.71436" y="7.71436" width="2.57143" height="2.57143" transform="rotate(90 7.71436 7.71436)" fill="#9695F8"/>
<rect x="7.71436" y="5.14282" width="2.57143" height="2.57143" transform="rotate(90 7.71436 5.14282)" fill="#9695F8"/>
<rect x="10.2856" y="5.14282" width="2.57143" height="2.57143" transform="rotate(90 10.2856 5.14282)" fill="#9695F8"/>
<rect x="28.2856" y="23.1428" width="2.57143" height="2.57143" transform="rotate(90 28.2856 23.1428)" fill="#7B79F7"/>
<rect x="12.8569" y="7.71436" width="2.57143" height="2.57143" transform="rotate(90 12.8569 7.71436)" fill="#605EE8"/>
<rect x="30.8569" y="28.2856" width="2.57143" height="2.57143" transform="rotate(90 30.8569 28.2856)" fill="#9695F8"/>
<rect x="15.4287" y="12.8572" width="2.57143" height="2.57143" transform="rotate(90 15.4287 12.8572)" fill="#9695F8"/>
<rect x="28.2856" y="28.2856" width="2.57143" height="2.57143" transform="rotate(90 28.2856 28.2856)" fill="#7B79F7"/>
<rect x="12.8569" y="12.8572" width="2.57143" height="2.57143" transform="rotate(90 12.8569 12.8572)" fill="#7B79F7"/>
<rect x="5.14307" y="2.57153" width="2.57143" height="2.57143" transform="rotate(90 5.14307 2.57153)" fill="#9695F8"/>
<rect x="2.57129" y="2.57153" width="2.57143" height="2.57143" transform="rotate(90 2.57129 2.57153)" fill="#7B79F7"/>
<rect x="5.14307" width="2.57143" height="2.57143" transform="rotate(90 5.14307 0)" fill="#7B79F7"/>
<rect x="12.8569" y="2.57153" width="2.57143" height="2.57143" transform="rotate(90 12.8569 2.57153)" fill="#7B79F7"/>
<rect x="15.4287" y="2.57153" width="2.57143" height="2.57143" transform="rotate(90 15.4287 2.57153)" fill="#9695F8"/>
<rect x="12.8569" width="2.57143" height="2.57143" transform="rotate(90 12.8569 0)" fill="#9695F8"/>
<rect x="15.4287" width="2.57143" height="2.57143" transform="rotate(90 15.4287 0)" fill="#7B79F7"/>
<rect x="5.14307" y="10.2856" width="2.57143" height="2.57143" transform="rotate(90 5.14307 10.2856)" fill="#7B79F7"/>
<rect x="2.57129" y="12.8572" width="2.57143" height="2.57143" transform="rotate(90 2.57129 12.8572)" fill="#7B79F7"/>
<rect x="5.14307" y="12.8572" width="2.57143" height="2.57143" transform="rotate(90 5.14307 12.8572)" fill="#9695F8"/>
<rect x="2.57129" y="10.2856" width="2.57143" height="2.57143" transform="rotate(90 2.57129 10.2856)" fill="#9695F8"/>
<rect x="2.57129" width="2.57143" height="2.57143" transform="rotate(90 2.57129 0)" fill="#9695F8"/>
</svg>
