<svg width="492" height="492" viewBox="0 0 492 492" fill="none" xmlns="http://www.w3.org/2000/svg">
<mask id="mask0" mask-type="alpha" maskUnits="userSpaceOnUse" x="0" y="0" width="492" height="492">
<rect width="492" height="492" fill="#221B47"/>
</mask>
<g mask="url(#mask0)">
<path opacity="0.5" d="M0.912087 0.297974H-0.315918V491.5H0.912087V0.297974Z" fill="white" fill-opacity="0.1"/>
<path opacity="0.2" d="M24.8581 -0.31604H23.6301V492.114H24.8581V-0.31604Z" fill="white" fill-opacity="0.1"/>
<path opacity="0.2" d="M49.5412 -0.31604H48.3132V492.114H49.5412V-0.31604Z" fill="white" fill-opacity="0.1"/>
<path opacity="0.2" d="M74.1013 -0.31604H72.8733V492.114H74.1013V-0.31604Z" fill="white" fill-opacity="0.1"/>
<path opacity="0.2" d="M98.7839 -0.31604H97.5559V492.114H98.7839V-0.31604Z" fill="white" fill-opacity="0.1"/>
<path opacity="0.5" d="M123.344 -0.31604H122.116V492.114H123.344V-0.31604Z" fill="white" fill-opacity="0.1"/>
<path opacity="0.2" d="M148.027 -0.31604H146.799V492.114H148.027V-0.31604Z" fill="white" fill-opacity="0.1"/>
<path opacity="0.2" d="M172.587 -0.31604H171.359V492.114H172.587V-0.31604Z" fill="white" fill-opacity="0.1"/>
<path opacity="0.2" d="M197.27 -0.31604H196.042V492.114H197.27V-0.31604Z" fill="white" fill-opacity="0.1"/>
<path opacity="0.2" d="M221.83 -0.31604H220.602V492.114H221.83V-0.31604Z" fill="white" fill-opacity="0.1"/>
<path opacity="0.5" d="M246.513 -0.31604H245.285V492.114H246.513V-0.31604Z" fill="white" fill-opacity="0.1"/>
<path opacity="0.2" d="M271.073 -0.31604H269.845V492.114H271.073V-0.31604Z" fill="white" fill-opacity="0.1"/>
<path opacity="0.2" d="M295.756 -0.31604H294.528V492.114H295.756V-0.31604Z" fill="white" fill-opacity="0.1"/>
<path opacity="0.2" d="M320.316 -0.31604H319.088V492.114H320.316V-0.31604Z" fill="white" fill-opacity="0.1"/>
<path opacity="0.2" d="M344.999 -0.31604H343.771V492.114H344.999V-0.31604Z" fill="white" fill-opacity="0.1"/>
<path opacity="0.5" d="M369.559 -0.31604H368.331V492.114H369.559V-0.31604Z" fill="white" fill-opacity="0.1"/>
<path opacity="0.2" d="M394.242 -0.31604H393.014V492.114H394.242V-0.31604Z" fill="white" fill-opacity="0.1"/>
<path opacity="0.2" d="M418.802 -0.31604H417.574V492.114H418.802V-0.31604Z" fill="white" fill-opacity="0.1"/>
<path opacity="0.2" d="M443.485 -0.31604H442.257V492.114H443.485V-0.31604Z" fill="white" fill-opacity="0.1"/>
<path opacity="0.2" d="M468.045 -0.31604H466.817V492.114H468.045V-0.31604Z" fill="white" fill-opacity="0.1"/>
<path opacity="0.5" d="M492.114 0.297974H490.886V491.5H492.114V0.297974Z" fill="white" fill-opacity="0.1"/>
<path opacity="0.5" d="M491.5 -0.31604H0.298096V0.911965H491.5V-0.31604Z" fill="white" fill-opacity="0.1"/>
<path opacity="0.2" d="M492.114 23.6301H-0.315918V24.8581H492.114V23.6301Z" fill="white" fill-opacity="0.1"/>
<path opacity="0.2" d="M492.114 48.3131H-0.315918V49.5411H492.114V48.3131Z" fill="white" fill-opacity="0.1"/>
<path opacity="0.2" d="M492.114 72.8733H-0.315918V74.1013H492.114V72.8733Z" fill="white" fill-opacity="0.1"/>
<path opacity="0.2" d="M492.114 97.5559H-0.315918V98.7839H492.114V97.5559Z" fill="white" fill-opacity="0.1"/>
<path opacity="0.5" d="M492.114 122.116H-0.315918V123.344H492.114V122.116Z" fill="white" fill-opacity="0.1"/>
<path opacity="0.2" d="M492.114 146.799H-0.315918V148.027H492.114V146.799Z" fill="white" fill-opacity="0.1"/>
<path opacity="0.2" d="M492.114 171.359H-0.315918V172.587H492.114V171.359Z" fill="white" fill-opacity="0.1"/>
<path opacity="0.2" d="M492.114 196.042H-0.315918V197.27H492.114V196.042Z" fill="white" fill-opacity="0.1"/>
<path opacity="0.2" d="M492.114 220.602H-0.315918V221.83H492.114V220.602Z" fill="white" fill-opacity="0.1"/>
<path opacity="0.5" d="M492.114 245.285H-0.315918V246.513H492.114V245.285Z" fill="white" fill-opacity="0.1"/>
<path opacity="0.2" d="M492.114 269.845H-0.315918V271.073H492.114V269.845Z" fill="white" fill-opacity="0.1"/>
<path opacity="0.2" d="M492.114 294.528H-0.315918V295.756H492.114V294.528Z" fill="white" fill-opacity="0.1"/>
<path opacity="0.2" d="M492.114 319.088H-0.315918V320.316H492.114V319.088Z" fill="white" fill-opacity="0.1"/>
<path opacity="0.2" d="M492.114 343.771H-0.315918V344.999H492.114V343.771Z" fill="white" fill-opacity="0.1"/>
<path opacity="0.5" d="M492.114 368.331H-0.315918V369.559H492.114V368.331Z" fill="white" fill-opacity="0.1"/>
<path opacity="0.2" d="M492.114 393.014H-0.315918V394.242H492.114V393.014Z" fill="white" fill-opacity="0.1"/>
<path opacity="0.2" d="M492.114 417.574H-0.315918V418.802H492.114V417.574Z" fill="white" fill-opacity="0.1"/>
<path opacity="0.2" d="M492.114 442.257H-0.315918V443.485H492.114V442.257Z" fill="white" fill-opacity="0.1"/>
<path opacity="0.2" d="M492.114 466.817H-0.315918V468.045H492.114V466.817Z" fill="white" fill-opacity="0.1"/>
<path opacity="0.5" d="M491.5 490.886H0.298096V492.114H491.5V490.886Z" fill="white" fill-opacity="0.1"/>
<path d="M0.912087 -4H-0.315918V4.59604H0.912087V-4Z" fill="white" fill-opacity="0.1"/>
<path d="M4.59604 -0.31604H-4V0.911965H4.59604V-0.31604Z" fill="white" fill-opacity="0.1"/>
<path d="M492.114 -4H490.886V4.59604H492.114V-4Z" fill="white" fill-opacity="0.1"/>
<path d="M495.798 -0.31604H487.202V0.911965H495.798V-0.31604Z" fill="white" fill-opacity="0.1"/>
<path d="M0.912087 118.801H-0.315918V127.397H0.912087V118.801Z" fill="white" fill-opacity="0.1"/>
<path d="M4.59604 122.485H-4V123.713H4.59604V122.485Z" fill="white" fill-opacity="0.1"/>
<path d="M492.114 118.801H490.886V127.397H492.114V118.801Z" fill="white" fill-opacity="0.1"/>
<path d="M495.798 122.485H487.202V123.713H495.798V122.485Z" fill="white" fill-opacity="0.1"/>
<path d="M0.912087 241.601H-0.315918V250.197H0.912087V241.601Z" fill="white" fill-opacity="0.1"/>
<path d="M4.59604 245.285H-4V246.513H4.59604V245.285Z" fill="white" fill-opacity="0.1"/>
<path d="M492.114 241.601H490.886V250.197H492.114V241.601Z" fill="white" fill-opacity="0.1"/>
<path d="M495.798 245.285H487.202V246.513H495.798V245.285Z" fill="white" fill-opacity="0.1"/>
<path d="M0.912087 364.401H-0.315918V372.998H0.912087V364.401Z" fill="white" fill-opacity="0.1"/>
<path d="M4.59604 368.086H-4V369.314H4.59604V368.086Z" fill="white" fill-opacity="0.1"/>
<path d="M492.114 364.401H490.886V372.998H492.114V364.401Z" fill="white" fill-opacity="0.1"/>
<path d="M495.798 368.086H487.202V369.314H495.798V368.086Z" fill="white" fill-opacity="0.1"/>
<path d="M0.912087 487.202H-0.315918V495.798H0.912087V487.202Z" fill="white" fill-opacity="0.1"/>
<path d="M4.59604 490.886H-4V492.114H4.59604V490.886Z" fill="white" fill-opacity="0.1"/>
<path d="M123.713 -4H122.485V4.59604H123.713V-4Z" fill="white" fill-opacity="0.1"/>
<path d="M127.397 -0.31604H118.801V0.911965H127.397V-0.31604Z" fill="white" fill-opacity="0.1"/>
<path d="M123.713 118.801H122.485V127.397H123.713V118.801Z" fill="white" fill-opacity="0.1"/>
<path d="M127.397 122.485H118.801V123.713H127.397V122.485Z" fill="white" fill-opacity="0.1"/>
<path d="M123.713 241.601H122.485V250.197H123.713V241.601Z" fill="white" fill-opacity="0.1"/>
<path d="M127.397 245.285H118.801V246.513H127.397V245.285Z" fill="white" fill-opacity="0.1"/>
<path d="M123.713 364.401H122.485V372.998H123.713V364.401Z" fill="white" fill-opacity="0.1"/>
<path d="M127.397 368.086H118.801V369.314H127.397V368.086Z" fill="white" fill-opacity="0.1"/>
<path d="M123.713 487.202H122.485V495.798H123.713V487.202Z" fill="white" fill-opacity="0.1"/>
<path d="M127.397 490.886H118.801V492.114H127.397V490.886Z" fill="white" fill-opacity="0.1"/>
<path d="M246.513 -4H245.285V4.59604H246.513V-4Z" fill="white" fill-opacity="0.1"/>
<path d="M250.197 -0.31604H241.601V0.911965H250.197V-0.31604Z" fill="white" fill-opacity="0.1"/>
<path d="M246.513 118.801H245.285V127.397H246.513V118.801Z" fill="white" fill-opacity="0.1"/>
<path d="M250.197 122.485H241.601V123.713H250.197V122.485Z" fill="white" fill-opacity="0.1"/>
<path d="M246.513 241.601H245.285V250.197H246.513V241.601Z" fill="white" fill-opacity="0.1"/>
<path d="M250.197 245.285H241.601V246.513H250.197V245.285Z" fill="white" fill-opacity="0.1"/>
<path d="M246.513 364.401H245.285V372.998H246.513V364.401Z" fill="white" fill-opacity="0.1"/>
<path d="M250.197 368.086H241.601V369.314H250.197V368.086Z" fill="white" fill-opacity="0.1"/>
<path d="M246.513 487.202H245.285V495.798H246.513V487.202Z" fill="white" fill-opacity="0.1"/>
<path d="M250.197 490.886H241.601V492.114H250.197V490.886Z" fill="white" fill-opacity="0.1"/>
<path d="M369.314 -4H368.086V4.59604H369.314V-4Z" fill="white" fill-opacity="0.1"/>
<path d="M372.998 -0.31604H364.402V0.911965H372.998V-0.31604Z" fill="white" fill-opacity="0.1"/>
<path d="M369.314 118.801H368.086V127.397H369.314V118.801Z" fill="white" fill-opacity="0.1"/>
<path d="M372.998 122.485H364.402V123.713H372.998V122.485Z" fill="white" fill-opacity="0.1"/>
<path d="M369.314 241.601H368.086V250.197H369.314V241.601Z" fill="white" fill-opacity="0.1"/>
<path d="M372.998 245.285H364.402V246.513H372.998V245.285Z" fill="white" fill-opacity="0.1"/>
<path d="M369.314 364.401H368.086V372.998H369.314V364.401Z" fill="white" fill-opacity="0.1"/>
<path d="M372.998 368.086H364.402V369.314H372.998V368.086Z" fill="white" fill-opacity="0.1"/>
<path d="M369.314 487.202H368.086V495.798H369.314V487.202Z" fill="white" fill-opacity="0.1"/>
<path d="M372.998 490.886H364.402V492.114H372.998V490.886Z" fill="white" fill-opacity="0.1"/>
<path d="M492.114 487.202H490.886V495.798H492.114V487.202Z" fill="white" fill-opacity="0.1"/>
<path d="M495.798 490.886H487.202V492.114H495.798V490.886Z" fill="white" fill-opacity="0.1"/>
<path d="M62.3122 61.0842H61.0842V62.3122H62.3122V61.0842Z" fill="white" fill-opacity="0.1"/>
<path d="M185.113 61.0842H183.885V62.3122H185.113V61.0842Z" fill="white" fill-opacity="0.1"/>
<path d="M307.913 61.0842H306.685V62.3122H307.913V61.0842Z" fill="white" fill-opacity="0.1"/>
<path d="M430.714 61.0842H429.486V62.3122H430.714V61.0842Z" fill="white" fill-opacity="0.1"/>
<path d="M62.3122 183.885H61.0842V185.113H62.3122V183.885Z" fill="white" fill-opacity="0.1"/>
<path d="M185.113 183.885H183.885V185.113H185.113V183.885Z" fill="white" fill-opacity="0.1"/>
<path d="M307.913 183.885H306.685V185.113H307.913V183.885Z" fill="white" fill-opacity="0.1"/>
<path d="M430.714 183.885H429.486V185.113H430.714V183.885Z" fill="white" fill-opacity="0.1"/>
<path d="M62.3122 306.685H61.0842V307.913H62.3122V306.685Z" fill="white" fill-opacity="0.1"/>
<path d="M185.113 306.685H183.885V307.913H185.113V306.685Z" fill="white" fill-opacity="0.1"/>
<path d="M307.913 306.685H306.685V307.913H307.913V306.685Z" fill="white" fill-opacity="0.1"/>
<path d="M430.714 306.685H429.486V307.913H430.714V306.685Z" fill="white" fill-opacity="0.1"/>
<path d="M62.3122 429.486H61.0842V430.714H62.3122V429.486Z" fill="white" fill-opacity="0.1"/>
<path d="M185.113 429.486H183.885V430.714H185.113V429.486Z" fill="white" fill-opacity="0.1"/>
<path d="M307.913 429.486H306.685V430.714H307.913V429.486Z" fill="white" fill-opacity="0.1"/>
<path d="M430.714 429.486H429.486V430.714H430.714V429.486Z" fill="white" fill-opacity="0.1"/>
</g>
</svg>
