<svg width="53" height="11" viewBox="0 0 53 11" fill="none" xmlns="http://www.w3.org/2000/svg">
<path d="M3.5 5.75V4H5.25V5.75H3.5ZM0 11V0.5H1.75V2.25H3.5V4H1.75V11H0ZM7 11V4H5.25V2.25H7V0.5H8.75V11H7Z" fill="white"/>
<path d="M10.5 11V0.5H17.5V2.25H12.25V4H15.75V5.75H12.25V9.25H17.5V11H10.5Z" fill="white"/>
<path d="M26.25 9.25V2.25H28V9.25H26.25ZM19.25 11V0.5H26.25V2.25H21V9.25H26.25V11H19.25Z" fill="white"/>
<path d="M29.75 11V0.5H31.5V11H29.75Z" fill="white"/>
<path d="M35 11V9.25H40.25V11H35ZM33.25 9.25V0.5H35V9.25H33.25ZM40.25 9.25V0.5H42V9.25H40.25Z" fill="white"/>
<path d="M47.25 5.75V4H49V5.75H47.25ZM43.75 11V0.5H45.5V2.25H47.25V4H45.5V11H43.75ZM50.75 11V4H49V2.25H50.75V0.5H52.5V11H50.75Z" fill="white"/>
</svg>
