<svg width="550" height="460" viewBox="0 0 550 460" fill="none" xmlns="http://www.w3.org/2000/svg">
<mask id="mask0" mask-type="alpha" maskUnits="userSpaceOnUse" x="0" y="0" width="550" height="460">
<path d="M0 20C0 8.9543 8.9543 0 20 0H530C541.046 0 550 8.95431 550 20V440C550 451.046 541.046 460 530 460H20C8.95432 460 0 451.046 0 440V20Z" fill="#181235"/>
</mask>
<g mask="url(#mask0)">
<rect x="503.333" y="339" width="9.11111" height="7.63636" fill="#FED955"/>
<rect x="503.333" y="346.636" width="9.11111" height="7.63636" fill="#FED955"/>
<rect x="503.333" y="354.273" width="9.11111" height="7.63636" fill="#FED955"/>
<rect x="503.333" y="369.545" width="9.11111" height="7.63636" fill="#FED955"/>
<rect x="512.444" y="369.545" width="9.11111" height="7.63636" fill="#FED955"/>
<rect x="503.333" y="377.182" width="9.11111" height="7.63636" fill="#FED955"/>
<rect x="512.444" y="377.182" width="9.11111" height="7.63636" fill="#FED955"/>
<rect x="503.333" y="384.818" width="9.11111" height="7.63636" fill="#FED955"/>
<rect x="512.444" y="384.818" width="9.11111" height="7.63636" fill="#FED955"/>
<rect x="503.333" y="392.455" width="9.11111" height="7.63637" fill="#FED955"/>
<rect x="512.444" y="392.455" width="9.11111" height="7.63637" fill="#FED955"/>
<rect x="494.222" y="346.636" width="9.11111" height="7.63636" fill="#FED955"/>
<rect x="494.222" y="354.273" width="9.11111" height="7.63636" fill="#FED955"/>
<rect x="494.222" y="361.909" width="9.11111" height="7.63636" fill="#FED955"/>
<rect x="485.111" y="346.636" width="9.11111" height="7.63636" fill="#FED955"/>
<rect x="485.111" y="354.273" width="9.11111" height="7.63636" fill="#FED955"/>
<rect x="476" y="361.909" width="9.11111" height="7.63636" fill="#FED955"/>
<rect x="476" y="377.182" width="9.11111" height="7.63636" fill="#FED955"/>
<rect x="476" y="392.455" width="9.11111" height="7.63637" fill="#FED955"/>
<rect x="476" y="369.545" width="9.11111" height="7.63636" fill="#FED955"/>
<rect x="476" y="384.818" width="9.11111" height="7.63636" fill="#FED955"/>
<rect x="485.111" y="361.909" width="9.11111" height="7.63636" fill="#FED955"/>
<rect x="485.111" y="377.182" width="9.11111" height="7.63636" fill="#FED955"/>
<rect x="526.111" y="377.182" width="9.11111" height="7.63636" fill="#FED955"/>
<rect x="535.222" y="377.182" width="9.11111" height="7.63636" fill="#FED955"/>
<rect x="485.111" y="392.455" width="9.11111" height="7.63637" fill="#FED955"/>
<rect x="526.111" y="392.455" width="9.11111" height="7.63637" fill="#FED955"/>
<rect x="535.222" y="392.455" width="9.11111" height="7.63637" fill="#FED955"/>
<rect x="485.111" y="369.545" width="9.11111" height="7.63636" fill="#FED955"/>
<rect x="526.111" y="369.545" width="9.11111" height="7.63636" fill="#FED955"/>
<rect x="521.556" y="361.909" width="9.11111" height="7.63636" fill="#FED955"/>
<rect x="530.667" y="361.909" width="9.11111" height="7.63636" fill="#FED955"/>
<rect x="535.222" y="369.545" width="9.11111" height="7.63636" fill="#FED955"/>
<rect x="485.111" y="384.818" width="9.11111" height="7.63636" fill="#FED955"/>
<rect x="526.111" y="384.818" width="9.11111" height="7.63636" fill="#FED955"/>
<rect x="535.222" y="384.818" width="9.11111" height="7.63636" fill="#FED955"/>
<rect x="485.111" y="400.091" width="9.11111" height="7.63636" fill="#FED955"/>
<rect x="485.111" y="407.727" width="9.11111" height="7.63637" fill="#FED955"/>
<rect x="503.333" y="407.727" width="9.11111" height="7.63637" fill="#FED955"/>
<rect x="503.333" y="415.364" width="9.11111" height="7.63636" fill="#FED955"/>
<rect x="494.222" y="400.091" width="9.11111" height="7.63636" fill="#FED955"/>
<rect x="494.222" y="407.727" width="9.11111" height="7.63637" fill="#FED955"/>
<rect x="494.222" y="415.364" width="9.11111" height="7.63636" fill="#FED955"/>
<rect x="512.444" y="407.727" width="9.11111" height="7.63637" fill="#FED955"/>
<rect x="512.444" y="415.364" width="9.11111" height="7.63636" fill="#FED955"/>
<rect x="521.556" y="407.727" width="9.11111" height="7.63637" fill="#FED955"/>
<rect x="521.556" y="400.091" width="9.11111" height="7.63636" fill="#FED955"/>
<rect x="530.667" y="400.091" width="9.11111" height="7.63636" fill="#FED955"/>
<rect x="503.333" y="400.091" width="9.11111" height="7.63636" fill="#FDEB95"/>
<rect x="512.444" y="400.091" width="9.11111" height="7.63636" fill="#FDEB95"/>
<rect x="512.444" y="339" width="9.11111" height="7.63636" fill="#FED955"/>
<rect x="521.556" y="339" width="9.11111" height="7.63636" fill="#FED955"/>
<rect x="530.667" y="339" width="9.11111" height="7.63636" fill="#C4925C"/>
<rect x="521.556" y="346.636" width="9.11111" height="7.63636" fill="#FDEB95"/>
<rect x="512.444" y="346.636" width="9.11111" height="7.63636" fill="#FDEB95"/>
<rect x="512.444" y="354.273" width="9.11111" height="7.63636" fill="#FDEB95"/>
<rect x="530.667" y="346.636" width="9.11111" height="7.63636" fill="#C4925C"/>
<rect x="521.556" y="354.273" width="9.11111" height="7.63636" fill="#FDEB95"/>
<rect x="512.444" y="361.909" width="9.11111" height="7.63636" fill="#C4925C"/>
<rect x="503.333" y="361.909" width="9.11111" height="7.63636" fill="#C4925C"/>
<rect x="494.222" y="369.545" width="9.11111" height="7.63636" fill="#C4925C"/>
<rect x="521.556" y="369.545" width="9.11111" height="7.63636" fill="#FDEB95"/>
<rect x="494.222" y="377.182" width="9.11111" height="7.63636" fill="#C4925C"/>
<rect x="521.556" y="377.182" width="9.11111" height="7.63636" fill="#FDEB95"/>
<rect x="494.222" y="384.818" width="9.11111" height="7.63636" fill="#C4925C"/>
<rect x="521.556" y="384.818" width="9.11111" height="7.63636" fill="#FDEB95"/>
<rect x="494.222" y="392.455" width="9.11111" height="7.63637" fill="#C4925C"/>
<rect x="521.556" y="392.455" width="9.11111" height="7.63637" fill="#FDEB95"/>
<rect x="539.778" y="346.636" width="9.11111" height="7.63636" fill="#C4925C"/>
<rect x="539.778" y="361.909" width="9.11111" height="7.63636" fill="#C4925C"/>
<rect x="539.778" y="369.545" width="9.11111" height="7.63636" fill="#C4925C"/>
<rect x="548.889" y="369.545" width="9.11111" height="7.63636" fill="#C4925C"/>
<rect x="548.889" y="384.818" width="9.11111" height="7.63636" fill="#C4925C"/>
<rect x="544.333" y="377.182" width="9.11111" height="7.63636" fill="#C4925C"/>
<rect x="544.333" y="384.818" width="9.11111" height="7.63636" fill="#C4925C"/>
<rect x="544.333" y="392.455" width="9.11111" height="7.63637" fill="#C4925C"/>
<rect x="539.778" y="400.091" width="9.11111" height="7.63636" fill="#C4925C"/>
<rect x="539.778" y="407.727" width="9.11111" height="7.63637" fill="#C4925C"/>
<rect x="530.667" y="407.727" width="9.11111" height="7.63637" fill="#C4925C"/>
<rect x="530.667" y="415.364" width="9.11111" height="7.63636" fill="#C4925C"/>
<rect x="521.556" y="415.364" width="9.11111" height="7.63636" fill="#C4925C"/>
<rect x="548.889" y="361.909" width="9.11111" height="7.63636" fill="#C4925C"/>
<rect x="548.889" y="377.182" width="9.11111" height="7.63636" fill="#C4925C"/>
<rect x="530.667" y="354.273" width="9.11111" height="7.63636" fill="#C4925C"/>
<rect x="539.778" y="354.273" width="9.11111" height="7.63636" fill="#C4925C"/>
<rect x="539.778" y="369.545" width="9.11111" height="7.63636" fill="#C4925C"/>
<rect x="523.5" y="417.333" width="12.5" height="12.3333" fill="#7B79F7"/>
<rect x="536" y="417.333" width="12.5" height="12.3333" fill="#7B79F7"/>
<rect x="523.5" y="405" width="12.5" height="12.3333" fill="#7B79F7"/>
<rect x="498.5" y="417.333" width="12.5" height="12.3333" fill="#7B79F7"/>
<rect x="498.5" y="405" width="12.5" height="12.3333" fill="#7B79F7"/>
<rect x="511" y="417.333" width="12.5" height="12.3333" fill="#7B79F7"/>
<rect x="511" y="429.667" width="12.5" height="12.3333" fill="#7B79F7"/>
<rect x="511" y="405" width="12.5" height="12.3333" fill="#7B79F7"/>
<rect x="486" y="417.333" width="12.5" height="12.3333" fill="#7B79F7"/>
<rect x="473.5" y="417.333" width="12.5" height="12.3333" fill="#7B79F7"/>
<rect x="473.5" y="405" width="12.5" height="12.3333" fill="#7B79F7"/>
<rect x="461" y="417.333" width="12.5" height="12.3333" fill="#7B79F7"/>
<rect x="486" y="405" width="12.5" height="12.3333" fill="#7B79F7"/>
<rect x="473.5" y="429.667" width="12.5" height="12.3333" fill="#7B79F7"/>
<rect x="461" y="429.667" width="12.5" height="12.3333" fill="#7B79F7"/>
<rect x="473.5" y="442" width="12.5" height="12.3333" fill="#7B79F7"/>
<rect x="461" y="442" width="12.5" height="12.3333" fill="#7B79F7"/>
<rect x="461" y="454.333" width="12.5" height="12.3333" fill="#221B47"/>
<rect x="473.5" y="454.333" width="12.5" height="12.3333" fill="#221B47"/>
<rect x="486" y="429.667" width="12.5" height="12.3333" fill="#221B47"/>
<rect x="498.5" y="429.667" width="12.5" height="12.3333" fill="#221B47"/>
<rect x="498.5" y="417.333" width="12.5" height="12.3333" fill="#221B47"/>
<rect x="523.5" y="429.667" width="12.5" height="12.3333" fill="#221B47"/>
<rect x="486" y="442" width="12.5" height="12.3333" fill="#7B79F7"/>
<rect x="498.5" y="442" width="12.5" height="12.3333" fill="#7B79F7"/>
<rect x="498.5" y="454.333" width="12.5" height="12.3333" fill="#7B79F7"/>
<rect x="511" y="442" width="12.5" height="12.3333" fill="#7B79F7"/>
<rect x="523.5" y="442" width="12.5" height="12.3333" fill="#7B79F7"/>
<rect x="523.5" y="454.333" width="12.5" height="12.3333" fill="#7B79F7"/>
<rect x="536" y="442" width="12.5" height="12.3333" fill="#7B79F7"/>
<rect x="548.5" y="442" width="12.5" height="12.3333" fill="#7B79F7"/>
<rect x="548.5" y="454.333" width="12.5" height="12.3333" fill="#221B47"/>
<rect x="486" y="454.333" width="12.5" height="12.3333" fill="#7B79F7"/>
<rect x="511" y="454.333" width="12.5" height="12.3333" fill="#7B79F7"/>
<rect x="536" y="454.333" width="12.5" height="12.3333" fill="#7B79F7"/>
<g filter="url(#filter0_d)">
<rect x="470.5" y="398.333" width="12.5" height="12.3333" fill="#7B79F7"/>
<rect x="483" y="398.333" width="12.5" height="12.3333" fill="#7B79F7"/>
<rect x="470.5" y="386" width="12.5" height="12.3333" fill="#7B79F7"/>
<rect x="445.5" y="398.333" width="12.5" height="12.3333" fill="#7B79F7"/>
<rect x="445.5" y="386" width="12.5" height="12.3333" fill="#7B79F7"/>
<rect x="458" y="398.333" width="12.5" height="12.3333" fill="#7B79F7"/>
<rect x="458" y="410.667" width="12.5" height="12.3333" fill="#7B79F7"/>
<rect x="458" y="386" width="12.5" height="12.3333" fill="#7B79F7"/>
<rect x="433" y="398.333" width="12.5" height="12.3333" fill="#7B79F7"/>
<rect x="420.5" y="398.333" width="12.5" height="12.3333" fill="#7B79F7"/>
<rect x="420.5" y="386" width="12.5" height="12.3333" fill="#7B79F7"/>
<rect x="408" y="398.333" width="12.5" height="12.3333" fill="#7B79F7"/>
<rect x="433" y="386" width="12.5" height="12.3333" fill="#7B79F7"/>
<rect x="420.5" y="410.667" width="12.5" height="12.3333" fill="#7B79F7"/>
<rect x="408" y="410.667" width="12.5" height="12.3333" fill="#7B79F7"/>
<rect x="420.5" y="423" width="12.5" height="12.3333" fill="#7B79F7"/>
<rect x="408" y="423" width="12.5" height="12.3333" fill="#7B79F7"/>
<rect x="408" y="435.333" width="12.5" height="12.3333" fill="#221B47"/>
<rect x="420.5" y="435.333" width="12.5" height="12.3333" fill="#221B47"/>
<rect x="420.5" y="447.667" width="12.5" height="12.3333" fill="#221B47"/>
<rect x="433" y="410.667" width="12.5" height="12.3333" fill="#221B47"/>
<rect x="445.5" y="410.667" width="12.5" height="12.3333" fill="#221B47"/>
<rect x="445.5" y="398.333" width="12.5" height="12.3333" fill="#221B47"/>
<rect x="470.5" y="410.667" width="12.5" height="12.3333" fill="#221B47"/>
<rect x="433" y="423" width="12.5" height="12.3333" fill="#7B79F7"/>
<rect x="445.5" y="423" width="12.5" height="12.3333" fill="#7B79F7"/>
<rect x="445.5" y="435.333" width="12.5" height="12.3333" fill="#7B79F7"/>
<rect x="458" y="423" width="12.5" height="12.3333" fill="#7B79F7"/>
<rect x="470.5" y="423" width="12.5" height="12.3333" fill="#7B79F7"/>
<rect x="470.5" y="435.333" width="12.5" height="12.3333" fill="#7B79F7"/>
<rect x="483" y="423" width="12.5" height="12.3333" fill="#7B79F7"/>
<rect x="495.5" y="423" width="12.5" height="12.3333" fill="#7B79F7"/>
<rect x="495.5" y="435.333" width="12.5" height="12.3333" fill="#221B47"/>
<rect x="433" y="435.333" width="12.5" height="12.3333" fill="#7B79F7"/>
<rect x="433" y="447.667" width="12.5" height="12.3333" fill="#7B79F7"/>
<rect x="458" y="435.333" width="12.5" height="12.3333" fill="#7B79F7"/>
<rect x="458" y="447.667" width="12.5" height="12.3333" fill="#7B79F7"/>
<rect x="483" y="447.667" width="12.5" height="12.3333" fill="#7B79F7"/>
<rect x="483" y="435.333" width="12.5" height="12.3333" fill="#7B79F7"/>
</g>
<rect x="-6.6665" y="363" width="8.11111" height="6.63636" fill="#FED955"/>
<rect x="-6.6665" y="369.636" width="8.11111" height="6.63636" fill="#FED955"/>
<rect x="-6.6665" y="376.273" width="8.11111" height="6.63636" fill="#FED955"/>
<rect x="-6.6665" y="389.545" width="8.11111" height="6.63636" fill="#FED955"/>
<rect x="1.44434" y="389.545" width="8.11111" height="6.63636" fill="#FED955"/>
<rect x="-6.6665" y="396.182" width="8.11111" height="6.63636" fill="#FED955"/>
<rect x="1.44434" y="396.182" width="8.11111" height="6.63636" fill="#FED955"/>
<rect x="-6.6665" y="402.818" width="8.11111" height="6.63636" fill="#FED955"/>
<rect x="1.44434" y="402.818" width="8.11111" height="6.63636" fill="#FED955"/>
<rect x="-6.6665" y="409.455" width="8.11111" height="6.63637" fill="#FED955"/>
<rect x="1.44434" y="409.455" width="8.11111" height="6.63637" fill="#FED955"/>
<rect x="13.6113" y="396.182" width="8.11111" height="6.63636" fill="#FED955"/>
<rect x="21.7222" y="396.182" width="8.11111" height="6.63636" fill="#FED955"/>
<rect x="13.6113" y="409.455" width="8.11111" height="6.63637" fill="#FED955"/>
<rect x="21.7222" y="409.455" width="8.11111" height="6.63637" fill="#FED955"/>
<rect x="13.6113" y="389.545" width="8.11111" height="6.63636" fill="#FED955"/>
<rect x="9.55566" y="382.909" width="8.11111" height="6.63636" fill="#FED955"/>
<rect x="17.6665" y="382.909" width="8.11111" height="6.63636" fill="#FED955"/>
<rect x="21.7222" y="389.545" width="8.11111" height="6.63636" fill="#FED955"/>
<rect x="13.6113" y="402.818" width="8.11111" height="6.63636" fill="#FED955"/>
<rect x="21.7222" y="402.818" width="8.11111" height="6.63636" fill="#FED955"/>
<rect x="-6.6665" y="422.727" width="8.11111" height="6.63637" fill="#FED955"/>
<rect x="-6.6665" y="429.364" width="8.11111" height="6.63636" fill="#FED955"/>
<rect x="1.44434" y="422.727" width="8.11111" height="6.63637" fill="#FED955"/>
<rect x="1.44434" y="429.364" width="8.11111" height="6.63636" fill="#FED955"/>
<rect x="9.55566" y="422.727" width="8.11111" height="6.63637" fill="#FED955"/>
<rect x="9.55566" y="416.091" width="8.11111" height="6.63636" fill="#FED955"/>
<rect x="17.6665" y="416.091" width="8.11111" height="6.63636" fill="#FED955"/>
<rect x="-6.6665" y="416.091" width="8.11111" height="6.63636" fill="#FDEB95"/>
<rect x="1.44434" y="416.091" width="8.11111" height="6.63636" fill="#FDEB95"/>
<rect x="1.44434" y="363" width="8.11111" height="6.63636" fill="#FED955"/>
<rect x="9.55566" y="363" width="8.11111" height="6.63636" fill="#FED955"/>
<rect x="17.6665" y="363" width="8.11111" height="6.63636" fill="#C4925C"/>
<rect x="9.55566" y="369.636" width="8.11111" height="6.63636" fill="#FDEB95"/>
<rect x="1.44434" y="369.636" width="8.11111" height="6.63636" fill="#FDEB95"/>
<rect x="1.44434" y="376.273" width="8.11111" height="6.63636" fill="#FDEB95"/>
<rect x="17.6665" y="369.636" width="8.11111" height="6.63636" fill="#C4925C"/>
<rect x="9.55566" y="376.273" width="8.11111" height="6.63636" fill="#FDEB95"/>
<rect x="1.44434" y="382.909" width="8.11111" height="6.63636" fill="#C4925C"/>
<rect x="-6.6665" y="382.909" width="8.11111" height="6.63636" fill="#C4925C"/>
<rect x="9.55566" y="389.545" width="8.11111" height="6.63636" fill="#FDEB95"/>
<rect x="9.55566" y="396.182" width="8.11111" height="6.63636" fill="#FDEB95"/>
<rect x="9.55566" y="402.818" width="8.11111" height="6.63636" fill="#FDEB95"/>
<rect x="9.55566" y="409.455" width="8.11111" height="6.63637" fill="#FDEB95"/>
<rect x="25.7778" y="369.636" width="8.11111" height="6.63636" fill="#C4925C"/>
<rect x="25.7778" y="382.909" width="8.11111" height="6.63636" fill="#C4925C"/>
<rect x="25.7778" y="389.545" width="8.11111" height="6.63636" fill="#C4925C"/>
<rect x="33.8887" y="389.545" width="8.11111" height="6.63636" fill="#C4925C"/>
<rect x="33.8887" y="402.818" width="8.11111" height="6.63636" fill="#C4925C"/>
<rect x="29.8335" y="396.182" width="8.11111" height="6.63636" fill="#C4925C"/>
<rect x="29.8335" y="402.818" width="8.11111" height="6.63636" fill="#C4925C"/>
<rect x="29.8335" y="409.455" width="8.11111" height="6.63637" fill="#C4925C"/>
<rect x="25.7778" y="416.091" width="8.11111" height="6.63636" fill="#C4925C"/>
<rect x="25.7778" y="422.727" width="8.11111" height="6.63637" fill="#C4925C"/>
<rect x="17.6665" y="422.727" width="8.11111" height="6.63637" fill="#C4925C"/>
<rect x="17.6665" y="429.364" width="8.11111" height="6.63636" fill="#C4925C"/>
<rect x="9.55566" y="429.364" width="8.11111" height="6.63636" fill="#C4925C"/>
<rect x="33.8887" y="382.909" width="8.11111" height="6.63636" fill="#C4925C"/>
<rect x="33.8887" y="396.182" width="8.11111" height="6.63636" fill="#C4925C"/>
<rect x="17.6665" y="376.273" width="8.11111" height="6.63636" fill="#C4925C"/>
<rect x="25.7778" y="376.273" width="8.11111" height="6.63636" fill="#C4925C"/>
<rect x="25.7778" y="389.545" width="8.11111" height="6.63636" fill="#C4925C"/>
<rect x="76.3335" y="393" width="8.11111" height="6.81818" fill="#FED955"/>
<rect x="76.3335" y="399.818" width="8.11111" height="6.81818" fill="#FED955"/>
<rect x="76.3335" y="406.636" width="8.11111" height="6.81818" fill="#FED955"/>
<rect x="76.3335" y="420.273" width="8.11111" height="6.81818" fill="#FED955"/>
<rect x="84.4443" y="420.273" width="8.11111" height="6.81818" fill="#FED955"/>
<rect x="76.3335" y="427.091" width="8.11111" height="6.81818" fill="#FED955"/>
<rect x="84.4443" y="427.091" width="8.11111" height="6.81818" fill="#FED955"/>
<rect x="76.3335" y="433.909" width="8.11111" height="6.81818" fill="#FED955"/>
<rect x="84.4443" y="433.909" width="8.11111" height="6.81818" fill="#FED955"/>
<rect x="76.3335" y="440.727" width="8.11111" height="6.81818" fill="#FED955"/>
<rect x="84.4443" y="440.727" width="8.11111" height="6.81818" fill="#FED955"/>
<rect x="68.2222" y="399.818" width="8.11111" height="6.81818" fill="#FED955"/>
<rect x="68.2222" y="406.636" width="8.11111" height="6.81818" fill="#FED955"/>
<rect x="68.2222" y="413.455" width="8.11111" height="6.81818" fill="#FED955"/>
<rect x="60.1113" y="399.818" width="8.11111" height="6.81818" fill="#FED955"/>
<rect x="60.1113" y="406.636" width="8.11111" height="6.81818" fill="#FED955"/>
<rect x="52" y="413.455" width="8.11111" height="6.81818" fill="#FED955"/>
<rect x="52" y="427.091" width="8.11111" height="6.81818" fill="#FED955"/>
<rect x="52" y="440.727" width="8.11111" height="6.81818" fill="#FED955"/>
<rect x="52" y="420.273" width="8.11111" height="6.81818" fill="#FED955"/>
<rect x="52" y="433.909" width="8.11111" height="6.81818" fill="#FED955"/>
<rect x="60.1113" y="413.455" width="8.11111" height="6.81818" fill="#FED955"/>
<rect x="60.1113" y="427.091" width="8.11111" height="6.81818" fill="#FED955"/>
<rect x="96.6113" y="427.091" width="8.11111" height="6.81818" fill="#FED955"/>
<rect x="104.722" y="427.091" width="8.11111" height="6.81818" fill="#FED955"/>
<rect x="60.1113" y="440.727" width="8.11111" height="6.81818" fill="#FED955"/>
<rect x="96.6113" y="440.727" width="8.11111" height="6.81818" fill="#FED955"/>
<rect x="104.722" y="440.727" width="8.11111" height="6.81818" fill="#FED955"/>
<rect x="60.1113" y="420.273" width="8.11111" height="6.81818" fill="#FED955"/>
<rect x="96.6113" y="420.273" width="8.11111" height="6.81818" fill="#FED955"/>
<rect x="92.5557" y="413.455" width="8.11111" height="6.81818" fill="#FED955"/>
<rect x="100.667" y="413.455" width="8.11111" height="6.81818" fill="#FED955"/>
<rect x="104.722" y="420.273" width="8.11111" height="6.81818" fill="#FED955"/>
<rect x="60.1113" y="433.909" width="8.11111" height="6.81818" fill="#FED955"/>
<rect x="96.6113" y="433.909" width="8.11111" height="6.81818" fill="#FED955"/>
<rect x="104.722" y="433.909" width="8.11111" height="6.81818" fill="#FED955"/>
<rect x="60.1113" y="447.545" width="8.11111" height="6.81818" fill="#FED955"/>
<rect x="60.1113" y="454.364" width="8.11111" height="6.81819" fill="#FED955"/>
<rect x="76.3335" y="454.364" width="8.11111" height="6.81819" fill="#FED955"/>
<rect x="68.2222" y="447.545" width="8.11111" height="6.81818" fill="#FED955"/>
<rect x="68.2222" y="454.364" width="8.11111" height="6.81819" fill="#FED955"/>
<rect x="84.4443" y="454.364" width="8.11111" height="6.81819" fill="#FED955"/>
<rect x="92.5557" y="454.364" width="8.11111" height="6.81819" fill="#FED955"/>
<rect x="92.5557" y="447.545" width="8.11111" height="6.81818" fill="#FED955"/>
<rect x="100.667" y="447.545" width="8.11111" height="6.81818" fill="#FED955"/>
<rect x="76.3335" y="447.545" width="8.11111" height="6.81818" fill="#FDEB95"/>
<rect x="84.4443" y="447.545" width="8.11111" height="6.81818" fill="#FDEB95"/>
<rect x="84.4443" y="393" width="8.11111" height="6.81818" fill="#FED955"/>
<rect x="92.5557" y="393" width="8.11111" height="6.81818" fill="#FED955"/>
<rect x="100.667" y="393" width="8.11111" height="6.81818" fill="#C4925C"/>
<rect x="92.5557" y="399.818" width="8.11111" height="6.81818" fill="#FDEB95"/>
<rect x="84.4443" y="399.818" width="8.11111" height="6.81818" fill="#FDEB95"/>
<rect x="84.4443" y="406.636" width="8.11111" height="6.81818" fill="#FDEB95"/>
<rect x="100.667" y="399.818" width="8.11111" height="6.81818" fill="#C4925C"/>
<rect x="92.5557" y="406.636" width="8.11111" height="6.81818" fill="#FDEB95"/>
<rect x="84.4443" y="413.455" width="8.11111" height="6.81818" fill="#C4925C"/>
<rect x="76.3335" y="413.455" width="8.11111" height="6.81818" fill="#C4925C"/>
<rect x="68.2222" y="420.273" width="8.11111" height="6.81818" fill="#C4925C"/>
<rect x="92.5557" y="420.273" width="8.11111" height="6.81818" fill="#FDEB95"/>
<rect x="68.2222" y="427.091" width="8.11111" height="6.81818" fill="#C4925C"/>
<rect x="92.5557" y="427.091" width="8.11111" height="6.81818" fill="#FDEB95"/>
<rect x="68.2222" y="433.909" width="8.11111" height="6.81818" fill="#C4925C"/>
<rect x="92.5557" y="433.909" width="8.11111" height="6.81818" fill="#FDEB95"/>
<rect x="68.2222" y="440.727" width="8.11111" height="6.81818" fill="#C4925C"/>
<rect x="92.5557" y="440.727" width="8.11111" height="6.81818" fill="#FDEB95"/>
<rect x="108.778" y="399.818" width="8.11111" height="6.81818" fill="#C4925C"/>
<rect x="108.778" y="413.455" width="8.11111" height="6.81818" fill="#C4925C"/>
<rect x="108.778" y="420.273" width="8.11111" height="6.81818" fill="#C4925C"/>
<rect x="116.889" y="420.273" width="8.11111" height="6.81818" fill="#C4925C"/>
<rect x="116.889" y="433.909" width="8.11111" height="6.81818" fill="#C4925C"/>
<rect x="112.833" y="427.091" width="8.11111" height="6.81818" fill="#C4925C"/>
<rect x="112.833" y="433.909" width="8.11111" height="6.81818" fill="#C4925C"/>
<rect x="112.833" y="440.727" width="8.11111" height="6.81818" fill="#C4925C"/>
<rect x="108.778" y="447.545" width="8.11111" height="6.81818" fill="#C4925C"/>
<rect x="108.778" y="454.364" width="8.11111" height="6.81819" fill="#C4925C"/>
<rect x="100.667" y="454.364" width="8.11111" height="6.81819" fill="#C4925C"/>
<rect x="116.889" y="413.455" width="8.11111" height="6.81818" fill="#C4925C"/>
<rect x="116.889" y="427.091" width="8.11111" height="6.81818" fill="#C4925C"/>
<rect x="100.667" y="406.636" width="8.11111" height="6.81818" fill="#C4925C"/>
<rect x="108.778" y="406.636" width="8.11111" height="6.81818" fill="#C4925C"/>
<rect x="108.778" y="420.273" width="8.11111" height="6.81818" fill="#C4925C"/>
<rect x="22.6665" y="405" width="7.88889" height="6.81818" fill="#FED955"/>
<rect x="22.6665" y="411.818" width="7.88889" height="6.81818" fill="#FED955"/>
<rect x="22.6665" y="418.636" width="7.88889" height="6.81818" fill="#FED955"/>
<rect x="22.6665" y="432.273" width="7.88889" height="6.81818" fill="#FED955"/>
<rect x="30.5557" y="432.273" width="7.88889" height="6.81818" fill="#FED955"/>
<rect x="22.6665" y="439.091" width="7.88889" height="6.81818" fill="#FED955"/>
<rect x="30.5557" y="439.091" width="7.88889" height="6.81818" fill="#FED955"/>
<rect x="22.6665" y="445.909" width="7.88889" height="6.81818" fill="#FED955"/>
<rect x="30.5557" y="445.909" width="7.88889" height="6.81818" fill="#FED955"/>
<rect x="22.6665" y="452.727" width="7.88889" height="6.81818" fill="#FED955"/>
<rect x="30.5557" y="452.727" width="7.88889" height="6.81818" fill="#FED955"/>
<rect x="14.7778" y="411.818" width="7.88889" height="6.81818" fill="#FED955"/>
<rect x="14.7778" y="418.636" width="7.88889" height="6.81818" fill="#FED955"/>
<rect x="14.7778" y="425.455" width="7.88889" height="6.81818" fill="#FED955"/>
<rect x="6.88867" y="411.818" width="7.88889" height="6.81818" fill="#FED955"/>
<rect x="6.88867" y="418.636" width="7.88889" height="6.81818" fill="#FED955"/>
<rect x="-1" y="425.455" width="7.88889" height="6.81818" fill="#FED955"/>
<rect x="-1" y="439.091" width="7.88889" height="6.81818" fill="#FED955"/>
<rect x="-1" y="452.727" width="7.88889" height="6.81818" fill="#FED955"/>
<rect x="-1" y="432.273" width="7.88889" height="6.81818" fill="#FED955"/>
<rect x="-1" y="445.909" width="7.88889" height="6.81818" fill="#FED955"/>
<rect x="6.88867" y="425.455" width="7.88889" height="6.81818" fill="#FED955"/>
<rect x="6.88867" y="439.091" width="7.88889" height="6.81818" fill="#FED955"/>
<rect x="42.3887" y="439.091" width="7.88889" height="6.81818" fill="#FED955"/>
<rect x="50.2778" y="439.091" width="7.88889" height="6.81818" fill="#FED955"/>
<rect x="6.88867" y="452.727" width="7.88889" height="6.81818" fill="#FED955"/>
<rect x="42.3887" y="452.727" width="7.88889" height="6.81818" fill="#FED955"/>
<rect x="50.2778" y="452.727" width="7.88889" height="6.81818" fill="#FED955"/>
<rect x="6.88867" y="432.273" width="7.88889" height="6.81818" fill="#FED955"/>
<rect x="42.3887" y="432.273" width="7.88889" height="6.81818" fill="#FED955"/>
<rect x="38.4443" y="425.455" width="7.88889" height="6.81818" fill="#FED955"/>
<rect x="46.3335" y="425.455" width="7.88889" height="6.81818" fill="#FED955"/>
<rect x="50.2778" y="432.273" width="7.88889" height="6.81818" fill="#FED955"/>
<rect x="6.88867" y="445.909" width="7.88889" height="6.81818" fill="#FED955"/>
<rect x="42.3887" y="445.909" width="7.88889" height="6.81818" fill="#FED955"/>
<rect x="50.2778" y="445.909" width="7.88889" height="6.81818" fill="#FED955"/>
<rect x="6.88867" y="459.545" width="7.88889" height="6.81818" fill="#FED955"/>
<rect x="14.7778" y="459.545" width="7.88889" height="6.81818" fill="#FED955"/>
<rect x="38.4443" y="459.545" width="7.88889" height="6.81818" fill="#FED955"/>
<rect x="46.3335" y="459.545" width="7.88889" height="6.81818" fill="#FED955"/>
<rect x="22.6665" y="459.545" width="7.88889" height="6.81818" fill="#FDEB95"/>
<rect x="30.5557" y="459.545" width="7.88889" height="6.81818" fill="#FDEB95"/>
<rect x="30.5557" y="405" width="7.88889" height="6.81818" fill="#FED955"/>
<rect x="38.4443" y="405" width="7.88889" height="6.81818" fill="#FED955"/>
<rect x="46.3335" y="405" width="7.88889" height="6.81818" fill="#C4925C"/>
<rect x="38.4443" y="411.818" width="7.88889" height="6.81818" fill="#FDEB95"/>
<rect x="30.5557" y="411.818" width="7.88889" height="6.81818" fill="#FDEB95"/>
<rect x="30.5557" y="418.636" width="7.88889" height="6.81818" fill="#FDEB95"/>
<rect x="46.3335" y="411.818" width="7.88889" height="6.81818" fill="#C4925C"/>
<rect x="38.4443" y="418.636" width="7.88889" height="6.81818" fill="#FDEB95"/>
<rect x="30.5557" y="425.455" width="7.88889" height="6.81818" fill="#C4925C"/>
<rect x="22.6665" y="425.455" width="7.88889" height="6.81818" fill="#C4925C"/>
<rect x="14.7778" y="432.273" width="7.88889" height="6.81818" fill="#C4925C"/>
<rect x="38.4443" y="432.273" width="7.88889" height="6.81818" fill="#FDEB95"/>
<rect x="14.7778" y="439.091" width="7.88889" height="6.81818" fill="#C4925C"/>
<rect x="38.4443" y="439.091" width="7.88889" height="6.81818" fill="#FDEB95"/>
<rect x="14.7778" y="445.909" width="7.88889" height="6.81818" fill="#C4925C"/>
<rect x="38.4443" y="445.909" width="7.88889" height="6.81818" fill="#FDEB95"/>
<rect x="14.7778" y="452.727" width="7.88889" height="6.81818" fill="#C4925C"/>
<rect x="38.4443" y="452.727" width="7.88889" height="6.81818" fill="#FDEB95"/>
<rect x="54.2222" y="411.818" width="7.88889" height="6.81818" fill="#C4925C"/>
<rect x="54.2222" y="425.455" width="7.88889" height="6.81818" fill="#C4925C"/>
<rect x="54.2222" y="432.273" width="7.88889" height="6.81818" fill="#C4925C"/>
<rect x="62.1113" y="432.273" width="7.88889" height="6.81818" fill="#C4925C"/>
<rect x="62.1113" y="445.909" width="7.88889" height="6.81818" fill="#C4925C"/>
<rect x="58.1665" y="439.091" width="7.88889" height="6.81818" fill="#C4925C"/>
<rect x="58.1665" y="445.909" width="7.88889" height="6.81818" fill="#C4925C"/>
<rect x="58.1665" y="452.727" width="7.88889" height="6.81818" fill="#C4925C"/>
<rect x="54.2222" y="459.545" width="7.88889" height="6.81818" fill="#C4925C"/>
<rect x="62.1113" y="425.455" width="7.88889" height="6.81818" fill="#C4925C"/>
<rect x="62.1113" y="439.091" width="7.88889" height="6.81818" fill="#C4925C"/>
<rect x="46.3335" y="418.636" width="7.88889" height="6.81818" fill="#C4925C"/>
<rect x="54.2222" y="418.636" width="7.88889" height="6.81818" fill="#C4925C"/>
<rect x="54.2222" y="432.273" width="7.88889" height="6.81818" fill="#C4925C"/>
</g>
<defs>
<filter id="filter0_d" x="391" y="373" width="134" height="108" filterUnits="userSpaceOnUse" color-interpolation-filters="sRGB">
<feFlood flood-opacity="0" result="BackgroundImageFix"/>
<feColorMatrix in="SourceAlpha" type="matrix" values="0 0 0 0 0 0 0 0 0 0 0 0 0 0 0 0 0 0 127 0"/>
<feOffset dy="4"/>
<feGaussianBlur stdDeviation="8.5"/>
<feColorMatrix type="matrix" values="0 0 0 0 0 0 0 0 0 0 0 0 0 0 0 0 0 0 0.25 0"/>
<feBlend mode="normal" in2="BackgroundImageFix" result="effect1_dropShadow"/>
<feBlend mode="normal" in="SourceGraphic" in2="effect1_dropShadow" result="shape"/>
</filter>
</defs>
</svg>
