<svg width="400" height="193" viewBox="0 0 400 193" fill="none" xmlns="http://www.w3.org/2000/svg">
<rect width="15.7526" height="15.7525" transform="matrix(-0.924611 -0.380913 0.380919 -0.924608 323.739 133.328)" fill="#7B79F7"/>
<rect width="15.7526" height="15.7525" transform="matrix(-0.924611 -0.380914 0.380919 -0.924609 317.739 147.893)" fill="#7B79F7"/>
<rect width="15.7526" height="15.7525" transform="matrix(-0.924611 -0.380913 0.380919 -0.924609 329.74 118.763)" fill="#7B79F7"/>
<rect width="15.7526" height="15.7525" transform="matrix(-0.92461 -0.380915 0.380917 -0.924609 335.74 104.198)" fill="#7B79F7"/>
<rect width="15.7524" height="15.7525" transform="matrix(-0.924609 -0.380918 0.380914 -0.92461 294.609 121.327)" fill="#7B79F7"/>
<rect width="15.7524" height="15.7525" transform="matrix(-0.924609 -0.380917 0.380915 -0.92461 280.044 115.326)" fill="#7B79F7"/>
<rect width="15.7526" height="15.7525" transform="matrix(-0.92461 -0.380914 0.380918 -0.924609 288.609 135.892)" fill="#7B79F7"/>
<rect width="15.7525" height="15.7525" transform="matrix(-0.92461 -0.380915 0.380917 -0.924609 274.044 129.891)" fill="#7B79F7"/>
<rect width="15.7524" height="15.7525" transform="matrix(-0.924609 -0.380918 0.380914 -0.924611 300.609 106.762)" fill="#7B79F7"/>
<rect width="15.7525" height="15.7525" transform="matrix(-0.92461 -0.380915 0.380917 -0.924609 286.045 100.762)" fill="#7B79F7"/>
<rect width="15.7524" height="15.7525" transform="matrix(-0.924609 -0.380918 0.380915 -0.92461 306.61 92.197)" fill="#7B79F7"/>
<rect width="15.7524" height="15.7525" transform="matrix(-0.924608 -0.380919 0.380913 -0.924611 292.045 86.1967)" fill="#2624D0"/>
<rect width="15.7525" height="15.7525" transform="matrix(-0.92461 -0.380915 0.380917 -0.924609 250.915 103.326)" fill="#7B79F7"/>
<rect width="15.7524" height="15.7525" transform="matrix(-0.924609 -0.380918 0.380914 -0.92461 244.914 117.891)" fill="#7B79F7"/>
<rect width="15.7526" height="15.7525" transform="matrix(-0.92461 -0.380914 0.380918 -0.924609 367.434 151.329)" fill="#7B79F7"/>
<rect width="15.7524" height="15.7525" transform="matrix(-0.924609 -0.380917 0.380915 -0.92461 256.915 88.7608)" fill="#7B79F7"/>
<rect width="15.7524" height="15.7525" transform="matrix(-0.924609 -0.380917 0.380915 -0.92461 373.434 136.764)" fill="#7B79F7"/>
<rect width="15.7525" height="15.7525" transform="matrix(-0.92461 -0.380915 0.380917 -0.924609 262.916 74.1959)" fill="#7B79F7"/>
<rect width="15.7524" height="15.7525" transform="matrix(-0.924609 -0.380918 0.380914 -0.92461 379.435 122.199)" fill="#7B79F7"/>
<rect width="15.7526" height="15.7525" transform="matrix(-0.924611 -0.380913 0.380919 -0.924608 309.174 127.327)" fill="#7B79F7"/>
<rect width="15.7524" height="15.7525" transform="matrix(-0.924609 -0.380917 0.380915 -0.92461 303.174 141.892)" fill="#7B79F7"/>
<rect width="15.7524" height="15.7525" transform="matrix(-0.924609 -0.380917 0.380915 -0.92461 315.174 112.762)" fill="#7B79F7"/>
<rect width="15.7526" height="15.7525" transform="matrix(-0.92461 -0.380915 0.380918 -0.924609 321.175 98.1974)" fill="#7B79F7"/>
<rect width="15.7525" height="15.7524" transform="matrix(-0.92461 -0.380916 0.380917 -0.924609 265.479 109.326)" fill="#7B79F7"/>
<rect width="15.7525" height="15.7525" transform="matrix(-0.924609 -0.380918 0.380915 -0.92461 259.479 123.891)" fill="#7B79F7"/>
<rect width="15.7524" height="15.7525" transform="matrix(-0.924609 -0.380917 0.380915 -0.92461 381.999 157.329)" fill="#7B79F7"/>
<rect width="15.7524" height="15.7525" transform="matrix(-0.924609 -0.380917 0.380915 -0.92461 271.48 94.7611)" fill="#7B79F7"/>
<rect width="15.7526" height="15.7525" transform="matrix(-0.92461 -0.380914 0.380918 -0.924609 388 142.764)" fill="#7B79F7"/>
<rect width="15.7524" height="15.7525" transform="matrix(-0.924609 -0.380917 0.380915 -0.92461 277.48 80.1963)" fill="#7B79F7"/>
<rect width="15.7526" height="15.7525" transform="matrix(-0.924611 -0.380913 0.380919 -0.924609 394 128.199)" fill="#7B79F7"/>
<rect width="15.7525" height="15.7525" transform="matrix(-0.92461 -0.380915 0.380917 -0.924609 236.35 97.3254)" fill="#7B79F7"/>
<rect width="15.7525" height="15.7525" transform="matrix(-0.92461 -0.380915 0.380917 -0.924609 230.35 111.89)" fill="#7B79F7"/>
<rect width="15.7524" height="15.7525" transform="matrix(-0.924609 -0.380917 0.380915 -0.92461 352.869 145.328)" fill="#7B79F7"/>
<rect width="15.7525" height="15.7525" transform="matrix(-0.92461 -0.380915 0.380917 -0.924609 221.785 91.325)" fill="#2624D0"/>
<rect width="15.7525" height="15.7525" transform="matrix(-0.924609 -0.380918 0.380915 -0.92461 338.304 139.328)" fill="#2624D0"/>
<rect x="242.35" y="82.7604" width="15.7525" height="15.7525" transform="rotate(-157.61 242.35 82.7604)" fill="#7B79F7"/>
<rect width="15.7525" height="15.7525" transform="matrix(-0.924609 -0.380918 0.380914 -0.92461 358.869 130.763)" fill="#7B79F7"/>
<rect x="227.785" y="76.7601" width="15.7525" height="15.7525" transform="rotate(-157.61 227.785 76.7601)" fill="#2624D0"/>
<rect width="15.7526" height="15.7525" transform="matrix(-0.924611 -0.380914 0.380918 -0.924609 344.305 124.763)" fill="#2624D0"/>
<rect width="15.7525" height="15.7525" transform="matrix(-0.92461 -0.380915 0.380917 -0.924609 248.351 68.1955)" fill="#7B79F7"/>
<rect x="192.655" y="79.3242" width="15.7525" height="15.7525" transform="rotate(-157.61 192.655 79.3242)" fill="#7B79F7"/>
<rect width="15.7524" height="15.7525" transform="matrix(-0.924609 -0.380918 0.380915 -0.92461 198.656 64.7593)" fill="#7B79F7"/>
<rect width="15.7525" height="15.7525" transform="matrix(-0.92461 -0.380915 0.380917 -0.924609 204.656 50.1944)" fill="#7B79F7"/>
<rect x="207.22" y="85.3246" width="15.7524" height="15.7525" transform="rotate(-157.61 207.22 85.3246)" fill="#7B79F7"/>
<rect width="15.7525" height="15.7525" transform="matrix(-0.92461 -0.380915 0.380917 -0.924609 213.221 70.7596)" fill="#7B79F7"/>
<rect width="15.7525" height="15.7525" transform="matrix(-0.92461 -0.380915 0.380917 -0.924609 219.221 56.1947)" fill="#7B79F7"/>
<rect x="178.09" y="73.3238" width="15.7525" height="15.7525" transform="rotate(-157.61 178.09 73.3238)" fill="#7B79F7"/>
<rect width="15.7525" height="15.7525" transform="matrix(-0.92461 -0.380915 0.380917 -0.924609 184.091 58.7589)" fill="#7B79F7"/>
<rect width="15.7524" height="15.7525" transform="matrix(-0.924609 -0.380918 0.380914 -0.92461 190.091 44.1941)" fill="#7B79F7"/>
<rect width="15.7524" height="15.7525" transform="matrix(-0.924609 -0.380918 0.380914 -0.92461 364.87 116.199)" fill="#7B79F7"/>
<rect width="15.7524" height="15.7525" transform="matrix(-0.924609 -0.380918 0.380915 -0.92461 233.786 62.1951)" fill="#2624D0"/>
<rect x="350.305" y="110.198" width="15.7525" height="15.7525" transform="rotate(-157.61 350.305 110.198)" fill="#2624D0"/>
<rect x="81.7695" y="28.9273" width="5.25083" height="5.25951" fill="#FED955"/>
<rect x="81.7695" y="34.1868" width="5.25083" height="5.25951" fill="#FED955"/>
<rect x="81.7695" y="39.4463" width="5.25083" height="5.25951" fill="#FED955"/>
<rect x="81.7695" y="49.9654" width="5.25083" height="5.25951" fill="#FED955"/>
<rect x="87.0205" y="49.9654" width="5.25083" height="5.25951" fill="#FED955"/>
<rect x="81.7695" y="55.2249" width="5.25083" height="5.25949" fill="#FED955"/>
<rect x="87.0205" y="55.2249" width="5.25083" height="5.25949" fill="#FED955"/>
<rect x="81.7695" y="60.4844" width="5.25083" height="5.25951" fill="#FED955"/>
<rect x="87.0205" y="60.4844" width="5.25083" height="5.25951" fill="#FED955"/>
<rect x="81.7695" y="65.7438" width="5.25083" height="5.25951" fill="#FED955"/>
<rect x="87.0205" y="65.7438" width="5.25083" height="5.25951" fill="#FED955"/>
<rect x="76.5186" y="34.1868" width="5.25082" height="5.25951" fill="#FED955"/>
<rect x="76.5186" y="39.4463" width="5.25082" height="5.25951" fill="#FED955"/>
<rect x="76.5186" y="44.7058" width="5.25082" height="5.25951" fill="#FED955"/>
<rect x="71.2681" y="34.1868" width="5.25083" height="5.25951" fill="#FED955"/>
<rect x="71.2681" y="39.4463" width="5.25083" height="5.25951" fill="#FED955"/>
<rect x="66.0171" y="44.7058" width="5.25083" height="5.25951" fill="#FED955"/>
<rect x="66.0171" y="55.2249" width="5.25083" height="5.25949" fill="#FED955"/>
<rect x="66.0171" y="65.7438" width="5.25083" height="5.25951" fill="#FED955"/>
<rect x="66.0171" y="49.9654" width="5.25083" height="5.25951" fill="#FED955"/>
<rect x="66.0171" y="60.4844" width="5.25083" height="5.25951" fill="#FED955"/>
<rect x="71.2681" y="44.7058" width="5.25083" height="5.25951" fill="#FED955"/>
<rect x="71.2681" y="55.2249" width="5.25083" height="5.25949" fill="#FED955"/>
<rect x="94.8965" y="55.2249" width="5.25083" height="5.25949" fill="#FED955"/>
<rect x="100.147" y="55.2249" width="5.25082" height="5.25949" fill="#FED955"/>
<rect x="71.2681" y="65.7438" width="5.25083" height="5.25951" fill="#FED955"/>
<rect x="94.8965" y="65.7438" width="5.25083" height="5.25951" fill="#FED955"/>
<rect x="100.147" y="65.7438" width="5.25082" height="5.25951" fill="#FED955"/>
<rect x="71.2681" y="49.9654" width="5.25083" height="5.25951" fill="#FED955"/>
<rect x="94.8965" y="49.9654" width="5.25083" height="5.25951" fill="#FED955"/>
<rect x="92.271" y="44.7058" width="5.25083" height="5.25951" fill="#FED955"/>
<rect x="97.522" y="44.7058" width="5.25083" height="5.25951" fill="#FED955"/>
<rect x="100.147" y="49.9654" width="5.25082" height="5.25951" fill="#FED955"/>
<rect x="71.2681" y="60.4844" width="5.25083" height="5.25951" fill="#FED955"/>
<rect x="94.8965" y="60.4844" width="5.25083" height="5.25951" fill="#FED955"/>
<rect x="100.147" y="60.4844" width="5.25082" height="5.25951" fill="#FED955"/>
<rect x="71.2681" y="71.0034" width="5.25083" height="5.25951" fill="#FED955"/>
<rect x="71.2681" y="76.2629" width="5.25083" height="5.25952" fill="#FED955"/>
<rect x="81.7695" y="76.2629" width="5.25083" height="5.25952" fill="#FED955"/>
<rect x="81.7695" y="81.5224" width="5.25083" height="5.25951" fill="#FED955"/>
<rect x="76.5186" y="71.0034" width="5.25082" height="5.25951" fill="#FED955"/>
<rect x="76.5186" y="76.2629" width="5.25082" height="5.25952" fill="#FED955"/>
<rect x="76.5186" y="81.5224" width="5.25082" height="5.25951" fill="#FED955"/>
<rect x="87.0205" y="76.2629" width="5.25083" height="5.25952" fill="#FED955"/>
<rect x="87.0205" y="81.5224" width="5.25083" height="5.25951" fill="#FED955"/>
<rect x="92.271" y="76.2629" width="5.25083" height="5.25952" fill="#FED955"/>
<rect x="92.271" y="71.0034" width="5.25083" height="5.25951" fill="#FED955"/>
<rect x="97.522" y="71.0034" width="5.25083" height="5.25951" fill="#FED955"/>
<rect x="81.7695" y="71.0034" width="5.25083" height="5.25951" fill="#FDEB95"/>
<rect x="87.0205" y="71.0034" width="5.25083" height="5.25951" fill="#FDEB95"/>
<rect x="87.0205" y="28.9273" width="5.25083" height="5.25951" fill="#FED955"/>
<rect x="92.271" y="28.9273" width="5.25083" height="5.25951" fill="#FED955"/>
<rect x="97.522" y="28.9273" width="5.25083" height="5.25951" fill="#C4925C"/>
<rect x="92.271" y="34.1868" width="5.25083" height="5.25951" fill="#FDEB95"/>
<rect x="87.0205" y="34.1868" width="5.25083" height="5.25951" fill="#FDEB95"/>
<rect x="87.0205" y="39.4463" width="5.25083" height="5.25951" fill="#FDEB95"/>
<rect x="97.522" y="34.1868" width="5.25083" height="5.25951" fill="#C4925C"/>
<rect x="92.271" y="39.4463" width="5.25083" height="5.25951" fill="#FDEB95"/>
<rect x="87.0205" y="44.7058" width="5.25083" height="5.25951" fill="#C4925C"/>
<rect x="81.7695" y="44.7058" width="5.25083" height="5.25951" fill="#C4925C"/>
<rect x="76.5186" y="49.9654" width="5.25082" height="5.25951" fill="#C4925C"/>
<rect x="92.271" y="49.9654" width="5.25083" height="5.25951" fill="#FDEB95"/>
<rect x="76.5186" y="55.2249" width="5.25082" height="5.25949" fill="#C4925C"/>
<rect x="92.271" y="55.2249" width="5.25083" height="5.25949" fill="#FDEB95"/>
<rect x="76.5186" y="60.4844" width="5.25082" height="5.25951" fill="#C4925C"/>
<rect x="92.271" y="60.4844" width="5.25083" height="5.25951" fill="#FDEB95"/>
<rect x="76.5186" y="65.7438" width="5.25082" height="5.25951" fill="#C4925C"/>
<rect x="92.271" y="65.7438" width="5.25083" height="5.25951" fill="#FDEB95"/>
<rect x="102.773" y="34.1868" width="5.25083" height="5.25951" fill="#C4925C"/>
<rect x="102.773" y="44.7058" width="5.25083" height="5.25951" fill="#C4925C"/>
<rect x="102.773" y="49.9654" width="5.25083" height="5.25951" fill="#C4925C"/>
<rect x="108.024" y="49.9654" width="5.25083" height="5.25951" fill="#C4925C"/>
<rect x="108.024" y="60.4844" width="5.25083" height="5.25951" fill="#C4925C"/>
<rect x="105.398" y="55.2249" width="5.25083" height="5.25949" fill="#C4925C"/>
<rect x="105.398" y="60.4844" width="5.25083" height="5.25951" fill="#C4925C"/>
<rect x="105.398" y="65.7438" width="5.25083" height="5.25951" fill="#C4925C"/>
<rect x="102.773" y="71.0034" width="5.25083" height="5.25951" fill="#C4925C"/>
<rect x="102.773" y="76.2629" width="5.25083" height="5.25952" fill="#C4925C"/>
<rect x="97.522" y="76.2629" width="5.25083" height="5.25952" fill="#C4925C"/>
<rect x="97.522" y="81.5224" width="5.25083" height="5.25951" fill="#C4925C"/>
<rect x="92.271" y="81.5224" width="5.25083" height="5.25951" fill="#C4925C"/>
<rect x="108.024" y="44.7058" width="5.25083" height="5.25951" fill="#C4925C"/>
<rect x="108.024" y="55.2249" width="5.25083" height="5.25949" fill="#C4925C"/>
<rect x="97.522" y="39.4463" width="5.25083" height="5.25951" fill="#C4925C"/>
<rect x="102.773" y="39.4463" width="5.25083" height="5.25951" fill="#C4925C"/>
<rect x="102.773" y="49.9654" width="5.25083" height="5.25951" fill="#C4925C"/>
<rect x="110.268" width="5.25083" height="5.25951" fill="#FED955"/>
<rect x="110.268" y="5.25949" width="5.25083" height="5.25951" fill="#FED955"/>
<rect x="110.268" y="10.519" width="5.25083" height="5.25951" fill="#FED955"/>
<rect x="110.268" y="21.0381" width="5.25083" height="5.25951" fill="#FED955"/>
<rect x="115.519" y="21.0381" width="5.25083" height="5.25951" fill="#FED955"/>
<rect x="110.268" y="26.2976" width="5.25083" height="5.25949" fill="#FED955"/>
<rect x="115.519" y="26.2976" width="5.25083" height="5.25949" fill="#FED955"/>
<rect x="110.268" y="31.5571" width="5.25083" height="5.25951" fill="#FED955"/>
<rect x="115.519" y="31.5571" width="5.25083" height="5.25951" fill="#FED955"/>
<rect x="110.268" y="36.8165" width="5.25083" height="5.25951" fill="#FED955"/>
<rect x="115.519" y="36.8165" width="5.25083" height="5.25951" fill="#FED955"/>
<rect x="105.017" y="5.25949" width="5.25082" height="5.25951" fill="#FED955"/>
<rect x="105.017" y="10.519" width="5.25082" height="5.25951" fill="#FED955"/>
<rect x="105.017" y="15.7785" width="5.25082" height="5.25951" fill="#FED955"/>
<rect x="99.7661" y="5.25949" width="5.25083" height="5.25951" fill="#FED955"/>
<rect x="99.7661" y="10.519" width="5.25083" height="5.25951" fill="#FED955"/>
<rect x="94.5151" y="15.7785" width="5.25083" height="5.25951" fill="#FED955"/>
<rect x="94.5151" y="26.2976" width="5.25083" height="5.25949" fill="#FED955"/>
<rect x="94.5151" y="36.8165" width="5.25083" height="5.25951" fill="#FED955"/>
<rect x="94.5151" y="21.0381" width="5.25083" height="5.25951" fill="#FED955"/>
<rect x="94.5151" y="31.5571" width="5.25083" height="5.25951" fill="#FED955"/>
<rect x="99.7661" y="15.7785" width="5.25083" height="5.25951" fill="#FED955"/>
<rect x="99.7661" y="26.2976" width="5.25083" height="5.25949" fill="#FED955"/>
<rect x="123.395" y="26.2976" width="5.25083" height="5.25949" fill="#FED955"/>
<rect x="128.646" y="26.2976" width="5.25082" height="5.25949" fill="#FED955"/>
<rect x="99.7661" y="36.8165" width="5.25083" height="5.25951" fill="#FED955"/>
<rect x="123.395" y="36.8165" width="5.25083" height="5.25951" fill="#FED955"/>
<rect x="128.646" y="36.8165" width="5.25082" height="5.25951" fill="#FED955"/>
<rect x="99.7661" y="21.0381" width="5.25083" height="5.25951" fill="#FED955"/>
<rect x="123.395" y="21.0381" width="5.25083" height="5.25951" fill="#FED955"/>
<rect x="120.769" y="15.7785" width="5.25083" height="5.25951" fill="#FED955"/>
<rect x="126.02" y="15.7785" width="5.25083" height="5.25951" fill="#FED955"/>
<rect x="128.646" y="21.0381" width="5.25082" height="5.25951" fill="#FED955"/>
<rect x="99.7661" y="31.5571" width="5.25083" height="5.25951" fill="#FED955"/>
<rect x="123.395" y="31.5571" width="5.25083" height="5.25951" fill="#FED955"/>
<rect x="128.646" y="31.5571" width="5.25082" height="5.25951" fill="#FED955"/>
<rect x="99.7661" y="42.0761" width="5.25083" height="5.25951" fill="#FED955"/>
<rect x="99.7661" y="47.3356" width="5.25083" height="5.25952" fill="#FED955"/>
<rect x="110.268" y="47.3356" width="5.25083" height="5.25952" fill="#FED955"/>
<rect x="110.268" y="52.5951" width="5.25083" height="5.25951" fill="#FED955"/>
<rect x="105.017" y="42.0761" width="5.25082" height="5.25951" fill="#FED955"/>
<rect x="105.017" y="47.3356" width="5.25082" height="5.25952" fill="#FED955"/>
<rect x="105.017" y="52.5951" width="5.25082" height="5.25951" fill="#FED955"/>
<rect x="115.519" y="47.3356" width="5.25083" height="5.25952" fill="#FED955"/>
<rect x="115.519" y="52.5951" width="5.25083" height="5.25951" fill="#FED955"/>
<rect x="120.769" y="47.3356" width="5.25083" height="5.25952" fill="#FED955"/>
<rect x="120.769" y="42.0761" width="5.25083" height="5.25951" fill="#FED955"/>
<rect x="126.02" y="42.0761" width="5.25083" height="5.25951" fill="#FED955"/>
<rect x="110.268" y="42.0761" width="5.25083" height="5.25951" fill="#FDEB95"/>
<rect x="115.519" y="42.0761" width="5.25083" height="5.25951" fill="#FDEB95"/>
<rect x="115.519" width="5.25083" height="5.25951" fill="#FED955"/>
<rect x="120.769" width="5.25083" height="5.25951" fill="#FED955"/>
<rect x="126.02" width="5.25083" height="5.25951" fill="#C4925C"/>
<rect x="120.769" y="5.25949" width="5.25083" height="5.25951" fill="#FDEB95"/>
<rect x="115.519" y="5.25949" width="5.25083" height="5.25951" fill="#FDEB95"/>
<rect x="115.519" y="10.519" width="5.25083" height="5.25951" fill="#FDEB95"/>
<rect x="126.02" y="5.25949" width="5.25083" height="5.25951" fill="#C4925C"/>
<rect x="120.769" y="10.519" width="5.25083" height="5.25951" fill="#FDEB95"/>
<rect x="115.519" y="15.7785" width="5.25083" height="5.25951" fill="#C4925C"/>
<rect x="110.268" y="15.7785" width="5.25083" height="5.25951" fill="#C4925C"/>
<rect x="105.017" y="21.0381" width="5.25082" height="5.25951" fill="#C4925C"/>
<rect x="120.769" y="21.0381" width="5.25083" height="5.25951" fill="#FDEB95"/>
<rect x="105.017" y="26.2976" width="5.25082" height="5.25949" fill="#C4925C"/>
<rect x="120.769" y="26.2976" width="5.25083" height="5.25949" fill="#FDEB95"/>
<rect x="105.017" y="31.5571" width="5.25082" height="5.25951" fill="#C4925C"/>
<rect x="120.769" y="31.5571" width="5.25083" height="5.25951" fill="#FDEB95"/>
<rect x="105.017" y="36.8165" width="5.25082" height="5.25951" fill="#C4925C"/>
<rect x="120.769" y="36.8165" width="5.25083" height="5.25951" fill="#FDEB95"/>
<rect x="131.271" y="5.25949" width="5.25083" height="5.25951" fill="#C4925C"/>
<rect x="131.271" y="15.7785" width="5.25083" height="5.25951" fill="#C4925C"/>
<rect x="131.271" y="21.0381" width="5.25083" height="5.25951" fill="#C4925C"/>
<rect x="136.522" y="21.0381" width="5.25083" height="5.25951" fill="#C4925C"/>
<rect x="136.522" y="31.5571" width="5.25083" height="5.25951" fill="#C4925C"/>
<rect x="133.896" y="26.2976" width="5.25083" height="5.25949" fill="#C4925C"/>
<rect x="133.896" y="31.5571" width="5.25083" height="5.25951" fill="#C4925C"/>
<rect x="133.896" y="36.8165" width="5.25083" height="5.25951" fill="#C4925C"/>
<rect x="131.271" y="42.0761" width="5.25083" height="5.25951" fill="#C4925C"/>
<rect x="131.271" y="47.3356" width="5.25083" height="5.25952" fill="#C4925C"/>
<rect x="126.02" y="47.3356" width="5.25083" height="5.25952" fill="#C4925C"/>
<rect x="126.02" y="52.5951" width="5.25083" height="5.25951" fill="#C4925C"/>
<rect x="120.769" y="52.5951" width="5.25083" height="5.25951" fill="#C4925C"/>
<rect x="136.522" y="15.7785" width="5.25083" height="5.25951" fill="#C4925C"/>
<rect x="136.522" y="26.2976" width="5.25083" height="5.25949" fill="#C4925C"/>
<rect x="126.02" y="10.519" width="5.25083" height="5.25951" fill="#C4925C"/>
<rect x="131.271" y="10.519" width="5.25083" height="5.25951" fill="#C4925C"/>
<rect x="131.271" y="21.0381" width="5.25083" height="5.25951" fill="#C4925C"/>
<rect x="147.357" width="5.25082" height="5.25951" fill="#FED955"/>
<rect x="147.357" y="5.25949" width="5.25082" height="5.25951" fill="#FED955"/>
<rect x="147.357" y="10.519" width="5.25082" height="5.25951" fill="#FED955"/>
<rect x="147.357" y="21.0381" width="5.25082" height="5.25951" fill="#FED955"/>
<rect x="152.608" y="21.0381" width="5.25083" height="5.25951" fill="#FED955"/>
<rect x="147.357" y="26.2976" width="5.25082" height="5.25949" fill="#FED955"/>
<rect x="152.608" y="26.2976" width="5.25083" height="5.25949" fill="#FED955"/>
<rect x="147.357" y="31.5571" width="5.25082" height="5.25951" fill="#FED955"/>
<rect x="152.608" y="31.5571" width="5.25083" height="5.25951" fill="#FED955"/>
<rect x="147.357" y="36.8165" width="5.25082" height="5.25951" fill="#FED955"/>
<rect x="152.608" y="36.8165" width="5.25083" height="5.25951" fill="#FED955"/>
<rect x="142.107" y="5.25949" width="5.25082" height="5.25951" fill="#FED955"/>
<rect x="142.107" y="10.519" width="5.25082" height="5.25951" fill="#FED955"/>
<rect x="142.107" y="15.7785" width="5.25082" height="5.25951" fill="#FED955"/>
<rect x="136.856" y="5.25949" width="5.25082" height="5.25951" fill="#FED955"/>
<rect x="136.856" y="10.519" width="5.25082" height="5.25951" fill="#FED955"/>
<rect x="131.605" y="15.7785" width="5.25082" height="5.25951" fill="#FED955"/>
<rect x="131.605" y="26.2976" width="5.25082" height="5.25949" fill="#FED955"/>
<rect x="131.605" y="36.8165" width="5.25082" height="5.25951" fill="#FED955"/>
<rect x="131.605" y="21.0381" width="5.25082" height="5.25951" fill="#FED955"/>
<rect x="131.605" y="31.5571" width="5.25082" height="5.25951" fill="#FED955"/>
<rect x="136.856" y="15.7785" width="5.25082" height="5.25951" fill="#FED955"/>
<rect x="136.856" y="26.2976" width="5.25082" height="5.25949" fill="#FED955"/>
<rect x="160.484" y="26.2976" width="5.25082" height="5.25949" fill="#FED955"/>
<rect x="165.735" y="26.2976" width="5.25084" height="5.25949" fill="#FED955"/>
<rect x="136.856" y="36.8165" width="5.25082" height="5.25951" fill="#FED955"/>
<rect x="160.484" y="36.8165" width="5.25082" height="5.25951" fill="#FED955"/>
<rect x="165.735" y="36.8165" width="5.25084" height="5.25951" fill="#FED955"/>
<rect x="136.856" y="21.0381" width="5.25082" height="5.25951" fill="#FED955"/>
<rect x="160.484" y="21.0381" width="5.25082" height="5.25951" fill="#FED955"/>
<rect x="157.859" y="15.7785" width="5.25081" height="5.25951" fill="#FED955"/>
<rect x="163.11" y="15.7785" width="5.25082" height="5.25951" fill="#FED955"/>
<rect x="165.735" y="21.0381" width="5.25084" height="5.25951" fill="#FED955"/>
<rect x="136.856" y="31.5571" width="5.25082" height="5.25951" fill="#FED955"/>
<rect x="160.484" y="31.5571" width="5.25082" height="5.25951" fill="#FED955"/>
<rect x="165.735" y="31.5571" width="5.25084" height="5.25951" fill="#FED955"/>
<rect x="136.856" y="42.0761" width="5.25082" height="5.25951" fill="#FED955"/>
<rect x="136.856" y="47.3356" width="5.25082" height="5.25952" fill="#FED955"/>
<rect x="147.357" y="47.3356" width="5.25082" height="5.25952" fill="#FED955"/>
<rect x="147.357" y="52.5951" width="5.25082" height="5.25951" fill="#FED955"/>
<rect x="142.107" y="42.0761" width="5.25082" height="5.25951" fill="#FED955"/>
<rect x="142.107" y="47.3356" width="5.25082" height="5.25952" fill="#FED955"/>
<rect x="142.107" y="52.5951" width="5.25082" height="5.25951" fill="#FED955"/>
<rect x="152.608" y="47.3356" width="5.25083" height="5.25952" fill="#FED955"/>
<rect x="152.608" y="52.5951" width="5.25083" height="5.25951" fill="#FED955"/>
<rect x="157.859" y="47.3356" width="5.25081" height="5.25952" fill="#FED955"/>
<rect x="157.859" y="42.0761" width="5.25081" height="5.25951" fill="#FED955"/>
<rect x="163.11" y="42.0761" width="5.25082" height="5.25951" fill="#FED955"/>
<rect x="147.357" y="42.0761" width="5.25082" height="5.25951" fill="#FDEB95"/>
<rect x="152.608" y="42.0761" width="5.25083" height="5.25951" fill="#FDEB95"/>
<rect x="152.608" width="5.25083" height="5.25951" fill="#FED955"/>
<rect x="157.859" width="5.25081" height="5.25951" fill="#FED955"/>
<rect x="163.11" width="5.25082" height="5.25951" fill="#C4925C"/>
<rect x="157.859" y="5.25949" width="5.25081" height="5.25951" fill="#FDEB95"/>
<rect x="152.608" y="5.25949" width="5.25083" height="5.25951" fill="#FDEB95"/>
<rect x="152.608" y="10.519" width="5.25083" height="5.25951" fill="#FDEB95"/>
<rect x="163.11" y="5.25949" width="5.25082" height="5.25951" fill="#C4925C"/>
<rect x="157.859" y="10.519" width="5.25081" height="5.25951" fill="#FDEB95"/>
<rect x="152.608" y="15.7785" width="5.25083" height="5.25951" fill="#C4925C"/>
<rect x="147.357" y="15.7785" width="5.25082" height="5.25951" fill="#C4925C"/>
<rect x="142.107" y="21.0381" width="5.25082" height="5.25951" fill="#C4925C"/>
<rect x="157.859" y="21.0381" width="5.25081" height="5.25951" fill="#FDEB95"/>
<rect x="142.107" y="26.2976" width="5.25082" height="5.25949" fill="#C4925C"/>
<rect x="157.859" y="26.2976" width="5.25081" height="5.25949" fill="#FDEB95"/>
<rect x="142.107" y="31.5571" width="5.25082" height="5.25951" fill="#C4925C"/>
<rect x="157.859" y="31.5571" width="5.25081" height="5.25951" fill="#FDEB95"/>
<rect x="142.107" y="36.8165" width="5.25082" height="5.25951" fill="#C4925C"/>
<rect x="157.859" y="36.8165" width="5.25081" height="5.25951" fill="#FDEB95"/>
<rect x="168.361" y="5.25949" width="5.25083" height="5.25951" fill="#C4925C"/>
<rect x="168.361" y="15.7785" width="5.25083" height="5.25951" fill="#C4925C"/>
<rect x="168.361" y="21.0381" width="5.25083" height="5.25951" fill="#C4925C"/>
<rect x="173.612" y="21.0381" width="5.25082" height="5.25951" fill="#C4925C"/>
<rect x="173.612" y="31.5571" width="5.25082" height="5.25951" fill="#C4925C"/>
<rect x="170.986" y="26.2976" width="5.25082" height="5.25949" fill="#C4925C"/>
<rect x="170.986" y="31.5571" width="5.25082" height="5.25951" fill="#C4925C"/>
<rect x="170.986" y="36.8165" width="5.25082" height="5.25951" fill="#C4925C"/>
<rect x="168.361" y="42.0761" width="5.25083" height="5.25951" fill="#C4925C"/>
<rect x="168.361" y="47.3356" width="5.25083" height="5.25952" fill="#C4925C"/>
<rect x="163.11" y="47.3356" width="5.25082" height="5.25952" fill="#C4925C"/>
<rect x="163.11" y="52.5951" width="5.25082" height="5.25951" fill="#C4925C"/>
<rect x="157.859" y="52.5951" width="5.25081" height="5.25951" fill="#C4925C"/>
<rect x="173.612" y="15.7785" width="5.25082" height="5.25951" fill="#C4925C"/>
<rect x="173.612" y="26.2976" width="5.25082" height="5.25949" fill="#C4925C"/>
<rect x="163.11" y="10.519" width="5.25082" height="5.25951" fill="#C4925C"/>
<rect x="168.361" y="10.519" width="5.25083" height="5.25951" fill="#C4925C"/>
<rect x="168.361" y="21.0381" width="5.25083" height="5.25951" fill="#C4925C"/>
<rect x="71.7456" y="13.318" width="5.25083" height="5.25951" fill="#FED955"/>
<rect x="71.7456" y="18.5775" width="5.25083" height="5.25951" fill="#FED955"/>
<rect x="71.7456" y="23.837" width="5.25083" height="5.25951" fill="#FED955"/>
<rect x="71.7456" y="34.3561" width="5.25083" height="5.25951" fill="#FED955"/>
<rect x="76.9966" y="34.3561" width="5.25083" height="5.25951" fill="#FED955"/>
<rect x="71.7456" y="39.6156" width="5.25083" height="5.2595" fill="#FED955"/>
<rect x="76.9966" y="39.6156" width="5.25083" height="5.2595" fill="#FED955"/>
<rect x="71.7456" y="44.8751" width="5.25083" height="5.25951" fill="#FED955"/>
<rect x="76.9966" y="44.8751" width="5.25083" height="5.25951" fill="#FED955"/>
<rect x="71.7456" y="50.1346" width="5.25083" height="5.25951" fill="#FED955"/>
<rect x="76.9966" y="50.1346" width="5.25083" height="5.25951" fill="#FED955"/>
<rect x="66.4946" y="18.5775" width="5.25083" height="5.25951" fill="#FED955"/>
<rect x="66.4946" y="23.837" width="5.25083" height="5.25951" fill="#FED955"/>
<rect x="66.4946" y="29.0965" width="5.25083" height="5.25951" fill="#FED955"/>
<rect x="61.2441" y="18.5775" width="5.25083" height="5.25951" fill="#FED955"/>
<rect x="61.2441" y="23.837" width="5.25083" height="5.25951" fill="#FED955"/>
<rect x="55.9932" y="29.0965" width="5.25083" height="5.25951" fill="#FED955"/>
<rect x="55.9932" y="39.6156" width="5.25083" height="5.2595" fill="#FED955"/>
<rect x="55.9932" y="50.1346" width="5.25083" height="5.25951" fill="#FED955"/>
<rect x="55.9932" y="34.3561" width="5.25083" height="5.25951" fill="#FED955"/>
<rect x="55.9932" y="44.8751" width="5.25083" height="5.25951" fill="#FED955"/>
<rect x="61.2441" y="29.0965" width="5.25083" height="5.25951" fill="#FED955"/>
<rect x="61.2441" y="39.6156" width="5.25083" height="5.2595" fill="#FED955"/>
<rect x="84.8726" y="39.6156" width="5.25083" height="5.2595" fill="#FED955"/>
<rect x="90.1235" y="39.6156" width="5.25082" height="5.2595" fill="#FED955"/>
<rect x="61.2441" y="50.1346" width="5.25083" height="5.25951" fill="#FED955"/>
<rect x="84.8726" y="50.1346" width="5.25083" height="5.25951" fill="#FED955"/>
<rect x="90.1235" y="50.1346" width="5.25082" height="5.25951" fill="#FED955"/>
<rect x="61.2441" y="34.3561" width="5.25083" height="5.25951" fill="#FED955"/>
<rect x="84.8726" y="34.3561" width="5.25083" height="5.25951" fill="#FED955"/>
<rect x="82.2471" y="29.0965" width="5.25083" height="5.25951" fill="#FED955"/>
<rect x="87.498" y="29.0965" width="5.25083" height="5.25951" fill="#FED955"/>
<rect x="90.1235" y="34.3561" width="5.25082" height="5.25951" fill="#FED955"/>
<rect x="61.2441" y="44.8751" width="5.25083" height="5.25951" fill="#FED955"/>
<rect x="84.8726" y="44.8751" width="5.25083" height="5.25951" fill="#FED955"/>
<rect x="90.1235" y="44.8751" width="5.25082" height="5.25951" fill="#FED955"/>
<rect x="61.2441" y="55.3941" width="5.25083" height="5.25951" fill="#FED955"/>
<rect x="61.2441" y="60.6536" width="5.25083" height="5.25951" fill="#FED955"/>
<rect x="71.7456" y="60.6536" width="5.25083" height="5.25951" fill="#FED955"/>
<rect x="71.7456" y="65.9131" width="5.25083" height="5.25951" fill="#FED955"/>
<rect x="66.4946" y="55.3941" width="5.25083" height="5.25951" fill="#FED955"/>
<rect x="66.4946" y="60.6536" width="5.25083" height="5.25951" fill="#FED955"/>
<rect x="66.4946" y="65.9131" width="5.25083" height="5.25951" fill="#FED955"/>
<rect x="76.9966" y="60.6536" width="5.25083" height="5.25951" fill="#FED955"/>
<rect x="76.9966" y="65.9131" width="5.25083" height="5.25951" fill="#FED955"/>
<rect x="82.2471" y="60.6536" width="5.25083" height="5.25951" fill="#FED955"/>
<rect x="82.2471" y="55.3941" width="5.25083" height="5.25951" fill="#FED955"/>
<rect x="87.498" y="55.3941" width="5.25083" height="5.25951" fill="#FED955"/>
<rect x="71.7456" y="55.3941" width="5.25083" height="5.25951" fill="#FDEB95"/>
<rect x="76.9966" y="55.3941" width="5.25083" height="5.25951" fill="#FDEB95"/>
<rect x="76.9966" y="13.318" width="5.25083" height="5.25951" fill="#FED955"/>
<rect x="82.2471" y="13.318" width="5.25083" height="5.25951" fill="#FED955"/>
<rect x="87.498" y="13.318" width="5.25083" height="5.25951" fill="#C4925C"/>
<rect x="82.2471" y="18.5775" width="5.25083" height="5.25951" fill="#FDEB95"/>
<rect x="76.9966" y="18.5775" width="5.25083" height="5.25951" fill="#FDEB95"/>
<rect x="76.9966" y="23.837" width="5.25083" height="5.25951" fill="#FDEB95"/>
<rect x="87.498" y="18.5775" width="5.25083" height="5.25951" fill="#C4925C"/>
<rect x="82.2471" y="23.837" width="5.25083" height="5.25951" fill="#FDEB95"/>
<rect x="76.9966" y="29.0965" width="5.25083" height="5.25951" fill="#C4925C"/>
<rect x="71.7456" y="29.0965" width="5.25083" height="5.25951" fill="#C4925C"/>
<rect x="66.4946" y="34.3561" width="5.25083" height="5.25951" fill="#C4925C"/>
<rect x="82.2471" y="34.3561" width="5.25083" height="5.25951" fill="#FDEB95"/>
<rect x="66.4946" y="39.6156" width="5.25083" height="5.2595" fill="#C4925C"/>
<rect x="82.2471" y="39.6156" width="5.25083" height="5.2595" fill="#FDEB95"/>
<rect x="66.4946" y="44.8751" width="5.25083" height="5.25951" fill="#C4925C"/>
<rect x="82.2471" y="44.8751" width="5.25083" height="5.25951" fill="#FDEB95"/>
<rect x="66.4946" y="50.1346" width="5.25083" height="5.25951" fill="#C4925C"/>
<rect x="82.2471" y="50.1346" width="5.25083" height="5.25951" fill="#FDEB95"/>
<rect x="92.749" y="18.5775" width="5.25084" height="5.25951" fill="#C4925C"/>
<rect x="92.749" y="29.0965" width="5.25084" height="5.25951" fill="#C4925C"/>
<rect x="92.749" y="34.3561" width="5.25084" height="5.25951" fill="#C4925C"/>
<rect x="98" y="34.3561" width="5.25083" height="5.25951" fill="#C4925C"/>
<rect x="98" y="44.8751" width="5.25083" height="5.25951" fill="#C4925C"/>
<rect x="95.3745" y="39.6156" width="5.25083" height="5.2595" fill="#C4925C"/>
<rect x="95.3745" y="44.8751" width="5.25083" height="5.25951" fill="#C4925C"/>
<rect x="95.3745" y="50.1346" width="5.25083" height="5.25951" fill="#C4925C"/>
<rect x="92.749" y="55.3941" width="5.25084" height="5.25951" fill="#C4925C"/>
<rect x="92.749" y="60.6536" width="5.25084" height="5.25951" fill="#C4925C"/>
<rect x="87.498" y="60.6536" width="5.25083" height="5.25951" fill="#C4925C"/>
<rect x="87.498" y="65.9131" width="5.25083" height="5.25951" fill="#C4925C"/>
<rect x="82.2471" y="65.9131" width="5.25083" height="5.25951" fill="#C4925C"/>
<rect x="98" y="29.0965" width="5.25083" height="5.25951" fill="#C4925C"/>
<rect x="98" y="39.6156" width="5.25083" height="5.2595" fill="#C4925C"/>
<rect x="87.498" y="23.837" width="5.25083" height="5.25951" fill="#C4925C"/>
<rect x="92.749" y="23.837" width="5.25084" height="5.25951" fill="#C4925C"/>
<rect x="92.749" y="34.3561" width="5.25084" height="5.25951" fill="#C4925C"/>
<rect x="123.729" y="28.9273" width="5.25082" height="5.25951" fill="#FED955"/>
<rect x="123.729" y="34.1868" width="5.25082" height="5.25951" fill="#FED955"/>
<rect x="123.729" y="39.4463" width="5.25082" height="5.25951" fill="#FED955"/>
<rect x="123.729" y="49.9654" width="5.25082" height="5.25951" fill="#FED955"/>
<rect x="128.979" y="49.9654" width="5.25083" height="5.25951" fill="#FED955"/>
<rect x="123.729" y="55.2249" width="5.25082" height="5.25949" fill="#FED955"/>
<rect x="128.979" y="55.2249" width="5.25083" height="5.25949" fill="#FED955"/>
<rect x="123.729" y="60.4844" width="5.25082" height="5.25951" fill="#FED955"/>
<rect x="128.979" y="60.4844" width="5.25083" height="5.25951" fill="#FED955"/>
<rect x="123.729" y="65.7438" width="5.25082" height="5.25951" fill="#FED955"/>
<rect x="128.979" y="65.7438" width="5.25083" height="5.25951" fill="#FED955"/>
<rect x="118.478" y="34.1868" width="5.25082" height="5.25951" fill="#FED955"/>
<rect x="118.478" y="39.4463" width="5.25082" height="5.25951" fill="#FED955"/>
<rect x="118.478" y="44.7058" width="5.25082" height="5.25951" fill="#FED955"/>
<rect x="113.227" y="34.1868" width="5.25082" height="5.25951" fill="#FED955"/>
<rect x="113.227" y="39.4463" width="5.25082" height="5.25951" fill="#FED955"/>
<rect x="107.976" y="44.7058" width="5.25082" height="5.25951" fill="#FED955"/>
<rect x="107.976" y="55.2249" width="5.25082" height="5.25949" fill="#FED955"/>
<rect x="107.976" y="65.7438" width="5.25082" height="5.25951" fill="#FED955"/>
<rect x="107.976" y="49.9654" width="5.25082" height="5.25951" fill="#FED955"/>
<rect x="107.976" y="60.4844" width="5.25082" height="5.25951" fill="#FED955"/>
<rect x="113.227" y="44.7058" width="5.25082" height="5.25951" fill="#FED955"/>
<rect x="113.227" y="55.2249" width="5.25082" height="5.25949" fill="#FED955"/>
<rect x="136.855" y="55.2249" width="5.25082" height="5.25949" fill="#FED955"/>
<rect x="142.106" y="55.2249" width="5.25084" height="5.25949" fill="#FED955"/>
<rect x="113.227" y="65.7438" width="5.25082" height="5.25951" fill="#FED955"/>
<rect x="136.855" y="65.7438" width="5.25082" height="5.25951" fill="#FED955"/>
<rect x="142.106" y="65.7438" width="5.25084" height="5.25951" fill="#FED955"/>
<rect x="113.227" y="49.9654" width="5.25082" height="5.25951" fill="#FED955"/>
<rect x="136.855" y="49.9654" width="5.25082" height="5.25951" fill="#FED955"/>
<rect x="134.23" y="44.7058" width="5.25081" height="5.25951" fill="#FED955"/>
<rect x="139.481" y="44.7058" width="5.25082" height="5.25951" fill="#FED955"/>
<rect x="142.106" y="49.9654" width="5.25084" height="5.25951" fill="#FED955"/>
<rect x="113.227" y="60.4844" width="5.25082" height="5.25951" fill="#FED955"/>
<rect x="136.855" y="60.4844" width="5.25082" height="5.25951" fill="#FED955"/>
<rect x="142.106" y="60.4844" width="5.25084" height="5.25951" fill="#FED955"/>
<rect x="113.227" y="71.0034" width="5.25082" height="5.25951" fill="#FED955"/>
<rect x="113.227" y="76.2629" width="5.25082" height="5.25952" fill="#FED955"/>
<rect x="123.729" y="76.2629" width="5.25082" height="5.25952" fill="#FED955"/>
<rect x="123.729" y="81.5224" width="5.25082" height="5.25951" fill="#FED955"/>
<rect x="118.478" y="71.0034" width="5.25082" height="5.25951" fill="#FED955"/>
<rect x="118.478" y="76.2629" width="5.25082" height="5.25952" fill="#FED955"/>
<rect x="118.478" y="81.5224" width="5.25082" height="5.25951" fill="#FED955"/>
<rect x="128.979" y="76.2629" width="5.25083" height="5.25952" fill="#FED955"/>
<rect x="128.979" y="81.5224" width="5.25083" height="5.25951" fill="#FED955"/>
<rect x="134.23" y="76.2629" width="5.25081" height="5.25952" fill="#FED955"/>
<rect x="134.23" y="71.0034" width="5.25081" height="5.25951" fill="#FED955"/>
<rect x="139.481" y="71.0034" width="5.25082" height="5.25951" fill="#FED955"/>
<rect x="123.729" y="71.0034" width="5.25082" height="5.25951" fill="#FDEB95"/>
<rect x="128.979" y="71.0034" width="5.25083" height="5.25951" fill="#FDEB95"/>
<rect x="128.979" y="28.9273" width="5.25083" height="5.25951" fill="#FED955"/>
<rect x="134.23" y="28.9273" width="5.25081" height="5.25951" fill="#FED955"/>
<rect x="139.481" y="28.9273" width="5.25082" height="5.25951" fill="#C4925C"/>
<rect x="134.23" y="34.1868" width="5.25081" height="5.25951" fill="#FDEB95"/>
<rect x="128.979" y="34.1868" width="5.25083" height="5.25951" fill="#FDEB95"/>
<rect x="128.979" y="39.4463" width="5.25083" height="5.25951" fill="#FDEB95"/>
<rect x="139.481" y="34.1868" width="5.25082" height="5.25951" fill="#C4925C"/>
<rect x="134.23" y="39.4463" width="5.25081" height="5.25951" fill="#FDEB95"/>
<rect x="128.979" y="44.7058" width="5.25083" height="5.25951" fill="#C4925C"/>
<rect x="123.729" y="44.7058" width="5.25082" height="5.25951" fill="#C4925C"/>
<rect x="118.478" y="49.9654" width="5.25082" height="5.25951" fill="#C4925C"/>
<rect x="134.23" y="49.9654" width="5.25081" height="5.25951" fill="#FDEB95"/>
<rect x="118.478" y="55.2249" width="5.25082" height="5.25949" fill="#C4925C"/>
<rect x="134.23" y="55.2249" width="5.25081" height="5.25949" fill="#FDEB95"/>
<rect x="118.478" y="60.4844" width="5.25082" height="5.25951" fill="#C4925C"/>
<rect x="134.23" y="60.4844" width="5.25081" height="5.25951" fill="#FDEB95"/>
<rect x="118.478" y="65.7438" width="5.25082" height="5.25951" fill="#C4925C"/>
<rect x="134.23" y="65.7438" width="5.25081" height="5.25951" fill="#FDEB95"/>
<rect x="144.732" y="34.1868" width="5.25083" height="5.25951" fill="#C4925C"/>
<rect x="144.732" y="44.7058" width="5.25083" height="5.25951" fill="#C4925C"/>
<rect x="144.732" y="49.9654" width="5.25083" height="5.25951" fill="#C4925C"/>
<rect x="149.983" y="49.9654" width="5.25082" height="5.25951" fill="#C4925C"/>
<rect x="149.983" y="60.4844" width="5.25082" height="5.25951" fill="#C4925C"/>
<rect x="147.357" y="55.2249" width="5.25082" height="5.25949" fill="#C4925C"/>
<rect x="147.357" y="60.4844" width="5.25082" height="5.25951" fill="#C4925C"/>
<rect x="147.357" y="65.7438" width="5.25082" height="5.25951" fill="#C4925C"/>
<rect x="144.732" y="71.0034" width="5.25083" height="5.25951" fill="#C4925C"/>
<rect x="144.732" y="76.2629" width="5.25083" height="5.25952" fill="#C4925C"/>
<rect x="139.481" y="76.2629" width="5.25082" height="5.25952" fill="#C4925C"/>
<rect x="139.481" y="81.5224" width="5.25082" height="5.25951" fill="#C4925C"/>
<rect x="134.23" y="81.5224" width="5.25081" height="5.25951" fill="#C4925C"/>
<rect x="149.983" y="44.7058" width="5.25082" height="5.25951" fill="#C4925C"/>
<rect x="149.983" y="55.2249" width="5.25082" height="5.25949" fill="#C4925C"/>
<rect x="139.481" y="39.4463" width="5.25082" height="5.25951" fill="#C4925C"/>
<rect x="144.732" y="39.4463" width="5.25083" height="5.25951" fill="#C4925C"/>
<rect x="144.732" y="49.9654" width="5.25083" height="5.25951" fill="#C4925C"/>
<rect x="167.979" y="15.1797" width="5.25083" height="5.25951" fill="#FED955"/>
<rect x="167.979" y="20.4392" width="5.25083" height="5.25951" fill="#FED955"/>
<rect x="167.979" y="25.6987" width="5.25083" height="5.25951" fill="#FED955"/>
<rect x="167.979" y="36.2177" width="5.25083" height="5.25951" fill="#FED955"/>
<rect x="173.23" y="36.2177" width="5.25083" height="5.25951" fill="#FED955"/>
<rect x="167.979" y="41.4772" width="5.25083" height="5.25949" fill="#FED955"/>
<rect x="173.23" y="41.4772" width="5.25083" height="5.25949" fill="#FED955"/>
<rect x="167.979" y="46.7367" width="5.25083" height="5.25951" fill="#FED955"/>
<rect x="173.23" y="46.7367" width="5.25083" height="5.25951" fill="#FED955"/>
<rect x="167.979" y="51.9962" width="5.25083" height="5.25951" fill="#FED955"/>
<rect x="173.23" y="51.9962" width="5.25083" height="5.25951" fill="#FED955"/>
<rect x="162.729" y="20.4392" width="5.25083" height="5.25951" fill="#FED955"/>
<rect x="162.729" y="25.6987" width="5.25083" height="5.25951" fill="#FED955"/>
<rect x="162.729" y="30.9581" width="5.25083" height="5.25951" fill="#FED955"/>
<rect x="157.478" y="20.4392" width="5.25083" height="5.25951" fill="#FED955"/>
<rect x="157.478" y="25.6987" width="5.25083" height="5.25951" fill="#FED955"/>
<rect x="152.227" y="30.9581" width="5.25083" height="5.25951" fill="#FED955"/>
<rect x="152.227" y="41.4772" width="5.25083" height="5.25949" fill="#FED955"/>
<rect x="152.227" y="51.9962" width="5.25083" height="5.25951" fill="#FED955"/>
<rect x="152.227" y="36.2177" width="5.25083" height="5.25951" fill="#FED955"/>
<rect x="152.227" y="46.7367" width="5.25083" height="5.25951" fill="#FED955"/>
<rect x="157.478" y="30.9581" width="5.25083" height="5.25951" fill="#FED955"/>
<rect x="157.478" y="41.4772" width="5.25083" height="5.25949" fill="#FED955"/>
<rect x="181.106" y="41.4772" width="5.25083" height="5.25949" fill="#FED955"/>
<rect x="186.357" y="41.4772" width="5.25085" height="5.25949" fill="#FED955"/>
<rect x="157.478" y="51.9962" width="5.25083" height="5.25951" fill="#FED955"/>
<rect x="181.106" y="51.9962" width="5.25083" height="5.25951" fill="#FED955"/>
<rect x="186.357" y="51.9962" width="5.25085" height="5.25951" fill="#FED955"/>
<rect x="157.478" y="36.2177" width="5.25083" height="5.25951" fill="#FED955"/>
<rect x="181.106" y="36.2177" width="5.25083" height="5.25951" fill="#FED955"/>
<rect x="178.481" y="30.9581" width="5.25081" height="5.25951" fill="#FED955"/>
<rect x="183.731" y="30.9581" width="5.25083" height="5.25951" fill="#FED955"/>
<rect x="186.357" y="36.2177" width="5.25085" height="5.25951" fill="#FED955"/>
<rect x="157.478" y="46.7367" width="5.25083" height="5.25951" fill="#FED955"/>
<rect x="181.106" y="46.7367" width="5.25083" height="5.25951" fill="#FED955"/>
<rect x="186.357" y="46.7367" width="5.25085" height="5.25951" fill="#FED955"/>
<rect x="157.478" y="57.2558" width="5.25083" height="5.25951" fill="#FED955"/>
<rect x="157.478" y="62.5153" width="5.25083" height="5.25952" fill="#FED955"/>
<rect x="167.979" y="62.5153" width="5.25083" height="5.25952" fill="#FED955"/>
<rect x="167.979" y="67.7748" width="5.25083" height="5.25951" fill="#FED955"/>
<rect x="162.729" y="57.2558" width="5.25083" height="5.25951" fill="#FED955"/>
<rect x="162.729" y="62.5153" width="5.25083" height="5.25952" fill="#FED955"/>
<rect x="162.729" y="67.7748" width="5.25083" height="5.25951" fill="#FED955"/>
<rect x="173.23" y="62.5153" width="5.25083" height="5.25952" fill="#FED955"/>
<rect x="173.23" y="67.7748" width="5.25083" height="5.25951" fill="#FED955"/>
<rect x="178.481" y="62.5153" width="5.25081" height="5.25952" fill="#FED955"/>
<rect x="178.481" y="57.2558" width="5.25081" height="5.25951" fill="#FED955"/>
<rect x="183.731" y="57.2558" width="5.25083" height="5.25951" fill="#FED955"/>
<rect x="167.979" y="57.2558" width="5.25083" height="5.25951" fill="#FDEB95"/>
<rect x="173.23" y="57.2558" width="5.25083" height="5.25951" fill="#FDEB95"/>
<rect x="173.23" y="15.1797" width="5.25083" height="5.25951" fill="#FED955"/>
<rect x="178.481" y="15.1797" width="5.25081" height="5.25951" fill="#FED955"/>
<rect x="183.731" y="15.1797" width="5.25083" height="5.25951" fill="#C4925C"/>
<rect x="178.481" y="20.4392" width="5.25081" height="5.25951" fill="#FDEB95"/>
<rect x="173.23" y="20.4392" width="5.25083" height="5.25951" fill="#FDEB95"/>
<rect x="173.23" y="25.6987" width="5.25083" height="5.25951" fill="#FDEB95"/>
<rect x="183.731" y="20.4392" width="5.25083" height="5.25951" fill="#C4925C"/>
<rect x="178.481" y="25.6987" width="5.25081" height="5.25951" fill="#FDEB95"/>
<rect x="173.23" y="30.9581" width="5.25083" height="5.25951" fill="#C4925C"/>
<rect x="167.979" y="30.9581" width="5.25083" height="5.25951" fill="#C4925C"/>
<rect x="162.729" y="36.2177" width="5.25083" height="5.25951" fill="#C4925C"/>
<rect x="178.481" y="36.2177" width="5.25081" height="5.25951" fill="#FDEB95"/>
<rect x="162.729" y="41.4772" width="5.25083" height="5.25949" fill="#C4925C"/>
<rect x="178.481" y="41.4772" width="5.25081" height="5.25949" fill="#FDEB95"/>
<rect x="162.729" y="46.7367" width="5.25083" height="5.25951" fill="#C4925C"/>
<rect x="178.481" y="46.7367" width="5.25081" height="5.25951" fill="#FDEB95"/>
<rect x="162.729" y="51.9962" width="5.25083" height="5.25951" fill="#C4925C"/>
<rect x="178.481" y="51.9962" width="5.25081" height="5.25951" fill="#FDEB95"/>
<rect x="188.982" y="20.4392" width="5.25083" height="5.25951" fill="#C4925C"/>
<rect x="188.982" y="30.9581" width="5.25083" height="5.25951" fill="#C4925C"/>
<rect x="188.982" y="36.2177" width="5.25083" height="5.25951" fill="#C4925C"/>
<rect x="194.233" y="36.2177" width="5.25083" height="5.25951" fill="#C4925C"/>
<rect x="194.233" y="46.7367" width="5.25083" height="5.25951" fill="#C4925C"/>
<rect x="191.608" y="41.4772" width="5.25083" height="5.25949" fill="#C4925C"/>
<rect x="191.608" y="46.7367" width="5.25083" height="5.25951" fill="#C4925C"/>
<rect x="191.608" y="51.9962" width="5.25083" height="5.25951" fill="#C4925C"/>
<rect x="188.982" y="57.2558" width="5.25083" height="5.25951" fill="#C4925C"/>
<rect x="188.982" y="62.5153" width="5.25083" height="5.25952" fill="#C4925C"/>
<rect x="183.731" y="62.5153" width="5.25083" height="5.25952" fill="#C4925C"/>
<rect x="183.731" y="67.7748" width="5.25083" height="5.25951" fill="#C4925C"/>
<rect x="178.481" y="67.7748" width="5.25081" height="5.25951" fill="#C4925C"/>
<rect x="194.233" y="30.9581" width="5.25083" height="5.25951" fill="#C4925C"/>
<rect x="194.233" y="41.4772" width="5.25083" height="5.25949" fill="#C4925C"/>
<rect x="183.731" y="25.6987" width="5.25083" height="5.25951" fill="#C4925C"/>
<rect x="188.982" y="25.6987" width="5.25083" height="5.25951" fill="#C4925C"/>
<rect x="188.982" y="36.2177" width="5.25083" height="5.25951" fill="#C4925C"/>
<rect x="39.3813" y="34.9419" width="5.25083" height="5.25951" fill="#FED955"/>
<rect x="39.3813" y="40.2014" width="5.25083" height="5.25951" fill="#FED955"/>
<rect x="39.3813" y="45.4609" width="5.25083" height="5.25951" fill="#FED955"/>
<rect x="39.3813" y="55.9799" width="5.25083" height="5.25951" fill="#FED955"/>
<rect x="44.6323" y="55.9799" width="5.25083" height="5.25951" fill="#FED955"/>
<rect x="39.3813" y="61.2395" width="5.25083" height="5.25949" fill="#FED955"/>
<rect x="44.6323" y="61.2395" width="5.25083" height="5.25949" fill="#FED955"/>
<rect x="39.3813" y="66.499" width="5.25083" height="5.25951" fill="#FED955"/>
<rect x="44.6323" y="66.499" width="5.25083" height="5.25951" fill="#FED955"/>
<rect x="39.3813" y="71.7584" width="5.25083" height="5.25951" fill="#FED955"/>
<rect x="44.6323" y="71.7584" width="5.25083" height="5.25951" fill="#FED955"/>
<rect x="34.1304" y="40.2014" width="5.25082" height="5.25951" fill="#FED955"/>
<rect x="34.1304" y="45.4609" width="5.25082" height="5.25951" fill="#FED955"/>
<rect x="34.1304" y="50.7204" width="5.25082" height="5.25951" fill="#FED955"/>
<rect x="28.8799" y="40.2014" width="5.25083" height="5.25951" fill="#FED955"/>
<rect x="28.8799" y="45.4609" width="5.25083" height="5.25951" fill="#FED955"/>
<rect x="23.6289" y="50.7204" width="5.25083" height="5.25951" fill="#FED955"/>
<rect x="23.6289" y="61.2395" width="5.25083" height="5.25949" fill="#FED955"/>
<rect x="23.6289" y="71.7584" width="5.25083" height="5.25951" fill="#FED955"/>
<rect x="23.6289" y="55.9799" width="5.25083" height="5.25951" fill="#FED955"/>
<rect x="23.6289" y="66.499" width="5.25083" height="5.25951" fill="#FED955"/>
<rect x="28.8799" y="50.7204" width="5.25083" height="5.25951" fill="#FED955"/>
<rect x="28.8799" y="61.2395" width="5.25083" height="5.25949" fill="#FED955"/>
<rect x="52.5083" y="61.2395" width="5.25083" height="5.25949" fill="#FED955"/>
<rect x="57.7593" y="61.2395" width="5.25082" height="5.25949" fill="#FED955"/>
<rect x="28.8799" y="71.7584" width="5.25083" height="5.25951" fill="#FED955"/>
<rect x="52.5083" y="71.7584" width="5.25083" height="5.25951" fill="#FED955"/>
<rect x="57.7593" y="71.7584" width="5.25082" height="5.25951" fill="#FED955"/>
<rect x="28.8799" y="55.9799" width="5.25083" height="5.25951" fill="#FED955"/>
<rect x="52.5083" y="55.9799" width="5.25083" height="5.25951" fill="#FED955"/>
<rect x="49.8828" y="50.7204" width="5.25083" height="5.25951" fill="#FED955"/>
<rect x="55.1338" y="50.7204" width="5.25083" height="5.25951" fill="#FED955"/>
<rect x="57.7593" y="55.9799" width="5.25082" height="5.25951" fill="#FED955"/>
<rect x="28.8799" y="66.499" width="5.25083" height="5.25951" fill="#FED955"/>
<rect x="52.5083" y="66.499" width="5.25083" height="5.25951" fill="#FED955"/>
<rect x="57.7593" y="66.499" width="5.25082" height="5.25951" fill="#FED955"/>
<rect x="28.8799" y="77.018" width="5.25083" height="5.25951" fill="#FED955"/>
<rect x="28.8799" y="82.2775" width="5.25083" height="5.25952" fill="#FED955"/>
<rect x="39.3813" y="82.2775" width="5.25083" height="5.25952" fill="#FED955"/>
<rect x="39.3813" y="87.537" width="5.25083" height="5.25951" fill="#FED955"/>
<rect x="34.1304" y="77.018" width="5.25082" height="5.25951" fill="#FED955"/>
<rect x="34.1304" y="82.2775" width="5.25082" height="5.25952" fill="#FED955"/>
<rect x="34.1304" y="87.537" width="5.25082" height="5.25951" fill="#FED955"/>
<rect x="44.6323" y="82.2775" width="5.25083" height="5.25952" fill="#FED955"/>
<rect x="44.6323" y="87.537" width="5.25083" height="5.25951" fill="#FED955"/>
<rect x="49.8828" y="82.2775" width="5.25083" height="5.25952" fill="#FED955"/>
<rect x="49.8828" y="77.018" width="5.25083" height="5.25951" fill="#FED955"/>
<rect x="55.1338" y="77.018" width="5.25083" height="5.25951" fill="#FED955"/>
<rect x="39.3813" y="77.018" width="5.25083" height="5.25951" fill="#FDEB95"/>
<rect x="44.6323" y="77.018" width="5.25083" height="5.25951" fill="#FDEB95"/>
<rect x="44.6323" y="34.9419" width="5.25083" height="5.25951" fill="#FED955"/>
<rect x="49.8828" y="34.9419" width="5.25083" height="5.25951" fill="#FED955"/>
<rect x="55.1338" y="34.9419" width="5.25083" height="5.25951" fill="#C4925C"/>
<rect x="49.8828" y="40.2014" width="5.25083" height="5.25951" fill="#FDEB95"/>
<rect x="44.6323" y="40.2014" width="5.25083" height="5.25951" fill="#FDEB95"/>
<rect x="44.6323" y="45.4609" width="5.25083" height="5.25951" fill="#FDEB95"/>
<rect x="55.1338" y="40.2014" width="5.25083" height="5.25951" fill="#C4925C"/>
<rect x="49.8828" y="45.4609" width="5.25083" height="5.25951" fill="#FDEB95"/>
<rect x="44.6323" y="50.7204" width="5.25083" height="5.25951" fill="#C4925C"/>
<rect x="39.3813" y="50.7204" width="5.25083" height="5.25951" fill="#C4925C"/>
<rect x="34.1304" y="55.9799" width="5.25082" height="5.25951" fill="#C4925C"/>
<rect x="49.8828" y="55.9799" width="5.25083" height="5.25951" fill="#FDEB95"/>
<rect x="34.1304" y="61.2395" width="5.25082" height="5.25949" fill="#C4925C"/>
<rect x="49.8828" y="61.2395" width="5.25083" height="5.25949" fill="#FDEB95"/>
<rect x="34.1304" y="66.499" width="5.25082" height="5.25951" fill="#C4925C"/>
<rect x="49.8828" y="66.499" width="5.25083" height="5.25951" fill="#FDEB95"/>
<rect x="34.1304" y="71.7584" width="5.25082" height="5.25951" fill="#C4925C"/>
<rect x="49.8828" y="71.7584" width="5.25083" height="5.25951" fill="#FDEB95"/>
<rect x="60.3848" y="40.2014" width="5.25084" height="5.25951" fill="#C4925C"/>
<rect x="60.3848" y="50.7204" width="5.25084" height="5.25951" fill="#C4925C"/>
<rect x="60.3848" y="55.9799" width="5.25084" height="5.25951" fill="#C4925C"/>
<rect x="65.6357" y="55.9799" width="5.25083" height="5.25951" fill="#C4925C"/>
<rect x="65.6357" y="66.499" width="5.25083" height="5.25951" fill="#C4925C"/>
<rect x="63.0103" y="61.2395" width="5.25083" height="5.25949" fill="#C4925C"/>
<rect x="63.0103" y="66.499" width="5.25083" height="5.25951" fill="#C4925C"/>
<rect x="63.0103" y="71.7584" width="5.25083" height="5.25951" fill="#C4925C"/>
<rect x="60.3848" y="77.018" width="5.25084" height="5.25951" fill="#C4925C"/>
<rect x="60.3848" y="82.2775" width="5.25084" height="5.25952" fill="#C4925C"/>
<rect x="55.1338" y="82.2775" width="5.25083" height="5.25952" fill="#C4925C"/>
<rect x="55.1338" y="87.537" width="5.25083" height="5.25951" fill="#C4925C"/>
<rect x="49.8828" y="87.537" width="5.25083" height="5.25951" fill="#C4925C"/>
<rect x="65.6357" y="50.7204" width="5.25083" height="5.25951" fill="#C4925C"/>
<rect x="65.6357" y="61.2395" width="5.25083" height="5.25949" fill="#C4925C"/>
<rect x="55.1338" y="45.4609" width="5.25083" height="5.25951" fill="#C4925C"/>
<rect x="60.3848" y="45.4609" width="5.25084" height="5.25951" fill="#C4925C"/>
<rect x="60.3848" y="55.9799" width="5.25084" height="5.25951" fill="#C4925C"/>
<rect x="186.739" y="43.9638" width="5.25083" height="5.25951" fill="#FED955"/>
<rect x="186.739" y="49.2233" width="5.25083" height="5.25951" fill="#FED955"/>
<rect x="186.739" y="54.4828" width="5.25083" height="5.25951" fill="#FED955"/>
<rect x="186.739" y="65.0018" width="5.25083" height="5.25951" fill="#FED955"/>
<rect x="191.99" y="65.0018" width="5.25083" height="5.25951" fill="#FED955"/>
<rect x="186.739" y="70.2614" width="5.25083" height="5.25949" fill="#FED955"/>
<rect x="191.99" y="70.2614" width="5.25083" height="5.25949" fill="#FED955"/>
<rect x="186.739" y="75.5208" width="5.25083" height="5.25951" fill="#FED955"/>
<rect x="191.99" y="75.5208" width="5.25083" height="5.25951" fill="#FED955"/>
<rect x="186.739" y="80.7803" width="5.25083" height="5.25951" fill="#FED955"/>
<rect x="191.99" y="80.7803" width="5.25083" height="5.25951" fill="#FED955"/>
<rect x="181.488" y="49.2233" width="5.25083" height="5.25951" fill="#FED955"/>
<rect x="181.488" y="54.4828" width="5.25083" height="5.25951" fill="#FED955"/>
<rect x="181.488" y="59.7422" width="5.25083" height="5.25951" fill="#FED955"/>
<rect x="176.237" y="49.2233" width="5.25083" height="5.25951" fill="#FED955"/>
<rect x="176.237" y="54.4828" width="5.25083" height="5.25951" fill="#FED955"/>
<rect x="170.986" y="59.7422" width="5.25083" height="5.25951" fill="#FED955"/>
<rect x="170.986" y="70.2614" width="5.25083" height="5.25949" fill="#FED955"/>
<rect x="170.986" y="80.7803" width="5.25083" height="5.25951" fill="#FED955"/>
<rect x="170.986" y="65.0018" width="5.25083" height="5.25951" fill="#FED955"/>
<rect x="170.986" y="75.5208" width="5.25083" height="5.25951" fill="#FED955"/>
<rect x="176.237" y="59.7422" width="5.25083" height="5.25951" fill="#FED955"/>
<rect x="176.237" y="70.2614" width="5.25083" height="5.25949" fill="#FED955"/>
<rect x="199.866" y="70.2614" width="5.25083" height="5.25949" fill="#FED955"/>
<rect x="205.117" y="70.2614" width="5.25084" height="5.25949" fill="#FED955"/>
<rect x="176.237" y="80.7803" width="5.25083" height="5.25951" fill="#FED955"/>
<rect x="199.866" y="80.7803" width="5.25083" height="5.25951" fill="#FED955"/>
<rect x="205.117" y="80.7803" width="5.25084" height="5.25951" fill="#FED955"/>
<rect x="176.237" y="65.0018" width="5.25083" height="5.25951" fill="#FED955"/>
<rect x="199.866" y="65.0018" width="5.25083" height="5.25951" fill="#FED955"/>
<rect x="197.241" y="59.7422" width="5.25081" height="5.25951" fill="#FED955"/>
<rect x="202.491" y="59.7422" width="5.25083" height="5.25951" fill="#FED955"/>
<rect x="205.117" y="65.0018" width="5.25084" height="5.25951" fill="#FED955"/>
<rect x="176.237" y="75.5208" width="5.25083" height="5.25951" fill="#FED955"/>
<rect x="199.866" y="75.5208" width="5.25083" height="5.25951" fill="#FED955"/>
<rect x="205.117" y="75.5208" width="5.25084" height="5.25951" fill="#FED955"/>
<rect x="176.237" y="86.0399" width="5.25083" height="5.25951" fill="#FED955"/>
<rect x="176.237" y="91.2994" width="5.25083" height="5.25952" fill="#FED955"/>
<rect x="186.739" y="91.2994" width="5.25083" height="5.25952" fill="#FED955"/>
<rect x="186.739" y="96.5589" width="5.25083" height="5.25951" fill="#FED955"/>
<rect x="181.488" y="86.0399" width="5.25083" height="5.25951" fill="#FED955"/>
<rect x="181.488" y="91.2994" width="5.25083" height="5.25952" fill="#FED955"/>
<rect x="181.488" y="96.5589" width="5.25083" height="5.25951" fill="#FED955"/>
<rect x="191.99" y="91.2994" width="5.25083" height="5.25952" fill="#FED955"/>
<rect x="191.99" y="96.5589" width="5.25083" height="5.25951" fill="#FED955"/>
<rect x="197.241" y="91.2994" width="5.25081" height="5.25952" fill="#FED955"/>
<rect x="197.241" y="86.0399" width="5.25081" height="5.25951" fill="#FED955"/>
<rect x="202.491" y="86.0399" width="5.25083" height="5.25951" fill="#FED955"/>
<rect x="186.739" y="86.0399" width="5.25083" height="5.25951" fill="#FDEB95"/>
<rect x="191.99" y="86.0399" width="5.25083" height="5.25951" fill="#FDEB95"/>
<rect x="191.99" y="43.9638" width="5.25083" height="5.25951" fill="#FED955"/>
<rect x="197.241" y="43.9638" width="5.25081" height="5.25951" fill="#FED955"/>
<rect x="202.491" y="43.9638" width="5.25083" height="5.25951" fill="#C4925C"/>
<rect x="197.241" y="49.2233" width="5.25081" height="5.25951" fill="#FDEB95"/>
<rect x="191.99" y="49.2233" width="5.25083" height="5.25951" fill="#FDEB95"/>
<rect x="191.99" y="54.4828" width="5.25083" height="5.25951" fill="#FDEB95"/>
<rect x="202.491" y="49.2233" width="5.25083" height="5.25951" fill="#C4925C"/>
<rect x="197.241" y="54.4828" width="5.25081" height="5.25951" fill="#FDEB95"/>
<rect x="191.99" y="59.7422" width="5.25083" height="5.25951" fill="#C4925C"/>
<rect x="186.739" y="59.7422" width="5.25083" height="5.25951" fill="#C4925C"/>
<rect x="181.488" y="65.0018" width="5.25083" height="5.25951" fill="#C4925C"/>
<rect x="197.241" y="65.0018" width="5.25081" height="5.25951" fill="#FDEB95"/>
<rect x="181.488" y="70.2614" width="5.25083" height="5.25949" fill="#C4925C"/>
<rect x="197.241" y="70.2614" width="5.25081" height="5.25949" fill="#FDEB95"/>
<rect x="181.488" y="75.5208" width="5.25083" height="5.25951" fill="#C4925C"/>
<rect x="197.241" y="75.5208" width="5.25081" height="5.25951" fill="#FDEB95"/>
<rect x="181.488" y="80.7803" width="5.25083" height="5.25951" fill="#C4925C"/>
<rect x="197.241" y="80.7803" width="5.25081" height="5.25951" fill="#FDEB95"/>
<rect x="207.742" y="49.2233" width="5.25083" height="5.25951" fill="#C4925C"/>
<rect x="207.742" y="59.7422" width="5.25083" height="5.25951" fill="#C4925C"/>
<rect x="207.742" y="65.0018" width="5.25083" height="5.25951" fill="#C4925C"/>
<rect x="212.993" y="65.0018" width="5.25082" height="5.25951" fill="#C4925C"/>
<rect x="212.993" y="75.5208" width="5.25082" height="5.25951" fill="#C4925C"/>
<rect x="210.368" y="70.2614" width="5.25083" height="5.25949" fill="#C4925C"/>
<rect x="210.368" y="75.5208" width="5.25083" height="5.25951" fill="#C4925C"/>
<rect x="210.368" y="80.7803" width="5.25083" height="5.25951" fill="#C4925C"/>
<rect x="207.742" y="86.0399" width="5.25083" height="5.25951" fill="#C4925C"/>
<rect x="207.742" y="91.2994" width="5.25083" height="5.25952" fill="#C4925C"/>
<rect x="202.491" y="91.2994" width="5.25083" height="5.25952" fill="#C4925C"/>
<rect x="202.491" y="96.5589" width="5.25083" height="5.25951" fill="#C4925C"/>
<rect x="197.241" y="96.5589" width="5.25081" height="5.25951" fill="#C4925C"/>
<rect x="212.993" y="59.7422" width="5.25082" height="5.25951" fill="#C4925C"/>
<rect x="212.993" y="70.2614" width="5.25082" height="5.25949" fill="#C4925C"/>
<rect x="202.491" y="54.4828" width="5.25083" height="5.25951" fill="#C4925C"/>
<rect x="207.742" y="54.4828" width="5.25083" height="5.25951" fill="#C4925C"/>
<rect x="207.742" y="65.0018" width="5.25083" height="5.25951" fill="#C4925C"/>
<rect x="152.656" y="42.5317" width="5.25083" height="5.2595" fill="#FED955"/>
<rect x="152.656" y="47.7912" width="5.25083" height="5.2595" fill="#FED955"/>
<rect x="152.656" y="53.0507" width="5.25083" height="5.25951" fill="#FED955"/>
<rect x="152.656" y="63.5698" width="5.25083" height="5.2595" fill="#FED955"/>
<rect x="157.907" y="63.5698" width="5.25083" height="5.2595" fill="#FED955"/>
<rect x="152.656" y="68.8293" width="5.25083" height="5.25949" fill="#FED955"/>
<rect x="157.907" y="68.8293" width="5.25083" height="5.25949" fill="#FED955"/>
<rect x="152.656" y="74.0888" width="5.25083" height="5.2595" fill="#FED955"/>
<rect x="157.907" y="74.0888" width="5.25083" height="5.2595" fill="#FED955"/>
<rect x="152.656" y="79.3482" width="5.25083" height="5.2595" fill="#FED955"/>
<rect x="157.907" y="79.3482" width="5.25083" height="5.2595" fill="#FED955"/>
<rect x="147.405" y="47.7912" width="5.25083" height="5.2595" fill="#FED955"/>
<rect x="147.405" y="53.0507" width="5.25083" height="5.25951" fill="#FED955"/>
<rect x="147.405" y="58.3102" width="5.25083" height="5.2595" fill="#FED955"/>
<rect x="142.154" y="47.7912" width="5.25083" height="5.2595" fill="#FED955"/>
<rect x="142.154" y="53.0507" width="5.25083" height="5.25951" fill="#FED955"/>
<rect x="136.903" y="58.3102" width="5.25083" height="5.2595" fill="#FED955"/>
<rect x="136.903" y="68.8293" width="5.25083" height="5.25949" fill="#FED955"/>
<rect x="136.903" y="79.3482" width="5.25083" height="5.2595" fill="#FED955"/>
<rect x="136.903" y="63.5698" width="5.25083" height="5.2595" fill="#FED955"/>
<rect x="136.903" y="74.0888" width="5.25083" height="5.2595" fill="#FED955"/>
<rect x="142.154" y="58.3102" width="5.25083" height="5.2595" fill="#FED955"/>
<rect x="142.154" y="68.8293" width="5.25083" height="5.25949" fill="#FED955"/>
<rect x="165.783" y="68.8293" width="5.25083" height="5.25949" fill="#FED955"/>
<rect x="171.034" y="68.8293" width="5.25085" height="5.25949" fill="#FED955"/>
<rect x="142.154" y="79.3482" width="5.25083" height="5.2595" fill="#FED955"/>
<rect x="165.783" y="79.3482" width="5.25083" height="5.2595" fill="#FED955"/>
<rect x="171.034" y="79.3482" width="5.25085" height="5.2595" fill="#FED955"/>
<rect x="142.154" y="63.5698" width="5.25083" height="5.2595" fill="#FED955"/>
<rect x="165.783" y="63.5698" width="5.25083" height="5.2595" fill="#FED955"/>
<rect x="163.158" y="58.3102" width="5.25082" height="5.2595" fill="#FED955"/>
<rect x="168.408" y="58.3102" width="5.25083" height="5.2595" fill="#FED955"/>
<rect x="171.034" y="63.5698" width="5.25085" height="5.2595" fill="#FED955"/>
<rect x="142.154" y="74.0888" width="5.25083" height="5.2595" fill="#FED955"/>
<rect x="165.783" y="74.0888" width="5.25083" height="5.2595" fill="#FED955"/>
<rect x="171.034" y="74.0888" width="5.25085" height="5.2595" fill="#FED955"/>
<rect x="142.154" y="84.6078" width="5.25083" height="5.2595" fill="#FED955"/>
<rect x="142.154" y="89.8673" width="5.25083" height="5.25951" fill="#FED955"/>
<rect x="152.656" y="89.8673" width="5.25083" height="5.25951" fill="#FED955"/>
<rect x="152.656" y="95.1268" width="5.25083" height="5.2595" fill="#FED955"/>
<rect x="147.405" y="84.6078" width="5.25083" height="5.2595" fill="#FED955"/>
<rect x="147.405" y="89.8673" width="5.25083" height="5.25951" fill="#FED955"/>
<rect x="147.405" y="95.1268" width="5.25083" height="5.2595" fill="#FED955"/>
<rect x="157.907" y="89.8673" width="5.25083" height="5.25951" fill="#FED955"/>
<rect x="157.907" y="95.1268" width="5.25083" height="5.2595" fill="#FED955"/>
<rect x="163.158" y="89.8673" width="5.25082" height="5.25951" fill="#FED955"/>
<rect x="163.158" y="84.6078" width="5.25082" height="5.2595" fill="#FED955"/>
<rect x="168.408" y="84.6078" width="5.25083" height="5.2595" fill="#FED955"/>
<rect x="152.656" y="84.6078" width="5.25083" height="5.2595" fill="#FDEB95"/>
<rect x="157.907" y="84.6078" width="5.25083" height="5.2595" fill="#FDEB95"/>
<rect x="157.907" y="42.5317" width="5.25083" height="5.2595" fill="#FED955"/>
<rect x="163.158" y="42.5317" width="5.25082" height="5.2595" fill="#FED955"/>
<rect x="168.408" y="42.5317" width="5.25083" height="5.2595" fill="#C4925C"/>
<rect x="163.158" y="47.7912" width="5.25082" height="5.2595" fill="#FDEB95"/>
<rect x="157.907" y="47.7912" width="5.25083" height="5.2595" fill="#FDEB95"/>
<rect x="157.907" y="53.0507" width="5.25083" height="5.25951" fill="#FDEB95"/>
<rect x="168.408" y="47.7912" width="5.25083" height="5.2595" fill="#C4925C"/>
<rect x="163.158" y="53.0507" width="5.25082" height="5.25951" fill="#FDEB95"/>
<rect x="157.907" y="58.3102" width="5.25083" height="5.2595" fill="#C4925C"/>
<rect x="152.656" y="58.3102" width="5.25083" height="5.2595" fill="#C4925C"/>
<rect x="147.405" y="63.5698" width="5.25083" height="5.2595" fill="#C4925C"/>
<rect x="163.158" y="63.5698" width="5.25082" height="5.2595" fill="#FDEB95"/>
<rect x="147.405" y="68.8293" width="5.25083" height="5.25949" fill="#C4925C"/>
<rect x="163.158" y="68.8293" width="5.25082" height="5.25949" fill="#FDEB95"/>
<rect x="147.405" y="74.0888" width="5.25083" height="5.2595" fill="#C4925C"/>
<rect x="163.158" y="74.0888" width="5.25082" height="5.2595" fill="#FDEB95"/>
<rect x="147.405" y="79.3482" width="5.25083" height="5.2595" fill="#C4925C"/>
<rect x="163.158" y="79.3482" width="5.25082" height="5.2595" fill="#FDEB95"/>
<rect x="173.659" y="47.7912" width="5.25084" height="5.2595" fill="#C4925C"/>
<rect x="173.659" y="58.3102" width="5.25084" height="5.2595" fill="#C4925C"/>
<rect x="173.659" y="63.5698" width="5.25084" height="5.2595" fill="#C4925C"/>
<rect x="178.91" y="63.5698" width="5.25083" height="5.2595" fill="#C4925C"/>
<rect x="178.91" y="74.0888" width="5.25083" height="5.2595" fill="#C4925C"/>
<rect x="176.285" y="68.8293" width="5.25084" height="5.25949" fill="#C4925C"/>
<rect x="176.285" y="74.0888" width="5.25084" height="5.2595" fill="#C4925C"/>
<rect x="176.285" y="79.3482" width="5.25084" height="5.2595" fill="#C4925C"/>
<rect x="173.659" y="84.6078" width="5.25084" height="5.2595" fill="#C4925C"/>
<rect x="173.659" y="89.8673" width="5.25084" height="5.25951" fill="#C4925C"/>
<rect x="168.408" y="89.8673" width="5.25083" height="5.25951" fill="#C4925C"/>
<rect x="168.408" y="95.1268" width="5.25083" height="5.2595" fill="#C4925C"/>
<rect x="163.158" y="95.1268" width="5.25082" height="5.2595" fill="#C4925C"/>
<rect x="178.91" y="58.3102" width="5.25083" height="5.2595" fill="#C4925C"/>
<rect x="178.91" y="68.8293" width="5.25083" height="5.25949" fill="#C4925C"/>
<rect x="168.408" y="53.0507" width="5.25083" height="5.25951" fill="#C4925C"/>
<rect x="173.659" y="53.0507" width="5.25084" height="5.25951" fill="#C4925C"/>
<rect x="173.659" y="63.5698" width="5.25084" height="5.2595" fill="#C4925C"/>
<rect x="105.398" y="48.5463" width="5.25083" height="5.25951" fill="#FED955"/>
<rect x="105.398" y="53.8058" width="5.25083" height="5.25951" fill="#FED955"/>
<rect x="105.398" y="59.0653" width="5.25083" height="5.25951" fill="#FED955"/>
<rect x="105.398" y="69.5844" width="5.25083" height="5.25951" fill="#FED955"/>
<rect x="110.649" y="69.5844" width="5.25083" height="5.25951" fill="#FED955"/>
<rect x="105.398" y="74.8439" width="5.25083" height="5.2595" fill="#FED955"/>
<rect x="110.649" y="74.8439" width="5.25083" height="5.2595" fill="#FED955"/>
<rect x="105.398" y="80.1034" width="5.25083" height="5.25951" fill="#FED955"/>
<rect x="110.649" y="80.1034" width="5.25083" height="5.25951" fill="#FED955"/>
<rect x="105.398" y="85.3629" width="5.25083" height="5.25951" fill="#FED955"/>
<rect x="110.649" y="85.3629" width="5.25083" height="5.25951" fill="#FED955"/>
<rect x="100.147" y="53.8058" width="5.25082" height="5.25951" fill="#FED955"/>
<rect x="100.147" y="59.0653" width="5.25082" height="5.25951" fill="#FED955"/>
<rect x="100.147" y="64.3248" width="5.25082" height="5.25951" fill="#FED955"/>
<rect x="94.897" y="53.8058" width="5.25083" height="5.25951" fill="#FED955"/>
<rect x="94.897" y="59.0653" width="5.25083" height="5.25951" fill="#FED955"/>
<rect x="89.646" y="64.3248" width="5.25083" height="5.25951" fill="#FED955"/>
<rect x="89.646" y="74.8439" width="5.25083" height="5.2595" fill="#FED955"/>
<rect x="89.646" y="85.3629" width="5.25083" height="5.25951" fill="#FED955"/>
<rect x="89.646" y="69.5844" width="5.25083" height="5.25951" fill="#FED955"/>
<rect x="89.646" y="80.1034" width="5.25083" height="5.25951" fill="#FED955"/>
<rect x="94.897" y="64.3248" width="5.25083" height="5.25951" fill="#FED955"/>
<rect x="94.897" y="74.8439" width="5.25083" height="5.2595" fill="#FED955"/>
<rect x="118.525" y="74.8439" width="5.25083" height="5.2595" fill="#FED955"/>
<rect x="123.776" y="74.8439" width="5.25082" height="5.2595" fill="#FED955"/>
<rect x="94.897" y="85.3629" width="5.25083" height="5.25951" fill="#FED955"/>
<rect x="118.525" y="85.3629" width="5.25083" height="5.25951" fill="#FED955"/>
<rect x="123.776" y="85.3629" width="5.25082" height="5.25951" fill="#FED955"/>
<rect x="94.897" y="69.5844" width="5.25083" height="5.25951" fill="#FED955"/>
<rect x="118.525" y="69.5844" width="5.25083" height="5.25951" fill="#FED955"/>
<rect x="115.9" y="64.3248" width="5.25083" height="5.25951" fill="#FED955"/>
<rect x="121.151" y="64.3248" width="5.25083" height="5.25951" fill="#FED955"/>
<rect x="123.776" y="69.5844" width="5.25082" height="5.25951" fill="#FED955"/>
<rect x="94.897" y="80.1034" width="5.25083" height="5.25951" fill="#FED955"/>
<rect x="118.525" y="80.1034" width="5.25083" height="5.25951" fill="#FED955"/>
<rect x="123.776" y="80.1034" width="5.25082" height="5.25951" fill="#FED955"/>
<rect x="94.897" y="90.6224" width="5.25083" height="5.25951" fill="#FED955"/>
<rect x="94.897" y="95.8819" width="5.25083" height="5.25952" fill="#FED955"/>
<rect x="105.398" y="95.8819" width="5.25083" height="5.25952" fill="#FED955"/>
<rect x="105.398" y="101.141" width="5.25083" height="5.25951" fill="#FED955"/>
<rect x="100.147" y="90.6224" width="5.25082" height="5.25951" fill="#FED955"/>
<rect x="100.147" y="95.8819" width="5.25082" height="5.25952" fill="#FED955"/>
<rect x="100.147" y="101.141" width="5.25082" height="5.25951" fill="#FED955"/>
<rect x="110.649" y="95.8819" width="5.25083" height="5.25952" fill="#FED955"/>
<rect x="110.649" y="101.141" width="5.25083" height="5.25951" fill="#FED955"/>
<rect x="115.9" y="95.8819" width="5.25083" height="5.25952" fill="#FED955"/>
<rect x="115.9" y="90.6224" width="5.25083" height="5.25951" fill="#FED955"/>
<rect x="121.151" y="90.6224" width="5.25083" height="5.25951" fill="#FED955"/>
<rect x="105.398" y="90.6224" width="5.25083" height="5.25951" fill="#FDEB95"/>
<rect x="110.649" y="90.6224" width="5.25083" height="5.25951" fill="#FDEB95"/>
<rect x="110.649" y="48.5463" width="5.25083" height="5.25951" fill="#FED955"/>
<rect x="115.9" y="48.5463" width="5.25083" height="5.25951" fill="#FED955"/>
<rect x="121.151" y="48.5463" width="5.25083" height="5.25951" fill="#C4925C"/>
<rect x="115.9" y="53.8058" width="5.25083" height="5.25951" fill="#FDEB95"/>
<rect x="110.649" y="53.8058" width="5.25083" height="5.25951" fill="#FDEB95"/>
<rect x="110.649" y="59.0653" width="5.25083" height="5.25951" fill="#FDEB95"/>
<rect x="121.151" y="53.8058" width="5.25083" height="5.25951" fill="#C4925C"/>
<rect x="115.9" y="59.0653" width="5.25083" height="5.25951" fill="#FDEB95"/>
<rect x="110.649" y="64.3248" width="5.25083" height="5.25951" fill="#C4925C"/>
<rect x="105.398" y="64.3248" width="5.25083" height="5.25951" fill="#C4925C"/>
<rect x="100.147" y="69.5844" width="5.25082" height="5.25951" fill="#C4925C"/>
<rect x="115.9" y="69.5844" width="5.25083" height="5.25951" fill="#FDEB95"/>
<rect x="100.147" y="74.8439" width="5.25082" height="5.2595" fill="#C4925C"/>
<rect x="115.9" y="74.8439" width="5.25083" height="5.2595" fill="#FDEB95"/>
<rect x="100.147" y="80.1034" width="5.25082" height="5.25951" fill="#C4925C"/>
<rect x="115.9" y="80.1034" width="5.25083" height="5.25951" fill="#FDEB95"/>
<rect x="100.147" y="85.3629" width="5.25082" height="5.25951" fill="#C4925C"/>
<rect x="115.9" y="85.3629" width="5.25083" height="5.25951" fill="#FDEB95"/>
<rect x="126.402" y="53.8058" width="5.25083" height="5.25951" fill="#C4925C"/>
<rect x="126.402" y="64.3248" width="5.25083" height="5.25951" fill="#C4925C"/>
<rect x="126.402" y="69.5844" width="5.25083" height="5.25951" fill="#C4925C"/>
<rect x="131.653" y="69.5844" width="5.25083" height="5.25951" fill="#C4925C"/>
<rect x="131.653" y="80.1034" width="5.25083" height="5.25951" fill="#C4925C"/>
<rect x="129.027" y="74.8439" width="5.25083" height="5.2595" fill="#C4925C"/>
<rect x="129.027" y="80.1034" width="5.25083" height="5.25951" fill="#C4925C"/>
<rect x="129.027" y="85.3629" width="5.25083" height="5.25951" fill="#C4925C"/>
<rect x="126.402" y="90.6224" width="5.25083" height="5.25951" fill="#C4925C"/>
<rect x="126.402" y="95.8819" width="5.25083" height="5.25952" fill="#C4925C"/>
<rect x="121.151" y="95.8819" width="5.25083" height="5.25952" fill="#C4925C"/>
<rect x="121.151" y="101.141" width="5.25083" height="5.25951" fill="#C4925C"/>
<rect x="115.9" y="101.141" width="5.25083" height="5.25951" fill="#C4925C"/>
<rect x="131.653" y="64.3248" width="5.25083" height="5.25951" fill="#C4925C"/>
<rect x="131.653" y="74.8439" width="5.25083" height="5.2595" fill="#C4925C"/>
<rect x="121.151" y="59.0653" width="5.25083" height="5.25951" fill="#C4925C"/>
<rect x="126.402" y="59.0653" width="5.25083" height="5.25951" fill="#C4925C"/>
<rect x="126.402" y="69.5844" width="5.25083" height="5.25951" fill="#C4925C"/>
<rect x="58.1411" y="57.8546" width="5.25083" height="5.25951" fill="#FED955"/>
<rect x="58.1411" y="63.1141" width="5.25083" height="5.25951" fill="#FED955"/>
<rect x="58.1411" y="68.3736" width="5.25083" height="5.25951" fill="#FED955"/>
<rect x="58.1411" y="78.8927" width="5.25083" height="5.25951" fill="#FED955"/>
<rect x="63.3921" y="78.8927" width="5.25083" height="5.25951" fill="#FED955"/>
<rect x="58.1411" y="84.1522" width="5.25083" height="5.25949" fill="#FED955"/>
<rect x="63.3921" y="84.1522" width="5.25083" height="5.25949" fill="#FED955"/>
<rect x="58.1411" y="89.4117" width="5.25083" height="5.25951" fill="#FED955"/>
<rect x="63.3921" y="89.4117" width="5.25083" height="5.25951" fill="#FED955"/>
<rect x="58.1411" y="94.6711" width="5.25083" height="5.25951" fill="#FED955"/>
<rect x="63.3921" y="94.6711" width="5.25083" height="5.25951" fill="#FED955"/>
<rect x="52.8901" y="63.1141" width="5.25082" height="5.25951" fill="#FED955"/>
<rect x="52.8901" y="68.3736" width="5.25082" height="5.25951" fill="#FED955"/>
<rect x="52.8901" y="73.6331" width="5.25082" height="5.25951" fill="#FED955"/>
<rect x="47.6396" y="63.1141" width="5.25083" height="5.25951" fill="#FED955"/>
<rect x="47.6396" y="68.3736" width="5.25083" height="5.25951" fill="#FED955"/>
<rect x="42.3887" y="73.6331" width="5.25083" height="5.25951" fill="#FED955"/>
<rect x="42.3887" y="84.1522" width="5.25083" height="5.25949" fill="#FED955"/>
<rect x="42.3887" y="94.6711" width="5.25083" height="5.25951" fill="#FED955"/>
<rect x="42.3887" y="78.8927" width="5.25083" height="5.25951" fill="#FED955"/>
<rect x="42.3887" y="89.4117" width="5.25083" height="5.25951" fill="#FED955"/>
<rect x="47.6396" y="73.6331" width="5.25083" height="5.25951" fill="#FED955"/>
<rect x="47.6396" y="84.1522" width="5.25083" height="5.25949" fill="#FED955"/>
<rect x="71.2681" y="84.1522" width="5.25083" height="5.25949" fill="#FED955"/>
<rect x="76.519" y="84.1522" width="5.25082" height="5.25949" fill="#FED955"/>
<rect x="47.6396" y="94.6711" width="5.25083" height="5.25951" fill="#FED955"/>
<rect x="71.2681" y="94.6711" width="5.25083" height="5.25951" fill="#FED955"/>
<rect x="76.519" y="94.6711" width="5.25082" height="5.25951" fill="#FED955"/>
<rect x="47.6396" y="78.8927" width="5.25083" height="5.25951" fill="#FED955"/>
<rect x="71.2681" y="78.8927" width="5.25083" height="5.25951" fill="#FED955"/>
<rect x="68.6426" y="73.6331" width="5.25083" height="5.25951" fill="#FED955"/>
<rect x="73.8936" y="73.6331" width="5.25083" height="5.25951" fill="#FED955"/>
<rect x="76.519" y="78.8927" width="5.25082" height="5.25951" fill="#FED955"/>
<rect x="47.6396" y="89.4117" width="5.25083" height="5.25951" fill="#FED955"/>
<rect x="71.2681" y="89.4117" width="5.25083" height="5.25951" fill="#FED955"/>
<rect x="76.519" y="89.4117" width="5.25082" height="5.25951" fill="#FED955"/>
<rect x="47.6396" y="99.9308" width="5.25083" height="5.25951" fill="#FED955"/>
<rect x="47.6396" y="105.19" width="5.25083" height="5.25952" fill="#FED955"/>
<rect x="58.1411" y="105.19" width="5.25083" height="5.25952" fill="#FED955"/>
<rect x="58.1411" y="110.45" width="5.25083" height="5.25951" fill="#FED955"/>
<rect x="52.8901" y="99.9308" width="5.25082" height="5.25951" fill="#FED955"/>
<rect x="52.8901" y="105.19" width="5.25082" height="5.25952" fill="#FED955"/>
<rect x="52.8901" y="110.45" width="5.25082" height="5.25951" fill="#FED955"/>
<rect x="63.3921" y="105.19" width="5.25083" height="5.25952" fill="#FED955"/>
<rect x="63.3921" y="110.45" width="5.25083" height="5.25951" fill="#FED955"/>
<rect x="68.6426" y="105.19" width="5.25083" height="5.25952" fill="#FED955"/>
<rect x="68.6426" y="99.9308" width="5.25083" height="5.25951" fill="#FED955"/>
<rect x="73.8936" y="99.9308" width="5.25083" height="5.25951" fill="#FED955"/>
<rect x="58.1411" y="99.9308" width="5.25083" height="5.25951" fill="#FDEB95"/>
<rect x="63.3921" y="99.9308" width="5.25083" height="5.25951" fill="#FDEB95"/>
<rect x="63.3921" y="57.8546" width="5.25083" height="5.25951" fill="#FED955"/>
<rect x="68.6426" y="57.8546" width="5.25083" height="5.25951" fill="#FED955"/>
<rect x="73.8936" y="57.8546" width="5.25083" height="5.25951" fill="#C4925C"/>
<rect x="68.6426" y="63.1141" width="5.25083" height="5.25951" fill="#FDEB95"/>
<rect x="63.3921" y="63.1141" width="5.25083" height="5.25951" fill="#FDEB95"/>
<rect x="63.3921" y="68.3736" width="5.25083" height="5.25951" fill="#FDEB95"/>
<rect x="73.8936" y="63.1141" width="5.25083" height="5.25951" fill="#C4925C"/>
<rect x="68.6426" y="68.3736" width="5.25083" height="5.25951" fill="#FDEB95"/>
<rect x="63.3921" y="73.6331" width="5.25083" height="5.25951" fill="#C4925C"/>
<rect x="58.1411" y="73.6331" width="5.25083" height="5.25951" fill="#C4925C"/>
<rect x="52.8901" y="78.8927" width="5.25082" height="5.25951" fill="#C4925C"/>
<rect x="68.6426" y="78.8927" width="5.25083" height="5.25951" fill="#FDEB95"/>
<rect x="52.8901" y="84.1522" width="5.25082" height="5.25949" fill="#C4925C"/>
<rect x="68.6426" y="84.1522" width="5.25083" height="5.25949" fill="#FDEB95"/>
<rect x="52.8901" y="89.4117" width="5.25082" height="5.25951" fill="#C4925C"/>
<rect x="68.6426" y="89.4117" width="5.25083" height="5.25951" fill="#FDEB95"/>
<rect x="52.8901" y="94.6711" width="5.25082" height="5.25951" fill="#C4925C"/>
<rect x="68.6426" y="94.6711" width="5.25083" height="5.25951" fill="#FDEB95"/>
<rect x="79.1445" y="63.1141" width="5.25084" height="5.25951" fill="#C4925C"/>
<rect x="79.1445" y="73.6331" width="5.25084" height="5.25951" fill="#C4925C"/>
<rect x="79.1445" y="78.8927" width="5.25084" height="5.25951" fill="#C4925C"/>
<rect x="84.3955" y="78.8927" width="5.25083" height="5.25951" fill="#C4925C"/>
<rect x="84.3955" y="89.4117" width="5.25083" height="5.25951" fill="#C4925C"/>
<rect x="81.77" y="84.1522" width="5.25083" height="5.25949" fill="#C4925C"/>
<rect x="81.77" y="89.4117" width="5.25083" height="5.25951" fill="#C4925C"/>
<rect x="81.77" y="94.6711" width="5.25083" height="5.25951" fill="#C4925C"/>
<rect x="79.1445" y="99.9308" width="5.25084" height="5.25951" fill="#C4925C"/>
<rect x="79.1445" y="105.19" width="5.25084" height="5.25952" fill="#C4925C"/>
<rect x="73.8936" y="105.19" width="5.25083" height="5.25952" fill="#C4925C"/>
<rect x="73.8936" y="110.45" width="5.25083" height="5.25951" fill="#C4925C"/>
<rect x="68.6426" y="110.45" width="5.25083" height="5.25951" fill="#C4925C"/>
<rect x="84.3955" y="73.6331" width="5.25083" height="5.25951" fill="#C4925C"/>
<rect x="84.3955" y="84.1522" width="5.25083" height="5.25949" fill="#C4925C"/>
<rect x="73.8936" y="68.3736" width="5.25083" height="5.25951" fill="#C4925C"/>
<rect x="79.1445" y="68.3736" width="5.25084" height="5.25951" fill="#C4925C"/>
<rect x="79.1445" y="78.8927" width="5.25084" height="5.25951" fill="#C4925C"/>
<rect x="63.0098" y="81.913" width="15.7525" height="15.7525" fill="#2624D0"/>
<rect x="63.0098" y="129.171" width="15.7525" height="15.7524" fill="#7B79F7"/>
<rect x="63.0098" y="97.6655" width="15.7525" height="15.7525" fill="#7B79F7"/>
<rect x="63.0098" y="144.923" width="15.7525" height="15.7525" fill="#7B79F7"/>
<rect x="63.0098" y="113.418" width="15.7525" height="15.7525" fill="#7B79F7"/>
<rect x="63.0098" y="160.675" width="15.7525" height="15.7525" fill="#7B79F7"/>
<rect x="94.5151" y="81.913" width="15.7525" height="15.7525" fill="#2624D0"/>
<rect x="110.268" y="81.913" width="15.7525" height="15.7525" fill="#2624D0"/>
<rect x="94.5151" y="129.171" width="15.7525" height="15.7524" fill="#7B79F7"/>
<rect x="110.268" y="129.171" width="15.7525" height="15.7524" fill="#7B79F7"/>
<rect x="94.5151" y="97.6655" width="15.7525" height="15.7525" fill="#7B79F7"/>
<rect x="110.268" y="97.6655" width="15.7525" height="15.7525" fill="#2624D0"/>
<rect x="94.5151" y="144.923" width="15.7525" height="15.7525" fill="#7B79F7"/>
<rect x="110.268" y="144.923" width="15.7525" height="15.7525" fill="#7B79F7"/>
<rect x="94.5151" y="113.418" width="15.7525" height="15.7525" fill="#7B79F7"/>
<rect x="110.268" y="113.418" width="15.7525" height="15.7525" fill="#7B79F7"/>
<rect x="94.5151" y="160.675" width="15.7525" height="15.7525" fill="#7B79F7"/>
<rect x="110.268" y="160.675" width="15.7525" height="15.7525" fill="#7B79F7"/>
<rect x="141.772" y="81.913" width="15.7525" height="15.7525" fill="#2624D0"/>
<rect x="204.782" y="81.913" width="15.7525" height="15.7525" fill="#2624D0"/>
<rect x="15.7524" y="81.913" width="15.7525" height="15.7525" fill="#2624D0"/>
<rect x="141.772" y="129.171" width="15.7525" height="15.7524" fill="#7B79F7"/>
<rect x="15.7524" y="129.171" width="15.7525" height="15.7524" fill="#7B79F7"/>
<rect x="141.772" y="97.6655" width="15.7525" height="15.7525" fill="#7B79F7"/>
<rect x="15.7524" y="97.6655" width="15.7525" height="15.7525" fill="#7B79F7"/>
<rect x="141.772" y="144.923" width="15.7525" height="15.7525" fill="#7B79F7"/>
<rect x="15.7524" y="144.923" width="15.7525" height="15.7525" fill="#7B79F7"/>
<rect x="141.772" y="113.418" width="15.7525" height="15.7525" fill="#7B79F7"/>
<rect x="15.7524" y="113.418" width="15.7525" height="15.7525" fill="#7B79F7"/>
<rect x="141.772" y="160.675" width="15.7525" height="15.7525" fill="#7B79F7"/>
<rect x="15.7524" y="160.675" width="15.7525" height="15.7525" fill="#7B79F7"/>
<rect x="15.7524" y="176.428" width="15.7525" height="15.7525" fill="#7B79F7"/>
<rect x="204.782" y="176.428" width="15.7525" height="15.7525" fill="#7B79F7"/>
<rect x="78.7627" y="81.913" width="15.7525" height="15.7525" fill="#2624D0"/>
<rect x="78.7627" y="129.171" width="15.7525" height="15.7524" fill="#7B79F7"/>
<rect x="78.7627" y="97.6655" width="15.7525" height="15.7525" fill="#7B79F7"/>
<rect x="78.7627" y="144.923" width="15.7525" height="15.7525" fill="#7B79F7"/>
<rect x="78.7627" y="113.418" width="15.7525" height="15.7525" fill="#7B79F7"/>
<rect x="78.7627" y="160.675" width="15.7525" height="15.7525" fill="#7B79F7"/>
<rect x="126.02" y="81.913" width="15.7525" height="15.7525" fill="#2624D0"/>
<rect x="189.03" y="81.913" width="15.7525" height="15.7525" fill="#2624D0"/>
<rect x="126.02" y="129.171" width="15.7525" height="15.7524" fill="#7B79F7"/>
<rect y="129.171" width="15.7525" height="15.7524" fill="#7B79F7"/>
<rect x="126.02" y="97.6655" width="15.7525" height="15.7525" fill="#7B79F7"/>
<rect y="97.6655" width="15.7525" height="15.7525" fill="#7B79F7"/>
<rect x="126.02" y="144.923" width="15.7525" height="15.7525" fill="#7B79F7"/>
<rect y="144.923" width="15.7525" height="15.7525" fill="#7B79F7"/>
<rect x="126.02" y="113.418" width="15.7525" height="15.7525" fill="#7B79F7"/>
<rect y="113.418" width="15.7525" height="15.7525" fill="#7B79F7"/>
<rect x="126.02" y="160.675" width="15.7525" height="15.7525" fill="#7B79F7"/>
<rect y="160.675" width="15.7525" height="15.7525" fill="#7B79F7"/>
<rect x="157.525" y="81.913" width="15.7525" height="15.7525" fill="#2624D0"/>
<rect x="31.5049" y="81.913" width="15.7525" height="15.7525" fill="#2624D0"/>
<rect x="173.277" y="81.913" width="15.7525" height="15.7525" fill="#2624D0"/>
<rect x="47.2573" y="81.913" width="15.7525" height="15.7525" fill="#2624D0"/>
<rect x="157.525" y="129.171" width="15.7525" height="15.7524" fill="#7B79F7"/>
<rect x="31.5049" y="129.171" width="15.7525" height="15.7524" fill="#7B79F7"/>
<rect x="47.2573" y="129.171" width="15.7525" height="15.7524" fill="#2624D0"/>
<rect x="157.525" y="97.6655" width="15.7525" height="15.7525" fill="#7B79F7"/>
<rect x="31.5049" y="97.6655" width="15.7525" height="15.7525" fill="#7B79F7"/>
<rect x="47.2573" y="97.6655" width="15.7525" height="15.7525" fill="#2624D0"/>
<rect x="157.525" y="144.923" width="15.7525" height="15.7525" fill="#7B79F7"/>
<rect x="31.5049" y="144.923" width="15.7525" height="15.7525" fill="#7B79F7"/>
<rect x="47.2573" y="144.923" width="15.7525" height="15.7525" fill="#2624D0"/>
<rect x="157.525" y="113.418" width="15.7525" height="15.7525" fill="#7B79F7"/>
<rect x="31.5049" y="113.418" width="15.7525" height="15.7525" fill="#7B79F7"/>
<rect x="47.2573" y="113.418" width="15.7525" height="15.7525" fill="#2624D0"/>
<rect x="157.525" y="160.675" width="15.7525" height="15.7525" fill="#7B79F7"/>
<rect x="31.5049" y="160.675" width="15.7525" height="15.7525" fill="#7B79F7"/>
<rect x="204.782" y="129.171" width="15.7525" height="15.7524" fill="#7B79F7"/>
<rect x="204.782" y="97.6655" width="15.7525" height="15.7525" fill="#7B79F7"/>
<rect x="204.782" y="144.923" width="15.7525" height="15.7525" fill="#7B79F7"/>
<rect x="204.782" y="113.418" width="15.7525" height="15.7525" fill="#7B79F7"/>
<rect x="204.782" y="160.675" width="15.7525" height="15.7525" fill="#7B79F7"/>
<rect x="189.03" y="129.171" width="15.7525" height="15.7524" fill="#7B79F7"/>
<rect x="189.03" y="97.6655" width="15.7525" height="15.7525" fill="#7B79F7"/>
<rect x="189.03" y="144.923" width="15.7525" height="15.7525" fill="#7B79F7"/>
<rect x="189.03" y="113.418" width="15.7525" height="15.7525" fill="#7B79F7"/>
<rect x="189.03" y="160.675" width="15.7525" height="15.7525" fill="#7B79F7"/>
<rect x="220.535" y="129.171" width="15.7524" height="15.7524" fill="#7B79F7"/>
<rect x="173.277" y="129.171" width="15.7525" height="15.7524" fill="#2624D0"/>
<rect x="220.535" y="97.6655" width="15.7524" height="15.7525" fill="#7B79F7"/>
<rect x="173.277" y="97.6655" width="15.7525" height="15.7525" fill="#2624D0"/>
<rect x="220.535" y="144.923" width="15.7524" height="15.7525" fill="#7B79F7"/>
<rect x="173.277" y="144.923" width="15.7525" height="15.7525" fill="#2624D0"/>
<rect x="220.535" y="113.418" width="15.7524" height="15.7525" fill="#7B79F7"/>
<rect x="173.277" y="113.418" width="15.7525" height="15.7525" fill="#2624D0"/>
<rect x="220.535" y="160.675" width="15.7524" height="15.7525" fill="#7B79F7"/>
<rect x="173.277" y="160.675" width="15.7525" height="15.7525" fill="#2624D0"/>
<rect x="47.2573" y="160.675" width="15.7525" height="15.7525" fill="#2624D0"/>
</svg>
