<svg width="1320" height="1320" viewBox="0 0 1320 1320" fill="none" xmlns="http://www.w3.org/2000/svg">
<rect x="330" y="330" width="110" height="110" transform="rotate(-180 330 330)" fill="#7B79F7"/>
<rect x="330" y="770" width="110" height="110" transform="rotate(-180 330 770)" fill="#7B79F7"/>
<rect x="220" y="770" width="110" height="110" transform="rotate(-180 220 770)" fill="#7B79F7"/>
<rect x="110" y="770" width="110" height="110" transform="rotate(-180 110 770)" fill="#7B79F7"/>
<rect x="330" y="550" width="110" height="110" transform="rotate(-180 330 550)" fill="#7B79F7"/>
<rect x="220" y="550" width="110" height="110" transform="rotate(-180 220 550)" fill="#7B79F7"/>
<rect x="110" y="550" width="110" height="110" transform="rotate(-180 110 550)" fill="#7B79F7"/>
<rect x="330" y="990" width="110" height="110" transform="rotate(-180 330 990)" fill="#7B79F7"/>
<rect x="220" y="990" width="110" height="110" transform="rotate(-180 220 990)" fill="#7B79F7"/>
<rect x="330" y="440" width="110" height="110" transform="rotate(-180 330 440)" fill="#7B79F7"/>
<rect x="220" y="440" width="110" height="110" transform="rotate(-180 220 440)" fill="#7B79F7"/>
<rect x="330" y="880" width="110" height="110" transform="rotate(-180 330 880)" fill="#7B79F7"/>
<rect x="220" y="880" width="110" height="110" transform="rotate(-180 220 880)" fill="#7B79F7"/>
<rect x="110" y="880" width="110" height="110" transform="rotate(-180 110 880)" fill="#7B79F7"/>
<rect x="330" y="660" width="110" height="110" transform="rotate(-180 330 660)" fill="#7B79F7"/>
<rect x="220" y="660" width="110" height="110" transform="rotate(-180 220 660)" fill="#7B79F7"/>
<rect x="110" y="660" width="110" height="110" transform="rotate(-180 110 660)" fill="#7B79F7"/>
<rect x="330" y="1100" width="110" height="110" transform="rotate(-180 330 1100)" fill="#7B79F7"/>
<rect x="770" y="330" width="110" height="110" transform="rotate(-180 770 330)" fill="#7B79F7"/>
<rect x="770" y="220" width="110" height="110" transform="rotate(-180 770 220)" fill="#7B79F7"/>
<rect x="770" y="110" width="110" height="110" transform="rotate(-180 770 110)" fill="#7B79F7"/>
<rect x="770" y="770" width="110" height="110" transform="rotate(-180 770 770)" fill="#7B79F7"/>
<rect x="770" y="550" width="110" height="110" transform="rotate(-180 770 550)" fill="#7B79F7"/>
<rect x="770" y="990" width="110" height="110" transform="rotate(-180 770 990)" fill="#7B79F7"/>
<rect x="770" y="440" width="110" height="110" transform="rotate(-180 770 440)" fill="#7B79F7"/>
<rect x="770" y="880" width="110" height="110" transform="rotate(-180 770 880)" fill="#7B79F7"/>
<rect x="770" y="660" width="110" height="110" transform="rotate(-180 770 660)" fill="#7B79F7"/>
<rect x="770" y="1100" width="110" height="110" transform="rotate(-180 770 1100)" fill="#7B79F7"/>
<rect x="770" y="1210" width="110" height="110" transform="rotate(-180 770 1210)" fill="#7B79F7"/>
<rect x="770" y="1320" width="110" height="110" transform="rotate(-180 770 1320)" fill="#7B79F7"/>
<rect x="550" y="330" width="110" height="110" transform="rotate(-180 550 330)" fill="#7B79F7"/>
<rect x="550" y="220" width="110" height="110" transform="rotate(-180 550 220)" fill="#7B79F7"/>
<rect x="550" y="110" width="110" height="110" transform="rotate(-180 550 110)" fill="#7B79F7"/>
<rect x="550" y="770" width="110" height="110" transform="rotate(-180 550 770)" fill="#7B79F7"/>
<rect x="550" y="550" width="110" height="110" transform="rotate(-180 550 550)" fill="#7B79F7"/>
<rect x="550" y="990" width="110" height="110" transform="rotate(-180 550 990)" fill="#7B79F7"/>
<rect x="550" y="440" width="110" height="110" transform="rotate(-180 550 440)" fill="#7B79F7"/>
<rect x="550" y="880" width="110" height="110" transform="rotate(-180 550 880)" fill="#7B79F7"/>
<rect x="550" y="660" width="110" height="110" transform="rotate(-180 550 660)" fill="#7B79F7"/>
<rect x="550" y="1100" width="110" height="110" transform="rotate(-180 550 1100)" fill="#7B79F7"/>
<rect x="550" y="1210" width="110" height="110" transform="rotate(-180 550 1210)" fill="#7B79F7"/>
<rect x="550" y="1320" width="110" height="110" transform="rotate(-180 550 1320)" fill="#7B79F7"/>
<rect x="990" y="330" width="110" height="110" transform="rotate(-180 990 330)" fill="#7B79F7"/>
<rect x="990" y="220" width="110" height="110" transform="rotate(-180 990 220)" fill="#7B79F7"/>
<rect x="990" y="770" width="110" height="110" transform="rotate(-180 990 770)" fill="#7B79F7"/>
<rect x="990" y="550" width="110" height="110" transform="rotate(-180 990 550)" fill="#7B79F7"/>
<rect x="990" y="990" width="110" height="110" transform="rotate(-180 990 990)" fill="#7B79F7"/>
<rect x="990" y="440" width="110" height="110" transform="rotate(-180 990 440)" fill="#7B79F7"/>
<rect x="990" y="880" width="110" height="110" transform="rotate(-180 990 880)" fill="#7B79F7"/>
<rect x="990" y="660" width="110" height="110" transform="rotate(-180 990 660)" fill="#7B79F7"/>
<rect x="990" y="1100" width="110" height="110" transform="rotate(-180 990 1100)" fill="#7B79F7"/>
<rect x="990" y="1210" width="110" height="110" transform="rotate(-180 990 1210)" fill="#7B79F7"/>
<rect x="440" y="330" width="110" height="110" transform="rotate(-180 440 330)" fill="#7B79F7"/>
<rect x="440" y="220" width="110" height="110" transform="rotate(-180 440 220)" fill="#7B79F7"/>
<rect x="440" y="770" width="110" height="110" transform="rotate(-180 440 770)" fill="#7B79F7"/>
<rect x="440" y="550" width="110" height="110" transform="rotate(-180 440 550)" fill="#7B79F7"/>
<rect x="440" y="990" width="110" height="110" transform="rotate(-180 440 990)" fill="#7B79F7"/>
<rect x="440" y="440" width="110" height="110" transform="rotate(-180 440 440)" fill="#7B79F7"/>
<rect x="440" y="880" width="110" height="110" transform="rotate(-180 440 880)" fill="#7B79F7"/>
<rect x="440" y="660" width="110" height="110" transform="rotate(-180 440 660)" fill="#7B79F7"/>
<rect x="440" y="1100" width="110" height="110" transform="rotate(-180 440 1100)" fill="#7B79F7"/>
<rect x="440" y="1210" width="110" height="110" transform="rotate(-180 440 1210)" fill="#7B79F7"/>
<rect x="880" y="330" width="110" height="110" transform="rotate(-180 880 330)" fill="#7B79F7"/>
<rect x="880" y="220" width="110" height="110" transform="rotate(-180 880 220)" fill="#7B79F7"/>
<rect x="880" y="110" width="110" height="110" transform="rotate(-180 880 110)" fill="#7B79F7"/>
<rect x="880" y="770" width="110" height="110" transform="rotate(-180 880 770)" fill="#7B79F7"/>
<rect x="880" y="550" width="110" height="110" transform="rotate(-180 880 550)" fill="#7B79F7"/>
<rect x="880" y="990" width="110" height="110" transform="rotate(-180 880 990)" fill="#7B79F7"/>
<rect x="880" y="440" width="110" height="110" transform="rotate(-180 880 440)" fill="#7B79F7"/>
<rect x="880" y="880" width="110" height="110" transform="rotate(-180 880 880)" fill="#7B79F7"/>
<rect x="880" y="660" width="110" height="110" transform="rotate(-180 880 660)" fill="#7B79F7"/>
<rect x="880" y="1100" width="110" height="110" transform="rotate(-180 880 1100)" fill="#7B79F7"/>
<rect x="880" y="1210" width="110" height="110" transform="rotate(-180 880 1210)" fill="#7B79F7"/>
<rect x="880" y="1320" width="110" height="110" transform="rotate(-180 880 1320)" fill="#7B79F7"/>
<rect x="660" y="330" width="110" height="110" transform="rotate(-180 660 330)" fill="#7B79F7"/>
<rect x="660" y="220" width="110" height="110" transform="rotate(-180 660 220)" fill="#7B79F7"/>
<rect x="660" y="110" width="110" height="110" transform="rotate(-180 660 110)" fill="#7B79F7"/>
<rect x="660" y="770" width="110" height="110" transform="rotate(-180 660 770)" fill="#7B79F7"/>
<rect x="660" y="550" width="110" height="110" transform="rotate(-180 660 550)" fill="#7B79F7"/>
<rect x="660" y="990" width="110" height="110" transform="rotate(-180 660 990)" fill="#7B79F7"/>
<rect x="660" y="440" width="110" height="110" transform="rotate(-180 660 440)" fill="#7B79F7"/>
<rect x="660" y="880" width="110" height="110" transform="rotate(-180 660 880)" fill="#7B79F7"/>
<rect x="660" y="660" width="110" height="110" transform="rotate(-180 660 660)" fill="#7B79F7"/>
<rect x="660" y="1100" width="110" height="110" transform="rotate(-180 660 1100)" fill="#7B79F7"/>
<rect x="660" y="1210" width="110" height="110" transform="rotate(-180 660 1210)" fill="#7B79F7"/>
<rect x="660" y="1320" width="110" height="110" transform="rotate(-180 660 1320)" fill="#7B79F7"/>
<rect x="1100" y="330" width="110" height="110" transform="rotate(-180 1100 330)" fill="#7B79F7"/>
<rect x="1100" y="770" width="110" height="110" transform="rotate(-180 1100 770)" fill="#7B79F7"/>
<rect x="1210" y="770" width="110" height="110" transform="rotate(-180 1210 770)" fill="#7B79F7"/>
<rect x="1100" y="550" width="110" height="110" transform="rotate(-180 1100 550)" fill="#7B79F7"/>
<rect x="1210" y="550" width="110" height="110" transform="rotate(-180 1210 550)" fill="#7B79F7"/>
<rect x="1320" y="550" width="110" height="110" transform="rotate(-180 1320 550)" fill="#7B79F7"/>
<rect x="1100" y="990" width="110" height="110" transform="rotate(-180 1100 990)" fill="#7B79F7"/>
<rect x="1210" y="990" width="110" height="110" transform="rotate(-180 1210 990)" fill="#7B79F7"/>
<rect x="1100" y="440" width="110" height="110" transform="rotate(-180 1100 440)" fill="#7B79F7"/>
<rect x="1210" y="440" width="110" height="110" transform="rotate(-180 1210 440)" fill="#7B79F7"/>
<rect x="1100" y="880" width="110" height="110" transform="rotate(-180 1100 880)" fill="#7B79F7"/>
<rect x="1210" y="880" width="110" height="110" transform="rotate(-180 1210 880)" fill="#7B79F7"/>
<rect x="1320" y="880" width="110" height="110" transform="rotate(-180 1320 880)" fill="#7B79F7"/>
<rect x="1100" y="660" width="110" height="110" transform="rotate(-180 1100 660)" fill="#7B79F7"/>
<rect x="1210" y="660" width="110" height="110" transform="rotate(-180 1210 660)" fill="#7B79F7"/>
<rect x="1320" y="660" width="110" height="110" transform="rotate(-180 1320 660)" fill="#7B79F7"/>
<rect x="1320" y="770" width="110" height="110" transform="rotate(-180 1320 770)" fill="#7B79F7"/>
<rect x="1100" y="1100" width="110" height="110" transform="rotate(-180 1100 1100)" fill="#7B79F7"/>
<rect x="826" y="384" width="110" height="110" fill="white"/>
<rect x="826" y="275" width="110" height="110" fill="white"/>
<rect x="716" y="384" width="110" height="110" fill="white"/>
<rect width="110" height="110" transform="matrix(-1 0 0 1 1046 384)" fill="white"/>
<rect x="826" y="714" width="110" height="110" fill="white"/>
<rect x="826" y="494" width="110" height="110" fill="white"/>
<rect x="606" y="494" width="110" height="110" fill="white"/>
<rect width="110" height="110" transform="matrix(-1 0 0 1 1156 494)" fill="white"/>
<rect x="826" y="824" width="110" height="110" fill="white"/>
<rect x="826" y="604" width="110" height="110" fill="white"/>
<rect x="826" y="934" width="110" height="110" fill="white"/>
<rect x="495" y="935" width="110" height="110" transform="rotate(-180 495 935)" fill="white"/>
<rect x="495" y="1044" width="110" height="110" transform="rotate(-180 495 1044)" fill="white"/>
<rect x="605" y="935" width="110" height="110" transform="rotate(-180 605 935)" fill="white"/>
<rect width="110" height="110" transform="matrix(1 8.74228e-08 8.74228e-08 -1 275 935)" fill="white"/>
<rect x="495" y="605" width="110" height="110" transform="rotate(-180 495 605)" fill="white"/>
<rect x="495" y="825" width="110" height="110" transform="rotate(-180 495 825)" fill="white"/>
<rect x="715" y="825" width="110" height="110" transform="rotate(-180 715 825)" fill="white"/>
<rect width="110" height="110" transform="matrix(1 8.74228e-08 8.74228e-08 -1 165 825)" fill="white"/>
<rect x="495" y="495" width="110" height="110" transform="rotate(-180 495 495)" fill="white"/>
<rect x="495" y="715" width="110" height="110" transform="rotate(-180 495 715)" fill="white"/>
<rect x="495" y="385" width="110" height="110" transform="rotate(-180 495 385)" fill="white"/>
</svg>
