<svg width="880" height="880" viewBox="0 0 880 880" fill="none" xmlns="http://www.w3.org/2000/svg">
<rect x="110" y="550" width="110" height="110" transform="rotate(-180 110 550)" fill="white"/>
<rect x="110" y="330" width="110" height="110" transform="rotate(-180 110 330)" fill="white"/>
<rect x="110" y="660" width="110" height="110" transform="rotate(-180 110 660)" fill="white"/>
<rect x="110" y="440" width="110" height="110" transform="rotate(-180 110 440)" fill="white"/>
<rect x="550" y="110" width="110" height="110" transform="rotate(-180 550 110)" fill="white"/>
<rect x="660" y="110" width="110" height="110" transform="rotate(-180 660 110)" fill="white"/>
<rect x="550" y="550" width="110" height="110" transform="rotate(-180 550 550)" fill="white"/>
<rect x="550" y="330" width="110" height="110" transform="rotate(-180 550 330)" fill="white"/>
<rect x="550" y="770" width="110" height="110" transform="rotate(-180 550 770)" fill="white"/>
<rect x="550" y="220" width="110" height="110" transform="rotate(-180 550 220)" fill="white"/>
<rect x="550" y="660" width="110" height="110" transform="rotate(-180 550 660)" fill="white"/>
<rect x="550" y="440" width="110" height="110" transform="rotate(-180 550 440)" fill="white"/>
<rect x="550" y="880" width="110" height="110" transform="rotate(-180 550 880)" fill="white"/>
<rect x="660" y="880" width="110" height="110" transform="rotate(-180 660 880)" fill="white"/>
<rect x="330" y="550" width="110" height="110" transform="rotate(-180 330 550)" fill="white"/>
<rect x="330" y="330" width="110" height="110" transform="rotate(-180 330 330)" fill="white"/>
<rect x="330" y="770" width="110" height="110" transform="rotate(-180 330 770)" fill="white"/>
<rect x="330" y="220" width="110" height="110" transform="rotate(-180 330 220)" fill="white"/>
<rect x="330" y="660" width="110" height="110" transform="rotate(-180 330 660)" fill="white"/>
<rect x="330" y="440" width="110" height="110" transform="rotate(-180 330 440)" fill="white"/>
<rect x="770" y="550" width="110" height="110" transform="rotate(-180 770 550)" fill="white"/>
<rect x="770" y="330" width="110" height="110" transform="rotate(-180 770 330)" fill="white"/>
<rect x="770" y="770" width="110" height="110" transform="rotate(-180 770 770)" fill="white"/>
<rect x="770" y="220" width="110" height="110" transform="rotate(-180 770 220)" fill="white"/>
<rect x="770" y="660" width="110" height="110" transform="rotate(-180 770 660)" fill="white"/>
<rect x="770" y="440" width="110" height="110" transform="rotate(-180 770 440)" fill="white"/>
<rect x="220" y="550" width="110" height="110" transform="rotate(-180 220 550)" fill="white"/>
<rect x="220" y="330" width="110" height="110" transform="rotate(-180 220 330)" fill="white"/>
<rect x="220" y="770" width="110" height="110" transform="rotate(-180 220 770)" fill="white"/>
<rect x="220" y="220" width="110" height="110" transform="rotate(-180 220 220)" fill="white"/>
<rect x="220" y="660" width="110" height="110" transform="rotate(-180 220 660)" fill="white"/>
<rect x="220" y="440" width="110" height="110" transform="rotate(-180 220 440)" fill="white"/>
<rect x="660" y="550" width="110" height="110" transform="rotate(-180 660 550)" fill="white"/>
<rect x="660" y="330" width="110" height="110" transform="rotate(-180 660 330)" fill="white"/>
<rect x="660" y="770" width="110" height="110" transform="rotate(-180 660 770)" fill="white"/>
<rect x="660" y="220" width="110" height="110" transform="rotate(-180 660 220)" fill="white"/>
<rect x="660" y="660" width="110" height="110" transform="rotate(-180 660 660)" fill="white"/>
<rect x="660" y="440" width="110" height="110" transform="rotate(-180 660 440)" fill="white"/>
<rect x="440" y="110" width="110" height="110" transform="rotate(-180 440 110)" fill="white"/>
<rect x="330" y="110" width="110" height="110" transform="rotate(-180 330 110)" fill="white"/>
<rect x="440" y="550" width="110" height="110" transform="rotate(-180 440 550)" fill="white"/>
<rect x="440" y="330" width="110" height="110" transform="rotate(-180 440 330)" fill="white"/>
<rect x="440" y="770" width="110" height="110" transform="rotate(-180 440 770)" fill="white"/>
<rect x="440" y="220" width="110" height="110" transform="rotate(-180 440 220)" fill="white"/>
<rect x="440" y="660" width="110" height="110" transform="rotate(-180 440 660)" fill="white"/>
<rect x="440" y="440" width="110" height="110" transform="rotate(-180 440 440)" fill="white"/>
<rect x="440" y="880" width="110" height="110" transform="rotate(-180 440 880)" fill="white"/>
<rect x="330" y="880" width="110" height="110" transform="rotate(-180 330 880)" fill="white"/>
<rect x="880" y="550" width="110" height="110" transform="rotate(-180 880 550)" fill="white"/>
<rect x="880" y="330" width="110" height="110" transform="rotate(-180 880 330)" fill="white"/>
<rect x="880" y="660" width="110" height="110" transform="rotate(-180 880 660)" fill="white"/>
<rect x="880" y="440" width="110" height="110" transform="rotate(-180 880 440)" fill="white"/>
</svg>
