<svg width="43" height="42" viewBox="0 0 43 42" fill="none" xmlns="http://www.w3.org/2000/svg">
<rect x="10.9824" y="10.5" width="3.50595" height="3.49999" transform="rotate(-180 10.9824 10.5)" fill="#7B79F7"/>
<rect x="10.9824" y="24.5" width="3.50595" height="3.50001" transform="rotate(-180 10.9824 24.5)" fill="#7B79F7"/>
<rect x="7.47656" y="24.5" width="3.50595" height="3.50001" transform="rotate(-180 7.47656 24.5)" fill="#7B79F7"/>
<rect x="3.9707" y="24.5" width="3.50594" height="3.50001" transform="rotate(-180 3.9707 24.5)" fill="#7B79F7"/>
<rect x="10.9824" y="17.5" width="3.50595" height="3.49998" transform="rotate(-180 10.9824 17.5)" fill="#7B79F7"/>
<rect x="7.47656" y="17.5" width="3.50595" height="3.49998" transform="rotate(-180 7.47656 17.5)" fill="#7B79F7"/>
<rect x="3.9707" y="17.5" width="3.50594" height="3.49998" transform="rotate(-180 3.9707 17.5)" fill="#7B79F7"/>
<rect x="10.9824" y="31.5" width="3.50595" height="3.50001" transform="rotate(-180 10.9824 31.5)" fill="#7B79F7"/>
<rect x="7.47656" y="31.5" width="3.50595" height="3.50001" transform="rotate(-180 7.47656 31.5)" fill="#7B79F7"/>
<rect x="10.9824" y="14" width="3.50595" height="3.50001" transform="rotate(-180 10.9824 14)" fill="#7B79F7"/>
<rect x="7.47656" y="14" width="3.50595" height="3.50001" transform="rotate(-180 7.47656 14)" fill="#7B79F7"/>
<rect x="10.9824" y="28" width="3.50595" height="3.50001" transform="rotate(-180 10.9824 28)" fill="#7B79F7"/>
<rect x="7.47656" y="28" width="3.50595" height="3.50001" transform="rotate(-180 7.47656 28)" fill="#7B79F7"/>
<rect x="3.9707" y="28" width="3.50594" height="3.50001" transform="rotate(-180 3.9707 28)" fill="#7B79F7"/>
<rect x="10.9824" y="21" width="3.50595" height="3.50001" transform="rotate(-180 10.9824 21)" fill="#7B79F7"/>
<rect x="7.47656" y="21" width="3.50595" height="3.50001" transform="rotate(-180 7.47656 21)" fill="#7B79F7"/>
<rect x="3.9707" y="21" width="3.50594" height="3.50001" transform="rotate(-180 3.9707 21)" fill="#7B79F7"/>
<rect x="10.9824" y="35" width="3.50595" height="3.50001" transform="rotate(-180 10.9824 35)" fill="#7B79F7"/>
<rect x="25.0068" y="10.5" width="3.50595" height="3.49999" transform="rotate(-180 25.0068 10.5)" fill="#7B79F7"/>
<rect x="25.0068" y="7" width="3.50595" height="3.5" transform="rotate(-180 25.0068 7)" fill="#7B79F7"/>
<rect x="25.0068" y="3.5" width="3.50595" height="3.5" transform="rotate(-180 25.0068 3.5)" fill="#7B79F7"/>
<rect x="25.0068" y="24.5" width="3.50595" height="3.50001" transform="rotate(-180 25.0068 24.5)" fill="#7B79F7"/>
<rect x="25.0068" y="17.5" width="3.50595" height="3.49998" transform="rotate(-180 25.0068 17.5)" fill="#7B79F7"/>
<rect x="25.0068" y="31.5" width="3.50595" height="3.50001" transform="rotate(-180 25.0068 31.5)" fill="#7B79F7"/>
<rect x="25.0068" y="14" width="3.50595" height="3.50001" transform="rotate(-180 25.0068 14)" fill="#7B79F7"/>
<rect x="25.0068" y="28" width="3.50595" height="3.50001" transform="rotate(-180 25.0068 28)" fill="#7B79F7"/>
<rect x="25.0068" y="21" width="3.50595" height="3.50001" transform="rotate(-180 25.0068 21)" fill="#7B79F7"/>
<rect x="25.0068" y="35" width="3.50595" height="3.50001" transform="rotate(-180 25.0068 35)" fill="#7B79F7"/>
<rect x="25.0068" y="38.5" width="3.50595" height="3.50001" transform="rotate(-180 25.0068 38.5)" fill="#7B79F7"/>
<rect x="25.0068" y="42" width="3.50595" height="3.50001" transform="rotate(-180 25.0068 42)" fill="#7B79F7"/>
<rect x="17.9941" y="10.5" width="3.50595" height="3.49999" transform="rotate(-180 17.9941 10.5)" fill="#7B79F7"/>
<rect x="17.9941" y="7" width="3.50595" height="3.5" transform="rotate(-180 17.9941 7)" fill="#7B79F7"/>
<rect x="17.9941" y="3.5" width="3.50595" height="3.5" transform="rotate(-180 17.9941 3.5)" fill="#7B79F7"/>
<rect x="17.9941" y="24.5" width="3.50595" height="3.50001" transform="rotate(-180 17.9941 24.5)" fill="#7B79F7"/>
<rect x="17.9941" y="17.5" width="3.50595" height="3.49998" transform="rotate(-180 17.9941 17.5)" fill="#7B79F7"/>
<rect x="17.9941" y="31.5" width="3.50595" height="3.50001" transform="rotate(-180 17.9941 31.5)" fill="#7B79F7"/>
<rect x="17.9941" y="14" width="3.50595" height="3.50001" transform="rotate(-180 17.9941 14)" fill="#7B79F7"/>
<rect x="17.9941" y="28" width="3.50595" height="3.50001" transform="rotate(-180 17.9941 28)" fill="#7B79F7"/>
<rect x="17.9941" y="21" width="3.50595" height="3.50001" transform="rotate(-180 17.9941 21)" fill="#7B79F7"/>
<rect x="17.9941" y="35" width="3.50595" height="3.50001" transform="rotate(-180 17.9941 35)" fill="#7B79F7"/>
<rect x="17.9941" y="38.5" width="3.50595" height="3.50001" transform="rotate(-180 17.9941 38.5)" fill="#7B79F7"/>
<rect x="17.9941" y="42" width="3.50595" height="3.50001" transform="rotate(-180 17.9941 42)" fill="#7B79F7"/>
<rect x="32.0186" y="10.5" width="3.50595" height="3.49999" transform="rotate(-180 32.0186 10.5)" fill="#7B79F7"/>
<rect x="32.0186" y="7" width="3.50595" height="3.5" transform="rotate(-180 32.0186 7)" fill="#7B79F7"/>
<rect x="32.0186" y="24.5" width="3.50595" height="3.50001" transform="rotate(-180 32.0186 24.5)" fill="#7B79F7"/>
<rect x="32.0186" y="17.5" width="3.50595" height="3.49998" transform="rotate(-180 32.0186 17.5)" fill="#7B79F7"/>
<rect x="32.0186" y="31.5" width="3.50595" height="3.50001" transform="rotate(-180 32.0186 31.5)" fill="#7B79F7"/>
<rect x="32.0186" y="14" width="3.50595" height="3.50001" transform="rotate(-180 32.0186 14)" fill="#7B79F7"/>
<rect x="32.0186" y="28" width="3.50595" height="3.50001" transform="rotate(-180 32.0186 28)" fill="#7B79F7"/>
<rect x="32.0186" y="21" width="3.50595" height="3.50001" transform="rotate(-180 32.0186 21)" fill="#7B79F7"/>
<rect x="32.0186" y="35" width="3.50595" height="3.50001" transform="rotate(-180 32.0186 35)" fill="#7B79F7"/>
<rect x="32.0186" y="38.5" width="3.50595" height="3.50001" transform="rotate(-180 32.0186 38.5)" fill="#7B79F7"/>
<rect x="14.4883" y="10.5" width="3.50595" height="3.49999" transform="rotate(-180 14.4883 10.5)" fill="#7B79F7"/>
<rect x="14.4883" y="7" width="3.50595" height="3.5" transform="rotate(-180 14.4883 7)" fill="#7B79F7"/>
<rect x="14.4883" y="24.5" width="3.50595" height="3.50001" transform="rotate(-180 14.4883 24.5)" fill="#7B79F7"/>
<rect x="14.4883" y="17.5" width="3.50595" height="3.49998" transform="rotate(-180 14.4883 17.5)" fill="#7B79F7"/>
<rect x="14.4883" y="31.5" width="3.50595" height="3.50001" transform="rotate(-180 14.4883 31.5)" fill="#7B79F7"/>
<rect x="14.4883" y="14" width="3.50595" height="3.50001" transform="rotate(-180 14.4883 14)" fill="#7B79F7"/>
<rect x="14.4883" y="28" width="3.50595" height="3.50001" transform="rotate(-180 14.4883 28)" fill="#7B79F7"/>
<rect x="14.4883" y="21" width="3.50595" height="3.50001" transform="rotate(-180 14.4883 21)" fill="#7B79F7"/>
<rect x="14.4883" y="35" width="3.50595" height="3.50001" transform="rotate(-180 14.4883 35)" fill="#7B79F7"/>
<rect x="14.4883" y="38.5" width="3.50595" height="3.50001" transform="rotate(-180 14.4883 38.5)" fill="#7B79F7"/>
<rect x="28.5127" y="10.5" width="3.50595" height="3.49999" transform="rotate(-180 28.5127 10.5)" fill="#7B79F7"/>
<rect x="28.5127" y="7" width="3.50595" height="3.5" transform="rotate(-180 28.5127 7)" fill="#7B79F7"/>
<rect x="28.5127" y="3.5" width="3.50595" height="3.5" transform="rotate(-180 28.5127 3.5)" fill="#7B79F7"/>
<rect x="28.5127" y="24.5" width="3.50595" height="3.50001" transform="rotate(-180 28.5127 24.5)" fill="#7B79F7"/>
<rect x="28.5127" y="17.5" width="3.50595" height="3.49998" transform="rotate(-180 28.5127 17.5)" fill="#7B79F7"/>
<rect x="28.5127" y="31.5" width="3.50595" height="3.50001" transform="rotate(-180 28.5127 31.5)" fill="#7B79F7"/>
<rect x="28.5127" y="14" width="3.50595" height="3.50001" transform="rotate(-180 28.5127 14)" fill="#7B79F7"/>
<rect x="28.5127" y="28" width="3.50595" height="3.50001" transform="rotate(-180 28.5127 28)" fill="#7B79F7"/>
<rect x="28.5127" y="21" width="3.50595" height="3.50001" transform="rotate(-180 28.5127 21)" fill="#7B79F7"/>
<rect x="28.5127" y="35" width="3.50595" height="3.50001" transform="rotate(-180 28.5127 35)" fill="#7B79F7"/>
<rect x="28.5127" y="38.5" width="3.50595" height="3.50001" transform="rotate(-180 28.5127 38.5)" fill="#7B79F7"/>
<rect x="28.5127" y="42" width="3.50595" height="3.50001" transform="rotate(-180 28.5127 42)" fill="#7B79F7"/>
<rect x="21.501" y="10.5" width="3.50595" height="3.49999" transform="rotate(-180 21.501 10.5)" fill="#7B79F7"/>
<rect x="21.501" y="7" width="3.50595" height="3.5" transform="rotate(-180 21.501 7)" fill="#7B79F7"/>
<rect x="21.501" y="3.5" width="3.50595" height="3.5" transform="rotate(-180 21.501 3.5)" fill="#7B79F7"/>
<rect x="21.501" y="24.5" width="3.50595" height="3.50001" transform="rotate(-180 21.501 24.5)" fill="#7B79F7"/>
<rect x="21.501" y="17.5" width="3.50595" height="3.49998" transform="rotate(-180 21.501 17.5)" fill="#7B79F7"/>
<rect x="21.501" y="31.5" width="3.50595" height="3.50001" transform="rotate(-180 21.501 31.5)" fill="#7B79F7"/>
<rect x="21.501" y="14" width="3.50595" height="3.50001" transform="rotate(-180 21.501 14)" fill="#7B79F7"/>
<rect x="21.501" y="28" width="3.50595" height="3.50001" transform="rotate(-180 21.501 28)" fill="#7B79F7"/>
<rect x="21.501" y="21" width="3.50595" height="3.50001" transform="rotate(-180 21.501 21)" fill="#7B79F7"/>
<rect x="21.501" y="35" width="3.50595" height="3.50001" transform="rotate(-180 21.501 35)" fill="#7B79F7"/>
<rect x="21.501" y="38.5" width="3.50595" height="3.50001" transform="rotate(-180 21.501 38.5)" fill="#7B79F7"/>
<rect x="21.501" y="42" width="3.50595" height="3.50001" transform="rotate(-180 21.501 42)" fill="#7B79F7"/>
<rect x="35.5244" y="10.5" width="3.50595" height="3.49999" transform="rotate(-180 35.5244 10.5)" fill="#7B79F7"/>
<rect x="35.5244" y="24.5" width="3.50595" height="3.50001" transform="rotate(-180 35.5244 24.5)" fill="#7B79F7"/>
<rect x="39.0303" y="24.5" width="3.50595" height="3.50001" transform="rotate(-180 39.0303 24.5)" fill="#7B79F7"/>
<rect x="35.5244" y="17.5" width="3.50595" height="3.49998" transform="rotate(-180 35.5244 17.5)" fill="#7B79F7"/>
<rect x="39.0303" y="17.5" width="3.50595" height="3.49998" transform="rotate(-180 39.0303 17.5)" fill="#7B79F7"/>
<rect x="42.5361" y="17.5" width="3.50595" height="3.49998" transform="rotate(-180 42.5361 17.5)" fill="#7B79F7"/>
<rect x="35.5244" y="31.5" width="3.50595" height="3.50001" transform="rotate(-180 35.5244 31.5)" fill="#7B79F7"/>
<rect x="39.0303" y="31.5" width="3.50595" height="3.50001" transform="rotate(-180 39.0303 31.5)" fill="#7B79F7"/>
<rect x="35.5244" y="14" width="3.50595" height="3.50001" transform="rotate(-180 35.5244 14)" fill="#7B79F7"/>
<rect x="39.0303" y="14" width="3.50595" height="3.50001" transform="rotate(-180 39.0303 14)" fill="#7B79F7"/>
<rect x="35.5244" y="28" width="3.50595" height="3.50001" transform="rotate(-180 35.5244 28)" fill="#7B79F7"/>
<rect x="39.0303" y="28" width="3.50595" height="3.50001" transform="rotate(-180 39.0303 28)" fill="#7B79F7"/>
<rect x="42.5361" y="28" width="3.50595" height="3.50001" transform="rotate(-180 42.5361 28)" fill="#7B79F7"/>
<rect x="35.5244" y="21" width="3.50595" height="3.50001" transform="rotate(-180 35.5244 21)" fill="#7B79F7"/>
<rect x="39.0303" y="21" width="3.50595" height="3.50001" transform="rotate(-180 39.0303 21)" fill="#7B79F7"/>
<rect x="42.5361" y="21" width="3.50595" height="3.50001" transform="rotate(-180 42.5361 21)" fill="#7B79F7"/>
<rect x="42.5361" y="24.5" width="3.50595" height="3.50001" transform="rotate(-180 42.5361 24.5)" fill="#7B79F7"/>
<rect x="35.5244" y="35" width="3.50595" height="3.50001" transform="rotate(-180 35.5244 35)" fill="#7B79F7"/>
<rect x="30.2969" y="29.7501" width="3.50593" height="3.49999" transform="rotate(-180 30.2969 29.7501)" fill="white"/>
<rect x="30.2969" y="33.2183" width="3.50593" height="3.49999" transform="rotate(-180 30.2969 33.2183)" fill="white"/>
<rect x="33.8027" y="29.7501" width="3.50594" height="3.50001" transform="rotate(-180 33.8027 29.7501)" fill="white"/>
<rect width="3.50593" height="3.49998" transform="matrix(1 8.72748e-08 8.7571e-08 -1 23.2852 29.7501)" fill="white"/>
<rect x="30.2969" y="19.2501" width="3.5059" height="3.49997" transform="rotate(-180 30.2969 19.2501)" fill="white"/>
<rect x="30.2969" y="26.2501" width="3.50595" height="3.50001" transform="rotate(-180 30.2969 26.2501)" fill="white"/>
<rect x="37.3086" y="26.2501" width="3.50594" height="3.50001" transform="rotate(-180 37.3086 26.2501)" fill="white"/>
<rect width="3.50593" height="3.5" transform="matrix(1 8.72748e-08 8.7571e-08 -1 19.7793 26.25)" fill="white"/>
<rect x="30.2969" y="15.7501" width="3.50592" height="3.5" transform="rotate(-180 30.2969 15.7501)" fill="white"/>
<rect x="30.2969" y="22.7501" width="3.50596" height="3.5" transform="rotate(-180 30.2969 22.7501)" fill="white"/>
<rect x="30.2969" y="12.2501" width="3.50592" height="3.5" transform="rotate(-180 30.2969 12.2501)" fill="white"/>
<rect x="16.2412" y="29.7501" width="3.50593" height="3.49999" transform="rotate(-180 16.2412 29.7501)" fill="white"/>
<rect x="16.2412" y="33.2183" width="3.50593" height="3.49999" transform="rotate(-180 16.2412 33.2183)" fill="white"/>
<rect x="19.7471" y="29.7501" width="3.50594" height="3.50001" transform="rotate(-180 19.7471 29.7501)" fill="white"/>
<rect width="3.50593" height="3.49998" transform="matrix(1 8.72748e-08 8.7571e-08 -1 9.22949 29.7501)" fill="white"/>
<rect x="16.2412" y="19.2501" width="3.5059" height="3.49997" transform="rotate(-180 16.2412 19.2501)" fill="white"/>
<rect x="16.2412" y="26.2501" width="3.50595" height="3.50001" transform="rotate(-180 16.2412 26.2501)" fill="white"/>
<rect x="23.2529" y="26.2501" width="3.50594" height="3.50001" transform="rotate(-180 23.2529 26.2501)" fill="white"/>
<rect width="3.50593" height="3.5" transform="matrix(1 8.72748e-08 8.7571e-08 -1 5.72363 26.25)" fill="white"/>
<rect x="16.2412" y="15.7501" width="3.50592" height="3.5" transform="rotate(-180 16.2412 15.7501)" fill="white"/>
<rect x="16.2412" y="22.7501" width="3.50596" height="3.5" transform="rotate(-180 16.2412 22.7501)" fill="white"/>
<rect x="16.2412" y="12.2501" width="3.50592" height="3.5" transform="rotate(-180 16.2412 12.2501)" fill="white"/>
</svg>
