<svg width="880" height="880" viewBox="0 0 880 880" fill="none" xmlns="http://www.w3.org/2000/svg">
<rect y="110" width="110" height="110" fill="#7B79F7"/>
<rect x="110" y="110" width="110" height="110" fill="#9290FD"/>
<rect x="220" y="110" width="110" height="110" fill="#9290FD"/>
<rect x="330" y="110" width="110" height="110" fill="#9290FD"/>
<rect x="440" y="110" width="110" height="110" fill="#9290FD"/>
<rect x="550" y="110" width="110" height="110" fill="#9290FD"/>
<rect x="660" y="110" width="110" height="110" fill="#9290FD"/>
<rect x="110" width="110" height="110" fill="#7B79F7"/>
<rect x="110" y="770" width="110" height="110" fill="#7B79F7"/>
<rect x="880" y="220" width="110" height="110" transform="rotate(90 880 220)" fill="#7B79F7"/>
<rect x="110" y="220" width="110" height="110" transform="rotate(90 110 220)" fill="#7B79F7"/>
<rect x="220" y="220" width="110" height="110" transform="rotate(90 220 220)" fill="#9290FD"/>
<rect x="330" y="220" width="110" height="110" transform="rotate(90 330 220)" fill="#9290FD"/>
<rect x="440" y="220" width="110" height="110" transform="rotate(90 440 220)" fill="#9290FD"/>
<rect x="550" y="220" width="110" height="110" transform="rotate(90 550 220)" fill="#9290FD"/>
<rect x="660" y="220" width="110" height="110" transform="rotate(90 660 220)" fill="#9290FD"/>
<rect x="770" y="220" width="110" height="110" transform="rotate(90 770 220)" fill="#9290FD"/>
<rect x="330" width="110" height="110" fill="#7B79F7"/>
<rect x="330" y="770" width="110" height="110" fill="#7B79F7"/>
<rect x="880" y="440" width="110" height="110" transform="rotate(90 880 440)" fill="#7B79F7"/>
<rect x="110" y="440" width="110" height="110" transform="rotate(90 110 440)" fill="#7B79F7"/>
<rect x="220" y="440" width="110" height="110" transform="rotate(90 220 440)" fill="#9290FD"/>
<rect x="330" y="440" width="110" height="110" transform="rotate(90 330 440)" fill="#9290FD"/>
<rect x="440" y="440" width="110" height="110" transform="rotate(90 440 440)" fill="#9290FD"/>
<rect x="550" y="440" width="110" height="110" transform="rotate(90 550 440)" fill="#9290FD"/>
<rect x="660" y="440" width="110" height="110" transform="rotate(90 660 440)" fill="#9290FD"/>
<rect x="770" y="440" width="110" height="110" transform="rotate(90 770 440)" fill="#9290FD"/>
<rect x="550" width="110" height="110" fill="#7B79F7"/>
<rect x="550" y="770" width="110" height="110" fill="#7B79F7"/>
<rect x="880" y="660" width="110" height="110" transform="rotate(90 880 660)" fill="#7B79F7"/>
<rect x="110" y="660" width="110" height="110" transform="rotate(90 110 660)" fill="#7B79F7"/>
<rect x="220" y="660" width="110" height="110" transform="rotate(90 220 660)" fill="#9290FD"/>
<rect x="330" y="660" width="110" height="110" transform="rotate(90 330 660)" fill="#9290FD"/>
<rect x="440" y="660" width="110" height="110" transform="rotate(90 440 660)" fill="#9290FD"/>
<rect x="550" y="660" width="110" height="110" transform="rotate(90 550 660)" fill="#9290FD"/>
<rect x="660" y="660" width="110" height="110" transform="rotate(90 660 660)" fill="#9290FD"/>
<rect x="770" y="660" width="110" height="110" transform="rotate(90 770 660)" fill="#9290FD"/>
<rect x="220" width="110" height="110" fill="#7B79F7"/>
<rect x="220" y="770" width="110" height="110" fill="#7B79F7"/>
<rect x="880" y="330" width="110" height="110" transform="rotate(90 880 330)" fill="#7B79F7"/>
<rect x="110" y="330" width="110" height="110" transform="rotate(90 110 330)" fill="#7B79F7"/>
<rect x="220" y="330" width="110" height="110" transform="rotate(90 220 330)" fill="#9290FD"/>
<rect x="330" y="330" width="110" height="110" transform="rotate(90 330 330)" fill="#9290FD"/>
<rect x="440" y="330" width="110" height="110" transform="rotate(90 440 330)" fill="#9290FD"/>
<rect x="550" y="330" width="110" height="110" transform="rotate(90 550 330)" fill="#9290FD"/>
<rect x="660" y="330" width="110" height="110" transform="rotate(90 660 330)" fill="#9290FD"/>
<rect x="770" y="330" width="110" height="110" transform="rotate(90 770 330)" fill="#9290FD"/>
<rect x="440" width="110" height="110" fill="#7B79F7"/>
<rect x="440" y="770" width="110" height="110" fill="#7B79F7"/>
<rect x="880" y="550" width="110" height="110" transform="rotate(90 880 550)" fill="#7B79F7"/>
<rect x="110" y="550" width="110" height="110" transform="rotate(90 110 550)" fill="#7B79F7"/>
<rect x="220" y="550" width="110" height="110" transform="rotate(90 220 550)" fill="#9290FD"/>
<rect x="330" y="550" width="110" height="110" transform="rotate(90 330 550)" fill="#9290FD"/>
<rect x="440" y="550" width="110" height="110" transform="rotate(90 440 550)" fill="#9290FD"/>
<rect x="550" y="550" width="110" height="110" transform="rotate(90 550 550)" fill="#9290FD"/>
<rect x="660" y="550" width="110" height="110" transform="rotate(90 660 550)" fill="#9290FD"/>
<rect x="770" y="550" width="110" height="110" transform="rotate(90 770 550)" fill="#9290FD"/>
<rect x="660" width="110" height="110" fill="#7B79F7"/>
<rect x="770" y="770" width="110" height="110" transform="rotate(90 770 770)" fill="#7B79F7"/>
<rect x="770" y="110" width="110" height="110" fill="#7B79F7"/>
<rect x="440" y="330" width="110" height="110" transform="rotate(90 440 330)" fill="#7B79F7"/>
<rect x="440" y="550" width="110" height="110" transform="rotate(-180 440 550)" fill="#7B79F7"/>
<rect x="440" y="220" width="110" height="110" transform="rotate(90 440 220)" fill="#7B79F7"/>
<rect x="550" y="550" width="110" height="110" transform="rotate(-180 550 550)" fill="#7B79F7"/>
</svg>
