<svg width="32" height="32" viewBox="0 0 32 32" fill="none" xmlns="http://www.w3.org/2000/svg">
<rect x="4" y="20" width="3.99999" height="4.00001" transform="rotate(-180 4 20)" fill="white"/>
<rect x="4" y="12" width="3.99999" height="3.99999" transform="rotate(-180 4 12)" fill="white"/>
<rect x="4" y="24" width="3.99999" height="4.00001" transform="rotate(-180 4 24)" fill="white"/>
<rect x="4" y="16" width="3.99999" height="4.00001" transform="rotate(-180 4 16)" fill="white"/>
<rect x="20" y="4" width="4.00001" height="4" transform="rotate(-180 20 4)" fill="white"/>
<rect x="24" y="4" width="4.00001" height="4" transform="rotate(-180 24 4)" fill="white"/>
<rect x="20" y="20" width="4.00001" height="4.00001" transform="rotate(-180 20 20)" fill="white"/>
<rect x="20" y="12" width="4.00001" height="3.99999" transform="rotate(-180 20 12)" fill="white"/>
<rect x="20" y="28" width="4.00001" height="4.00001" transform="rotate(-180 20 28)" fill="white"/>
<rect x="20" y="8" width="4.00001" height="4" transform="rotate(-180 20 8)" fill="white"/>
<rect x="20" y="24" width="4.00001" height="4.00001" transform="rotate(-180 20 24)" fill="white"/>
<rect x="20" y="16" width="4.00001" height="4.00001" transform="rotate(-180 20 16)" fill="white"/>
<rect x="20" y="32" width="4.00001" height="4.00001" transform="rotate(-180 20 32)" fill="white"/>
<rect x="24" y="32" width="4.00001" height="4.00001" transform="rotate(-180 24 32)" fill="white"/>
<rect x="12" y="20" width="4.00001" height="4.00001" transform="rotate(-180 12 20)" fill="white"/>
<rect x="12" y="12" width="4.00001" height="3.99999" transform="rotate(-180 12 12)" fill="white"/>
<rect x="12" y="28" width="4.00001" height="4.00001" transform="rotate(-180 12 28)" fill="white"/>
<rect x="12" y="8" width="4.00001" height="4" transform="rotate(-180 12 8)" fill="white"/>
<rect x="12" y="24" width="4.00001" height="4.00001" transform="rotate(-180 12 24)" fill="white"/>
<rect x="12" y="16" width="4.00001" height="4.00001" transform="rotate(-180 12 16)" fill="white"/>
<rect x="28" y="20" width="4.00001" height="4.00001" transform="rotate(-180 28 20)" fill="white"/>
<rect x="28" y="12" width="4.00001" height="3.99999" transform="rotate(-180 28 12)" fill="white"/>
<rect x="28" y="28" width="4.00001" height="4.00001" transform="rotate(-180 28 28)" fill="white"/>
<rect x="28" y="8" width="4.00001" height="4" transform="rotate(-180 28 8)" fill="white"/>
<rect x="28" y="24" width="4.00001" height="4.00001" transform="rotate(-180 28 24)" fill="white"/>
<rect x="28" y="16" width="4.00001" height="4.00001" transform="rotate(-180 28 16)" fill="white"/>
<rect x="8" y="20" width="4.00001" height="4.00001" transform="rotate(-180 8 20)" fill="white"/>
<rect x="8" y="12" width="4.00001" height="3.99999" transform="rotate(-180 8 12)" fill="white"/>
<rect x="8" y="28" width="4.00001" height="4.00001" transform="rotate(-180 8 28)" fill="white"/>
<rect x="8" y="8" width="4.00001" height="4" transform="rotate(-180 8 8)" fill="white"/>
<rect x="8" y="24" width="4.00001" height="4.00001" transform="rotate(-180 8 24)" fill="white"/>
<rect x="8" y="16" width="4.00001" height="4.00001" transform="rotate(-180 8 16)" fill="white"/>
<rect x="24" y="20" width="4.00001" height="4.00001" transform="rotate(-180 24 20)" fill="white"/>
<rect x="24" y="12" width="4.00001" height="3.99999" transform="rotate(-180 24 12)" fill="white"/>
<rect x="24" y="28" width="4.00001" height="4.00001" transform="rotate(-180 24 28)" fill="white"/>
<rect x="24" y="8" width="4.00001" height="4" transform="rotate(-180 24 8)" fill="white"/>
<rect x="24" y="24" width="4.00001" height="4.00001" transform="rotate(-180 24 24)" fill="white"/>
<rect x="24" y="16" width="4.00001" height="4.00001" transform="rotate(-180 24 16)" fill="white"/>
<rect x="16" y="4" width="4.00001" height="4" transform="rotate(-180 16 4)" fill="white"/>
<rect x="12" y="4" width="4.00001" height="4" transform="rotate(-180 12 4)" fill="white"/>
<rect x="16" y="20" width="4.00001" height="4.00001" transform="rotate(-180 16 20)" fill="white"/>
<rect x="16" y="12" width="4.00001" height="3.99999" transform="rotate(-180 16 12)" fill="white"/>
<rect x="16" y="28" width="4.00001" height="4.00001" transform="rotate(-180 16 28)" fill="white"/>
<rect x="16" y="8" width="4.00001" height="4" transform="rotate(-180 16 8)" fill="white"/>
<rect x="16" y="24" width="4.00001" height="4.00001" transform="rotate(-180 16 24)" fill="white"/>
<rect x="16" y="16" width="4.00001" height="4.00001" transform="rotate(-180 16 16)" fill="white"/>
<rect x="16" y="32" width="4.00001" height="4.00001" transform="rotate(-180 16 32)" fill="white"/>
<rect x="12" y="32" width="4.00001" height="4.00001" transform="rotate(-180 12 32)" fill="white"/>
<rect x="32" y="20" width="4.00001" height="4.00001" transform="rotate(-180 32 20)" fill="white"/>
<rect x="32" y="12" width="4.00001" height="3.99999" transform="rotate(-180 32 12)" fill="white"/>
<rect x="32" y="24" width="4.00001" height="4.00001" transform="rotate(-180 32 24)" fill="white"/>
<rect x="32" y="16" width="4.00001" height="4.00001" transform="rotate(-180 32 16)" fill="white"/>
<g opacity="0.45">
<g opacity="0.45">
<path opacity="0.45" d="M11.1304 16.1555L16.256 19.1828V7.65216L11.1304 16.1555Z" fill="#010101"/>
</g>
</g>
<g opacity="0.8">
<g opacity="0.8">
<path opacity="0.8" d="M16.2561 7.65222V19.1844L21.3801 16.1572L16.2561 7.65222Z" fill="#010101"/>
</g>
</g>
<g opacity="0.45">
<g opacity="0.45">
<path opacity="0.45" d="M11.1304 17.1271L16.256 24.3479V20.1559L11.1304 17.1271Z" fill="#010101"/>
</g>
</g>
<g opacity="0.8">
<g opacity="0.8">
<path opacity="0.8" d="M16.2561 20.1559V24.3479L21.3833 17.1271L16.2561 20.1559Z" fill="#010101"/>
</g>
</g>
</svg>
