<svg width="68" height="14" viewBox="0 0 68 14" fill="none" xmlns="http://www.w3.org/2000/svg">
<path d="M9 13.5V6.75H11.25V13.5H9ZM9 4.5V2.25H11.25V4.5H9ZM0 13.5V0H9V2.25H2.25V4.5H9V6.75H2.25V13.5H0Z" fill="white"/>
<path d="M13.5 13.5V0H22.5V2.25H15.75V4.5H20.25V6.75H15.75V11.25H22.5V13.5H13.5Z" fill="white"/>
<path d="M33.75 11.25V2.25H36V11.25H33.75ZM24.75 13.5V0H33.75V2.25H27V11.25H33.75V13.5H24.75Z" fill="white"/>
<path d="M47.25 11.25V2.25H49.5V11.25H47.25ZM38.25 13.5V0H47.25V2.25H40.5V11.25H47.25V13.5H38.25Z" fill="white"/>
<path d="M51.75 13.5V0H54V13.5H51.75Z" fill="white"/>
<path d="M60.75 13.5V2.25H56.25V0H67.5V2.25H63V13.5H60.75Z" fill="white"/>
</svg>
