<svg width="880" height="660" viewBox="0 0 880 660" fill="none" xmlns="http://www.w3.org/2000/svg">
<rect x="550" y="110" width="110" height="110" fill="#7B79F7"/>
<rect x="660" y="110" width="110" height="110" fill="#7B79F7"/>
<rect x="550" width="110" height="110" fill="#7B79F7"/>
<rect x="330" y="110" width="110" height="110" fill="#7B79F7"/>
<rect x="330" width="110" height="110" fill="#7B79F7"/>
<rect x="440" y="110" width="110" height="110" fill="#7B79F7"/>
<rect x="440" y="220" width="110" height="110" fill="#7B79F7"/>
<rect x="440" width="110" height="110" fill="#7B79F7"/>
<rect x="220" y="110" width="110" height="110" fill="#7B79F7"/>
<rect x="110" y="110" width="110" height="110" fill="#7B79F7"/>
<rect x="110" width="110" height="110" fill="#7B79F7"/>
<rect y="110" width="110" height="110" fill="#7B79F7"/>
<rect x="220" width="110" height="110" fill="#7B79F7"/>
<rect x="110" y="220" width="110" height="110" fill="#7B79F7"/>
<rect y="220" width="110" height="110" fill="#7B79F7"/>
<rect x="110" y="330" width="110" height="110" fill="#7B79F7"/>
<rect y="330" width="110" height="110" fill="#7B79F7"/>
<rect y="440" width="110" height="110" fill="#221B47"/>
<rect x="110" y="440" width="110" height="110" fill="#221B47"/>
<rect x="110" y="550" width="110" height="110" fill="#221B47"/>
<rect x="220" y="220" width="110" height="110" fill="#221B47"/>
<rect x="330" y="220" width="110" height="110" fill="#221B47"/>
<rect x="330" y="110" width="110" height="110" fill="#221B47"/>
<rect x="550" y="220" width="110" height="110" fill="#221B47"/>
<rect x="220" y="330" width="110" height="110" fill="#7B79F7"/>
<rect x="330" y="330" width="110" height="110" fill="#7B79F7"/>
<rect x="330" y="440" width="110" height="110" fill="#7B79F7"/>
<rect x="440" y="330" width="110" height="110" fill="#7B79F7"/>
<rect x="550" y="330" width="110" height="110" fill="#7B79F7"/>
<rect x="550" y="440" width="110" height="110" fill="#7B79F7"/>
<rect x="660" y="330" width="110" height="110" fill="#7B79F7"/>
<rect x="770" y="330" width="110" height="110" fill="#7B79F7"/>
<rect x="770" y="440" width="110" height="110" fill="#221B47"/>
<rect x="220" y="440" width="110" height="110" fill="#7B79F7"/>
<rect x="220" y="550" width="110" height="110" fill="#7B79F7"/>
<rect x="440" y="440" width="110" height="110" fill="#7B79F7"/>
<rect x="440" y="550" width="110" height="110" fill="#7B79F7"/>
<rect x="660" y="550" width="110" height="110" fill="#7B79F7"/>
<rect x="660" y="440" width="110" height="110" fill="#7B79F7"/>
</svg>
