<svg width="146" height="32" viewBox="0 0 146 32" fill="none" xmlns="http://www.w3.org/2000/svg">
    <path fill-rule="evenodd" clip-rule="evenodd" d="M141.438 0.715406C139.936 0.218323 138.362 -0.0222161 136.782 0.00386822C135.034 0.00802927 133.536 0.270175 132.29 0.790305C131.043 1.31044 130.094 2.03654 129.443 2.96861C128.79 3.90973 128.449 5.03288 128.469 6.17885C128.469 7.31482 128.723 8.23233 129.236 8.93138C129.766 9.6447 130.473 10.2075 131.286 10.5646C132.182 10.9684 133.117 11.2773 134.077 11.4863L137.143 12.177C137.812 12.3268 138.268 12.4995 138.51 12.695C138.75 12.8788 138.887 13.1668 138.878 13.469C138.884 13.7114 138.805 13.9484 138.656 14.1389C138.459 14.3551 138.201 14.506 137.916 14.5717C137.484 14.6849 137.039 14.7367 136.592 14.7256C135.791 14.7199 134.994 14.6073 134.222 14.3907C133.42 14.1727 132.644 13.8686 131.908 13.4836C131.236 13.1394 130.616 12.7016 130.067 12.1832L127.609 15.9594C128.342 16.624 129.169 17.1752 130.065 17.5947C131.065 18.0663 132.118 18.4155 133.202 18.6349C134.363 18.8791 135.547 19.0011 136.734 18.999C138.132 19.0209 139.521 18.7839 140.833 18.3C141.966 17.8899 142.959 17.1628 143.692 16.2049C144.384 15.2756 144.73 14.1119 144.73 12.7138C144.729 11.2796 144.273 10.1485 143.363 9.32044C142.453 8.49239 141.068 7.86408 139.208 7.43549L136.418 6.79261C135.893 6.68631 135.384 6.51727 134.899 6.28912C134.536 6.10396 134.355 5.86053 134.355 5.56302C134.354 5.32345 134.438 5.09137 134.592 4.90766C134.797 4.68243 135.064 4.52195 135.358 4.44578C135.812 4.3213 136.282 4.2652 136.752 4.27934C137.821 4.26527 138.881 4.46914 139.869 4.87853C140.835 5.29712 141.732 5.85814 142.532 6.54295L145.007 2.87915C143.985 1.9115 142.768 1.17378 141.438 0.715406ZM49.3245 0.286819V18.7286H43.0771L38.0576 9.58675L36.8858 7.09012H36.8297L36.9419 10.7206V18.7286H31.9785V0.286819H38.1968L43.2225 9.41823L44.4213 11.9149H44.4504L44.3382 8.28434V0.286819H49.3245ZM105.177 29.8136C105.062 30.2789 104.833 30.7081 104.51 31.0619C104.208 31.3842 103.832 31.6283 103.415 31.7734C102.965 31.9279 102.491 32.0039 102.015 31.9981C101.356 32.0151 100.705 31.8625 100.122 31.555C99.5933 31.2639 99.1657 30.8183 98.8963 30.2775C98.3258 29.0015 98.3258 27.5423 98.8963 26.2663C99.1663 25.726 99.5938 25.2805 100.122 24.9888C100.701 24.6819 101.349 24.5293 102.004 24.5457C102.476 24.5385 102.946 24.6088 103.394 24.7537C103.798 24.884 104.165 25.107 104.466 25.4049C104.77 25.7197 104.985 26.1095 105.09 26.5347L103.438 27.2025C103.336 26.751 103.17 26.439 102.939 26.2704C102.683 26.0958 102.378 26.0076 102.069 26.0187C101.411 25.9921 100.814 26.3994 100.598 27.0215C100.45 27.4205 100.379 27.8442 100.39 28.2698C100.378 28.6938 100.441 29.1165 100.577 29.5181C100.679 29.8246 100.876 30.0902 101.14 30.2754C101.42 30.4515 101.747 30.5392 102.077 30.5272C102.399 30.5369 102.714 30.4339 102.968 30.2359C103.238 30.0065 103.417 29.6886 103.473 29.3392L105.177 29.8136ZM70.0341 26.1082H66.2944V27.6436H69.2716V29.1H66.3027V31.8837H64.4141V24.6518H70.0237L70.0341 26.1082ZM73.111 24.6518V31.8858H71.2287V24.6518H73.111ZM81.3301 31.8858V24.6518H79.6659V28.301L79.7096 29.6388H79.6992L79.1528 28.5632L76.909 24.6518H74.8189V31.8858H76.481V28.2345L76.4373 26.8988H76.4477L76.9962 27.9723L79.24 31.8858H81.3301ZM89.6031 31.8858H87.6668L87.164 30.2526H84.6896L84.1764 31.8858H82.2816L84.8205 24.6518H87.0768L89.6031 31.8858ZM85.0324 28.973H86.8046L85.9175 26.0478L85.0324 28.973ZM97.068 31.8858V24.6518H95.4039V28.301L95.4475 29.6388H95.4371L94.8907 28.5632L92.6469 24.6518H90.5568V31.8858H92.2189V28.2345L92.1752 26.8988H92.1877L92.7341 27.9723L94.9779 31.8858H97.068ZM106.338 24.6518V31.8858L112.106 31.8837V30.4273H108.221V28.9481H111.202V27.577H108.225V26.1082H111.964V24.6518H106.338ZM53.1452 0.286819V18.7286H68.3429V14.4468H58.8337V11.5133H66.1469V7.54784H58.8399V4.56021H67.9814V0.286819H53.1452ZM80.5032 0.286819C82.7886 0.286819 84.5594 0.812498 85.8156 1.86385C87.0719 2.91521 87.6993 4.31679 87.698 6.06859C87.698 8.02289 87.0844 9.50283 85.8572 10.5084C85.3659 10.911 84.7884 11.2329 84.1244 11.4743L88.7575 18.7286H82.5392L78.9784 12.3226H76.6534V18.7286H71.077V0.286819H80.5032ZM79.5807 8.44246C80.3785 8.44246 80.9783 8.2885 81.3799 7.98059C81.7788 7.67267 81.9783 7.1671 81.9783 6.45973C81.9783 5.75235 81.7705 5.24054 81.3799 4.92222C80.9893 4.6039 80.3785 4.44786 79.5807 4.44786H76.6513V8.44246H79.5807ZM90.9598 0.286819V18.7286H106.16V14.4468H96.6504V11.5133H103.964V7.54784H96.6566V4.56021H105.798V0.286819H90.9598ZM125.681 0.286819V10.9828C125.681 13.6639 124.965 15.6702 123.535 17.0017C122.104 18.3333 119.965 18.999 117.119 18.999C114.256 18.999 112.109 18.3333 110.678 17.0017C109.248 15.6702 108.532 13.6639 108.53 10.9828V0.286819H114.248V11.2907C114.248 12.4072 114.489 13.245 114.973 13.804C115.456 14.3629 116.172 14.6403 117.119 14.6362C118.069 14.6362 118.785 14.3588 119.267 13.804C119.749 13.2492 119.991 12.4114 119.992 11.2907V0.286819H125.681ZM9.31318 3.16679L6.15499 0.00418091L0.00683594 6.16095L3.59142 9.75055L6.74836 6.5892L9.90655 9.75181L13.0656 6.58837L16.2223 9.74952L22.3704 3.59275L18.7859 0.00314331L15.6268 3.16658L12.4701 0.00543976L9.31318 3.16679ZM6.1556 9.48865L9.3138 12.6513L12.4707 9.48991L15.6275 12.6511L18.7844 9.4897L22.369 13.0793L16.2208 19.2361L13.0641 16.0749L9.90716 19.2363L6.74897 16.0737L3.59203 19.235L0.00744626 15.6454L6.1556 9.48865Z" fill="white"/>
</svg>
