<svg width="146" height="32" viewBox="0 0 146 32" fill="none" xmlns="http://www.w3.org/2000/svg">
    <path fill-rule="evenodd" clip-rule="evenodd" d="M141.437 0.716017C139.936 0.218933 138.362 -0.0216058 136.782 0.00447858C135.034 0.00863962 133.536 0.270785 132.29 0.790915C131.043 1.31105 130.094 2.03715 129.443 2.96922C128.79 3.91034 128.449 5.03349 128.469 6.17946C128.469 7.31543 128.722 8.23294 129.236 8.93199C129.766 9.64531 130.473 10.2081 131.286 10.5652C132.182 10.969 133.117 11.2779 134.076 11.4869L137.143 12.1776C137.812 12.3274 138.268 12.5001 138.51 12.6957C138.75 12.8795 138.887 13.1674 138.878 13.4696C138.884 13.712 138.805 13.949 138.656 14.1395C138.459 14.3557 138.201 14.5066 137.916 14.5723C137.484 14.6855 137.039 14.7373 136.592 14.7262C135.791 14.7206 134.994 14.6079 134.222 14.3913C133.42 14.1733 132.644 13.8692 131.907 13.4842C131.236 13.14 130.616 12.7022 130.067 12.1838L127.609 15.96C128.341 16.6246 129.169 17.1758 130.065 17.5953C131.065 18.0669 132.118 18.4161 133.202 18.6355C134.363 18.8797 135.547 19.0017 136.734 18.9996C138.131 19.0215 139.521 18.7845 140.833 18.3006C141.966 17.8906 142.959 17.1634 143.692 16.2055C144.384 15.2762 144.73 14.1125 144.73 12.7144C144.729 11.2802 144.273 10.1491 143.363 9.32105C142.453 8.493 141.068 7.86469 139.208 7.4361L136.418 6.79322C135.893 6.68692 135.383 6.51788 134.899 6.28973C134.536 6.10457 134.355 5.86115 134.355 5.56363C134.354 5.32406 134.438 5.09198 134.592 4.90827C134.797 4.68304 135.063 4.52256 135.358 4.44639C135.812 4.32191 136.282 4.26581 136.752 4.27995C137.821 4.26588 138.881 4.46975 139.869 4.87914C140.835 5.29773 141.732 5.85875 142.532 6.54356L145.007 2.87976C143.985 1.91211 142.768 1.17439 141.437 0.716017ZM49.3244 0.28743V18.7292H43.0771L38.0575 9.58736L36.8858 7.09073H36.8297L36.9419 10.7212V18.7292H31.9785V0.28743H38.1967L43.2225 9.41884L44.4213 11.9155H44.4504L44.3382 8.28495V0.28743H49.3244ZM105.177 29.8142C105.062 30.2795 104.833 30.7087 104.51 31.0625C104.208 31.3848 103.832 31.6289 103.415 31.774C102.965 31.9285 102.491 32.0045 102.015 31.9987C101.356 32.0157 100.705 31.8632 100.122 31.5556C99.5933 31.2645 99.1656 30.8189 98.8963 30.2781C98.3257 29.0021 98.3257 27.5429 98.8963 26.2669C99.1663 25.7266 99.5937 25.2812 100.122 24.9895C100.701 24.6826 101.349 24.53 102.004 24.5463C102.476 24.5391 102.945 24.6094 103.394 24.7544C103.798 24.8846 104.165 25.1076 104.466 25.4056C104.77 25.7203 104.985 26.1101 105.09 26.5353L103.438 27.2031C103.336 26.7517 103.17 26.4396 102.939 26.2711C102.683 26.0965 102.378 26.0083 102.069 26.0193C101.411 25.9928 100.814 26.4 100.598 27.0221C100.45 27.4211 100.379 27.8449 100.39 28.2704C100.378 28.6944 100.441 29.1171 100.577 29.5187C100.679 29.8252 100.876 30.0908 101.14 30.2761C101.42 30.4521 101.747 30.5398 102.077 30.5278C102.399 30.5375 102.714 30.4345 102.968 30.2365C103.238 30.0071 103.417 29.6892 103.473 29.3398L105.177 29.8142ZM70.0341 26.1088H66.2944V27.6442H69.2716V29.1006H66.3027V31.8843H64.4141V24.6524H70.0237L70.0341 26.1088ZM73.111 24.6524V31.8864H71.2287V24.6524H73.111ZM81.3301 31.8864V24.6524H79.6659V28.3016L79.7095 29.6394H79.6992L79.1527 28.5638L76.9089 24.6524H74.8188V31.8864H76.4809V28.2351L76.4373 26.8994H76.4477L76.9962 27.9729L79.24 31.8864H81.3301ZM89.6031 31.8864H87.6668L87.164 30.2532H84.6896L84.1764 31.8864H82.2816L84.8204 24.6524H87.0767L89.6031 31.8864ZM85.0324 28.9737H86.8046L85.9174 26.0484L85.0324 28.9737ZM97.068 31.8864V24.6524H95.4038V28.3016L95.4475 29.6394H95.4371L94.8907 28.5638L92.6468 24.6524H90.5568V31.8864H92.2188V28.2351L92.1752 26.8994H92.1877L92.7341 27.9729L94.9779 31.8864H97.068ZM106.338 24.6524V31.8864L112.106 31.8843V30.4279H108.221V28.9487H111.202V27.5776H108.225V26.1088H111.964V24.6524H106.338ZM53.1451 0.28743V18.7292H68.3429V14.4475H58.8336V11.5139H66.1468V7.54845H58.8399V4.56082H67.9814V0.28743H53.1451ZM80.5031 0.28743C82.7885 0.28743 84.5593 0.813108 85.8156 1.86446C87.0719 2.91582 87.6993 4.3174 87.6979 6.0692C87.6979 8.0235 87.0843 9.50344 85.8572 10.509C85.3659 10.9116 84.7883 11.2335 84.1244 11.4749L88.7575 18.7292H82.5392L78.9784 12.3232H76.6533V18.7292H71.077V0.28743H80.5031ZM79.5807 8.44307C80.3785 8.44307 80.9782 8.28911 81.3799 7.9812C81.7788 7.67328 81.9782 7.16771 81.9782 6.46034C81.9782 5.75296 81.7705 5.24115 81.3799 4.92283C80.9893 4.60451 80.3785 4.44847 79.5807 4.44847H76.6513V8.44307H79.5807ZM90.9598 0.28743V18.7292H106.16V14.4475H96.6503V11.5139H103.964V7.54845H96.6566V4.56082H105.798V0.28743H90.9598ZM125.681 0.28743V10.9834C125.681 13.6645 124.965 15.6708 123.535 17.0023C122.104 18.3339 119.965 18.9996 117.119 18.9996C114.256 18.9996 112.109 18.3339 110.678 17.0023C109.248 15.6708 108.532 13.6645 108.53 10.9834V0.28743H114.248V11.2913C114.248 12.4079 114.489 13.2456 114.973 13.8046C115.456 14.3635 116.172 14.6409 117.119 14.6368C118.069 14.6368 118.785 14.3594 119.267 13.8046C119.749 13.2498 119.991 12.412 119.992 11.2913V0.28743H125.681ZM9.31315 3.1674L6.15496 0.00479126L0.00680542 6.16156L3.59139 9.75116L6.74833 6.58981L9.90652 9.75242L13.0655 6.58898L16.2223 9.75013L22.3704 3.59336L18.7858 0.00375366L15.6268 3.16719L12.4701 0.00605011L9.31315 3.1674ZM6.15557 9.48926L9.31376 12.6519L12.4707 9.49052L15.6274 12.6517L18.7844 9.49031L22.3689 13.0799L16.2208 19.2367L13.0641 16.0755L9.90713 19.2369L6.74894 16.0743L3.592 19.2356L0.00741574 15.646L6.15557 9.48926Z" fill="white"/>
</svg>
