<svg width="221" height="46" viewBox="0 0 221 46" fill="none" xmlns="http://www.w3.org/2000/svg">
<path d="M0 20V3.75H3.25V7H13V3.75H16.25V20H13V10.25H3.25V20H0ZM3.25 3.75V0.5H13V3.75H3.25Z" fill="white"/>
<path d="M32.5 16.75V10.25H35.75V16.75H32.5ZM32.5 7V3.75H35.75V7H32.5ZM19.5 20V0.5H32.5V3.75H22.75V7H32.5V10.25H22.75V16.75H32.5V20H19.5Z" fill="white"/>
<path d="M52 20V10.25H55.25V20H52ZM52 7V3.75H55.25V7H52ZM39 20V0.5H52V3.75H42.25V7H52V10.25H42.25V20H39Z" fill="white"/>
<path d="M58.5 20V3.75H61.75V7H71.5V3.75H74.75V20H71.5V10.25H61.75V20H58.5ZM61.75 3.75V0.5H71.5V3.75H61.75Z" fill="white"/>
<path d="M81.25 20V16.75H91V20H81.25ZM91 16.75V13.5H94.25V16.75H91ZM78 16.75V3.75H81.25V16.75H78ZM91 7V3.75H94.25V7H91ZM81.25 3.75V0.5H91V3.75H81.25Z" fill="white"/>
<path d="M97.5 20V3.75H100.75V7H110.5V3.75H113.75V20H110.5V10.25H100.75V20H97.5ZM100.75 3.75V0.5H110.5V3.75H100.75Z" fill="white"/>
<path d="M130 16.75V3.75H133.25V16.75H130ZM117 20V0.5H130V3.75H120.25V16.75H130V20H117Z" fill="white"/>
<path d="M136.5 20V3.75H139.75V7H149.5V3.75H152.75V20H149.5V10.25H139.75V20H136.5ZM139.75 3.75V0.5H149.5V3.75H139.75Z" fill="white"/>
<path d="M169 16.75V10.25H172.25V16.75H169ZM169 7V3.75H172.25V7H169ZM156 20V0.5H169V3.75H159.25V7H169V10.25H159.25V16.75H169V20H156Z" fill="white"/>
<path d="M188.5 20V10.25H191.75V20H188.5ZM188.5 7V3.75H191.75V7H188.5ZM175.5 20V0.5H188.5V3.75H178.75V7H188.5V10.25H178.75V20H175.5Z" fill="white"/>
<path d="M195 20V3.75H198.25V7H208V3.75H211.25V20H208V10.25H198.25V20H195ZM198.25 3.75V0.5H208V3.75H198.25Z" fill="white"/>
<path d="M214.5 20V13.5H221V20H214.5Z" fill="white"/>
<path d="M6.5 36.25V33H9.75V36.25H6.5ZM0 46V26.5H3.25V29.75H6.5V33H3.25V46H0ZM13 46V33H9.75V29.75H13V26.5H16.25V46H13Z" fill="white"/>
<path d="M22.75 46V42.75H32.5V46H22.75ZM19.5 42.75V29.75H22.75V42.75H19.5ZM32.5 42.75V29.75H35.75V42.75H32.5ZM22.75 29.75V26.5H32.5V29.75H22.75Z" fill="white"/>
<path d="M45.5 36.25V33H48.75V36.25H45.5ZM39 46V26.5H42.25V29.75H45.5V33H42.25V46H39ZM52 46V42.75H48.75V36.25H52V26.5H55.25V46H52Z" fill="white"/>
<path d="M58.5 46V26.5H71.5V29.75H61.75V33H68.25V36.25H61.75V42.75H71.5V46H58.5Z" fill="white"/>
<path d="M81.25 46V36.25H84.5V46H81.25ZM78 36.25V33H81.25V36.25H78ZM84.5 36.25V33H87.75V36.25H84.5ZM74.75 33V26.5H78V33H74.75ZM87.75 33V26.5H91V33H87.75Z" fill="white"/>
</svg>
