<svg width="82" height="14" viewBox="0 0 82 14" fill="none" xmlns="http://www.w3.org/2000/svg">
<path d="M4.875 13.5V2.25H0.375V0H11.625V2.25H7.125V13.5H4.875Z" fill="white"/>
<path d="M16.125 13.5V11.25H18.375V13.5H16.125ZM20.625 13.5V11.25H22.875V13.5H20.625ZM18.375 11.25V4.5H20.625V11.25H18.375ZM13.875 11.25V0H16.125V11.25H13.875ZM22.875 11.25V0H25.125V11.25H22.875Z" fill="white"/>
<path d="M27.375 13.5V0H29.625V13.5H27.375Z" fill="white"/>
<path d="M36.375 13.5V2.25H31.875V0H43.125V2.25H38.625V13.5H36.375Z" fill="white"/>
<path d="M49.875 13.5V2.25H45.375V0H56.625V2.25H52.125V13.5H49.875Z" fill="white"/>
<path d="M58.875 13.5V0H67.875V2.25H61.125V4.5H65.625V6.75H61.125V11.25H67.875V13.5H58.875Z" fill="white"/>
<path d="M79.125 13.5V6.75H81.375V13.5H79.125ZM79.125 4.5V2.25H81.375V4.5H79.125ZM70.125 13.5V0H79.125V2.25H72.375V4.5H79.125V6.75H72.375V13.5H70.125Z" fill="white"/>
</svg>
