<svg width="40" height="40" viewBox="0 0 40 40" fill="none" xmlns="http://www.w3.org/2000/svg">
<path d="M40 20C40 8.9543 31.0457 0 20 0C8.9543 0 0 8.9543 0 20C0 31.0457 8.9543 40 20 40C31.0457 40 40 31.0457 40 20Z" fill="url(#paint0_radial_1729_15344)"/>
<path d="M13.2195 14.4158C16.9643 10.7494 23.0358 10.7494 26.7805 14.4158L27.2312 14.8571C27.4185 15.0404 27.4185 15.3376 27.2312 15.521L25.6895 17.0304C25.5959 17.1221 25.4441 17.1221 25.3505 17.0304L24.7303 16.4232C22.1178 13.8654 17.8822 13.8654 15.2698 16.4232L14.6056 17.0735C14.512 17.1652 14.3602 17.1652 14.2666 17.0735L12.7249 15.564C12.5376 15.3807 12.5376 15.0835 12.7249 14.9002L13.2195 14.4158ZM29.969 17.5376L31.3411 18.881C31.5283 19.0643 31.5283 19.3616 31.3411 19.5449L25.1541 25.6026C24.9668 25.7859 24.6632 25.7859 24.476 25.6026C24.476 25.6026 24.476 25.6026 24.476 25.6026L20.0848 21.3033C20.038 21.2574 19.9621 21.2574 19.9153 21.3033C19.9153 21.3033 19.9153 21.3033 19.9153 21.3033L15.5242 25.6026C15.337 25.7859 15.0334 25.7859 14.8462 25.6026C14.8462 25.6026 14.8462 25.6026 14.8462 25.6026L8.65898 19.5448C8.47175 19.3615 8.47175 19.0643 8.65898 18.8809L10.0311 17.5375C10.2184 17.3542 10.5219 17.3542 10.7092 17.5375L15.1004 21.8369C15.1472 21.8827 15.2231 21.8827 15.2699 21.8369C15.2699 21.8369 15.2699 21.8369 15.2699 21.8369L19.6609 17.5375C19.8482 17.3542 20.1517 17.3542 20.339 17.5375C20.339 17.5375 20.339 17.5375 20.339 17.5375L24.7302 21.8369C24.777 21.8827 24.8529 21.8827 24.8997 21.8369L29.2909 17.5376C29.4781 17.3543 29.7817 17.3543 29.969 17.5376Z" fill="white"/>
<defs>
<radialGradient id="paint0_radial_1729_15344" cx="0" cy="0" r="1" gradientUnits="userSpaceOnUse" gradientTransform="translate(0 20) scale(40)">
<stop stop-color="#5D9DF6"/>
<stop offset="1" stop-color="#006FFF"/>
</radialGradient>
</defs>
</svg>
