<svg width="150" height="150" viewBox="0 0 150 150" fill="none" xmlns="http://www.w3.org/2000/svg">
<rect width="5" height="5" transform="matrix(-1 0 0 1 110 0)" fill="#59C6E1"/>
<rect width="5" height="5" transform="matrix(-1 0 0 1 125 15)" fill="#59C6E1"/>
<rect width="5" height="5" transform="matrix(-1 0 0 1 125 10)" fill="#59C6E1"/>
<rect width="5" height="5" transform="matrix(-1 0 0 1 110 15)" fill="#59C6E1"/>
<rect width="5" height="5" transform="matrix(-1 0 0 1 125 30)" fill="#59C6E1"/>
<rect width="5" height="5" transform="matrix(-1 0 0 1 110 5)" fill="#59C6E1"/>
<rect width="5" height="5" transform="matrix(-1 0 0 1 125 20)" fill="#59C6E1"/>
<rect width="5" height="5" transform="matrix(-1 0 0 1 110 20)" fill="#59C6E1"/>
<rect width="5" height="5" transform="matrix(-1 0 0 1 110 30)" fill="#64DDFB"/>
<rect width="5" height="5" transform="matrix(-1 0 0 1 125 35)" fill="#59C6E1"/>
<rect width="5" height="5" transform="matrix(-1 0 0 1 110 10)" fill="#59C6E1"/>
<rect width="5" height="5" transform="matrix(-1 0 0 1 125 25)" fill="#59C6E1"/>
<rect width="5" height="5" transform="matrix(-1 0 0 1 110 25)" fill="#64DDFB"/>
<rect width="5" height="5" transform="matrix(-1 0 0 1 110 35)" fill="#59C6E1"/>
<rect width="5" height="5" transform="matrix(-1 0 0 1 110 40)" fill="#59C6E1"/>
<rect width="5" height="5" transform="matrix(-1 0 0 1 90 0)" fill="#64DDFB"/>
<rect width="5" height="5" transform="matrix(-1 0 0 1 90 15)" fill="#64DDFB"/>
<rect width="5" height="5" transform="matrix(-1 0 0 1 90 5)" fill="#64DDFB"/>
<rect width="5" height="5" transform="matrix(-1 0 0 1 90 20)" fill="#64DDFB"/>
<rect width="5" height="5" transform="matrix(-1 0 0 1 90 10)" fill="#64DDFB"/>
<rect width="5" height="5" transform="matrix(-1 0 0 1 90 25)" fill="#59C6E1"/>
<rect width="5" height="5" transform="matrix(-1 0 0 1 70 15)" fill="#64DDFB"/>
<rect width="5" height="5" transform="matrix(-1 0 0 1 70 5)" fill="#64DDFB"/>
<rect width="5" height="5" transform="matrix(-1 0 0 1 70 20)" fill="#64DDFB"/>
<rect width="5" height="5" transform="matrix(-1 0 0 1 70 10)" fill="#64DDFB"/>
<rect width="5" height="5" transform="matrix(-1 0 0 1 70 25)" fill="#64DDFB"/>
<rect width="5" height="5" transform="matrix(-1 0 0 1 100 30)" fill="#AB9879"/>
<rect width="5" height="5" transform="matrix(-1 0 0 1 100 50)" fill="#AB9879"/>
<rect width="5" height="5" transform="matrix(-1 0 0 1 110 50)" fill="#AB9879"/>
<rect width="5" height="5" transform="matrix(-1 0 0 1 100 70)" fill="#AB9879"/>
<rect width="5" height="5" transform="matrix(-1 0 0 1 110 70)" fill="#AB9879"/>
<rect width="5" height="5" transform="matrix(-1 0 0 1 100 35)" fill="#AB9879"/>
<rect width="5" height="5" transform="matrix(-1 0 0 1 100 55)" fill="#AB9879"/>
<rect width="5" height="5" transform="matrix(-1 0 0 1 110 55)" fill="#AB9879"/>
<rect width="5" height="5" transform="matrix(-1 0 0 1 100 75)" fill="#AB9879"/>
<rect width="5" height="5" transform="matrix(-1 0 0 1 100 40)" fill="#AB9879"/>
<rect width="5" height="5" transform="matrix(-1 0 0 1 100 60)" fill="#AB9879"/>
<rect width="5" height="5" transform="matrix(-1 0 0 1 110 60)" fill="#AB9879"/>
<rect width="5" height="5" transform="matrix(-1 0 0 1 100 80)" fill="#AB9879"/>
<rect width="5" height="5" transform="matrix(-1 0 0 1 100 85)" fill="#BB52DE"/>
<rect width="5" height="5" transform="matrix(-1 0 0 1 100 45)" fill="#AB9879"/>
<rect width="5" height="5" transform="matrix(-1 0 0 1 110 45)" fill="#AB9879"/>
<rect width="5" height="5" transform="matrix(-1 0 0 1 100 65)" fill="#AB9879"/>
<rect width="5" height="5" transform="matrix(-1 0 0 1 110 65)" fill="#AB9879"/>
<rect width="5" height="5" transform="matrix(-1 0 0 1 85 30)" fill="#AB9879"/>
<rect width="5" height="5" transform="matrix(-1 0 0 1 85 50)" fill="#AB9879"/>
<rect width="5" height="5" transform="matrix(-1 0 0 1 85 70)" fill="#AB9879"/>
<rect width="5" height="5" transform="matrix(-1 0 0 1 85 35)" fill="#AB9879"/>
<rect width="5" height="5" transform="matrix(-1 0 0 1 85 55)" fill="#AB9879"/>
<rect width="5" height="5" transform="matrix(-1 0 0 1 85 75)" fill="#AB9879"/>
<rect width="5" height="5" transform="matrix(-1 0 0 1 85 40)" fill="#AB9879"/>
<rect width="5" height="5" transform="matrix(-1 0 0 1 85 60)" fill="#AB9879"/>
<rect width="5" height="5" transform="matrix(-1 0 0 1 85 80)" fill="#AB9879"/>
<rect width="5" height="5" transform="matrix(-1 0 0 1 85 85)" fill="#AB9879"/>
<rect width="5" height="5" transform="matrix(-1 0 0 1 85 45)" fill="#AB9879"/>
<rect width="5" height="5" transform="matrix(-1 0 0 1 85 65)" fill="#AB9879"/>
<rect width="5" height="5" transform="matrix(-1 0 0 1 120 15)" fill="#59C6E1"/>
<rect width="5" height="5" transform="matrix(-1 0 0 1 135 30)" fill="#59C6E1"/>
<rect width="5" height="5" transform="matrix(-1 0 0 1 140 30)" fill="#59C6E1"/>
<rect width="5" height="5" transform="matrix(-1 0 0 1 120 5)" fill="#59C6E1"/>
<rect width="5" height="5" transform="matrix(-1 0 0 1 135 20)" fill="#59C6E1"/>
<rect width="5" height="5" transform="matrix(-1 0 0 1 120 20)" fill="#59C6E1"/>
<rect width="5" height="5" transform="matrix(-1 0 0 1 120 30)" fill="#59C6E1"/>
<rect width="5" height="5" transform="matrix(-1 0 0 1 135 35)" fill="#59C6E1"/>
<rect width="5" height="5" transform="matrix(-1 0 0 1 120 10)" fill="#59C6E1"/>
<rect width="5" height="5" transform="matrix(-1 0 0 1 135 25)" fill="#59C6E1"/>
<rect width="5" height="5" transform="matrix(-1 0 0 1 120 25)" fill="#59C6E1"/>
<rect width="5" height="5" transform="matrix(-1 0 0 1 120 35)" fill="#59C6E1"/>
<rect width="5" height="5" transform="matrix(-1 0 0 1 120 40)" fill="#59C6E1"/>
<rect width="5" height="5" transform="matrix(-1 0 0 1 100 0)" fill="#59C6E1"/>
<rect width="5" height="5" transform="matrix(-1 0 0 1 100 15)" fill="#64DDFB"/>
<rect width="5" height="5" transform="matrix(-1 0 0 1 100 5)" fill="#64DDFB"/>
<rect width="5" height="5" transform="matrix(-1 0 0 1 100 20)" fill="#64DDFB"/>
<rect width="5" height="5" transform="matrix(-1 0 0 1 100 10)" fill="#64DDFB"/>
<rect width="5" height="5" transform="matrix(-1 0 0 1 100 25)" fill="#64DDFB"/>
<rect width="5" height="5" transform="matrix(-1 0 0 1 80 0)" fill="#64DDFB"/>
<rect width="5" height="5" transform="matrix(-1 0 0 1 80 15)" fill="#64DDFB"/>
<rect width="5" height="5" transform="matrix(-1 0 0 1 80 5)" fill="#64DDFB"/>
<rect width="5" height="5" transform="matrix(-1 0 0 1 80 20)" fill="#64DDFB"/>
<rect width="5" height="5" transform="matrix(-1 0 0 1 80 10)" fill="#64DDFB"/>
<rect width="5" height="5" transform="matrix(-1 0 0 1 80 25)" fill="#64DDFB"/>
<rect width="5" height="5" transform="matrix(-1 0 0 1 85 25)" fill="#64DDFB"/>
<rect width="5" height="5" transform="matrix(-1 0 0 1 60 35)" fill="#64DDFB"/>
<rect width="5" height="5" transform="matrix(-1 0 0 1 60 60)" fill="#64DDFB"/>
<rect width="5" height="5" transform="matrix(-1 0 0 1 55 35)" fill="#64DDFB"/>
<rect width="5" height="5" transform="matrix(-1 0 0 1 55 60)" fill="#64DDFB"/>
<rect width="5" height="5" transform="matrix(-1 0 0 1 55 85)" fill="#64DDFB"/>
<rect width="5" height="5" transform="matrix(-1 0 0 1 50 35)" fill="#64DDFB"/>
<rect width="5" height="5" transform="matrix(-1 0 0 1 50 60)" fill="#64DDFB"/>
<rect width="5" height="5" transform="matrix(-1 0 0 1 50 85)" fill="#64DDFB"/>
<rect width="5" height="5" transform="matrix(4.37114e-08 1 1 -4.37114e-08 115 75)" fill="#BB52DE"/>
<rect width="5" height="5" transform="matrix(4.37114e-08 1 1 -4.37114e-08 115 95)" fill="#BB52DE"/>
<rect width="5" height="5" transform="matrix(4.37114e-08 1 1 -4.37114e-08 100 95)" fill="#BB52DE"/>
<rect width="5" height="5" transform="matrix(4.37114e-08 1 1 -4.37114e-08 85 95)" fill="#BB52DE"/>
<rect width="5" height="5" transform="matrix(4.37114e-08 1 1 -4.37114e-08 115 115)" fill="#BB52DE"/>
<rect width="5" height="5" transform="matrix(4.37114e-08 1 1 -4.37114e-08 100 115)" fill="#BB52DE"/>
<rect width="5" height="5" transform="matrix(4.37114e-08 1 1 -4.37114e-08 85 115)" fill="#BB52DE"/>
<rect width="5" height="5" transform="matrix(4.37114e-08 1 1 -4.37114e-08 70 115)" fill="#BB52DE"/>
<rect width="5" height="5" transform="matrix(4.37114e-08 1 1 -4.37114e-08 115 135)" fill="#BB52DE"/>
<rect width="5" height="5" transform="matrix(4.37114e-08 1 1 -4.37114e-08 110 75)" fill="#BB52DE"/>
<rect width="5" height="5" transform="matrix(4.37114e-08 1 1 -4.37114e-08 110 95)" fill="#BB52DE"/>
<rect width="5" height="5" transform="matrix(4.37114e-08 1 1 -4.37114e-08 95 95)" fill="#BB52DE"/>
<rect width="5" height="5" transform="matrix(4.37114e-08 1 1 -4.37114e-08 80 95)" fill="#BB52DE"/>
<rect width="5" height="5" transform="matrix(4.37114e-08 1 1 -4.37114e-08 110 115)" fill="#BB52DE"/>
<rect width="5" height="5" transform="matrix(4.37114e-08 1 1 -4.37114e-08 95 115)" fill="#BB52DE"/>
<rect width="5" height="5" transform="matrix(4.37114e-08 1 1 -4.37114e-08 80 115)" fill="#BB52DE"/>
<rect width="5" height="5" transform="matrix(4.37114e-08 1 1 -4.37114e-08 65 115)" fill="#BB52DE"/>
<rect width="5" height="5" transform="matrix(4.37114e-08 1 1 -4.37114e-08 110 135)" fill="#BB52DE"/>
<rect width="5" height="5" transform="matrix(4.37114e-08 1 1 -4.37114e-08 105 75)" fill="#BB52DE"/>
<rect width="5" height="5" transform="matrix(4.37114e-08 1 1 -4.37114e-08 105 95)" fill="#BB52DE"/>
<rect width="5" height="5" transform="matrix(4.37114e-08 1 1 -4.37114e-08 90 95)" fill="#BB52DE"/>
<rect width="5" height="5" transform="matrix(4.37114e-08 1 1 -4.37114e-08 75 95)" fill="#BB52DE"/>
<rect width="5" height="5" transform="matrix(4.37114e-08 1 1 -4.37114e-08 105 115)" fill="#BB52DE"/>
<rect width="5" height="5" transform="matrix(4.37114e-08 1 1 -4.37114e-08 90 115)" fill="#BB52DE"/>
<rect width="5" height="5" transform="matrix(4.37114e-08 1 1 -4.37114e-08 75 115)" fill="#BB52DE"/>
<rect width="5" height="5" transform="matrix(4.37114e-08 1 1 -4.37114e-08 60 115)" fill="#BB52DE"/>
<rect width="5" height="5" transform="matrix(4.37114e-08 1 1 -4.37114e-08 105 135)" fill="#BB52DE"/>
<rect width="5" height="5" transform="matrix(4.37114e-08 1 1 -4.37114e-08 115 85)" fill="#BB52DE"/>
<rect width="5" height="5" transform="matrix(4.37114e-08 1 1 -4.37114e-08 115 105)" fill="#BB52DE"/>
<rect width="5" height="5" transform="matrix(4.37114e-08 1 1 -4.37114e-08 100 105)" fill="#BB52DE"/>
<rect width="5" height="5" transform="matrix(4.37114e-08 1 1 -4.37114e-08 85 105)" fill="#BB52DE"/>
<rect width="5" height="5" transform="matrix(4.37114e-08 1 1 -4.37114e-08 70 105)" fill="#BB52DE"/>
<rect width="5" height="5" transform="matrix(4.37114e-08 1 1 -4.37114e-08 115 125)" fill="#BB52DE"/>
<rect width="5" height="5" transform="matrix(4.37114e-08 1 1 -4.37114e-08 100 125)" fill="#BB52DE"/>
<rect width="5" height="5" transform="matrix(4.37114e-08 1 1 -4.37114e-08 85 125)" fill="#BB52DE"/>
<rect width="5" height="5" transform="matrix(4.37114e-08 1 1 -4.37114e-08 70 125)" fill="#BB52DE"/>
<rect width="5" height="5" transform="matrix(4.37114e-08 1 1 -4.37114e-08 70 140)" fill="#BB52DE"/>
<rect width="5" height="5" transform="matrix(4.37114e-08 1 1 -4.37114e-08 115 145)" fill="#BB52DE"/>
<rect width="5" height="5" transform="matrix(4.37114e-08 1 1 -4.37114e-08 110 85)" fill="#BB52DE"/>
<rect width="5" height="5" transform="matrix(4.37114e-08 1 1 -4.37114e-08 110 105)" fill="#BB52DE"/>
<rect width="5" height="5" transform="matrix(4.37114e-08 1 1 -4.37114e-08 95 105)" fill="#BB52DE"/>
<rect width="5" height="5" transform="matrix(4.37114e-08 1 1 -4.37114e-08 80 105)" fill="#BB52DE"/>
<rect width="5" height="5" transform="matrix(4.37114e-08 1 1 -4.37114e-08 65 105)" fill="#BB52DE"/>
<rect width="5" height="5" transform="matrix(4.37114e-08 1 1 -4.37114e-08 110 125)" fill="#BB52DE"/>
<rect width="5" height="5" transform="matrix(4.37114e-08 1 1 -4.37114e-08 95 125)" fill="#BB52DE"/>
<rect width="5" height="5" transform="matrix(4.37114e-08 1 1 -4.37114e-08 80 125)" fill="#BB52DE"/>
<rect width="5" height="5" transform="matrix(4.37114e-08 1 1 -4.37114e-08 65 125)" fill="#BB52DE"/>
<rect width="5" height="5" transform="matrix(4.37114e-08 1 1 -4.37114e-08 65 140)" fill="#BB52DE"/>
<rect width="5" height="5" transform="matrix(4.37114e-08 1 1 -4.37114e-08 110 145)" fill="#BB52DE"/>
<rect width="5" height="5" transform="matrix(4.37114e-08 1 1 -4.37114e-08 105 85)" fill="#BB52DE"/>
<rect width="5" height="5" transform="matrix(4.37114e-08 1 1 -4.37114e-08 105 105)" fill="#BB52DE"/>
<rect width="5" height="5" transform="matrix(4.37114e-08 1 1 -4.37114e-08 90 105)" fill="#BB52DE"/>
<rect width="5" height="5" transform="matrix(4.37114e-08 1 1 -4.37114e-08 75 105)" fill="#BB52DE"/>
<rect width="5" height="5" transform="matrix(4.37114e-08 1 1 -4.37114e-08 60 105)" fill="#BB52DE"/>
<rect width="5" height="5" transform="matrix(4.37114e-08 1 1 -4.37114e-08 105 125)" fill="#BB52DE"/>
<rect width="5" height="5" transform="matrix(4.37114e-08 1 1 -4.37114e-08 90 125)" fill="#BB52DE"/>
<rect width="5" height="5" transform="matrix(4.37114e-08 1 1 -4.37114e-08 75 125)" fill="#BB52DE"/>
<rect width="5" height="5" transform="matrix(4.37114e-08 1 1 -4.37114e-08 60 125)" fill="#BB52DE"/>
<rect width="5" height="5" transform="matrix(4.37114e-08 1 1 -4.37114e-08 60 140)" fill="#BB52DE"/>
<rect width="5" height="5" transform="matrix(4.37114e-08 1 1 -4.37114e-08 105 145)" fill="#BB52DE"/>
<rect width="5" height="5" transform="matrix(4.37114e-08 1 1 -4.37114e-08 115 90)" fill="#BB52DE"/>
<rect width="5" height="5" transform="matrix(4.37114e-08 1 1 -4.37114e-08 100 90)" fill="#BB52DE"/>
<rect width="5" height="5" transform="matrix(4.37114e-08 1 1 -4.37114e-08 85 90)" fill="#BB52DE"/>
<rect width="5" height="5" transform="matrix(4.37114e-08 1 1 -4.37114e-08 115 110)" fill="#BB52DE"/>
<rect width="5" height="5" transform="matrix(4.37114e-08 1 1 -4.37114e-08 100 110)" fill="#BB52DE"/>
<rect width="5" height="5" transform="matrix(4.37114e-08 1 1 -4.37114e-08 85 110)" fill="#BB52DE"/>
<rect width="5" height="5" transform="matrix(4.37114e-08 1 1 -4.37114e-08 70 110)" fill="#BB52DE"/>
<rect width="5" height="5" transform="matrix(4.37114e-08 1 1 -4.37114e-08 115 130)" fill="#BB52DE"/>
<rect width="5" height="5" transform="matrix(4.37114e-08 1 1 -4.37114e-08 100 130)" fill="#BB52DE"/>
<rect width="5" height="5" transform="matrix(4.37114e-08 1 1 -4.37114e-08 85 130)" fill="#BB52DE"/>
<rect width="5" height="5" transform="matrix(4.37114e-08 1 1 -4.37114e-08 70 130)" fill="#BB52DE"/>
<rect width="5" height="5" transform="matrix(4.37114e-08 1 1 -4.37114e-08 70 145)" fill="#BB52DE"/>
<rect width="5" height="5" transform="matrix(4.37114e-08 1 1 -4.37114e-08 110 90)" fill="#BB52DE"/>
<rect width="5" height="5" transform="matrix(4.37114e-08 1 1 -4.37114e-08 95 90)" fill="#BB52DE"/>
<rect width="5" height="5" transform="matrix(4.37114e-08 1 1 -4.37114e-08 80 90)" fill="#BB52DE"/>
<rect width="5" height="5" transform="matrix(4.37114e-08 1 1 -4.37114e-08 110 110)" fill="#BB52DE"/>
<rect width="5" height="5" transform="matrix(4.37114e-08 1 1 -4.37114e-08 95 110)" fill="#BB52DE"/>
<rect width="5" height="5" transform="matrix(4.37114e-08 1 1 -4.37114e-08 80 110)" fill="#BB52DE"/>
<rect width="5" height="5" transform="matrix(4.37114e-08 1 1 -4.37114e-08 65 110)" fill="#BB52DE"/>
<rect width="5" height="5" transform="matrix(4.37114e-08 1 1 -4.37114e-08 110 130)" fill="#BB52DE"/>
<rect width="5" height="5" transform="matrix(4.37114e-08 1 1 -4.37114e-08 95 130)" fill="#BB52DE"/>
<rect width="5" height="5" transform="matrix(4.37114e-08 1 1 -4.37114e-08 80 130)" fill="#BB52DE"/>
<rect width="5" height="5" transform="matrix(4.37114e-08 1 1 -4.37114e-08 65 130)" fill="#BB52DE"/>
<rect width="5" height="5" transform="matrix(4.37114e-08 1 1 -4.37114e-08 65 145)" fill="#BB52DE"/>
<rect width="5" height="5" transform="matrix(4.37114e-08 1 1 -4.37114e-08 105 90)" fill="#BB52DE"/>
<rect width="5" height="5" transform="matrix(4.37114e-08 1 1 -4.37114e-08 90 90)" fill="#BB52DE"/>
<rect width="5" height="5" transform="matrix(4.37114e-08 1 1 -4.37114e-08 75 90)" fill="#BB52DE"/>
<rect width="5" height="5" transform="matrix(4.37114e-08 1 1 -4.37114e-08 105 110)" fill="#BB52DE"/>
<rect width="5" height="5" transform="matrix(4.37114e-08 1 1 -4.37114e-08 90 110)" fill="#BB52DE"/>
<rect width="5" height="5" transform="matrix(4.37114e-08 1 1 -4.37114e-08 75 110)" fill="#BB52DE"/>
<rect width="5" height="5" transform="matrix(4.37114e-08 1 1 -4.37114e-08 60 110)" fill="#BB52DE"/>
<rect width="5" height="5" transform="matrix(4.37114e-08 1 1 -4.37114e-08 105 130)" fill="#BB52DE"/>
<rect width="5" height="5" transform="matrix(4.37114e-08 1 1 -4.37114e-08 90 130)" fill="#BB52DE"/>
<rect width="5" height="5" transform="matrix(4.37114e-08 1 1 -4.37114e-08 75 130)" fill="#BB52DE"/>
<rect width="5" height="5" transform="matrix(4.37114e-08 1 1 -4.37114e-08 60 130)" fill="#BB52DE"/>
<rect width="5" height="5" transform="matrix(4.37114e-08 1 1 -4.37114e-08 60 145)" fill="#BB52DE"/>
<rect width="5" height="5" transform="matrix(-1 0 0 1 150 45)" fill="#59C6E1"/>
<rect width="5" height="5" transform="matrix(-1 0 0 1 150 70)" fill="#59C6E1"/>
<rect width="5" height="5" transform="matrix(-1 0 0 1 150 95)" fill="#59C6E1"/>
<rect width="5" height="5" transform="matrix(-1 0 0 1 135 95)" fill="#AB9879"/>
<rect width="5" height="5" transform="matrix(-1 0 0 1 135 120)" fill="#59C6E1"/>
<rect width="5" height="5" transform="matrix(-1 0 0 1 145 45)" fill="#59C6E1"/>
<rect width="5" height="5" transform="matrix(-1 0 0 1 145 40)" fill="#59C6E1"/>
<rect width="5" height="5" transform="matrix(-1 0 0 1 145 70)" fill="#59C6E1"/>
<rect width="5" height="5" transform="matrix(-1 0 0 1 145 95)" fill="#59C6E1"/>
<rect width="5" height="5" transform="matrix(-1 0 0 1 130 95)" fill="#AB9879"/>
<rect width="5" height="5" transform="matrix(-1 0 0 1 130 120)" fill="#59C6E1"/>
<rect width="5" height="5" transform="matrix(-1 0 0 1 140 45)" fill="#59C6E1"/>
<rect width="5" height="5" transform="matrix(-1 0 0 1 140 40)" fill="#59C6E1"/>
<rect width="5" height="5" transform="matrix(-1 0 0 1 140 35)" fill="#59C6E1"/>
<rect width="5" height="5" transform="matrix(-1 0 0 1 140 70)" fill="#59C6E1"/>
<rect width="5" height="5" transform="matrix(-1 0 0 1 140 95)" fill="#59C6E1"/>
<rect width="5" height="5" transform="matrix(-1 0 0 1 125 95)" fill="#AB9879"/>
<rect width="5" height="5" transform="matrix(-1 0 0 1 125 120)" fill="#59C6E1"/>
<rect width="5" height="5" transform="matrix(-1 0 0 1 135 45)" fill="#59C6E1"/>
<rect width="5" height="5" transform="matrix(-1 0 0 1 135 40)" fill="#59C6E1"/>
<rect width="5" height="5" transform="matrix(-1 0 0 1 130 45)" fill="#59C6E1"/>
<rect width="5" height="5" transform="matrix(-1 0 0 1 130 40)" fill="#59C6E1"/>
<rect width="5" height="5" transform="matrix(-1 0 0 1 125 45)" fill="#59C6E1"/>
<rect width="5" height="5" transform="matrix(-1 0 0 1 125 40)" fill="#59C6E1"/>
<rect width="5" height="5" transform="matrix(-1 0 0 1 150 55)" fill="#59C6E1"/>
<rect width="5" height="5" transform="matrix(-1 0 0 1 150 80)" fill="#59C6E1"/>
<rect width="5" height="5" transform="matrix(-1 0 0 1 135 80)" fill="#AB9879"/>
<rect width="5" height="5" transform="matrix(-1 0 0 1 135 105)" fill="#59C6E1"/>
<rect width="5" height="5" transform="matrix(-1 0 0 1 150 105)" fill="#59C6E1"/>
<rect width="5" height="5" transform="matrix(-1 0 0 1 135 130)" fill="#59C6E1"/>
<rect width="5" height="5" transform="matrix(-1 0 0 1 145 55)" fill="#59C6E1"/>
<rect width="5" height="5" transform="matrix(-1 0 0 1 145 80)" fill="#59C6E1"/>
<rect width="5" height="5" transform="matrix(-1 0 0 1 130 80)" fill="#AB9879"/>
<rect width="5" height="5" transform="matrix(-1 0 0 1 130 105)" fill="#AB9879"/>
<rect width="5" height="5" transform="matrix(-1 0 0 1 145 105)" fill="#59C6E1"/>
<rect width="5" height="5" transform="matrix(-1 0 0 1 130 130)" fill="#59C6E1"/>
<rect width="5" height="5" transform="matrix(-1 0 0 1 140 55)" fill="#59C6E1"/>
<rect width="5" height="5" transform="matrix(-1 0 0 1 140 80)" fill="#59C6E1"/>
<rect width="5" height="5" transform="matrix(-1 0 0 1 125 80)" fill="#AB9879"/>
<rect width="5" height="5" transform="matrix(-1 0 0 1 125 105)" fill="#AB9879"/>
<rect width="5" height="5" transform="matrix(-1 0 0 1 140 105)" fill="#59C6E1"/>
<rect width="5" height="5" transform="matrix(-1 0 0 1 125 130)" fill="#59C6E1"/>
<rect width="5" height="5" transform="matrix(-1 0 0 1 135 55)" fill="#59C6E1"/>
<rect width="5" height="5" transform="matrix(-1 0 0 1 130 55)" fill="#59C6E1"/>
<rect width="5" height="5" transform="matrix(-1 0 0 1 125 55)" fill="#59C6E1"/>
<rect width="5" height="5" transform="matrix(-1 0 0 1 150 50)" fill="#59C6E1"/>
<rect width="5" height="5" transform="matrix(-1 0 0 1 150 75)" fill="#59C6E1"/>
<rect width="5" height="5" transform="matrix(-1 0 0 1 135 75)" fill="#AB9879"/>
<rect width="5" height="5" transform="matrix(-1 0 0 1 150 100)" fill="#59C6E1"/>
<rect width="5" height="5" transform="matrix(-1 0 0 1 135 100)" fill="#AB9879"/>
<rect width="5" height="5" transform="matrix(-1 0 0 1 135 125)" fill="#59C6E1"/>
<rect width="5" height="5" transform="matrix(-1 0 0 1 145 50)" fill="#59C6E1"/>
<rect width="5" height="5" transform="matrix(-1 0 0 1 145 75)" fill="#59C6E1"/>
<rect width="5" height="5" transform="matrix(-1 0 0 1 130 75)" fill="#AB9879"/>
<rect width="5" height="5" transform="matrix(-1 0 0 1 145 100)" fill="#59C6E1"/>
<rect width="5" height="5" transform="matrix(-1 0 0 1 130 100)" fill="#AB9879"/>
<rect width="5" height="5" transform="matrix(-1 0 0 1 130 125)" fill="#59C6E1"/>
<rect width="5" height="5" transform="matrix(-1 0 0 1 140 50)" fill="#59C6E1"/>
<rect width="5" height="5" transform="matrix(-1 0 0 1 140 75)" fill="#59C6E1"/>
<rect width="5" height="5" transform="matrix(-1 0 0 1 125 75)" fill="#AB9879"/>
<rect width="5" height="5" transform="matrix(-1 0 0 1 140 100)" fill="#59C6E1"/>
<rect width="5" height="5" transform="matrix(-1 0 0 1 125 100)" fill="#AB9879"/>
<rect width="5" height="5" transform="matrix(-1 0 0 1 125 125)" fill="#59C6E1"/>
<rect width="5" height="5" transform="matrix(-1 0 0 1 135 50)" fill="#59C6E1"/>
<rect width="5" height="5" transform="matrix(-1 0 0 1 130 50)" fill="#59C6E1"/>
<rect width="5" height="5" transform="matrix(-1 0 0 1 125 50)" fill="#59C6E1"/>
<rect width="5" height="5" transform="matrix(-1 0 0 1 150 60)" fill="#59C6E1"/>
<rect width="5" height="5" transform="matrix(-1 0 0 1 150 85)" fill="#59C6E1"/>
<rect width="5" height="5" transform="matrix(-1 0 0 1 135 85)" fill="#AB9879"/>
<rect width="5" height="5" transform="matrix(-1 0 0 1 135 110)" fill="#59C6E1"/>
<rect width="5" height="5" transform="matrix(-1 0 0 1 135 135)" fill="#59C6E1"/>
<rect width="5" height="5" transform="matrix(-1 0 0 1 145 60)" fill="#59C6E1"/>
<rect width="5" height="5" transform="matrix(-1 0 0 1 145 85)" fill="#59C6E1"/>
<rect width="5" height="5" transform="matrix(-1 0 0 1 130 85)" fill="#AB9879"/>
<rect width="5" height="5" transform="matrix(-1 0 0 1 130 110)" fill="#59C6E1"/>
<rect width="5" height="5" transform="matrix(-1 0 0 1 145 110)" fill="#59C6E1"/>
<rect width="5" height="5" transform="matrix(-1 0 0 1 130 135)" fill="#59C6E1"/>
<rect width="5" height="5" transform="matrix(-1 0 0 1 140 60)" fill="#59C6E1"/>
<rect width="5" height="5" transform="matrix(-1 0 0 1 140 85)" fill="#59C6E1"/>
<rect width="5" height="5" transform="matrix(-1 0 0 1 125 85)" fill="#AB9879"/>
<rect width="5" height="5" transform="matrix(-1 0 0 1 125 110)" fill="#59C6E1"/>
<rect width="5" height="5" transform="matrix(-1 0 0 1 140 110)" fill="#59C6E1"/>
<rect width="5" height="5" transform="matrix(-1 0 0 1 125 135)" fill="#59C6E1"/>
<rect width="5" height="5" transform="matrix(-1 0 0 1 135 60)" fill="#59C6E1"/>
<rect width="5" height="5" transform="matrix(-1 0 0 1 130 60)" fill="#59C6E1"/>
<rect width="5" height="5" transform="matrix(-1 0 0 1 125 60)" fill="#59C6E1"/>
<rect width="5" height="5" transform="matrix(-1 0 0 1 150 65)" fill="#59C6E1"/>
<rect width="5" height="5" transform="matrix(-1 0 0 1 150 90)" fill="#59C6E1"/>
<rect width="5" height="5" transform="matrix(-1 0 0 1 135 90)" fill="#AB9879"/>
<rect width="5" height="5" transform="matrix(-1 0 0 1 135 115)" fill="#59C6E1"/>
<rect width="5" height="5" transform="matrix(-1 0 0 1 145 65)" fill="#59C6E1"/>
<rect width="5" height="5" transform="matrix(-1 0 0 1 145 90)" fill="#59C6E1"/>
<rect width="5" height="5" transform="matrix(-1 0 0 1 130 90)" fill="#AB9879"/>
<rect width="5" height="5" transform="matrix(-1 0 0 1 130 115)" fill="#59C6E1"/>
<rect width="5" height="5" transform="matrix(-1 0 0 1 130 140)" fill="#59C6E1"/>
<rect width="5" height="5" transform="matrix(-1 0 0 1 140 65)" fill="#59C6E1"/>
<rect width="5" height="5" transform="matrix(-1 0 0 1 140 90)" fill="#59C6E1"/>
<rect width="5" height="5" transform="matrix(-1 0 0 1 125 90)" fill="#AB9879"/>
<rect width="5" height="5" transform="matrix(-1 0 0 1 125 115)" fill="#59C6E1"/>
<rect width="5" height="5" transform="matrix(-1 0 0 1 140 115)" fill="#59C6E1"/>
<rect width="5" height="5" transform="matrix(-1 0 0 1 125 140)" fill="#59C6E1"/>
<rect width="5" height="5" transform="matrix(-1 0 0 1 125 145)" fill="#59C6E1"/>
<rect width="5" height="5" transform="matrix(-1 0 0 1 135 65)" fill="#59C6E1"/>
<rect width="5" height="5" transform="matrix(-1 0 0 1 135 70)" fill="#59C6E1"/>
<rect width="5" height="5" transform="matrix(-1 0 0 1 130 65)" fill="#59C6E1"/>
<rect width="5" height="5" transform="matrix(-1 0 0 1 130 70)" fill="#59C6E1"/>
<rect width="5" height="5" transform="matrix(-1 0 0 1 125 65)" fill="#59C6E1"/>
<rect width="5" height="5" transform="matrix(-1 0 0 1 125 70)" fill="#59C6E1"/>
<rect width="5" height="5" transform="matrix(-1 0 0 1 105 0)" fill="#59C6E1"/>
<rect width="5" height="5" transform="matrix(-1 0 0 1 105 15)" fill="#64DDFB"/>
<rect width="5" height="5" transform="matrix(-1 0 0 1 105 5)" fill="#59C6E1"/>
<rect width="5" height="5" transform="matrix(-1 0 0 1 105 20)" fill="#64DDFB"/>
<rect width="5" height="5" transform="matrix(-1 0 0 1 105 10)" fill="#64DDFB"/>
<rect width="5" height="5" transform="matrix(-1 0 0 1 105 25)" fill="#64DDFB"/>
<rect width="5" height="5" transform="matrix(-1 0 0 1 85 0)" fill="#64DDFB"/>
<rect width="5" height="5" transform="matrix(-1 0 0 1 85 15)" fill="#64DDFB"/>
<rect width="5" height="5" transform="matrix(-1 0 0 1 85 5)" fill="#64DDFB"/>
<rect width="5" height="5" transform="matrix(-1 0 0 1 85 20)" fill="#64DDFB"/>
<rect width="5" height="5" transform="matrix(-1 0 0 1 85 10)" fill="#64DDFB"/>
<rect width="5" height="5" transform="matrix(-1 0 0 1 90 25)" fill="#64DDFB"/>
<rect width="5" height="5" transform="matrix(-1 0 0 1 65 15)" fill="#64DDFB"/>
<rect width="5" height="5" transform="matrix(-1 0 0 1 65 5)" fill="#64DDFB"/>
<rect width="5" height="5" transform="matrix(-1 0 0 1 65 20)" fill="#59C6E1"/>
<rect width="5" height="5" transform="matrix(-1 0 0 1 65 10)" fill="#64DDFB"/>
<rect width="5" height="5" transform="matrix(-1 0 0 1 65 25)" fill="#64DDFB"/>
<rect width="5" height="5" transform="matrix(-1 0 0 1 95 30)" fill="#AB9879"/>
<rect width="5" height="5" transform="matrix(-1 0 0 1 95 50)" fill="#AB9879"/>
<rect width="5" height="5" transform="matrix(-1 0 0 1 95 70)" fill="#AB9879"/>
<rect width="5" height="5" transform="matrix(-1 0 0 1 95 35)" fill="#AB9879"/>
<rect width="5" height="5" transform="matrix(-1 0 0 1 95 55)" fill="#AB9879"/>
<rect width="5" height="5" transform="matrix(-1 0 0 1 95 75)" fill="#AB9879"/>
<rect width="5" height="5" transform="matrix(-1 0 0 1 95 40)" fill="#AB9879"/>
<rect width="5" height="5" transform="matrix(-1 0 0 1 95 60)" fill="#AB9879"/>
<rect width="5" height="5" transform="matrix(-1 0 0 1 95 80)" fill="#AB9879"/>
<rect width="5" height="5" transform="matrix(-1 0 0 1 95 85)" fill="#AB9879"/>
<rect width="5" height="5" transform="matrix(-1 0 0 1 95 45)" fill="#AB9879"/>
<rect width="5" height="5" transform="matrix(-1 0 0 1 95 65)" fill="#AB9879"/>
<rect width="5" height="5" transform="matrix(-1 0 0 1 80 30)" fill="#AB9879"/>
<rect width="5" height="5" transform="matrix(-1 0 0 1 75 30)" fill="#AB9879"/>
<rect width="5" height="5" transform="matrix(-1 0 0 1 70 30)" fill="#64DDFB"/>
<rect width="5" height="5" transform="matrix(-1 0 0 1 65 30)" fill="#64DDFB"/>
<rect width="5" height="5" transform="matrix(-1 0 0 1 80 50)" fill="#AB9879"/>
<rect width="5" height="5" transform="matrix(-1 0 0 1 75 50)" fill="#AB9879"/>
<rect width="5" height="5" transform="matrix(-1 0 0 1 70 50)" fill="#221B47"/>
<rect width="5" height="5" transform="matrix(-1 0 0 1 65 50)" fill="#AB9879"/>
<rect width="5" height="5" transform="matrix(-1 0 0 1 80 35)" fill="#AB9879"/>
<rect width="5" height="5" transform="matrix(-1 0 0 1 75 35)" fill="#AB9879"/>
<rect width="5" height="5" transform="matrix(-1 0 0 1 70 35)" fill="#AB9879"/>
<rect width="5" height="5" transform="matrix(-1 0 0 1 65 35)" fill="#AB9879"/>
<rect width="5" height="5" transform="matrix(-1 0 0 1 80 55)" fill="#AB9879"/>
<rect width="5" height="5" transform="matrix(-1 0 0 1 80 70)" fill="#AB9879"/>
<rect width="5" height="5" transform="matrix(-1 0 0 1 75 55)" fill="#AB9879"/>
<rect width="5" height="5" transform="matrix(-1 0 0 1 75 70)" fill="#AB9879"/>
<rect width="5" height="5" transform="matrix(-1 0 0 1 75 80)" fill="#AB9879"/>
<rect width="5" height="5" transform="matrix(-1 0 0 1 75 90)" fill="#AB9879"/>
<rect width="5" height="5" transform="matrix(-1 0 0 1 75 100)" fill="#AB9879"/>
<rect width="5" height="5" transform="matrix(-1 0 0 1 60 100)" fill="#AB9879"/>
<rect width="5" height="5" transform="matrix(-1 0 0 1 70 55)" fill="#AB9879"/>
<rect width="5" height="5" transform="matrix(-1 0 0 1 70 70)" fill="#AB9879"/>
<rect width="5" height="5" transform="matrix(-1 0 0 1 70 90)" fill="#AB9879"/>
<rect width="5" height="5" transform="matrix(-1 0 0 1 70 100)" fill="#AB9879"/>
<rect width="5" height="5" transform="matrix(-1 0 0 1 55 100)" fill="#AB9879"/>
<rect width="5" height="5" transform="matrix(-1 0 0 1 65 55)" fill="#AB9879"/>
<rect width="5" height="5" transform="matrix(-1 0 0 1 65 70)" fill="#AB9879"/>
<rect width="5" height="5" transform="matrix(-1 0 0 1 65 90)" fill="#AB9879"/>
<rect width="5" height="5" transform="matrix(-1 0 0 1 65 100)" fill="#AB9879"/>
<rect width="5" height="5" transform="matrix(-1 0 0 1 50 100)" fill="#AB9879"/>
<rect width="5" height="5" transform="matrix(-1 0 0 1 80 40)" fill="#AB9879"/>
<rect width="5" height="5" transform="matrix(-1 0 0 1 75 40)" fill="#AB9879"/>
<rect width="5" height="5" transform="matrix(-1 0 0 1 70 40)" fill="#AB9879"/>
<rect width="5" height="5" transform="matrix(-1 0 0 1 65 40)" fill="#AB9879"/>
<rect width="5" height="5" transform="matrix(-1 0 0 1 80 60)" fill="#AB9879"/>
<rect width="5" height="5" transform="matrix(-1 0 0 1 80 75)" fill="#AB9879"/>
<rect width="5" height="5" transform="matrix(-1 0 0 1 75 60)" fill="#AB9879"/>
<rect width="5" height="5" transform="matrix(-1 0 0 1 70 60)" fill="#AB9879"/>
<rect width="5" height="5" transform="matrix(-1 0 0 1 65 60)" fill="#AB9879"/>
<rect width="5" height="5" transform="matrix(-1 0 0 1 80 45)" fill="#AB9879"/>
<rect width="5" height="5" transform="matrix(-1 0 0 1 75 45)" fill="#AB9879"/>
<rect width="5" height="5" transform="matrix(-1 0 0 1 70 45)" fill="#AB9879"/>
<rect width="5" height="5" transform="matrix(-1 0 0 1 65 45)" fill="#AB9879"/>
<rect width="5" height="5" transform="matrix(-1 0 0 1 80 65)" fill="#AB9879"/>
<rect width="5" height="5" transform="matrix(-1 0 0 1 80 80)" fill="#AB9879"/>
<rect width="5" height="5" transform="matrix(-1 0 0 1 80 85)" fill="#AB9879"/>
<rect width="5" height="5" transform="matrix(-1 0 0 1 75 85)" fill="#AB9879"/>
<rect width="5" height="5" transform="matrix(-1 0 0 1 75 65)" fill="#AB9879"/>
<rect width="5" height="5" transform="matrix(-1 0 0 1 75 75)" fill="#AB9879"/>
<rect width="5" height="5" transform="matrix(-1 0 0 1 75 95)" fill="#AB9879"/>
<rect width="5" height="5" transform="matrix(-1 0 0 1 60 95)" fill="#AB9879"/>
<rect width="5" height="5" transform="matrix(-1 0 0 1 60 90)" fill="#AB9879"/>
<rect width="5" height="5" transform="matrix(-1 0 0 1 70 65)" fill="#AB9879"/>
<rect width="5" height="5" transform="matrix(-1 0 0 1 70 75)" fill="#AB9879"/>
<rect width="5" height="5" transform="matrix(-1 0 0 1 70 95)" fill="#AB9879"/>
<rect width="5" height="5" transform="matrix(-1 0 0 1 55 95)" fill="#AB9879"/>
<rect width="5" height="5" transform="matrix(-1 0 0 1 55 90)" fill="#AB9879"/>
<rect width="5" height="5" transform="matrix(-1 0 0 1 65 65)" fill="#AB9879"/>
<rect width="5" height="5" transform="matrix(-1 0 0 1 65 95)" fill="#AB9879"/>
<rect width="5" height="5" transform="matrix(-1 0 0 1 50 95)" fill="#AB9879"/>
<rect width="5" height="5" transform="matrix(-1 0 0 1 50 90)" fill="#AB9879"/>
<rect width="5" height="5" transform="matrix(-1 0 0 1 115 0)" fill="#59C6E1"/>
<rect width="5" height="5" transform="matrix(-1 0 0 1 130 15)" fill="#59C6E1"/>
<rect width="5" height="5" transform="matrix(-1 0 0 1 115 15)" fill="#59C6E1"/>
<rect width="5" height="5" transform="matrix(-1 0 0 1 130 30)" fill="#59C6E1"/>
<rect width="5" height="5" transform="matrix(-1 0 0 1 115 5)" fill="#59C6E1"/>
<rect width="5" height="5" transform="matrix(-1 0 0 1 130 20)" fill="#59C6E1"/>
<rect width="5" height="5" transform="matrix(-1 0 0 1 115 20)" fill="#59C6E1"/>
<rect width="5" height="5" transform="matrix(-1 0 0 1 115 30)" fill="#59C6E1"/>
<rect width="5" height="5" transform="matrix(-1 0 0 1 130 35)" fill="#59C6E1"/>
<rect width="5" height="5" transform="matrix(-1 0 0 1 115 10)" fill="#59C6E1"/>
<rect width="5" height="5" transform="matrix(-1 0 0 1 130 25)" fill="#59C6E1"/>
<rect width="5" height="5" transform="matrix(-1 0 0 1 115 25)" fill="#59C6E1"/>
<rect width="5" height="5" transform="matrix(-1 0 0 1 115 35)" fill="#59C6E1"/>
<rect width="5" height="5" transform="matrix(-1 0 0 1 115 40)" fill="#59C6E1"/>
<rect width="5" height="5" transform="matrix(-1 0 0 1 95 0)" fill="#64DDFB"/>
<rect width="5" height="5" transform="matrix(-1 0 0 1 95 15)" fill="#64DDFB"/>
<rect width="5" height="5" transform="matrix(-1 0 0 1 95 5)" fill="#64DDFB"/>
<rect width="5" height="5" transform="matrix(-1 0 0 1 95 20)" fill="#64DDFB"/>
<rect width="5" height="5" transform="matrix(-1 0 0 1 95 10)" fill="#64DDFB"/>
<rect width="5" height="5" transform="matrix(-1 0 0 1 95 25)" fill="#64DDFB"/>
<rect width="5" height="5" transform="matrix(-1 0 0 1 75 0)" fill="#64DDFB"/>
<rect width="5" height="5" transform="matrix(-1 0 0 1 75 15)" fill="#64DDFB"/>
<rect width="5" height="5" transform="matrix(-1 0 0 1 75 5)" fill="#64DDFB"/>
<rect width="5" height="5" transform="matrix(-1 0 0 1 75 20)" fill="#64DDFB"/>
<rect width="5" height="5" transform="matrix(-1 0 0 1 75 10)" fill="#64DDFB"/>
<rect width="5" height="5" transform="matrix(-1 0 0 1 75 25)" fill="#64DDFB"/>
<rect width="5" height="5" transform="matrix(-1 0 0 1 105 30)" fill="#64DDFB"/>
<rect width="5" height="5" transform="matrix(-1 0 0 1 105 50)" fill="#AB9879"/>
<rect width="5" height="5" transform="matrix(-1 0 0 1 115 50)" fill="#AB9879"/>
<rect width="5" height="5" transform="matrix(-1 0 0 1 120 50)" fill="#AB9879"/>
<rect width="5" height="5" transform="matrix(-1 0 0 1 105 70)" fill="#AB9879"/>
<rect width="5" height="5" transform="matrix(-1 0 0 1 115 70)" fill="#AB9879"/>
<rect width="5" height="5" transform="matrix(-1 0 0 1 120 70)" fill="#AB9879"/>
<rect width="5" height="5" transform="matrix(-1 0 0 1 105 35)" fill="#AB9879"/>
<rect width="5" height="5" transform="matrix(-1 0 0 1 105 55)" fill="#AB9879"/>
<rect width="5" height="5" transform="matrix(-1 0 0 1 115 55)" fill="#AB9879"/>
<rect width="5" height="5" transform="matrix(-1 0 0 1 120 55)" fill="#AB9879"/>
<rect width="5" height="5" transform="matrix(-1 0 0 1 105 75)" fill="#AB9879"/>
<rect width="5" height="5" transform="matrix(-1 0 0 1 105 40)" fill="#AB9879"/>
<rect width="5" height="5" transform="matrix(-1 0 0 1 105 60)" fill="#AB9879"/>
<rect width="5" height="5" transform="matrix(-1 0 0 1 115 60)" fill="#AB9879"/>
<rect width="5" height="5" transform="matrix(-1 0 0 1 120 60)" fill="#AB9879"/>
<rect width="5" height="5" transform="matrix(-1 0 0 1 105 80)" fill="#BB52DE"/>
<rect width="5" height="5" transform="matrix(-1 0 0 1 105 85)" fill="#BB52DE"/>
<rect width="5" height="5" transform="matrix(-1 0 0 1 105 45)" fill="#AB9879"/>
<rect width="5" height="5" transform="matrix(-1 0 0 1 115 45)" fill="#AB9879"/>
<rect width="5" height="5" transform="matrix(-1 0 0 1 120 45)" fill="#59C6E1"/>
<rect width="5" height="5" transform="matrix(-1 0 0 1 105 65)" fill="#AB9879"/>
<rect width="5" height="5" transform="matrix(-1 0 0 1 115 65)" fill="#AB9879"/>
<rect width="5" height="5" transform="matrix(-1 0 0 1 120 65)" fill="#AB9879"/>
<rect width="5" height="5" transform="matrix(-1 0 0 1 90 30)" fill="#AB9879"/>
<rect width="5" height="5" transform="matrix(-1 0 0 1 90 50)" fill="#221B47"/>
<rect width="5" height="5" transform="matrix(-1 0 0 1 90 70)" fill="#AB9879"/>
<rect width="5" height="5" transform="matrix(-1 0 0 1 90 35)" fill="#AB9879"/>
<rect width="5" height="5" transform="matrix(-1 0 0 1 90 55)" fill="#AB9879"/>
<rect width="5" height="5" transform="matrix(-1 0 0 1 90 75)" fill="#AB9879"/>
<rect width="5" height="5" transform="matrix(-1 0 0 1 90 40)" fill="#AB9879"/>
<rect width="5" height="5" transform="matrix(-1 0 0 1 90 60)" fill="#AB9879"/>
<rect width="5" height="5" transform="matrix(-1 0 0 1 90 80)" fill="#AB9879"/>
<rect width="5" height="5" transform="matrix(-1 0 0 1 90 85)" fill="#AB9879"/>
<rect width="5" height="5" transform="matrix(-1 0 0 1 90 45)" fill="#AB9879"/>
<rect width="5" height="5" transform="matrix(-1 0 0 1 90 65)" fill="#AB9879"/>
<rect width="5" height="5" transform="matrix(4.37114e-08 1 1 -4.37114e-08 115 80)" fill="#BB52DE"/>
<rect width="5" height="5" transform="matrix(4.37114e-08 1 1 -4.37114e-08 115 100)" fill="#BB52DE"/>
<rect width="5" height="5" transform="matrix(4.37114e-08 1 1 -4.37114e-08 100 100)" fill="#BB52DE"/>
<rect width="5" height="5" transform="matrix(4.37114e-08 1 1 -4.37114e-08 85 100)" fill="#BB52DE"/>
<rect width="5" height="5" transform="matrix(4.37114e-08 1 1 -4.37114e-08 115 120)" fill="#BB52DE"/>
<rect width="5" height="5" transform="matrix(4.37114e-08 1 1 -4.37114e-08 100 120)" fill="#BB52DE"/>
<rect width="5" height="5" transform="matrix(4.37114e-08 1 1 -4.37114e-08 85 120)" fill="#BB52DE"/>
<rect width="5" height="5" transform="matrix(4.37114e-08 1 1 -4.37114e-08 70 120)" fill="#BB52DE"/>
<rect width="5" height="5" transform="matrix(4.37114e-08 1 1 -4.37114e-08 70 135)" fill="#BB52DE"/>
<rect width="5" height="5" transform="matrix(4.37114e-08 1 1 -4.37114e-08 115 140)" fill="#BB52DE"/>
<rect width="5" height="5" transform="matrix(4.37114e-08 1 1 -4.37114e-08 110 80)" fill="#BB52DE"/>
<rect width="5" height="5" transform="matrix(4.37114e-08 1 1 -4.37114e-08 110 100)" fill="#BB52DE"/>
<rect width="5" height="5" transform="matrix(4.37114e-08 1 1 -4.37114e-08 95 100)" fill="#BB52DE"/>
<rect width="5" height="5" transform="matrix(4.37114e-08 1 1 -4.37114e-08 80 100)" fill="#BB52DE"/>
<rect width="5" height="5" transform="matrix(4.37114e-08 1 1 -4.37114e-08 110 120)" fill="#BB52DE"/>
<rect width="5" height="5" transform="matrix(4.37114e-08 1 1 -4.37114e-08 95 120)" fill="#BB52DE"/>
<rect width="5" height="5" transform="matrix(4.37114e-08 1 1 -4.37114e-08 80 120)" fill="#BB52DE"/>
<rect width="5" height="5" transform="matrix(4.37114e-08 1 1 -4.37114e-08 65 120)" fill="#BB52DE"/>
<rect width="5" height="5" transform="matrix(4.37114e-08 1 1 -4.37114e-08 65 135)" fill="#BB52DE"/>
<rect width="5" height="5" transform="matrix(4.37114e-08 1 1 -4.37114e-08 110 140)" fill="#BB52DE"/>
<rect width="5" height="5" transform="matrix(4.37114e-08 1 1 -4.37114e-08 105 80)" fill="#BB52DE"/>
<rect width="5" height="5" transform="matrix(4.37114e-08 1 1 -4.37114e-08 105 100)" fill="#BB52DE"/>
<rect width="5" height="5" transform="matrix(4.37114e-08 1 1 -4.37114e-08 90 100)" fill="#BB52DE"/>
<rect width="5" height="5" transform="matrix(4.37114e-08 1 1 -4.37114e-08 75 100)" fill="#BB52DE"/>
<rect width="5" height="5" transform="matrix(4.37114e-08 1 1 -4.37114e-08 105 120)" fill="#BB52DE"/>
<rect width="5" height="5" transform="matrix(4.37114e-08 1 1 -4.37114e-08 90 120)" fill="#BB52DE"/>
<rect width="5" height="5" transform="matrix(4.37114e-08 1 1 -4.37114e-08 75 120)" fill="#BB52DE"/>
<rect width="5" height="5" transform="matrix(4.37114e-08 1 1 -4.37114e-08 60 120)" fill="#BB52DE"/>
<rect width="5" height="5" transform="matrix(4.37114e-08 1 1 -4.37114e-08 60 135)" fill="#BB52DE"/>
<rect width="5" height="5" transform="matrix(4.37114e-08 1 1 -4.37114e-08 105 140)" fill="#BB52DE"/>
<rect width="5" height="5" transform="matrix(-1 0 0 1 60 20)" fill="#59C6E1"/>
<rect width="5" height="5" transform="matrix(-1 0 0 1 60 45)" fill="#64DDFB"/>
<rect width="5" height="5" transform="matrix(-1 0 0 1 60 70)" fill="#64DDFB"/>
<rect width="5" height="5" transform="matrix(-1 0 0 1 55 20)" fill="#64DDFB"/>
<rect width="5" height="5" transform="matrix(-1 0 0 1 55 45)" fill="#64DDFB"/>
<rect width="5" height="5" transform="matrix(-1 0 0 1 55 70)" fill="#64DDFB"/>
<rect width="5" height="5" transform="matrix(-1 0 0 1 50 20)" fill="#64DDFB"/>
<rect width="5" height="5" transform="matrix(-1 0 0 1 50 45)" fill="#64DDFB"/>
<rect width="5" height="5" transform="matrix(-1 0 0 1 50 70)" fill="#64DDFB"/>
<rect width="5" height="5" transform="matrix(-1 0 0 1 60 15)" fill="#64DDFB"/>
<rect width="5" height="5" transform="matrix(-1 0 0 1 60 40)" fill="#64DDFB"/>
<rect width="5" height="5" transform="matrix(-1 0 0 1 60 65)" fill="#64DDFB"/>
<rect width="5" height="5" transform="matrix(-1 0 0 1 55 15)" fill="#64DDFB"/>
<rect width="5" height="5" transform="matrix(-1 0 0 1 55 40)" fill="#64DDFB"/>
<rect width="5" height="5" transform="matrix(-1 0 0 1 55 65)" fill="#64DDFB"/>
<rect width="5" height="5" transform="matrix(-1 0 0 1 50 15)" fill="#64DDFB"/>
<rect width="5" height="5" transform="matrix(-1 0 0 1 50 40)" fill="#64DDFB"/>
<rect width="5" height="5" transform="matrix(-1 0 0 1 50 65)" fill="#64DDFB"/>
<rect width="5" height="5" transform="matrix(-1 0 0 1 60 25)" fill="#59C6E1"/>
<rect width="5" height="5" transform="matrix(-1 0 0 1 60 50)" fill="#64DDFB"/>
<rect width="5" height="5" transform="matrix(-1 0 0 1 60 75)" fill="#64DDFB"/>
<rect width="5" height="5" transform="matrix(-1 0 0 1 55 25)" fill="#64DDFB"/>
<rect width="5" height="5" transform="matrix(-1 0 0 1 55 50)" fill="#64DDFB"/>
<rect width="5" height="5" transform="matrix(-1 0 0 1 55 75)" fill="#64DDFB"/>
<rect width="5" height="5" transform="matrix(-1 0 0 1 50 25)" fill="#64DDFB"/>
<rect width="5" height="5" transform="matrix(-1 0 0 1 50 50)" fill="#64DDFB"/>
<rect width="5" height="5" transform="matrix(-1 0 0 1 60 30)" fill="#64DDFB"/>
<rect width="5" height="5" transform="matrix(-1 0 0 1 60 55)" fill="#64DDFB"/>
<rect width="5" height="5" transform="matrix(-1 0 0 1 60 80)" fill="#64DDFB"/>
<rect width="5" height="5" transform="matrix(-1 0 0 1 55 30)" fill="#64DDFB"/>
<rect width="5" height="5" transform="matrix(-1 0 0 1 55 55)" fill="#64DDFB"/>
<rect width="5" height="5" transform="matrix(-1 0 0 1 55 80)" fill="#64DDFB"/>
<rect width="5" height="5" transform="matrix(-1 0 0 1 50 30)" fill="#64DDFB"/>
<rect width="5" height="5" transform="matrix(-1 0 0 1 50 55)" fill="#64DDFB"/>
<rect width="5" height="5" transform="matrix(-1 0 0 1 50 80)" fill="#64DDFB"/>
<rect width="5" height="5" transform="matrix(-1 0 0 1 45 90)" fill="#7B79F7"/>
<rect width="5" height="5" transform="matrix(-1 0 0 1 60 75)" fill="#7B79F7"/>
<rect width="5" height="5" transform="matrix(-1 0 0 1 45 80)" fill="white"/>
<rect width="5" height="5" transform="matrix(-1 0 0 1 45 95)" fill="#7B79F7"/>
<rect width="5" height="5" transform="matrix(-1 0 0 1 60 80)" fill="#7B79F7"/>
<rect width="5" height="5" transform="matrix(-1 0 0 1 15 55)" fill="white"/>
<rect width="5" height="5" transform="matrix(-1 0 0 1 30 70)" fill="white"/>
<rect width="5" height="5" transform="matrix(-1 0 0 1 45 85)" fill="white"/>
<rect width="5" height="5" transform="matrix(-1 0 0 1 40 75)" fill="white"/>
<rect width="5" height="5" transform="matrix(-1 0 0 1 40 90)" fill="#7B79F7"/>
<rect width="5" height="5" transform="matrix(-1 0 0 1 55 75)" fill="#7B79F7"/>
<rect width="5" height="5" transform="matrix(-1 0 0 1 10 50)" fill="white"/>
<rect width="5" height="5" transform="matrix(-1 0 0 1 25 65)" fill="white"/>
<rect width="5" height="5" transform="matrix(-1 0 0 1 40 80)" fill="white"/>
<rect width="5" height="5" transform="matrix(-1 0 0 1 40 95)" fill="#7B79F7"/>
<rect width="5" height="5" transform="matrix(-1 0 0 1 55 80)" fill="#7B79F7"/>
<rect width="5" height="5" transform="matrix(-1 0 0 1 40 85)" fill="white"/>
<rect width="5" height="5" transform="matrix(-1 0 0 1 40 100)" fill="#7B79F7"/>
<rect width="5" height="5" transform="matrix(-1 0 0 1 55 85)" fill="#7B79F7"/>
<rect width="5" height="5" transform="matrix(-1 0 0 1 5 45)" fill="white"/>
<rect width="5" height="5" transform="matrix(-1 0 0 1 20 60)" fill="white"/>
<rect width="5" height="5" transform="matrix(-1 0 0 1 35 75)" fill="white"/>
<rect width="5" height="5" transform="matrix(-1 0 0 1 35 80)" fill="white"/>
<rect width="5" height="5" transform="matrix(-1 0 0 1 35 95)" fill="#7B79F7"/>
<rect width="5" height="5" transform="matrix(-1 0 0 1 50 80)" fill="#7B79F7"/>
<rect width="5" height="5" transform="matrix(-1 0 0 1 35 100)" fill="#7B79F7"/>
<rect width="5" height="5" transform="matrix(-1 0 0 1 50 85)" fill="#7B79F7"/>
</svg>
