<svg width="104" height="80" viewBox="0 0 104 80" fill="none" xmlns="http://www.w3.org/2000/svg">
<rect width="4.72728" height="4.70588" transform="matrix(-1 0 0 1 70.9091 0)" fill="#7B79F7"/>
<rect width="4.72728" height="4.70588" transform="matrix(-1 0 0 1 70.9091 37.647)" fill="#7B79F7"/>
<rect width="4.72728" height="4.70588" transform="matrix(-1 0 0 1 70.9091 51.7646)" fill="#7B79F7"/>
<rect width="4.72727" height="4.70588" transform="matrix(-1 0 0 1 85.0909 14.1177)" fill="#7B79F7"/>
<rect width="4.72728" height="4.70588" transform="matrix(-1 0 0 1 70.9091 4.70581)" fill="#7B79F7"/>
<rect width="4.72728" height="4.70588" transform="matrix(-1 0 0 1 70.9091 42.353)" fill="#7B79F7"/>
<rect width="4.72728" height="4.70588" transform="matrix(-1 0 0 1 70.9091 56.4707)" fill="#7B79F7"/>
<rect width="4.72727" height="4.70588" transform="matrix(-1 0 0 1 85.0909 18.8235)" fill="#7B79F7"/>
<rect width="4.72727" height="4.70588" transform="matrix(-1 0 0 1 85.0909 28.2354)" fill="#7B79F7"/>
<rect width="4.72727" height="4.70588" transform="matrix(-1 0 0 1 80.3636 28.2354)" fill="#7B79F7"/>
<rect width="4.72728" height="4.70588" transform="matrix(-1 0 0 1 70.9091 9.41187)" fill="#7B79F7"/>
<rect width="4.72728" height="4.70589" transform="matrix(-1 0 0 1 70.9091 47.0588)" fill="#7B79F7"/>
<rect width="4.72728" height="4.70588" transform="matrix(-1 0 0 1 70.9091 61.1765)" fill="#7B79F7"/>
<rect width="4.72727" height="4.70588" transform="matrix(-1 0 0 1 85.0909 23.5293)" fill="#7B79F7"/>
<rect width="4.72727" height="4.70588" transform="matrix(-1 0 0 1 85.0909 32.9412)" fill="#7B79F7"/>
<rect width="4.72727" height="4.70588" transform="matrix(-1 0 0 1 80.3636 32.9412)" fill="#7B79F7"/>
<rect width="4.72727" height="4.70588" transform="matrix(-1 0 0 1 47.2727 0)" fill="#7B79F7"/>
<rect width="4.72727" height="4.70588" transform="matrix(-1 0 0 1 47.2727 37.647)" fill="#7B79F7"/>
<rect width="4.72727" height="4.70588" transform="matrix(-1 0 0 1 47.2727 51.7646)" fill="#7B79F7"/>
<rect width="4.72727" height="4.70588" transform="matrix(-1 0 0 1 42.5455 65.8823)" fill="#7B79F7"/>
<rect width="4.72728" height="4.70588" transform="matrix(-1 0 0 1 70.9091 65.8823)" fill="#7B79F7"/>
<rect width="4.72727" height="4.70588" transform="matrix(-1 0 0 1 18.9091 65.8823)" fill="#7B79F7"/>
<rect width="4.72728" height="4.70588" transform="matrix(-1 0 0 1 23.6364 37.647)" fill="#7B79F7"/>
<rect width="4.72728" height="4.70588" transform="matrix(-1 0 0 1 23.6364 51.7646)" fill="#7B79F7"/>
<rect width="4.72727" height="4.70588" transform="matrix(-1 0 0 1 61.4545 14.1177)" fill="#7B79F7"/>
<rect width="4.72727" height="4.70588" transform="matrix(-1 0 0 1 47.2727 4.70581)" fill="#7B79F7"/>
<rect width="4.72727" height="4.70588" transform="matrix(-1 0 0 1 47.2727 42.353)" fill="#7B79F7"/>
<rect width="4.72727" height="4.70588" transform="matrix(-1 0 0 1 47.2727 56.4707)" fill="#7B79F7"/>
<rect width="4.72727" height="4.70589" transform="matrix(-1 0 0 1 42.5455 70.5881)" fill="#7B79F7"/>
<rect width="4.72728" height="4.70589" transform="matrix(-1 0 0 1 70.9091 70.5881)" fill="#7B79F7"/>
<rect width="4.72727" height="4.70589" transform="matrix(-1 0 0 1 18.9091 70.5881)" fill="#7B79F7"/>
<rect width="4.72728" height="4.70588" transform="matrix(-1 0 0 1 23.6364 42.353)" fill="#7B79F7"/>
<rect width="4.72728" height="4.70588" transform="matrix(-1 0 0 1 23.6364 56.4707)" fill="#7B79F7"/>
<rect width="4.72727" height="4.70588" transform="matrix(-1 0 0 1 61.4545 18.8235)" fill="#221B47"/>
<rect width="4.72727" height="4.70588" transform="matrix(-1 0 0 1 47.2727 9.41187)" fill="#7B79F7"/>
<rect width="4.72727" height="4.70589" transform="matrix(-1 0 0 1 47.2727 47.0588)" fill="#7B79F7"/>
<rect width="4.72727" height="4.70588" transform="matrix(-1 0 0 1 47.2727 61.1765)" fill="#7B79F7"/>
<rect width="4.72727" height="4.70588" transform="matrix(-1 0 0 1 42.5455 75.2942)" fill="#7B79F7"/>
<rect width="4.72728" height="4.70588" transform="matrix(-1 0 0 1 70.9091 75.2942)" fill="#7B79F7"/>
<rect width="4.72727" height="4.70588" transform="matrix(-1 0 0 1 18.9091 75.2942)" fill="#7B79F7"/>
<rect width="4.72728" height="4.70589" transform="matrix(-1 0 0 1 23.6364 47.0588)" fill="#7B79F7"/>
<rect width="4.72728" height="4.70588" transform="matrix(-1 0 0 1 23.6364 61.1765)" fill="#7B79F7"/>
<rect width="4.72727" height="4.70588" transform="matrix(-1 0 0 1 61.4545 23.5293)" fill="#221B47"/>
<rect width="4.72727" height="4.70588" transform="matrix(-1 0 0 1 80.3636 0)" fill="#7B79F7"/>
<rect width="4.72727" height="4.70588" transform="matrix(-1 0 0 1 80.3636 37.647)" fill="#7B79F7"/>
<rect width="4.72727" height="4.70588" transform="matrix(-1 0 0 1 94.5455 37.647)" fill="#7B79F7"/>
<rect width="4.72727" height="4.70588" transform="matrix(-1 0 0 1 94.5455 14.1177)" fill="#7B79F7"/>
<rect width="4.72727" height="4.70588" transform="matrix(-1 0 0 1 80.3636 4.70581)" fill="#7B79F7"/>
<rect width="4.72727" height="4.70588" transform="matrix(-1 0 0 1 80.3636 42.353)" fill="#7B79F7"/>
<rect width="4.72727" height="4.70588" transform="matrix(-1 0 0 1 80.3636 51.7646)" fill="#7B79F7"/>
<rect width="4.72727" height="4.70588" transform="matrix(-1 0 0 1 80.3636 61.1765)" fill="#221B47"/>
<rect width="4.72727" height="4.70589" transform="matrix(-1 0 0 1 80.3636 70.5881)" fill="#221B47"/>
<rect width="4.72727" height="4.70588" transform="matrix(-1 0 0 1 94.5455 42.353)" fill="#7B79F7"/>
<rect width="4.72727" height="4.70588" transform="matrix(-1 0 0 1 94.5455 51.7646)" fill="#221B47"/>
<rect width="4.72727" height="4.70588" transform="matrix(-1 0 0 1 94.5455 18.8235)" fill="#7B79F7"/>
<rect width="4.72727" height="4.70588" transform="matrix(-1 0 0 1 94.5455 28.2354)" fill="#7B79F7"/>
<rect width="4.72727" height="4.70588" transform="matrix(-1 0 0 1 80.3636 9.41187)" fill="#7B79F7"/>
<rect width="4.72727" height="4.70589" transform="matrix(-1 0 0 1 80.3636 47.0588)" fill="#7B79F7"/>
<rect width="4.72727" height="4.70588" transform="matrix(-1 0 0 1 80.3636 56.4707)" fill="#221B47"/>
<rect width="4.72727" height="4.70588" transform="matrix(-1 0 0 1 80.3636 65.8823)" fill="#221B47"/>
<rect width="4.72727" height="4.70588" transform="matrix(-1 0 0 1 80.3636 75.2942)" fill="#221B47"/>
<rect width="4.72727" height="4.70589" transform="matrix(-1 0 0 1 94.5455 47.0588)" fill="#7B79F7"/>
<rect width="4.72727" height="4.70588" transform="matrix(-1 0 0 1 94.5455 56.4707)" fill="#221B47"/>
<rect width="4.72727" height="4.70588" transform="matrix(-1 0 0 1 94.5455 61.1765)" fill="#221B47"/>
<rect width="4.72727" height="4.70588" transform="matrix(-1 0 0 1 94.5455 23.5293)" fill="#7B79F7"/>
<rect width="4.72727" height="4.70588" transform="matrix(-1 0 0 1 94.5455 32.9412)" fill="#7B79F7"/>
<rect width="4.72727" height="4.70588" transform="matrix(-1 0 0 1 56.7273 0)" fill="#7B79F7"/>
<rect width="4.72727" height="4.70588" transform="matrix(-1 0 0 1 56.7273 37.647)" fill="#221B47"/>
<rect width="4.72727" height="4.70588" transform="matrix(-1 0 0 1 56.7273 51.7646)" fill="#7B79F7"/>
<rect width="4.72728" height="4.70588" transform="matrix(-1 0 0 1 70.9091 14.1177)" fill="#7B79F7"/>
<rect width="4.72727" height="4.70588" transform="matrix(-1 0 0 1 56.7273 4.70581)" fill="#7B79F7"/>
<rect width="4.72727" height="4.70588" transform="matrix(-1 0 0 1 56.7273 42.353)" fill="#7B79F7"/>
<rect width="4.72727" height="4.70588" transform="matrix(-1 0 0 1 56.7273 56.4707)" fill="#7B79F7"/>
<rect width="4.72728" height="4.70588" transform="matrix(-1 0 0 1 70.9091 18.8235)" fill="#7B79F7"/>
<rect width="4.72727" height="4.70588" transform="matrix(-1 0 0 1 56.7273 9.41187)" fill="#7B79F7"/>
<rect width="4.72727" height="4.70589" transform="matrix(-1 0 0 1 56.7273 47.0588)" fill="#7B79F7"/>
<rect width="4.72727" height="4.70588" transform="matrix(-1 0 0 1 56.7273 61.1765)" fill="#7B79F7"/>
<rect width="4.72728" height="4.70588" transform="matrix(-1 0 0 1 70.9091 23.5293)" fill="#7B79F7"/>
<rect width="4.72728" height="4.70588" transform="matrix(-1 0 0 1 33.0909 0)" fill="#7B79F7"/>
<rect width="4.72728" height="4.70588" transform="matrix(-1 0 0 1 33.0909 14.1177)" fill="#7B79F7"/>
<rect width="4.72727" height="4.70588" transform="matrix(-1 0 0 1 18.9091 14.1177)" fill="#7B79F7"/>
<rect width="4.72728" height="4.70588" transform="matrix(-1 0 0 1 33.0909 37.647)" fill="#221B47"/>
<rect width="4.72728" height="4.70588" transform="matrix(-1 0 0 1 33.0909 51.7646)" fill="#7B79F7"/>
<rect width="4.72727" height="4.70588" transform="matrix(-1 0 0 1 47.2727 14.1177)" fill="#7B79F7"/>
<rect width="4.72728" height="4.70588" transform="matrix(-1 0 0 1 33.0909 4.70581)" fill="#7B79F7"/>
<rect width="4.72728" height="4.70588" transform="matrix(-1 0 0 1 33.0909 18.8235)" fill="#7B79F7"/>
<rect width="4.72727" height="4.70588" transform="matrix(-1 0 0 1 18.9091 18.8235)" fill="#7B79F7"/>
<rect width="4.72728" height="4.70588" transform="matrix(-1 0 0 1 33.0909 42.353)" fill="#7B79F7"/>
<rect width="4.72728" height="4.70588" transform="matrix(-1 0 0 1 33.0909 56.4707)" fill="#7B79F7"/>
<rect width="4.72727" height="4.70588" transform="matrix(-1 0 0 1 9.45453 42.353)" fill="#7B79F7"/>
<rect width="4.72727" height="4.70588" transform="matrix(-1 0 0 1 47.2727 18.8235)" fill="#7B79F7"/>
<rect width="4.72728" height="4.70588" transform="matrix(-1 0 0 1 33.0909 9.41187)" fill="#7B79F7"/>
<rect width="4.72728" height="4.70588" transform="matrix(-1 0 0 1 33.0909 23.5293)" fill="#7B79F7"/>
<rect width="4.72727" height="4.70588" transform="matrix(-1 0 0 1 18.9091 23.5293)" fill="#7B79F7"/>
<rect width="4.72728" height="4.70589" transform="matrix(-1 0 0 1 33.0909 47.0588)" fill="#7B79F7"/>
<rect width="4.72728" height="4.70588" transform="matrix(-1 0 0 1 33.0909 61.1765)" fill="#7B79F7"/>
<rect width="4.72727" height="4.70589" transform="matrix(-1 0 0 1 9.45453 47.0588)" fill="#7B79F7"/>
<rect width="4.72727" height="4.70588" transform="matrix(-1 0 0 1 47.2727 23.5293)" fill="#7B79F7"/>
<rect width="4.72727" height="4.70588" transform="matrix(-1 0 0 1 47.2727 28.2354)" fill="#7B79F7"/>
<rect width="4.72727" height="4.70588" transform="matrix(-1 0 0 1 47.2727 32.9412)" fill="#7B79F7"/>
<rect width="4.72727" height="4.70588" transform="matrix(-1 0 0 1 75.6364 0)" fill="#7B79F7"/>
<rect width="4.72727" height="4.70588" transform="matrix(-1 0 0 1 75.6364 37.647)" fill="#7B79F7"/>
<rect width="4.72727" height="4.70588" transform="matrix(-1 0 0 1 75.6364 51.7646)" fill="#7B79F7"/>
<rect width="4.72727" height="4.70588" transform="matrix(-1 0 0 1 89.8182 14.1177)" fill="#7B79F7"/>
<rect width="4.72727" height="4.70588" transform="matrix(-1 0 0 1 75.6364 4.70581)" fill="#7B79F7"/>
<rect width="4.72727" height="4.70588" transform="matrix(-1 0 0 1 75.6364 42.353)" fill="#7B79F7"/>
<rect width="4.72727" height="4.70588" transform="matrix(-1 0 0 1 75.6364 56.4707)" fill="#7B79F7"/>
<rect width="4.72727" height="4.70588" transform="matrix(-1 0 0 1 89.8182 18.8235)" fill="#7B79F7"/>
<rect width="4.72727" height="4.70588" transform="matrix(-1 0 0 1 89.8182 28.2354)" fill="#7B79F7"/>
<rect width="4.72727" height="4.70588" transform="matrix(-1 0 0 1 75.6364 9.41187)" fill="#7B79F7"/>
<rect width="4.72727" height="4.70589" transform="matrix(-1 0 0 1 75.6364 47.0588)" fill="#7B79F7"/>
<rect width="4.72727" height="4.70588" transform="matrix(-1 0 0 1 75.6364 61.1765)" fill="#7B79F7"/>
<rect width="4.72727" height="4.70588" transform="matrix(-1 0 0 1 89.8182 23.5293)" fill="#7B79F7"/>
<rect width="4.72727" height="4.70588" transform="matrix(-1 0 0 1 89.8182 32.9412)" fill="#7B79F7"/>
<rect width="4.72728" height="4.70588" transform="matrix(-1 0 0 1 52 0)" fill="#7B79F7"/>
<rect width="4.72728" height="4.70588" transform="matrix(-1 0 0 1 52 37.647)" fill="#221B47"/>
<rect width="4.72728" height="4.70588" transform="matrix(-1 0 0 1 52 51.7646)" fill="#7B79F7"/>
<rect width="4.72727" height="4.70588" transform="matrix(-1 0 0 1 47.2727 65.8823)" fill="#7B79F7"/>
<rect width="4.72727" height="4.70588" transform="matrix(-1 0 0 1 75.6364 65.8823)" fill="#7B79F7"/>
<rect width="4.72727" height="4.70588" transform="matrix(-1 0 0 1 66.1818 14.1177)" fill="#7B79F7"/>
<rect width="4.72728" height="4.70588" transform="matrix(-1 0 0 1 52 4.70581)" fill="#7B79F7"/>
<rect width="4.72728" height="4.70588" transform="matrix(-1 0 0 1 52 42.353)" fill="#7B79F7"/>
<rect width="4.72728" height="4.70588" transform="matrix(-1 0 0 1 52 56.4707)" fill="#7B79F7"/>
<rect width="4.72727" height="4.70589" transform="matrix(-1 0 0 1 47.2727 70.5881)" fill="#7B79F7"/>
<rect width="4.72727" height="4.70589" transform="matrix(-1 0 0 1 75.6364 70.5881)" fill="#7B79F7"/>
<rect width="4.72727" height="4.70588" transform="matrix(-1 0 0 1 66.1818 18.8235)" fill="#7B79F7"/>
<rect width="4.72728" height="4.70588" transform="matrix(-1 0 0 1 52 9.41187)" fill="#7B79F7"/>
<rect width="4.72728" height="4.70589" transform="matrix(-1 0 0 1 52 47.0588)" fill="#7B79F7"/>
<rect width="4.72728" height="4.70588" transform="matrix(-1 0 0 1 52 61.1765)" fill="#7B79F7"/>
<rect width="4.72727" height="4.70588" transform="matrix(-1 0 0 1 47.2727 75.2942)" fill="#7B79F7"/>
<rect width="4.72727" height="4.70588" transform="matrix(-1 0 0 1 75.6364 75.2942)" fill="#7B79F7"/>
<rect width="4.72727" height="4.70588" transform="matrix(-1 0 0 1 66.1818 23.5293)" fill="#7B79F7"/>
<rect width="4.72726" height="4.70588" transform="matrix(-1 0 0 1 28.3636 0)" fill="#7B79F7"/>
<rect width="4.72726" height="4.70588" transform="matrix(-1 0 0 1 28.3636 14.1177)" fill="#7B79F7"/>
<rect width="4.72726" height="4.70588" transform="matrix(-1 0 0 1 28.3636 37.647)" fill="#7B79F7"/>
<rect width="4.72726" height="4.70588" transform="matrix(-1 0 0 1 28.3636 51.7646)" fill="#7B79F7"/>
<rect width="4.72727" height="4.70588" transform="matrix(-1 0 0 1 42.5455 14.1177)" fill="#7B79F7"/>
<rect width="4.72726" height="4.70588" transform="matrix(-1 0 0 1 28.3636 4.70581)" fill="#7B79F7"/>
<rect width="4.72726" height="4.70588" transform="matrix(-1 0 0 1 28.3636 18.8235)" fill="#7B79F7"/>
<rect width="4.72727" height="4.70588" transform="matrix(-1 0 0 1 14.1818 18.8235)" fill="#7B79F7"/>
<rect width="4.72726" height="4.70588" transform="matrix(-1 0 0 1 28.3636 42.353)" fill="#7B79F7"/>
<rect width="4.72726" height="4.70588" transform="matrix(-1 0 0 1 28.3636 56.4707)" fill="#7B79F7"/>
<rect width="4.72727" height="4.70588" transform="matrix(-1 0 0 1 4.72729 42.353)" fill="#7B79F7"/>
<rect width="4.72727" height="4.70588" transform="matrix(-1 0 0 1 42.5455 18.8235)" fill="#7B79F7"/>
<rect width="4.72726" height="4.70588" transform="matrix(-1 0 0 1 28.3636 9.41187)" fill="#7B79F7"/>
<rect width="4.72726" height="4.70588" transform="matrix(-1 0 0 1 28.3636 23.5293)" fill="#221B47"/>
<rect width="4.72727" height="4.70588" transform="matrix(-1 0 0 1 14.1818 23.5293)" fill="#7B79F7"/>
<rect width="4.72726" height="4.70589" transform="matrix(-1 0 0 1 28.3636 47.0588)" fill="#7B79F7"/>
<rect width="4.72726" height="4.70588" transform="matrix(-1 0 0 1 28.3636 61.1765)" fill="#7B79F7"/>
<rect width="4.72727" height="4.70589" transform="matrix(-1 0 0 1 4.72729 47.0588)" fill="#7B79F7"/>
<rect width="4.72727" height="4.70588" transform="matrix(-1 0 0 1 42.5455 23.5293)" fill="#7B79F7"/>
<rect width="4.72727" height="4.70588" transform="matrix(-1 0 0 1 42.5455 28.2354)" fill="#7B79F7"/>
<rect width="4.72727" height="4.70588" transform="matrix(-1 0 0 1 42.5455 32.9412)" fill="#7B79F7"/>
<rect width="4.72727" height="4.70588" transform="matrix(-1 0 0 1 89.8182 37.647)" fill="#7B79F7"/>
<rect width="4.72727" height="4.70588" transform="matrix(-1 0 0 1 104 37.647)" fill="#7B79F7"/>
<rect width="4.72727" height="4.70588" transform="matrix(-1 0 0 1 89.8182 4.70581)" fill="#7B79F7"/>
<rect width="4.72727" height="4.70588" transform="matrix(-1 0 0 1 89.8182 42.353)" fill="#7B79F7"/>
<rect width="4.72727" height="4.70588" transform="matrix(-1 0 0 1 89.8182 51.7646)" fill="#221B47"/>
<rect width="4.72727" height="4.70588" transform="matrix(-1 0 0 1 89.8182 61.1765)" fill="#221B47"/>
<rect width="4.72727" height="4.70589" transform="matrix(-1 0 0 1 89.8182 70.5881)" fill="#221B47"/>
<rect width="4.72727" height="4.70588" transform="matrix(-1 0 0 1 9.45453 51.7646)" fill="#221B47"/>
<rect width="4.72727" height="4.70588" transform="matrix(-1 0 0 1 104 42.353)" fill="#7B79F7"/>
<rect width="4.72727" height="4.70588" transform="matrix(-1 0 0 1 104 51.7646)" fill="#221B47"/>
<rect width="4.72727" height="4.70588" transform="matrix(-1 0 0 1 104 28.2354)" fill="#7B79F7"/>
<rect width="4.72727" height="4.70588" transform="matrix(-1 0 0 1 89.8182 9.41187)" fill="#7B79F7"/>
<rect width="4.72727" height="4.70589" transform="matrix(-1 0 0 1 89.8182 47.0588)" fill="#7B79F7"/>
<rect width="4.72727" height="4.70588" transform="matrix(-1 0 0 1 89.8182 56.4707)" fill="#221B47"/>
<rect width="4.72727" height="4.70588" transform="matrix(-1 0 0 1 89.8182 65.8823)" fill="#221B47"/>
<rect width="4.72727" height="4.70588" transform="matrix(-1 0 0 1 89.8182 75.2942)" fill="#221B47"/>
<rect width="4.72727" height="4.70588" transform="matrix(-1 0 0 1 9.45453 56.4707)" fill="#221B47"/>
<rect width="4.72727" height="4.70588" transform="matrix(-1 0 0 1 61.4545 28.2354)" fill="#221B47"/>
<rect width="4.72727" height="4.70588" transform="matrix(-1 0 0 1 37.8182 28.2354)" fill="#221B47"/>
<rect width="4.72728" height="4.70588" transform="matrix(-1 0 0 1 70.9091 28.2354)" fill="#221B47"/>
<rect width="4.72727" height="4.70588" transform="matrix(-1 0 0 1 9.45453 61.1765)" fill="#221B47"/>
<rect width="4.72727" height="4.70588" transform="matrix(-1 0 0 1 61.4545 32.9412)" fill="#7B79F7"/>
<rect width="4.72727" height="4.70588" transform="matrix(-1 0 0 1 37.8182 32.9412)" fill="#221B47"/>
<rect width="4.72728" height="4.70588" transform="matrix(-1 0 0 1 70.9091 32.9412)" fill="#221B47"/>
<rect width="4.72727" height="4.70589" transform="matrix(-1 0 0 1 104 47.0588)" fill="#7B79F7"/>
<rect width="4.72727" height="4.70588" transform="matrix(-1 0 0 1 104 56.4707)" fill="#221B47"/>
<rect width="4.72727" height="4.70588" transform="matrix(-1 0 0 1 104 32.9412)" fill="#7B79F7"/>
<rect width="4.72727" height="4.70588" transform="matrix(-1 0 0 1 66.1818 0)" fill="#7B79F7"/>
<rect width="4.72727" height="4.70588" transform="matrix(-1 0 0 1 66.1818 37.647)" fill="#7B79F7"/>
<rect width="4.72727" height="4.70588" transform="matrix(-1 0 0 1 66.1818 51.7646)" fill="#7B79F7"/>
<rect width="4.72727" height="4.70588" transform="matrix(-1 0 0 1 80.3636 14.1177)" fill="#7B79F7"/>
<rect width="4.72727" height="4.70588" transform="matrix(-1 0 0 1 66.1818 4.70581)" fill="#7B79F7"/>
<rect width="4.72727" height="4.70588" transform="matrix(-1 0 0 1 66.1818 42.353)" fill="#7B79F7"/>
<rect width="4.72727" height="4.70588" transform="matrix(-1 0 0 1 66.1818 56.4707)" fill="#7B79F7"/>
<rect width="4.72727" height="4.70588" transform="matrix(-1 0 0 1 80.3636 18.8235)" fill="#7B79F7"/>
<rect width="4.72727" height="4.70588" transform="matrix(-1 0 0 1 66.1818 9.41187)" fill="#7B79F7"/>
<rect width="4.72727" height="4.70589" transform="matrix(-1 0 0 1 66.1818 47.0588)" fill="#7B79F7"/>
<rect width="4.72727" height="4.70588" transform="matrix(-1 0 0 1 66.1818 61.1765)" fill="#7B79F7"/>
<rect width="4.72727" height="4.70588" transform="matrix(-1 0 0 1 80.3636 23.5293)" fill="#7B79F7"/>
<rect width="4.72727" height="4.70588" transform="matrix(-1 0 0 1 42.5455 0)" fill="#7B79F7"/>
<rect width="4.72727" height="4.70588" transform="matrix(-1 0 0 1 42.5455 37.647)" fill="#7B79F7"/>
<rect width="4.72727" height="4.70588" transform="matrix(-1 0 0 1 42.5455 51.7646)" fill="#7B79F7"/>
<rect width="4.72727" height="4.70588" transform="matrix(-1 0 0 1 37.8182 65.8823)" fill="#7B79F7"/>
<rect width="4.72727" height="4.70588" transform="matrix(-1 0 0 1 66.1818 65.8823)" fill="#7B79F7"/>
<rect width="4.72727" height="4.70588" transform="matrix(-1 0 0 1 14.1818 65.8823)" fill="#7B79F7"/>
<rect width="4.72727" height="4.70588" transform="matrix(-1 0 0 1 9.45453 65.8823)" fill="#7B79F7"/>
<rect width="4.72727" height="4.70588" transform="matrix(-1 0 0 1 18.9091 37.647)" fill="#7B79F7"/>
<rect width="4.72727" height="4.70588" transform="matrix(-1 0 0 1 18.9091 51.7646)" fill="#7B79F7"/>
<rect width="4.72727" height="4.70588" transform="matrix(-1 0 0 1 56.7273 14.1177)" fill="#221B47"/>
<rect width="4.72727" height="4.70588" transform="matrix(-1 0 0 1 42.5455 4.70581)" fill="#7B79F7"/>
<rect width="4.72727" height="4.70588" transform="matrix(-1 0 0 1 42.5455 42.353)" fill="#7B79F7"/>
<rect width="4.72727" height="4.70588" transform="matrix(-1 0 0 1 42.5455 56.4707)" fill="#7B79F7"/>
<rect width="4.72727" height="4.70589" transform="matrix(-1 0 0 1 37.8182 70.5881)" fill="#7B79F7"/>
<rect width="4.72727" height="4.70589" transform="matrix(-1 0 0 1 66.1818 70.5881)" fill="#7B79F7"/>
<rect width="4.72727" height="4.70589" transform="matrix(-1 0 0 1 14.1818 70.5881)" fill="#7B79F7"/>
<rect width="4.72727" height="4.70589" transform="matrix(-1 0 0 1 9.45453 70.5881)" fill="#7B79F7"/>
<rect width="4.72727" height="4.70588" transform="matrix(-1 0 0 1 18.9091 42.353)" fill="#7B79F7"/>
<rect width="4.72727" height="4.70588" transform="matrix(-1 0 0 1 18.9091 56.4707)" fill="#7B79F7"/>
<rect width="4.72727" height="4.70588" transform="matrix(-1 0 0 1 56.7273 18.8235)" fill="#221B47"/>
<rect width="4.72727" height="4.70588" transform="matrix(-1 0 0 1 42.5455 9.41187)" fill="#7B79F7"/>
<rect width="4.72727" height="4.70589" transform="matrix(-1 0 0 1 42.5455 47.0588)" fill="#7B79F7"/>
<rect width="4.72727" height="4.70588" transform="matrix(-1 0 0 1 42.5455 61.1765)" fill="#7B79F7"/>
<rect width="4.72727" height="4.70588" transform="matrix(-1 0 0 1 37.8182 75.2942)" fill="#7B79F7"/>
<rect width="4.72727" height="4.70588" transform="matrix(-1 0 0 1 66.1818 75.2942)" fill="#7B79F7"/>
<rect width="4.72727" height="4.70588" transform="matrix(-1 0 0 1 14.1818 75.2942)" fill="#7B79F7"/>
<rect width="4.72727" height="4.70588" transform="matrix(-1 0 0 1 9.45453 75.2942)" fill="#7B79F7"/>
<rect width="4.72727" height="4.70589" transform="matrix(-1 0 0 1 18.9091 47.0588)" fill="#7B79F7"/>
<rect width="4.72727" height="4.70588" transform="matrix(-1 0 0 1 18.9091 61.1765)" fill="#7B79F7"/>
<rect width="4.72727" height="4.70588" transform="matrix(-1 0 0 1 56.7273 23.5293)" fill="#221B47"/>
<rect width="4.72727" height="4.70588" transform="matrix(-1 0 0 1 85.0909 37.647)" fill="#7B79F7"/>
<rect width="4.72727" height="4.70588" transform="matrix(-1 0 0 1 99.2727 37.647)" fill="#7B79F7"/>
<rect width="4.72727" height="4.70588" transform="matrix(-1 0 0 1 85.0909 4.70581)" fill="#7B79F7"/>
<rect width="4.72727" height="4.70588" transform="matrix(-1 0 0 1 85.0909 42.353)" fill="#7B79F7"/>
<rect width="4.72727" height="4.70588" transform="matrix(-1 0 0 1 85.0909 51.7646)" fill="#7B79F7"/>
<rect width="4.72727" height="4.70588" transform="matrix(-1 0 0 1 85.0909 61.1765)" fill="#221B47"/>
<rect width="4.72727" height="4.70589" transform="matrix(-1 0 0 1 85.0909 70.5881)" fill="#221B47"/>
<rect width="4.72727" height="4.70588" transform="matrix(-1 0 0 1 4.72729 51.7646)" fill="#221B47"/>
<rect width="4.72727" height="4.70588" transform="matrix(-1 0 0 1 99.2727 42.353)" fill="#7B79F7"/>
<rect width="4.72727" height="4.70588" transform="matrix(-1 0 0 1 99.2727 51.7646)" fill="#221B47"/>
<rect width="4.72727" height="4.70588" transform="matrix(-1 0 0 1 99.2727 28.2354)" fill="#7B79F7"/>
<rect width="4.72727" height="4.70588" transform="matrix(-1 0 0 1 85.0909 9.41187)" fill="#7B79F7"/>
<rect width="4.72727" height="4.70589" transform="matrix(-1 0 0 1 85.0909 47.0588)" fill="#7B79F7"/>
<rect width="4.72727" height="4.70588" transform="matrix(-1 0 0 1 85.0909 56.4707)" fill="#221B47"/>
<rect width="4.72727" height="4.70588" transform="matrix(-1 0 0 1 85.0909 65.8823)" fill="#221B47"/>
<rect width="4.72727" height="4.70588" transform="matrix(-1 0 0 1 85.0909 75.2942)" fill="#221B47"/>
<rect width="4.72727" height="4.70588" transform="matrix(-1 0 0 1 4.72729 56.4707)" fill="#221B47"/>
<rect width="4.72727" height="4.70588" transform="matrix(-1 0 0 1 56.7273 28.2354)" fill="#7B79F7"/>
<rect width="4.72728" height="4.70588" transform="matrix(-1 0 0 1 33.0909 28.2354)" fill="#221B47"/>
<rect width="4.72726" height="4.70588" transform="matrix(-1 0 0 1 28.3636 28.2354)" fill="#221B47"/>
<rect width="4.72727" height="4.70588" transform="matrix(-1 0 0 1 66.1818 28.2354)" fill="#221B47"/>
<rect width="4.72727" height="4.70588" transform="matrix(-1 0 0 1 75.6364 28.2354)" fill="#7B79F7"/>
<rect width="4.72727" height="4.70588" transform="matrix(-1 0 0 1 56.7273 32.9412)" fill="#7B79F7"/>
<rect width="4.72728" height="4.70588" transform="matrix(-1 0 0 1 33.0909 32.9412)" fill="#221B47"/>
<rect width="4.72726" height="4.70588" transform="matrix(-1 0 0 1 28.3636 32.9412)" fill="#221B47"/>
<rect width="4.72727" height="4.70588" transform="matrix(-1 0 0 1 66.1818 32.9412)" fill="#221B47"/>
<rect width="4.72727" height="4.70588" transform="matrix(-1 0 0 1 75.6364 32.9412)" fill="#221B47"/>
<rect width="4.72727" height="4.70589" transform="matrix(-1 0 0 1 99.2727 47.0588)" fill="#7B79F7"/>
<rect width="4.72727" height="4.70588" transform="matrix(-1 0 0 1 99.2727 56.4707)" fill="#221B47"/>
<rect width="4.72727" height="4.70588" transform="matrix(-1 0 0 1 99.2727 61.1765)" fill="#221B47"/>
<rect width="4.72727" height="4.70588" transform="matrix(-1 0 0 1 99.2727 23.5293)" fill="#7B79F7"/>
<rect width="4.72727" height="4.70588" transform="matrix(-1 0 0 1 99.2727 32.9412)" fill="#7B79F7"/>
<rect width="4.72727" height="4.70588" transform="matrix(-1 0 0 1 61.4545 0)" fill="#7B79F7"/>
<rect width="4.72727" height="4.70588" transform="matrix(-1 0 0 1 61.4545 37.647)" fill="#7B79F7"/>
<rect width="4.72727" height="4.70588" transform="matrix(-1 0 0 1 61.4545 51.7646)" fill="#7B79F7"/>
<rect width="4.72727" height="4.70588" transform="matrix(-1 0 0 1 75.6364 14.1177)" fill="#7B79F7"/>
<rect width="4.72727" height="4.70588" transform="matrix(-1 0 0 1 61.4545 4.70581)" fill="#7B79F7"/>
<rect width="4.72727" height="4.70588" transform="matrix(-1 0 0 1 61.4545 42.353)" fill="#7B79F7"/>
<rect width="4.72727" height="4.70588" transform="matrix(-1 0 0 1 61.4545 56.4707)" fill="#7B79F7"/>
<rect width="4.72727" height="4.70588" transform="matrix(-1 0 0 1 75.6364 18.8235)" fill="#7B79F7"/>
<rect width="4.72727" height="4.70588" transform="matrix(-1 0 0 1 61.4545 9.41187)" fill="#7B79F7"/>
<rect width="4.72727" height="4.70589" transform="matrix(-1 0 0 1 61.4545 47.0588)" fill="#7B79F7"/>
<rect width="4.72727" height="4.70588" transform="matrix(-1 0 0 1 61.4545 61.1765)" fill="#7B79F7"/>
<rect width="4.72727" height="4.70588" transform="matrix(-1 0 0 1 75.6364 23.5293)" fill="#7B79F7"/>
<rect width="4.72727" height="4.70588" transform="matrix(-1 0 0 1 37.8182 0)" fill="#7B79F7"/>
<rect width="4.72727" height="4.70588" transform="matrix(-1 0 0 1 37.8182 14.1177)" fill="#7B79F7"/>
<rect width="4.72728" height="4.70588" transform="matrix(-1 0 0 1 23.6364 14.1177)" fill="#7B79F7"/>
<rect width="4.72727" height="4.70588" transform="matrix(-1 0 0 1 37.8182 37.647)" fill="#221B47"/>
<rect width="4.72727" height="4.70588" transform="matrix(-1 0 0 1 37.8182 51.7646)" fill="#7B79F7"/>
<rect width="4.72727" height="4.70588" transform="matrix(-1 0 0 1 14.1818 51.7646)" fill="#7B79F7"/>
<rect width="4.72728" height="4.70588" transform="matrix(-1 0 0 1 52 14.1177)" fill="#7B79F7"/>
<rect width="4.72727" height="4.70588" transform="matrix(-1 0 0 1 37.8182 4.70581)" fill="#7B79F7"/>
<rect width="4.72727" height="4.70588" transform="matrix(-1 0 0 1 37.8182 18.8235)" fill="#7B79F7"/>
<rect width="4.72728" height="4.70588" transform="matrix(-1 0 0 1 23.6364 18.8235)" fill="#7B79F7"/>
<rect width="4.72727" height="4.70588" transform="matrix(-1 0 0 1 37.8182 42.353)" fill="#7B79F7"/>
<rect width="4.72727" height="4.70588" transform="matrix(-1 0 0 1 37.8182 56.4707)" fill="#7B79F7"/>
<rect width="4.72727" height="4.70588" transform="matrix(-1 0 0 1 14.1818 42.353)" fill="#7B79F7"/>
<rect width="4.72727" height="4.70588" transform="matrix(-1 0 0 1 14.1818 56.4707)" fill="#7B79F7"/>
<rect width="4.72728" height="4.70588" transform="matrix(-1 0 0 1 52 18.8235)" fill="#221B47"/>
<rect width="4.72727" height="4.70588" transform="matrix(-1 0 0 1 37.8182 9.41187)" fill="#7B79F7"/>
<rect width="4.72727" height="4.70588" transform="matrix(-1 0 0 1 37.8182 23.5293)" fill="#7B79F7"/>
<rect width="4.72728" height="4.70588" transform="matrix(-1 0 0 1 23.6364 23.5293)" fill="#221B47"/>
<rect width="4.72727" height="4.70589" transform="matrix(-1 0 0 1 37.8182 47.0588)" fill="#7B79F7"/>
<rect width="4.72727" height="4.70588" transform="matrix(-1 0 0 1 37.8182 61.1765)" fill="#7B79F7"/>
<rect width="4.72727" height="4.70589" transform="matrix(-1 0 0 1 14.1818 47.0588)" fill="#7B79F7"/>
<rect width="4.72727" height="4.70588" transform="matrix(-1 0 0 1 14.1818 61.1765)" fill="#7B79F7"/>
<rect width="4.72728" height="4.70588" transform="matrix(-1 0 0 1 52 23.5293)" fill="#221B47"/>
<rect width="4.72728" height="4.70588" transform="matrix(-1 0 0 1 52 28.2354)" fill="#221B47"/>
<rect width="4.72728" height="4.70588" transform="matrix(-1 0 0 1 52 32.9412)" fill="#221B47"/>
</svg>
