<svg width="143" height="190" viewBox="0 0 143 190" fill="none" xmlns="http://www.w3.org/2000/svg">
<path d="M83 120L83 125L78 125L78 120L83 120Z" fill="#9695F8"/>
<path d="M83 115L83 120L78 120L78 115L83 115Z" fill="#9695F8"/>
<path d="M83 190L83 185L78 185L78 190L83 190Z" fill="#9695F8"/>
<path d="M83 125L83 130L78 130L78 125L83 125Z" fill="#605EE8"/>
<path d="M83 185L83 180L78 180L78 185L83 185Z" fill="#605EE8"/>
<path d="M83 130L83 135L78 135L78 130L83 130Z" fill="#7B79F7"/>
<path d="M83 180L83 175L78 175L78 180L83 180Z" fill="#605EE8"/>
<path d="M83 140L83 145L78 145L78 140L83 140Z" fill="#7B79F7"/>
<path d="M83 170L83 165L78 165L78 170L83 170Z" fill="#7B79F7"/>
<path d="M83 155L83 160L78 160L78 155L83 155Z" fill="#7B79F7"/>
<path d="M83 135L83 140L78 140L78 135L83 135Z" fill="#9695F8"/>
<path d="M83 175L83 170L78 170L78 175L83 175Z" fill="#7B79F7"/>
<path d="M83 150L83 155L78 155L78 150L83 150Z" fill="#7B79F7"/>
<path d="M83 145L83 150L78 150L78 145L83 145Z" fill="#7B79F7"/>
<path d="M83 160L83 165L78 165L78 160L83 160Z" fill="#7B79F7"/>
<path d="M68 130L68 135L63 135L63 130L68 130Z" fill="#9695F8"/>
<path d="M68 180L68 175L63 175L63 180L68 180Z" fill="#9695F8"/>
<path d="M68 140L68 145L63 145L63 140L68 140Z" fill="#7B79F7"/>
<path d="M68 170L68 165L63 165L63 170L68 170Z" fill="#7B79F7"/>
<path d="M68 155L68 160L63 160L63 155L68 155Z" fill="#7B79F7"/>
<path d="M68 135L68 140L63 140L63 135L68 135Z" fill="#605EE8"/>
<path d="M68 175L68 170L63 170L63 175L68 175Z" fill="#605EE8"/>
<path d="M68 150L68 155L63 155L63 150L68 150Z" fill="#7B79F7"/>
<path d="M68 145L68 150L63 150L63 145L68 145Z" fill="#7B79F7"/>
<path d="M68 160L68 165L63 165L63 160L68 160Z" fill="#7B79F7"/>
<path d="M78 125L78 130L73 130L73 125L78 125Z" fill="#9695F8"/>
<path d="M78 185L78 180L73 180L73 185L78 185Z" fill="#9695F8"/>
<path d="M73 125L73 130L68 130L68 125L73 125Z" fill="#9695F8"/>
<path d="M73 185L73 180L68 180L68 185L73 185Z" fill="#9695F8"/>
<path d="M78 130L78 135L73 135L73 130L78 130Z" fill="#605EE8"/>
<path d="M78 180L78 175L73 175L73 180L78 180Z" fill="#605EE8"/>
<path d="M78 140L78 145L73 145L73 140L78 140Z" fill="#9695F8"/>
<path d="M78 170L78 165L73 165L73 170L78 170Z" fill="#9695F8"/>
<path d="M78 155L78 160L73 160L73 155L78 155Z" fill="#7B79F7"/>
<path d="M78 135L78 140L73 140L73 135L78 135Z" fill="#7B79F7"/>
<path d="M78 175L78 170L73 170L73 175L78 175Z" fill="#605EE8"/>
<path d="M78 150L78 155L73 155L73 150L78 150Z" fill="#7B79F7"/>
<path d="M78 145L78 150L73 150L73 145L78 145Z" fill="#7B79F7"/>
<path d="M78 160L78 165L73 165L73 160L78 160Z" fill="#7B79F7"/>
<path d="M63 130L63 135L58 135L58 130L63 130Z" fill="#9695F8"/>
<path d="M63 180L63 175L58 175L58 180L63 180Z" fill="#9695F8"/>
<path d="M63 140L63 145L58 145L58 140L63 140Z" fill="#7B79F7"/>
<path d="M63 170L63 165L58 165L58 170L63 170Z" fill="#605EE8"/>
<path d="M58 140L58 145L53 145L53 140L58 140Z" fill="#605EE8"/>
<path d="M58 170L58 165L53 165L53 170L58 170Z" fill="#605EE8"/>
<path d="M128 140L128 145L133 145L133 140L128 140Z" fill="#605EE8"/>
<path d="M128 170L128 165L133 165L133 170L128 170Z" fill="#605EE8"/>
<path d="M53 140L53 145L48 145L48 140L53 140Z" fill="#9695F8"/>
<path d="M53 170L53 165L48 165L48 170L53 170Z" fill="#9695F8"/>
<path d="M133 140L133 145L138 145L138 140L133 140Z" fill="#9695F8"/>
<path d="M133 170L133 165L138 165L138 170L133 170Z" fill="#9695F8"/>
<path d="M63 155L63 160L58 160L58 155L63 155Z" fill="#7B79F7"/>
<path d="M58 155L58 160L53 160L53 155L58 155Z" fill="#7B79F7"/>
<path d="M128 155L128 160L133 160L133 155L128 155Z" fill="#605EE8"/>
<path d="M53 155L53 160L48 160L48 155L53 155Z" fill="#605EE8"/>
<path d="M48 155L48 160L43 160L43 155L48 155Z" fill="#9695F8"/>
<path d="M133 155L133 160L138 160L138 155L133 155Z" fill="#605EE8"/>
<path d="M138 155L138 160L143 160L143 155L138 155Z" fill="#9695F8"/>
<path d="M63 135L63 140L58 140L58 135L63 135Z" fill="#605EE8"/>
<path d="M63 175L63 170L58 170L58 175L63 175Z" fill="#605EE8"/>
<path d="M58 135L58 140L53 140L53 135L58 135Z" fill="#9695F8"/>
<path d="M58 175L58 170L53 170L53 175L58 175Z" fill="#9695F8"/>
<path d="M128 135L128 140L133 140L133 135L128 135Z" fill="#9695F8"/>
<path d="M128 175L128 170L133 170L133 175L128 175Z" fill="#9695F8"/>
<path d="M63 150L63 155L58 155L58 150L63 150Z" fill="#7B79F7"/>
<path d="M58 150L58 155L53 155L53 150L58 150Z" fill="#7B79F7"/>
<path d="M128 150L128 155L133 155L133 150L128 150Z" fill="#605EE8"/>
<path d="M53 150L53 155L48 155L48 150L53 150Z" fill="#605EE8"/>
<path d="M48 150L48 155L43 155L43 150L48 150Z" fill="#9695F8"/>
<path d="M133 150L133 155L138 155L138 150L133 150Z" fill="#605EE8"/>
<path d="M138 150L138 155L143 155L143 150L138 150Z" fill="#9695F8"/>
<path d="M63 145L63 150L58 150L58 145L63 145Z" fill="#7B79F7"/>
<path d="M58 145L58 150L53 150L53 145L58 145Z" fill="#7B79F7"/>
<path d="M128 145L128 150L133 150L133 145L128 145Z" fill="#605EE8"/>
<path d="M53 145L53 150L48 150L48 145L53 145Z" fill="#605EE8"/>
<path d="M48 145L48 150L43 150L43 145L48 145Z" fill="#9695F8"/>
<path d="M133 145L133 150L138 150L138 145L133 145Z" fill="#605EE8"/>
<path d="M138 145L138 150L143 150L143 145L138 145Z" fill="#9695F8"/>
<path d="M63 160L63 165L58 165L58 160L63 160Z" fill="#7B79F7"/>
<path d="M58 160L58 165L53 165L53 160L58 160Z" fill="#7B79F7"/>
<path d="M53 160L53 165L48 165L48 160L53 160Z" fill="#605EE8"/>
<path d="M48 160L48 165L43 165L43 160L48 160Z" fill="#9695F8"/>
<path d="M128 160L128 165L133 165L133 160L128 160Z" fill="#605EE8"/>
<path d="M133 160L133 165L138 165L138 160L133 160Z" fill="#605EE8"/>
<path d="M138 160L138 165L143 165L143 160L138 160Z" fill="#9695F8"/>
<path d="M93 120L93 125L88 125L88 120L93 120Z" fill="#7B79F7"/>
<path d="M93 115L93 120L88 120L88 115L93 115Z" fill="#7B79F7"/>
<path d="M93 110L93 115L88 115L88 110L93 110Z" fill="#9695F8"/>
<path d="M93 190L93 185L88 185L88 190L93 190Z" fill="#9695F8"/>
<path d="M93 125L93 130L88 130L88 125L93 125Z" fill="#7B79F7"/>
<path d="M93 185L93 180L88 180L88 185L93 185Z" fill="#605EE8"/>
<path d="M93 130L93 135L88 135L88 130L93 130Z" fill="#7B79F7"/>
<path d="M93 180L93 175L88 175L88 180L93 180Z" fill="#605EE8"/>
<path d="M93 140L93 145L88 145L88 140L93 140Z" fill="#7B79F7"/>
<path d="M93 170L93 165L88 165L88 170L93 170Z" fill="#7B79F7"/>
<path d="M93 155L93 160L88 160L88 155L93 155Z" fill="#7B79F7"/>
<path d="M93 135L93 140L88 140L88 135L93 135Z" fill="#7B79F7"/>
<path d="M93 175L93 170L88 170L88 175L93 175Z" fill="#7B79F7"/>
<path d="M93 150L93 155L88 155L88 150L93 150Z" fill="#7B79F7"/>
<path d="M93 145L93 150L88 150L88 145L93 145Z" fill="#7B79F7"/>
<path d="M93 160L93 165L88 165L88 160L93 160Z" fill="#7B79F7"/>
<path d="M88 120L88 125L83 125L83 120L88 120Z" fill="#605EE8"/>
<path d="M88 115L88 120L83 120L83 115L88 115Z" fill="#605EE8"/>
<path d="M88 110L88 115L83 115L83 110L88 110Z" fill="#9695F8"/>
<path d="M88 190L88 185L83 185L83 190L88 190Z" fill="#9695F8"/>
<path d="M88 125L88 130L83 130L83 125L88 125Z" fill="#7B79F7"/>
<path d="M88 185L88 180L83 180L83 185L88 185Z" fill="#605EE8"/>
<path d="M88 130L88 135L83 135L83 130L88 130Z" fill="#7B79F7"/>
<path d="M88 180L88 175L83 175L83 180L88 180Z" fill="#605EE8"/>
<path d="M88 140L88 145L83 145L83 140L88 140Z" fill="#7B79F7"/>
<path d="M88 170L88 165L83 165L83 170L88 170Z" fill="#7B79F7"/>
<path d="M88 155L88 160L83 160L83 155L88 155Z" fill="#7B79F7"/>
<path d="M88 135L88 140L83 140L83 135L88 135Z" fill="#7B79F7"/>
<path d="M88 175L88 170L83 170L83 175L88 175Z" fill="#7B79F7"/>
<path d="M88 150L88 155L83 155L83 150L88 150Z" fill="#7B79F7"/>
<path d="M88 145L88 150L83 150L83 145L88 145Z" fill="#7B79F7"/>
<path d="M88 160L88 165L83 165L83 160L88 160Z" fill="#7B79F7"/>
<path d="M73 130L73 135L68 135L68 130L73 130Z" fill="#605EE8"/>
<path d="M73 180L73 175L68 175L68 180L73 180Z" fill="#605EE8"/>
<path d="M73 140L73 145L68 145L68 140L73 140Z" fill="#7B79F7"/>
<path d="M73 170L73 165L68 165L68 170L73 170Z" fill="#7B79F7"/>
<path d="M73 155L73 160L68 160L68 155L73 155Z" fill="#9695F8"/>
<path d="M73 135L73 140L68 140L68 135L73 135Z" fill="#7B79F7"/>
<path d="M73 175L73 170L68 170L68 175L73 175Z" fill="#605EE8"/>
<path d="M73 150L73 155L68 155L68 150L73 150Z" fill="#9695F8"/>
<path d="M73 145L73 150L68 150L68 145L73 145Z" fill="#9695F8"/>
<path d="M73 160L73 165L68 165L68 160L73 160Z" fill="#9695F8"/>
<path d="M98 120L98 125L93 125L93 120L98 120Z" fill="#7B79F7"/>
<path d="M98 115L98 120L93 120L93 115L98 115Z" fill="#7B79F7"/>
<path d="M98 110L98 115L93 115L93 110L98 110Z" fill="#9695F8"/>
<path d="M95 105L95 110L90 110L90 105L95 105Z" fill="#7B79F7"/>
<path d="M90 105L90 110L85 110L85 105L90 105Z" fill="#7B79F7"/>
<path d="M90 100L90 105L85 105L85 100L90 100Z" fill="#7B79F7"/>
<path d="M85 95L85 100L80 100L80 95L85 95Z" fill="#7B79F7"/>
<path d="M85 100L85 105L80 105L80 100L85 100Z" fill="#7B79F7"/>
<path d="M80 95L80 100L75 100L75 95L80 95Z" fill="#7B79F7"/>
<path d="M75 90L75 95L70 95L70 90L75 90Z" fill="#7B79F7"/>
<path d="M80 90L80 95L75 95L75 90L80 90Z" fill="#7B79F7"/>
<path d="M80 85L80 90L75 90L75 85L80 85Z" fill="#9695F8"/>
<path d="M80 80L80 85L75 85L75 80L80 80Z" fill="#9695F8"/>
<path d="M80 75L80 80L75 80L75 75L80 75Z" fill="#9695F8"/>
<path d="M80 70L80 75L75 75L75 70L80 70Z" fill="#9695F8"/>
<path d="M80 65L80 70L75 70L75 65L80 65Z" fill="#9695F8"/>
<path d="M80 60L80 65L75 65L75 60L80 60Z" fill="#9695F8"/>
<path d="M80 55L80 60L75 60L75 55L80 55Z" fill="#9695F8"/>
<path d="M60 55L60 60L55 60L55 55L60 55Z" fill="#7B79F7"/>
<path d="M60 50L60 55L55 55L55 50L60 50Z" fill="#7B79F7"/>
<path d="M60 45L60 50L55 50L55 45L60 45Z" fill="#9695F8"/>
<path d="M50 30L50 35L45 35L45 30L50 30Z" fill="#9695F8"/>
<path d="M60 40L60 45L55 45L55 40L60 40Z" fill="#9695F8"/>
<path d="M50 25L50 30L45 30L45 25L50 25Z" fill="#9695F8"/>
<path d="M60 35L60 40L55 40L55 35L60 35Z" fill="#9695F8"/>
<path d="M50 20L50 25L45 25L45 20L50 20Z" fill="#9695F8"/>
<path d="M50 15L50 20L45 20L45 15L50 15Z" fill="#9695F8"/>
<path d="M80 50L80 55L75 55L75 50L80 50Z" fill="#9695F8"/>
<path d="M75 85L75 90L70 90L70 85L75 85Z" fill="#7B79F7"/>
<path d="M70 85L70 90L65 90L65 85L70 85Z" fill="#9695F8"/>
<path d="M65 85L65 90L60 90L60 85L65 85Z" fill="#9695F8"/>
<path d="M75 80L75 85L70 85L70 80L75 80Z" fill="#7B79F7"/>
<path d="M75 75L75 80L70 80L70 75L75 75Z" fill="#7B79F7"/>
<path d="M75 70L75 75L70 75L70 70L75 70Z" fill="#9695F8"/>
<path d="M75 65L75 70L70 70L70 65L75 65Z" fill="#9695F8"/>
<path d="M75 60L75 65L70 65L70 60L75 60Z" fill="#9695F8"/>
<path d="M60 60L60 65L55 65L55 60L60 60Z" fill="#9695F8"/>
<path d="M75 55L75 60L70 60L70 55L75 55Z" fill="#9695F8"/>
<path d="M55 55L55 60L50 60L50 55L55 55Z" fill="#9695F8"/>
<path d="M55 50L55 55L50 55L50 50L55 50Z" fill="#9695F8"/>
<path d="M55 45L55 50L50 50L50 45L55 45Z" fill="#7B79F7"/>
<path d="M45 30L45 35L40 35L40 30L45 30Z" fill="#7B79F7"/>
<path d="M55 40L55 45L50 45L50 40L55 40Z" fill="#7B79F7"/>
<path d="M45 25L45 30L40 30L40 25L45 25Z" fill="#9695F8"/>
<path d="M55 35L55 40L50 40L50 35L55 35Z" fill="#9695F8"/>
<path d="M45 20L45 25L40 25L40 20L45 20Z" fill="#9695F8"/>
<path d="M45 15L45 20L40 20L40 15L45 15Z" fill="#9695F8"/>
<path d="M45 10L45 15L40 15L40 10L45 10Z" fill="#9695F8"/>
<path d="M40 10L40 15L35 15L35 10L40 10Z" fill="#9695F8"/>
<path d="M75 50L75 55L70 55L70 50L75 50Z" fill="#9695F8"/>
<path d="M75 45L75 50L70 50L70 45L75 45Z" fill="#9695F8"/>
<path d="M65 30L65 35L60 35L60 30L65 30Z" fill="#9695F8"/>
<path d="M70 80L70 85L65 85L65 80L70 80Z" fill="#9695F8"/>
<path d="M65 80L65 85L60 85L60 80L65 80Z" fill="#9695F8"/>
<path d="M60 80L60 85L55 85L55 80L60 80Z" fill="#9695F8"/>
<path d="M70 75L70 80L65 80L65 75L70 75Z" fill="#9695F8"/>
<path d="M65 75L65 80L60 80L60 75L65 75Z" fill="#9695F8"/>
<path d="M60 75L60 80L55 80L55 75L60 75Z" fill="#9695F8"/>
<path d="M70 70L70 75L65 75L65 70L70 70Z" fill="#7B79F7"/>
<path d="M65 70L65 75L60 75L60 70L65 70Z" fill="#9695F8"/>
<path d="M60 70L60 75L55 75L55 70L60 70Z" fill="#9695F8"/>
<path d="M55 70L55 75L50 75L50 70L55 70Z" fill="#9695F8"/>
<path d="M70 65L70 70L65 70L65 65L70 65Z" fill="#7B79F7"/>
<path d="M70 60L70 65L65 65L65 60L70 60Z" fill="#9695F8"/>
<path d="M55 60L55 65L50 65L50 60L55 60Z" fill="#9695F8"/>
<path d="M65 60L65 65L60 65L60 60L65 60Z" fill="#7B79F7"/>
<path d="M50 60L50 65L45 65L45 60L50 60Z" fill="#9695F8"/>
<path d="M45 60L45 65L40 65L40 60L45 60Z" fill="#9695F8"/>
<path d="M70 55L70 60L65 60L65 55L70 55Z" fill="#9695F8"/>
<path d="M50 55L50 60L45 60L45 55L50 55Z" fill="#9695F8"/>
<path d="M50 50L50 55L45 55L45 50L50 50Z" fill="#9695F8"/>
<path d="M50 45L50 50L45 50L45 45L50 45Z" fill="#9695F8"/>
<path d="M40 30L40 35L35 35L35 30L40 30Z" fill="#9695F8"/>
<path d="M50 40L50 45L45 45L45 40L50 40Z" fill="#7B79F7"/>
<path d="M40 25L40 30L35 30L35 25L40 25Z" fill="#7B79F7"/>
<path d="M50 35L50 40L45 40L45 35L50 35Z" fill="#7B79F7"/>
<path d="M40 20L40 25L35 25L35 20L40 20Z" fill="#9695F8"/>
<path d="M40 15L40 20L35 20L35 15L40 15Z" fill="#9695F8"/>
<path d="M35 35L35 40L30 40L30 35L35 35Z" fill="#9695F8"/>
<path d="M25 20L25 25L20 25L20 20L25 20Z" fill="#9695F8"/>
<path d="M25 15L25 20L20 20L20 15L25 15Z" fill="#7B79F7"/>
<path d="M25 10L25 15L20 15L20 10L25 10Z" fill="#9695F8"/>
<path d="M25 5L25 10L20 10L20 5L25 5Z" fill="#9695F8"/>
<path d="M25 0L25 5L20 5L20 -2.18557e-07L25 0Z" fill="#9695F8"/>
<path d="M20 5L20 10L15 10L15 5L20 5Z" fill="#9695F8"/>
<path d="M20 0L20 5L15 5L15 -2.18557e-07L20 0Z" fill="#9695F8"/>
<path d="M15 0L15 5L10 5L10 -2.18557e-07L15 0Z" fill="#9695F8"/>
<path d="M20 10L20 15L15 15L15 10L20 10Z" fill="#7B79F7"/>
<path d="M65 55L65 60L60 60L60 55L65 55Z" fill="#9695F8"/>
<path d="M65 50L65 55L60 55L60 50L65 50Z" fill="#9695F8"/>
<path d="M65 45L65 50L60 50L60 45L65 45Z" fill="#9695F8"/>
<path d="M55 30L55 35L50 35L50 30L55 30Z" fill="#9695F8"/>
<path d="M65 40L65 45L60 45L60 40L65 40Z" fill="#9695F8"/>
<path d="M55 25L55 30L50 30L50 25L55 25Z" fill="#9695F8"/>
<path d="M65 35L65 40L60 40L60 35L65 35Z" fill="#9695F8"/>
<path d="M55 20L55 25L50 25L50 20L55 20Z" fill="#9695F8"/>
<path d="M45 55L45 60L40 60L40 55L45 55Z" fill="#9695F8"/>
<path d="M45 50L45 55L40 55L40 50L45 50Z" fill="#9695F8"/>
<path d="M45 45L45 50L40 50L40 45L45 45Z" fill="#9695F8"/>
<path d="M35 30L35 35L30 35L30 30L35 30Z" fill="#9695F8"/>
<path d="M45 40L45 45L40 45L40 40L45 40Z" fill="#9695F8"/>
<path d="M35 25L35 30L30 30L30 25L35 25Z" fill="#9695F8"/>
<path d="M45 35L45 40L40 40L40 35L45 35Z" fill="#9695F8"/>
<path d="M35 20L35 25L30 25L30 20L35 20Z" fill="#7B79F7"/>
<path d="M35 15L35 20L30 20L30 15L35 15Z" fill="#9695F8"/>
<path d="M35 10L35 15L30 15L30 10L35 10Z" fill="#9695F8"/>
<path d="M35 5L35 10L30 10L30 5L35 5Z" fill="#9695F8"/>
<path d="M30 35L30 40L25 40L25 35L30 35Z" fill="#9695F8"/>
<path d="M20 20L20 25L15 25L15 20L20 20Z" fill="#9695F8"/>
<path d="M20 15L20 20L15 20L15 15L20 15Z" fill="#9695F8"/>
<path d="M15 15L15 20L10 20L10 15L15 15Z" fill="#9695F8"/>
<path d="M10 15L10 20L5 20L5 15L10 15Z" fill="#9695F8"/>
<path d="M5 15L5 20L-2.18557e-07 20L0 15L5 15Z" fill="#9695F8"/>
<path d="M40 55L40 60L35 60L35 55L40 55Z" fill="#9695F8"/>
<path d="M40 50L40 55L35 55L35 50L40 50Z" fill="#9695F8"/>
<path d="M40 45L40 50L35 50L35 45L40 45Z" fill="#9695F8"/>
<path d="M30 30L30 35L25 35L25 30L30 30Z" fill="#9695F8"/>
<path d="M40 40L40 45L35 45L35 40L40 40Z" fill="#9695F8"/>
<path d="M30 25L30 30L25 30L25 25L30 25Z" fill="#9695F8"/>
<path d="M35 40L35 45L30 45L30 40L35 40Z" fill="#9695F8"/>
<path d="M25 25L25 30L20 30L20 25L25 25Z" fill="#9695F8"/>
<path d="M30 40L30 45L25 45L25 40L30 40Z" fill="#9695F8"/>
<path d="M20 25L20 30L15 30L15 25L20 25Z" fill="#9695F8"/>
<path d="M40 35L40 40L35 40L35 35L40 35Z" fill="#9695F8"/>
<path d="M30 20L30 25L25 25L25 20L30 20Z" fill="#7B79F7"/>
<path d="M30 15L30 20L25 20L25 15L30 15Z" fill="#7B79F7"/>
<path d="M30 10L30 15L25 15L25 10L30 10Z" fill="#9695F8"/>
<path d="M15 10L15 15L10 15L10 10L15 10Z" fill="#7B79F7"/>
<path d="M10 10L10 15L5 15L5 10L10 10Z" fill="#9695F8"/>
<path d="M5 10L5 15L-2.18557e-07 15L0 10L5 10Z" fill="#9695F8"/>
<path d="M30 5L30 10L25 10L25 5L30 5Z" fill="#9695F8"/>
<path d="M15 5L15 10L10 10L10 5L15 5Z" fill="#7B79F7"/>
<path d="M10 5L10 10L5 10L5 5L10 5Z" fill="#7B79F7"/>
<path d="M25 35L25 40L20 40L20 35L25 35Z" fill="#9695F8"/>
<path d="M15 20L15 25L10 25L10 20L15 20Z" fill="#9695F8"/>
<path d="M10 20L10 25L5 25L5 20L10 20Z" fill="#9695F8"/>
<path d="M15 25L15 30L10 30L10 25L15 25Z" fill="#9695F8"/>
<path d="M35 45L35 50L30 50L30 45L35 45Z" fill="#9695F8"/>
<path d="M25 30L25 35L20 35L20 30L25 30Z" fill="#9695F8"/>
<path d="M20 30L20 35L15 35L15 30L20 30Z" fill="#9695F8"/>
<path d="M70 50L70 55L65 55L65 50L70 50Z" fill="#9695F8"/>
<path d="M70 45L70 50L65 50L65 45L70 45Z" fill="#9695F8"/>
<path d="M60 30L60 35L55 35L55 30L60 30Z" fill="#9695F8"/>
<path d="M70 40L70 45L65 45L65 40L70 40Z" fill="#9695F8"/>
<path d="M60 25L60 30L55 30L55 25L60 25Z" fill="#9695F8"/>
<path d="M65 65L65 70L60 70L60 65L65 65Z" fill="#9695F8"/>
<path d="M55 65L55 70L50 70L50 65L55 65Z" fill="#9695F8"/>
<path d="M60 65L60 70L55 70L55 65L60 65Z" fill="#9695F8"/>
<path d="M50 65L50 70L45 70L45 65L50 65Z" fill="#9695F8"/>
<path d="M85 85L85 90L80 90L80 85L85 85Z" fill="#9695F8"/>
<path d="M85 80L85 85L80 85L80 80L85 80Z" fill="#9695F8"/>
<path d="M85 75L85 80L80 80L80 75L85 75Z" fill="#9695F8"/>
<path d="M85 70L85 75L80 75L80 70L85 70Z" fill="#9695F8"/>
<path d="M85 65L85 70L80 70L80 65L85 65Z" fill="#9695F8"/>
<path d="M90 80L90 85L85 85L85 80L90 80Z" fill="#9695F8"/>
<path d="M90 75L90 80L85 80L85 75L90 75Z" fill="#9695F8"/>
<path d="M98 190L98 185L93 185L93 190L98 190Z" fill="#9695F8"/>
<path d="M98 125L98 130L93 130L93 125L98 125Z" fill="#7B79F7"/>
<path d="M98 185L98 180L93 180L93 185L98 185Z" fill="#605EE8"/>
<path d="M98 130L98 135L93 135L93 130L98 130Z" fill="#7B79F7"/>
<path d="M98 180L98 175L93 175L93 180L98 180Z" fill="#605EE8"/>
<path d="M98 140L98 145L93 145L93 140L98 140Z" fill="#7B79F7"/>
<path d="M98 170L98 165L93 165L93 170L98 170Z" fill="#7B79F7"/>
<path d="M98 155L98 160L93 160L93 155L98 155Z" fill="#7B79F7"/>
<path d="M98 135L98 140L93 140L93 135L98 135Z" fill="#7B79F7"/>
<path d="M98 175L98 170L93 170L93 175L98 175Z" fill="#7B79F7"/>
<path d="M98 150L98 155L93 155L93 150L98 150Z" fill="#7B79F7"/>
<path d="M98 145L98 150L93 150L93 145L98 145Z" fill="#7B79F7"/>
<path d="M98 160L98 165L93 165L93 160L98 160Z" fill="#7B79F7"/>
<path d="M103 120L103 125L98 125L98 120L103 120Z" fill="#605EE8"/>
<path d="M103 115L103 120L98 120L98 115L103 115Z" fill="#605EE8"/>
<path d="M103 110L103 115L98 115L98 110L103 110Z" fill="#9695F8"/>
<path d="M103 190L103 185L98 185L98 190L103 190Z" fill="#9695F8"/>
<path d="M103 125L103 130L98 130L98 125L103 125Z" fill="#7B79F7"/>
<path d="M103 185L103 180L98 180L98 185L103 185Z" fill="#605EE8"/>
<path d="M103 130L103 135L98 135L98 130L103 130Z" fill="#7B79F7"/>
<path d="M103 180L103 175L98 175L98 180L103 180Z" fill="#605EE8"/>
<path d="M103 140L103 145L98 145L98 140L103 140Z" fill="#7B79F7"/>
<path d="M103 170L103 165L98 165L98 170L103 170Z" fill="#7B79F7"/>
<path d="M103 155L103 160L98 160L98 155L103 155Z" fill="#7B79F7"/>
<path d="M103 135L103 140L98 140L98 135L103 135Z" fill="#7B79F7"/>
<path d="M103 175L103 170L98 170L98 175L103 175Z" fill="#7B79F7"/>
<path d="M103 150L103 155L98 155L98 150L103 150Z" fill="#7B79F7"/>
<path d="M103 145L103 150L98 150L98 145L103 145Z" fill="#7B79F7"/>
<path d="M103 160L103 165L98 165L98 160L103 160Z" fill="#7B79F7"/>
<path d="M118 130L118 135L113 135L113 130L118 130Z" fill="#605EE8"/>
<path d="M118 180L118 175L113 175L113 180L118 180Z" fill="#605EE8"/>
<path d="M118 140L118 145L113 145L113 140L118 140Z" fill="#7B79F7"/>
<path d="M118 170L118 165L113 165L113 170L118 170Z" fill="#605EE8"/>
<path d="M118 155L118 160L113 160L113 155L118 155Z" fill="#7B79F7"/>
<path d="M118 135L118 140L113 140L113 135L118 135Z" fill="#605EE8"/>
<path d="M118 175L118 170L113 170L113 175L118 175Z" fill="#605EE8"/>
<path d="M118 150L118 155L113 155L113 150L118 150Z" fill="#7B79F7"/>
<path d="M118 145L118 150L113 150L113 145L118 145Z" fill="#7B79F7"/>
<path d="M118 160L118 165L113 165L113 160L118 160Z" fill="#7B79F7"/>
<path d="M108 120L108 125L103 125L103 120L108 120Z" fill="#9695F8"/>
<path d="M108 115L108 120L103 120L103 115L108 115Z" fill="#9695F8"/>
<path d="M108 190L108 185L103 185L103 190L108 190Z" fill="#9695F8"/>
<path d="M108 125L108 130L103 130L103 125L108 125Z" fill="#605EE8"/>
<path d="M108 185L108 180L103 180L103 185L108 185Z" fill="#605EE8"/>
<path d="M108 130L108 135L103 135L103 130L108 130Z" fill="#7B79F7"/>
<path d="M108 180L108 175L103 175L103 180L108 180Z" fill="#605EE8"/>
<path d="M108 140L108 145L103 145L103 140L108 140Z" fill="#7B79F7"/>
<path d="M108 170L108 165L103 165L103 170L108 170Z" fill="#7B79F7"/>
<path d="M108 155L108 160L103 160L103 155L108 155Z" fill="#7B79F7"/>
<path d="M108 135L108 140L103 140L103 135L108 135Z" fill="#7B79F7"/>
<path d="M108 175L108 170L103 170L103 175L108 175Z" fill="#7B79F7"/>
<path d="M108 150L108 155L103 155L103 150L108 150Z" fill="#7B79F7"/>
<path d="M108 145L108 150L103 150L103 145L108 145Z" fill="#7B79F7"/>
<path d="M108 160L108 165L103 165L103 160L108 160Z" fill="#7B79F7"/>
<path d="M123 130L123 135L118 135L118 130L123 130Z" fill="#9695F8"/>
<path d="M123 180L123 175L118 175L118 180L123 180Z" fill="#9695F8"/>
<path d="M123 140L123 145L118 145L118 140L123 140Z" fill="#605EE8"/>
<path d="M123 170L123 165L118 165L118 170L123 170Z" fill="#605EE8"/>
<path d="M123 155L123 160L118 160L118 155L123 155Z" fill="#7B79F7"/>
<path d="M123 135L123 140L118 140L118 135L123 135Z" fill="#605EE8"/>
<path d="M123 175L123 170L118 170L118 175L123 175Z" fill="#605EE8"/>
<path d="M123 150L123 155L118 155L118 150L123 150Z" fill="#7B79F7"/>
<path d="M123 145L123 150L118 150L118 145L123 145Z" fill="#7B79F7"/>
<path d="M123 160L123 165L118 165L118 160L123 160Z" fill="#605EE8"/>
<path d="M113 125L113 130L108 130L108 125L113 125Z" fill="#9695F8"/>
<path d="M113 185L113 180L108 180L108 185L113 185Z" fill="#9695F8"/>
<path d="M118 125L118 130L113 130L113 125L118 125Z" fill="#9695F8"/>
<path d="M118 185L118 180L113 180L113 185L118 185Z" fill="#9695F8"/>
<path d="M113 130L113 135L108 135L108 130L113 130Z" fill="#605EE8"/>
<path d="M113 180L113 175L108 175L108 180L113 180Z" fill="#605EE8"/>
<path d="M113 140L113 145L108 145L108 140L113 140Z" fill="#7B79F7"/>
<path d="M113 170L113 165L108 165L108 170L113 170Z" fill="#7B79F7"/>
<path d="M113 155L113 160L108 160L108 155L113 155Z" fill="#7B79F7"/>
<path d="M113 135L113 140L108 140L108 135L113 135Z" fill="#7B79F7"/>
<path d="M113 175L113 170L108 170L108 175L113 175Z" fill="#605EE8"/>
<path d="M113 150L113 155L108 155L108 150L113 150Z" fill="#7B79F7"/>
<path d="M113 145L113 150L108 150L108 145L113 145Z" fill="#7B79F7"/>
<path d="M113 160L113 165L108 165L108 160L113 160Z" fill="#7B79F7"/>
<path d="M128 130L128 135L123 135L123 130L128 130Z" fill="#9695F8"/>
<path d="M128 180L128 175L123 175L123 180L128 180Z" fill="#9695F8"/>
<path d="M128 140L128 145L123 145L123 140L128 140Z" fill="#605EE8"/>
<path d="M128 170L128 165L123 165L123 170L128 170Z" fill="#605EE8"/>
<path d="M128 155L128 160L123 160L123 155L128 155Z" fill="#7B79F7"/>
<path d="M128 135L128 140L123 140L123 135L128 135Z" fill="#605EE8"/>
<path d="M128 175L128 170L123 170L123 175L128 175Z" fill="#605EE8"/>
<path d="M128 150L128 155L123 155L123 150L128 150Z" fill="#7B79F7"/>
<path d="M128 145L128 150L123 150L123 145L128 145Z" fill="#605EE8"/>
<path d="M128 160L128 165L123 165L123 160L128 160Z" fill="#605EE8"/>
</svg>
