<svg width="32" height="32" viewBox="0 0 32 32" fill="none" xmlns="http://www.w3.org/2000/svg">
<path d="M16 32C24.8365 32 32 24.8366 32 16C32 7.16344 24.8365 0 16 0C7.16344 0 0 7.16344 0 16C0 24.8366 7.16344 32 16 32Z" fill="#0267DD"/>
<path fill-rule="evenodd" clip-rule="evenodd" d="M16 28C22.6274 28 28 22.6274 28 16C28 9.37258 22.6274 4 16 4C9.37258 4 4 9.37258 4 16C4 22.6274 9.37258 28 16 28ZM29 16C29 23.1797 23.1797 29 16 29C8.8203 29 3 23.1797 3 16C3 8.8203 8.8203 3 16 3C23.1797 3 29 8.8203 29 16Z" fill="white"/>
<path d="M8 19.8184V11.1172H9.36106L11.1542 15.3066V11.1172H12.7529V19.8184H11.4459L9.65272 15.3066V19.8184H8Z" fill="white"/>
<path d="M13.4826 19.8184L15.1785 15.1348L13.5582 11.1172H15.3837L16.3451 13.4697L17.1229 11.1172H18.7324L17.1985 15.6396L18.9052 19.8184H17.0905L16.0211 17.2188L15.0813 19.8184H13.4826Z" fill="white"/>
<path d="M21.4723 21V19.9365C20.7306 19.9007 20.1725 19.6644 19.798 19.2275C19.4307 18.7835 19.2327 18.1032 19.2039 17.1865L20.8566 16.9395C20.8638 17.3118 20.8962 17.6126 20.9538 17.8418C21.0114 18.071 21.0942 18.2357 21.2023 18.3359C21.3175 18.4362 21.4543 18.4863 21.6127 18.4863C21.8144 18.4863 21.944 18.4183 22.0016 18.2822C22.0664 18.1462 22.0988 18.0029 22.0988 17.8525C22.0988 17.4945 22.0124 17.1937 21.8396 16.9502C21.674 16.6995 21.4435 16.4489 21.1482 16.1982L20.3813 15.543C20.1653 15.3496 19.9672 15.1527 19.7872 14.9521C19.6144 14.7445 19.4739 14.5081 19.3659 14.2432C19.2579 13.971 19.2039 13.6488 19.2039 13.2764C19.2039 12.596 19.3983 12.0625 19.7872 11.6758C20.1833 11.2891 20.7126 11.0706 21.3751 11.0205V10H21.926V11.0098C22.3437 11.0313 22.6785 11.1279 22.9306 11.2998C23.1826 11.4645 23.3699 11.6722 23.4923 11.9229C23.6219 12.1663 23.7083 12.4277 23.7516 12.707C23.802 12.9792 23.8308 13.2334 23.838 13.4697L22.1636 13.6738C22.1564 13.416 22.1384 13.1904 22.1096 12.9971C22.088 12.8037 22.0376 12.6569 21.9584 12.5566C21.8864 12.4492 21.7676 12.3991 21.6019 12.4062C21.4219 12.4062 21.2887 12.4814 21.2023 12.6318C21.1158 12.7822 21.0726 12.9326 21.0726 13.083C21.0726 13.4268 21.1591 13.7061 21.3319 13.9209C21.5119 14.1286 21.7064 14.3255 21.9152 14.5117L22.6497 15.1455C22.8946 15.3675 23.1178 15.6038 23.3195 15.8545C23.5283 16.1051 23.6939 16.3844 23.8164 16.6924C23.9388 17.0003 24 17.3548 24 17.7559C24 18.1354 23.9208 18.4827 23.7624 18.7979C23.6039 19.113 23.3771 19.3708 23.0818 19.5713C22.7866 19.7646 22.4337 19.8828 22.0232 19.9258V21H21.4723Z" fill="white"/>
</svg>
