<svg width="32" height="32" viewBox="0 0 32 32" fill="none" xmlns="http://www.w3.org/2000/svg">
<rect width="32" height="32" fill="#333333"/>
<rect width="1065" height="703" transform="translate(-260 -197)" fill="#262626"/>
<path d="M16 32C24.8365 32 32 24.8366 32 16C32 7.16344 24.8365 0 16 0C7.16344 0 0 7.16344 0 16C0 24.8366 7.16344 32 16 32Z" fill="#4D4AEC"/>
<path d="M15.9999 22.6667C19.6818 22.6667 22.6666 19.6819 22.6666 16C22.6666 12.3181 19.6818 9.33334 15.9999 9.33334C12.318 9.33334 9.33325 12.3181 9.33325 16C9.33325 19.6819 12.318 22.6667 15.9999 22.6667Z" fill="#4D4AEC"/>
<path fill-rule="evenodd" clip-rule="evenodd" d="M19.6248 11.4276L21.3338 13.139L18.4025 16.0744L16.8979 14.5677L15.3921 16.0756L13.8865 14.5679L12.3816 16.0748L10.6726 14.3633L13.6039 11.428L15.1095 12.9357L16.6143 11.4288L18.1189 12.9355L19.6248 11.4276ZM13.6039 15.9497L15.1095 17.4575L16.6143 15.9506L18.1195 17.4579L19.6248 15.9506L21.3338 17.662L18.4025 20.5974L16.8973 19.0901L15.3921 20.5974L13.8865 19.0896L12.3816 20.5966L10.6726 18.8851L13.6039 15.9497Z" fill="white"/>
<path fill-rule="evenodd" clip-rule="evenodd" d="M17.3333 2.66666H14.6667V5.41593C10.7735 5.90165 7.53204 8.4854 6.10938 12H9.07094C10.4542 9.60878 13.0396 7.99999 16.0007 7.99999C18.9618 7.99999 21.5472 9.60878 22.9304 12H25.892C24.4692 8.48499 21.2271 5.90105 17.3333 5.41576V2.66666Z" fill="white"/>
<path fill-rule="evenodd" clip-rule="evenodd" d="M14.6667 29.3333L17.3333 29.3333L17.3333 26.5841C21.2265 26.0984 24.468 23.5146 25.8907 20L22.9291 20C21.5459 22.3912 18.9605 24 15.9994 24C13.0382 24 10.4528 22.3912 9.06961 20L6.10805 20C7.53088 23.515 10.773 26.0989 14.6667 26.5842L14.6667 29.3333ZM26.666 16L26.666 16.0036L26.666 15.9964L26.666 16Z" fill="white"/>
</svg>
