<svg width="32" height="32" viewBox="0 0 32 32" fill="none" xmlns="http://www.w3.org/2000/svg">
<path d="M16 32C24.8366 32 32 24.8366 32 16C32 7.16344 24.8366 0 16 0C7.16344 0 0 7.16344 0 16C0 24.8366 7.16344 32 16 32Z" fill="#C9FFC6"/>
<path d="M23.304 10L21.6158 16.0861C21.3946 16.883 21.2188 17.6918 21.0892 18.5086C21.0892 18.5132 21.0877 18.5179 21.0869 18.5226H21.0385C20.9902 18.0663 20.8723 17.6105 20.7981 17.2231L18.9403 10H15.1356L13.2808 17.2177C13.2068 17.6048 13.0885 18.061 13.0405 18.5173H12.9921C12.9921 18.5126 12.9906 18.5079 12.9898 18.5032C12.8603 17.6864 12.6844 16.8777 12.4632 16.0808L10.7765 10.0002H8.07919L8.86952 12.8613H6V14.9106H9.43452L9.99629 16.9461H6V19H10.5632L11.4665 22.2794H14.6858L16.8644 13.674L16.8652 13.6756C16.9356 13.3595 16.9958 13.0082 17.0142 12.7681H17.0626C17.081 13.0082 17.1411 13.3595 17.2116 13.6756L19.3911 22.2794H22.6102L26 10H23.304Z" fill="#053F33"/>
</svg>
