<svg width="58" height="88" viewBox="0 0 58 88" fill="none" xmlns="http://www.w3.org/2000/svg">
<rect x="14.5" y="29.3333" width="14.6667" height="14.5" transform="rotate(90 14.5 29.3333)" fill="#181235"/>
<rect x="43.5" y="73.3333" width="14.6667" height="14.5" transform="rotate(-90 43.5 73.3333)" fill="#181235"/>
<rect x="29" y="44" width="14.6667" height="14.5" transform="rotate(90 29 44)" fill="#181235"/>
<rect x="29" y="88" width="14.5" height="14.6667" transform="rotate(-180 29 88)" fill="#181235"/>
<rect x="29" y="73.3333" width="14.6667" height="14.5" transform="rotate(-90 29 73.3333)" fill="#181235"/>
<rect x="43.5" y="29.3333" width="14.6667" height="14.5" transform="rotate(90 43.5 29.3333)" fill="#181235"/>
<rect x="14.5" width="14.6667" height="14.5" transform="rotate(90 14.5 0)" fill="#181235"/>
<rect x="43.5" y="14.6667" width="14.6667" height="14.5" transform="rotate(90 43.5 14.6667)" fill="#181235"/>
<rect x="58" y="14.6667" width="14.6667" height="14.5" transform="rotate(90 58 14.6667)" fill="#181235"/>
</svg>
