<svg width="20" height="16" viewBox="0 0 20 16" fill="none" xmlns="http://www.w3.org/2000/svg">
    <path d="M16.9308 1.26368C15.6561 0.678776 14.2892 0.247847 12.8599 0.00103534C12.8339 -0.00372804 12.8079 0.00817591 12.7945 0.0319844C12.6187 0.344664 12.4239 0.752579 12.2876 1.0732C10.7503 0.843058 9.22099 0.843058 7.71527 1.0732C7.57887 0.745452 7.37707 0.344664 7.20048 0.0319844C7.18707 0.00897027 7.16107 -0.00293367 7.13504 0.00103534C5.70659 0.247058 4.33963 0.677987 3.06411 1.26368C3.05307 1.26844 3.04361 1.27638 3.03732 1.28669C0.444493 5.16033 -0.265792 8.93875 0.0826501 12.6703C0.0842267 12.6886 0.0944749 12.706 0.108665 12.7171C1.81934 13.9734 3.47642 14.7361 5.10273 15.2416C5.12876 15.2496 5.15634 15.24 5.1729 15.2186C5.55761 14.6933 5.90054 14.1393 6.19456 13.5568C6.21192 13.5227 6.19535 13.4822 6.15989 13.4687C5.61594 13.2624 5.098 13.0108 4.59977 12.7251C4.56037 12.7021 4.55721 12.6457 4.59347 12.6187C4.69831 12.5402 4.80318 12.4584 4.9033 12.3759C4.92141 12.3608 4.94665 12.3576 4.96794 12.3671C8.24107 13.8615 11.7846 13.8615 15.0191 12.3671C15.0404 12.3568 15.0657 12.36 15.0846 12.3751C15.1847 12.4576 15.2895 12.5402 15.3952 12.6187C15.4314 12.6457 15.4291 12.7021 15.3897 12.7251C14.8914 13.0163 14.3735 13.2624 13.8288 13.4679C13.7933 13.4814 13.7775 13.5227 13.7949 13.5568C14.0952 14.1385 14.4381 14.6924 14.8157 15.2178C14.8315 15.24 14.8599 15.2496 14.8859 15.2416C16.5201 14.7361 18.1772 13.9734 19.8879 12.7171C19.9028 12.706 19.9123 12.6894 19.9139 12.6711C20.3309 8.357 19.2154 4.60957 16.9568 1.28748C16.9513 1.27638 16.9419 1.26844 16.9308 1.26368ZM6.68335 10.3982C5.69792 10.3982 4.88594 9.49348 4.88594 8.38241C4.88594 7.27134 5.68217 6.36664 6.68335 6.36664C7.69239 6.36664 8.49651 7.27928 8.48073 8.38241C8.48073 9.49348 7.68451 10.3982 6.68335 10.3982ZM13.329 10.3982C12.3435 10.3982 11.5316 9.49348 11.5316 8.38241C11.5316 7.27134 12.3278 6.36664 13.329 6.36664C14.338 6.36664 15.1421 7.27928 15.1264 8.38241C15.1264 9.49348 14.338 10.3982 13.329 10.3982Z" fill="#55BCC0"/>
</svg>
