<svg width="20" height="16" viewBox="0 0 20 16" fill="none" xmlns="http://www.w3.org/2000/svg">
    <path d="M19.9987 0.339127L18.4024 1.88144C18.2657 1.98798 18.1961 2.16079 18.2258 2.3336V13.6677C18.1974 13.8392 18.2645 14.0133 18.4024 14.1199L19.9626 15.6622V16H12.1191V15.6622L13.7348 14.0822C13.8934 13.9224 13.8934 13.8743 13.8934 13.63V4.46841L9.40236 15.9636H8.79505L3.5665 4.46841V12.1722C3.52266 12.497 3.62968 12.8218 3.85533 13.0557L5.95706 15.6245V15.9623H0V15.6245L2.10044 13.057C2.3248 12.8218 2.42538 12.4931 2.37122 12.1722V3.26393C2.39701 3.01705 2.30288 2.77278 2.1185 2.60646L0.251434 0.339127V0.0012989H6.0499L10.5319 9.90482L14.4723 0H20V0.337827L19.9987 0.339127Z" fill="#55BCC0"/>
</svg>
