<svg width="363" height="558" viewBox="0 0 363 558" fill="none" xmlns="http://www.w3.org/2000/svg">
<rect width="7.33333" height="7.36364" transform="matrix(-1 0 0 1 74 266)" fill="#FED955"/>
<rect width="7.33333" height="7.36364" transform="matrix(-1 0 0 1 74 273.364)" fill="#FED955"/>
<rect width="7.33333" height="7.36364" transform="matrix(-1 0 0 1 74 280.727)" fill="#FED955"/>
<rect width="7.33333" height="7.36364" transform="matrix(-1 0 0 1 74 295.455)" fill="#FED955"/>
<rect width="7.33333" height="7.36364" transform="matrix(-1 0 0 1 66.6666 295.455)" fill="#FED955"/>
<rect width="7.33333" height="7.36364" transform="matrix(-1 0 0 1 74 302.818)" fill="#FED955"/>
<rect width="7.33333" height="7.36364" transform="matrix(-1 0 0 1 66.6666 302.818)" fill="#FED955"/>
<rect width="7.33333" height="7.36363" transform="matrix(-1 0 0 1 74 310.182)" fill="#FED955"/>
<rect width="7.33333" height="7.36363" transform="matrix(-1 0 0 1 66.6666 310.182)" fill="#FED955"/>
<rect width="7.33333" height="7.36364" transform="matrix(-1 0 0 1 74 317.545)" fill="#FED955"/>
<rect width="7.33333" height="7.36364" transform="matrix(-1 0 0 1 66.6666 317.545)" fill="#FED955"/>
<rect width="7.33333" height="7.36364" transform="matrix(-1 0 0 1 81.3334 273.364)" fill="#FED955"/>
<rect width="7.33333" height="7.36364" transform="matrix(-1 0 0 1 81.3334 280.727)" fill="#FED955"/>
<rect width="7.33333" height="7.36364" transform="matrix(-1 0 0 1 81.3334 288.091)" fill="#FED955"/>
<rect width="7.33333" height="7.36364" transform="matrix(-1 0 0 1 88.6666 273.364)" fill="#FED955"/>
<rect width="7.33333" height="7.36364" transform="matrix(-1 0 0 1 88.6666 280.727)" fill="#FED955"/>
<rect width="7.33333" height="7.36364" transform="matrix(-1 0 0 1 96 288.091)" fill="#FED955"/>
<rect width="7.33333" height="7.36364" transform="matrix(-1 0 0 1 96 302.818)" fill="#FED955"/>
<rect width="7.33333" height="7.36364" transform="matrix(-1 0 0 1 96 317.545)" fill="#FED955"/>
<rect width="7.33333" height="7.36364" transform="matrix(-1 0 0 1 96 295.455)" fill="#FED955"/>
<rect width="7.33333" height="7.36363" transform="matrix(-1 0 0 1 96 310.182)" fill="#FED955"/>
<rect width="7.33333" height="7.36364" transform="matrix(-1 0 0 1 88.6666 288.091)" fill="#FED955"/>
<rect width="7.33333" height="7.36364" transform="matrix(-1 0 0 1 88.6666 302.818)" fill="#FED955"/>
<rect width="7.33333" height="7.36364" transform="matrix(-1 0 0 1 55.6666 302.818)" fill="#FED955"/>
<rect width="7.33334" height="7.36364" transform="matrix(-1 0 0 1 48.3334 302.818)" fill="#FED955"/>
<rect width="7.33333" height="7.36364" transform="matrix(-1 0 0 1 88.6666 317.545)" fill="#FED955"/>
<rect width="7.33333" height="7.36364" transform="matrix(-1 0 0 1 55.6666 317.545)" fill="#FED955"/>
<rect width="7.33334" height="7.36364" transform="matrix(-1 0 0 1 48.3334 317.545)" fill="#FED955"/>
<rect width="7.33333" height="7.36364" transform="matrix(-1 0 0 1 88.6666 295.455)" fill="#FED955"/>
<rect width="7.33333" height="7.36364" transform="matrix(-1 0 0 1 55.6666 295.455)" fill="#FED955"/>
<rect width="7.33333" height="7.36364" transform="matrix(-1 0 0 1 59.3334 288.091)" fill="#FED955"/>
<rect width="7.33334" height="7.36364" transform="matrix(-1 0 0 1 52 288.091)" fill="#FED955"/>
<rect width="7.33334" height="7.36364" transform="matrix(-1 0 0 1 48.3334 295.455)" fill="#FED955"/>
<rect width="7.33333" height="7.36363" transform="matrix(-1 0 0 1 88.6666 310.182)" fill="#FED955"/>
<rect width="7.33333" height="7.36363" transform="matrix(-1 0 0 1 55.6666 310.182)" fill="#FED955"/>
<rect width="7.33334" height="7.36363" transform="matrix(-1 0 0 1 48.3334 310.182)" fill="#FED955"/>
<rect width="7.33333" height="7.36364" transform="matrix(-1 0 0 1 88.6666 324.909)" fill="#FED955"/>
<rect width="7.33333" height="7.36364" transform="matrix(-1 0 0 1 88.6666 332.273)" fill="#FED955"/>
<rect width="7.33333" height="7.36364" transform="matrix(-1 0 0 1 74 332.273)" fill="#FED955"/>
<rect width="7.33333" height="7.36363" transform="matrix(-1 0 0 1 74 339.636)" fill="#FED955"/>
<rect width="7.33333" height="7.36364" transform="matrix(-1 0 0 1 81.3334 324.909)" fill="#FED955"/>
<rect width="7.33333" height="7.36364" transform="matrix(-1 0 0 1 81.3334 332.273)" fill="#FED955"/>
<rect width="7.33333" height="7.36363" transform="matrix(-1 0 0 1 81.3334 339.636)" fill="#FED955"/>
<rect width="7.33333" height="7.36364" transform="matrix(-1 0 0 1 66.6666 332.273)" fill="#FED955"/>
<rect width="7.33333" height="7.36363" transform="matrix(-1 0 0 1 66.6666 339.636)" fill="#FED955"/>
<rect width="7.33333" height="7.36364" transform="matrix(-1 0 0 1 59.3334 332.273)" fill="#FED955"/>
<rect width="7.33333" height="7.36364" transform="matrix(-1 0 0 1 59.3334 324.909)" fill="#FED955"/>
<rect width="7.33334" height="7.36364" transform="matrix(-1 0 0 1 52 324.909)" fill="#FED955"/>
<rect width="7.33333" height="7.36364" transform="matrix(-1 0 0 1 74 324.909)" fill="#FDEB95"/>
<rect width="7.33333" height="7.36364" transform="matrix(-1 0 0 1 66.6666 324.909)" fill="#FDEB95"/>
<rect width="7.33333" height="7.36364" transform="matrix(-1 0 0 1 66.6666 266)" fill="#FED955"/>
<rect width="7.33333" height="7.36364" transform="matrix(-1 0 0 1 59.3334 266)" fill="#FED955"/>
<rect width="7.33334" height="7.36364" transform="matrix(-1 0 0 1 52 266)" fill="#C4925C"/>
<rect width="7.33333" height="7.36364" transform="matrix(-1 0 0 1 59.3334 273.364)" fill="#FDEB95"/>
<rect width="7.33333" height="7.36364" transform="matrix(-1 0 0 1 66.6666 273.364)" fill="#FDEB95"/>
<rect width="7.33333" height="7.36364" transform="matrix(-1 0 0 1 66.6666 280.727)" fill="#FDEB95"/>
<rect width="7.33334" height="7.36364" transform="matrix(-1 0 0 1 52 273.364)" fill="#C4925C"/>
<rect width="7.33333" height="7.36364" transform="matrix(-1 0 0 1 59.3334 280.727)" fill="#FDEB95"/>
<rect width="7.33333" height="7.36364" transform="matrix(-1 0 0 1 66.6666 288.091)" fill="#C4925C"/>
<rect width="7.33333" height="7.36364" transform="matrix(-1 0 0 1 74 288.091)" fill="#C4925C"/>
<rect width="7.33333" height="7.36364" transform="matrix(-1 0 0 1 81.3334 295.455)" fill="#C4925C"/>
<rect width="7.33333" height="7.36364" transform="matrix(-1 0 0 1 59.3334 295.455)" fill="#FDEB95"/>
<rect width="7.33333" height="7.36364" transform="matrix(-1 0 0 1 81.3334 302.818)" fill="#C4925C"/>
<rect width="7.33333" height="7.36364" transform="matrix(-1 0 0 1 59.3334 302.818)" fill="#FDEB95"/>
<rect width="7.33333" height="7.36363" transform="matrix(-1 0 0 1 81.3334 310.182)" fill="#C4925C"/>
<rect width="7.33333" height="7.36363" transform="matrix(-1 0 0 1 59.3334 310.182)" fill="#FDEB95"/>
<rect width="7.33333" height="7.36364" transform="matrix(-1 0 0 1 81.3334 317.545)" fill="#C4925C"/>
<rect width="7.33333" height="7.36364" transform="matrix(-1 0 0 1 59.3334 317.545)" fill="#FDEB95"/>
<rect width="7.33333" height="7.36364" transform="matrix(-1 0 0 1 44.6666 273.364)" fill="#C4925C"/>
<rect width="7.33333" height="7.36364" transform="matrix(-1 0 0 1 44.6666 288.091)" fill="#C4925C"/>
<rect width="7.33333" height="7.36364" transform="matrix(-1 0 0 1 44.6666 295.455)" fill="#C4925C"/>
<rect width="7.33333" height="7.36364" transform="matrix(-1 0 0 1 37.3334 295.455)" fill="#C4925C"/>
<rect width="7.33333" height="7.36363" transform="matrix(-1 0 0 1 37.3334 310.182)" fill="#C4925C"/>
<rect width="7.33333" height="7.36364" transform="matrix(-1 0 0 1 41 302.818)" fill="#C4925C"/>
<rect width="7.33333" height="7.36363" transform="matrix(-1 0 0 1 41 310.182)" fill="#C4925C"/>
<rect width="7.33333" height="7.36364" transform="matrix(-1 0 0 1 41 317.545)" fill="#C4925C"/>
<rect width="7.33333" height="7.36364" transform="matrix(-1 0 0 1 44.6666 324.909)" fill="#C4925C"/>
<rect width="7.33333" height="7.36364" transform="matrix(-1 0 0 1 44.6666 332.273)" fill="#C4925C"/>
<rect width="7.33334" height="7.36364" transform="matrix(-1 0 0 1 52 332.273)" fill="#C4925C"/>
<rect width="7.33334" height="7.36363" transform="matrix(-1 0 0 1 52 339.636)" fill="#C4925C"/>
<rect width="7.33333" height="7.36363" transform="matrix(-1 0 0 1 59.3334 339.636)" fill="#C4925C"/>
<rect width="7.33333" height="7.36364" transform="matrix(-1 0 0 1 37.3334 288.091)" fill="#C4925C"/>
<rect width="7.33333" height="7.36364" transform="matrix(-1 0 0 1 37.3334 302.818)" fill="#C4925C"/>
<rect width="7.33334" height="7.36364" transform="matrix(-1 0 0 1 52 280.727)" fill="#C4925C"/>
<rect width="7.33333" height="7.36364" transform="matrix(-1 0 0 1 44.6666 280.727)" fill="#C4925C"/>
<rect width="7.33333" height="7.36364" transform="matrix(-1 0 0 1 44.6666 295.455)" fill="#C4925C"/>
<rect width="7.33333" height="7.36364" transform="matrix(-1 0 0 1 220 334)" fill="#FED955"/>
<rect width="7.33333" height="7.36364" transform="matrix(-1 0 0 1 220 341.364)" fill="#FED955"/>
<rect width="7.33333" height="7.36364" transform="matrix(-1 0 0 1 220 348.727)" fill="#FED955"/>
<rect width="7.33333" height="7.36364" transform="matrix(-1 0 0 1 220 363.455)" fill="#FED955"/>
<rect width="7.33333" height="7.36364" transform="matrix(-1 0 0 1 212.667 363.455)" fill="#FED955"/>
<rect width="7.33333" height="7.36364" transform="matrix(-1 0 0 1 220 370.818)" fill="#FED955"/>
<rect width="7.33333" height="7.36364" transform="matrix(-1 0 0 1 212.667 370.818)" fill="#FED955"/>
<rect width="7.33333" height="7.36363" transform="matrix(-1 0 0 1 220 378.182)" fill="#FED955"/>
<rect width="7.33333" height="7.36363" transform="matrix(-1 0 0 1 212.667 378.182)" fill="#FED955"/>
<rect width="7.33333" height="7.36364" transform="matrix(-1 0 0 1 220 385.545)" fill="#FED955"/>
<rect width="7.33333" height="7.36364" transform="matrix(-1 0 0 1 212.667 385.545)" fill="#FED955"/>
<rect width="7.33333" height="7.36364" transform="matrix(-1 0 0 1 227.333 341.364)" fill="#FED955"/>
<rect width="7.33333" height="7.36364" transform="matrix(-1 0 0 1 227.333 348.727)" fill="#FED955"/>
<rect width="7.33333" height="7.36364" transform="matrix(-1 0 0 1 227.333 356.091)" fill="#FED955"/>
<rect width="7.33333" height="7.36364" transform="matrix(-1 0 0 1 234.667 341.364)" fill="#FED955"/>
<rect width="7.33333" height="7.36364" transform="matrix(-1 0 0 1 234.667 348.727)" fill="#FED955"/>
<rect width="7.33333" height="7.36364" transform="matrix(-1 0 0 1 242 356.091)" fill="#FED955"/>
<rect width="7.33333" height="7.36364" transform="matrix(-1 0 0 1 242 370.818)" fill="#FED955"/>
<rect width="7.33333" height="7.36364" transform="matrix(-1 0 0 1 242 385.545)" fill="#FED955"/>
<rect width="7.33333" height="7.36364" transform="matrix(-1 0 0 1 242 363.455)" fill="#FED955"/>
<rect width="7.33333" height="7.36363" transform="matrix(-1 0 0 1 242 378.182)" fill="#FED955"/>
<rect width="7.33333" height="7.36364" transform="matrix(-1 0 0 1 234.667 356.091)" fill="#FED955"/>
<rect width="7.33333" height="7.36364" transform="matrix(-1 0 0 1 234.667 370.818)" fill="#FED955"/>
<rect width="7.33333" height="7.36364" transform="matrix(-1 0 0 1 201.667 370.818)" fill="#FED955"/>
<rect width="7.33334" height="7.36364" transform="matrix(-1 0 0 1 194.333 370.818)" fill="#FED955"/>
<rect width="7.33333" height="7.36364" transform="matrix(-1 0 0 1 234.667 385.545)" fill="#FED955"/>
<rect width="7.33333" height="7.36364" transform="matrix(-1 0 0 1 201.667 385.545)" fill="#FED955"/>
<rect width="7.33334" height="7.36364" transform="matrix(-1 0 0 1 194.333 385.545)" fill="#FED955"/>
<rect width="7.33333" height="7.36364" transform="matrix(-1 0 0 1 234.667 363.455)" fill="#FED955"/>
<rect width="7.33333" height="7.36364" transform="matrix(-1 0 0 1 201.667 363.455)" fill="#FED955"/>
<rect width="7.33333" height="7.36364" transform="matrix(-1 0 0 1 205.333 356.091)" fill="#FED955"/>
<rect width="7.33334" height="7.36364" transform="matrix(-1 0 0 1 198 356.091)" fill="#FED955"/>
<rect width="7.33334" height="7.36364" transform="matrix(-1 0 0 1 194.333 363.455)" fill="#FED955"/>
<rect width="7.33333" height="7.36363" transform="matrix(-1 0 0 1 234.667 378.182)" fill="#FED955"/>
<rect width="7.33333" height="7.36363" transform="matrix(-1 0 0 1 201.667 378.182)" fill="#FED955"/>
<rect width="7.33334" height="7.36363" transform="matrix(-1 0 0 1 194.333 378.182)" fill="#FED955"/>
<rect width="7.33333" height="7.36364" transform="matrix(-1 0 0 1 234.667 392.909)" fill="#FED955"/>
<rect width="7.33333" height="7.36364" transform="matrix(-1 0 0 1 234.667 400.273)" fill="#FED955"/>
<rect width="7.33333" height="7.36364" transform="matrix(-1 0 0 1 220 400.273)" fill="#FED955"/>
<rect width="7.33333" height="7.36363" transform="matrix(-1 0 0 1 220 407.636)" fill="#FED955"/>
<rect width="7.33333" height="7.36364" transform="matrix(-1 0 0 1 227.333 392.909)" fill="#FED955"/>
<rect width="7.33333" height="7.36364" transform="matrix(-1 0 0 1 227.333 400.273)" fill="#FED955"/>
<rect width="7.33333" height="7.36363" transform="matrix(-1 0 0 1 227.333 407.636)" fill="#FED955"/>
<rect width="7.33333" height="7.36364" transform="matrix(-1 0 0 1 212.667 400.273)" fill="#FED955"/>
<rect width="7.33333" height="7.36363" transform="matrix(-1 0 0 1 212.667 407.636)" fill="#FED955"/>
<rect width="7.33333" height="7.36364" transform="matrix(-1 0 0 1 205.333 400.273)" fill="#FED955"/>
<rect width="7.33333" height="7.36364" transform="matrix(-1 0 0 1 205.333 392.909)" fill="#FED955"/>
<rect width="7.33334" height="7.36364" transform="matrix(-1 0 0 1 198 392.909)" fill="#FED955"/>
<rect width="7.33333" height="7.36364" transform="matrix(-1 0 0 1 220 392.909)" fill="#FDEB95"/>
<rect width="7.33333" height="7.36364" transform="matrix(-1 0 0 1 212.667 392.909)" fill="#FDEB95"/>
<rect width="7.33333" height="7.36364" transform="matrix(-1 0 0 1 212.667 334)" fill="#FED955"/>
<rect width="7.33333" height="7.36364" transform="matrix(-1 0 0 1 205.333 334)" fill="#FED955"/>
<rect width="7.33334" height="7.36364" transform="matrix(-1 0 0 1 198 334)" fill="#C4925C"/>
<rect width="7.33333" height="7.36364" transform="matrix(-1 0 0 1 205.333 341.364)" fill="#FDEB95"/>
<rect width="7.33333" height="7.36364" transform="matrix(-1 0 0 1 212.667 341.364)" fill="#FDEB95"/>
<rect width="7.33333" height="7.36364" transform="matrix(-1 0 0 1 212.667 348.727)" fill="#FDEB95"/>
<rect width="7.33334" height="7.36364" transform="matrix(-1 0 0 1 198 341.364)" fill="#C4925C"/>
<rect width="7.33333" height="7.36364" transform="matrix(-1 0 0 1 205.333 348.727)" fill="#FDEB95"/>
<rect width="7.33333" height="7.36364" transform="matrix(-1 0 0 1 212.667 356.091)" fill="#C4925C"/>
<rect width="7.33333" height="7.36364" transform="matrix(-1 0 0 1 220 356.091)" fill="#C4925C"/>
<rect width="7.33333" height="7.36364" transform="matrix(-1 0 0 1 227.333 363.455)" fill="#C4925C"/>
<rect width="7.33333" height="7.36364" transform="matrix(-1 0 0 1 205.333 363.455)" fill="#FDEB95"/>
<rect width="7.33333" height="7.36364" transform="matrix(-1 0 0 1 227.333 370.818)" fill="#C4925C"/>
<rect width="7.33333" height="7.36364" transform="matrix(-1 0 0 1 205.333 370.818)" fill="#FDEB95"/>
<rect width="7.33333" height="7.36363" transform="matrix(-1 0 0 1 227.333 378.182)" fill="#C4925C"/>
<rect width="7.33333" height="7.36363" transform="matrix(-1 0 0 1 205.333 378.182)" fill="#FDEB95"/>
<rect width="7.33333" height="7.36364" transform="matrix(-1 0 0 1 227.333 385.545)" fill="#C4925C"/>
<rect width="7.33333" height="7.36364" transform="matrix(-1 0 0 1 205.333 385.545)" fill="#FDEB95"/>
<rect width="7.33333" height="7.36364" transform="matrix(-1 0 0 1 190.667 341.364)" fill="#C4925C"/>
<rect width="7.33333" height="7.36364" transform="matrix(-1 0 0 1 190.667 356.091)" fill="#C4925C"/>
<rect width="7.33333" height="7.36364" transform="matrix(-1 0 0 1 190.667 363.455)" fill="#C4925C"/>
<rect width="7.33333" height="7.36364" transform="matrix(-1 0 0 1 183.333 363.455)" fill="#C4925C"/>
<rect width="7.33333" height="7.36363" transform="matrix(-1 0 0 1 183.333 378.182)" fill="#C4925C"/>
<rect width="7.33333" height="7.36364" transform="matrix(-1 0 0 1 187 370.818)" fill="#C4925C"/>
<rect width="7.33333" height="7.36363" transform="matrix(-1 0 0 1 187 378.182)" fill="#C4925C"/>
<rect width="7.33333" height="7.36364" transform="matrix(-1 0 0 1 187 385.545)" fill="#C4925C"/>
<rect width="7.33333" height="7.36364" transform="matrix(-1 0 0 1 190.667 392.909)" fill="#C4925C"/>
<rect width="7.33333" height="7.36364" transform="matrix(-1 0 0 1 190.667 400.273)" fill="#C4925C"/>
<rect width="7.33334" height="7.36364" transform="matrix(-1 0 0 1 198 400.273)" fill="#C4925C"/>
<rect width="7.33334" height="7.36363" transform="matrix(-1 0 0 1 198 407.636)" fill="#C4925C"/>
<rect width="7.33333" height="7.36363" transform="matrix(-1 0 0 1 205.333 407.636)" fill="#C4925C"/>
<rect width="7.33333" height="7.36364" transform="matrix(-1 0 0 1 183.333 356.091)" fill="#C4925C"/>
<rect width="7.33333" height="7.36364" transform="matrix(-1 0 0 1 183.333 370.818)" fill="#C4925C"/>
<rect width="7.33334" height="7.36364" transform="matrix(-1 0 0 1 198 348.727)" fill="#C4925C"/>
<rect width="7.33333" height="7.36364" transform="matrix(-1 0 0 1 190.667 348.727)" fill="#C4925C"/>
<rect width="7.33333" height="7.36364" transform="matrix(-1 0 0 1 190.667 363.455)" fill="#C4925C"/>
<rect width="7.33333" height="7.36364" transform="matrix(-1 0 0 1 366 266)" fill="#FED955"/>
<rect width="7.33333" height="7.36364" transform="matrix(-1 0 0 1 366 273.364)" fill="#FED955"/>
<rect width="7.33333" height="7.36364" transform="matrix(-1 0 0 1 366 280.727)" fill="#FED955"/>
<rect width="7.33333" height="7.36364" transform="matrix(-1 0 0 1 366 295.455)" fill="#FED955"/>
<rect width="7.33333" height="7.36364" transform="matrix(-1 0 0 1 358.667 295.455)" fill="#FED955"/>
<rect width="7.33333" height="7.36364" transform="matrix(-1 0 0 1 366 302.818)" fill="#FED955"/>
<rect width="7.33333" height="7.36364" transform="matrix(-1 0 0 1 358.667 302.818)" fill="#FED955"/>
<rect width="7.33333" height="7.36363" transform="matrix(-1 0 0 1 366 310.182)" fill="#FED955"/>
<rect width="7.33333" height="7.36363" transform="matrix(-1 0 0 1 358.667 310.182)" fill="#FED955"/>
<rect width="7.33333" height="7.36364" transform="matrix(-1 0 0 1 366 317.545)" fill="#FED955"/>
<rect width="7.33333" height="7.36364" transform="matrix(-1 0 0 1 358.667 317.545)" fill="#FED955"/>
<rect width="7.33333" height="7.36364" transform="matrix(-1 0 0 1 347.667 302.818)" fill="#FED955"/>
<rect width="7.33334" height="7.36364" transform="matrix(-1 0 0 1 340.333 302.818)" fill="#FED955"/>
<rect width="7.33333" height="7.36364" transform="matrix(-1 0 0 1 347.667 317.545)" fill="#FED955"/>
<rect width="7.33334" height="7.36364" transform="matrix(-1 0 0 1 340.333 317.545)" fill="#FED955"/>
<rect width="7.33333" height="7.36364" transform="matrix(-1 0 0 1 347.667 295.455)" fill="#FED955"/>
<rect width="7.33333" height="7.36364" transform="matrix(-1 0 0 1 351.333 288.091)" fill="#FED955"/>
<rect width="7.33334" height="7.36364" transform="matrix(-1 0 0 1 344 288.091)" fill="#FED955"/>
<rect width="7.33334" height="7.36364" transform="matrix(-1 0 0 1 340.333 295.455)" fill="#FED955"/>
<rect width="7.33333" height="7.36363" transform="matrix(-1 0 0 1 347.667 310.182)" fill="#FED955"/>
<rect width="7.33334" height="7.36363" transform="matrix(-1 0 0 1 340.333 310.182)" fill="#FED955"/>
<rect width="7.33333" height="7.36364" transform="matrix(-1 0 0 1 366 332.273)" fill="#FED955"/>
<rect width="7.33333" height="7.36363" transform="matrix(-1 0 0 1 366 339.636)" fill="#FED955"/>
<rect width="7.33333" height="7.36364" transform="matrix(-1 0 0 1 358.667 332.273)" fill="#FED955"/>
<rect width="7.33333" height="7.36363" transform="matrix(-1 0 0 1 358.667 339.636)" fill="#FED955"/>
<rect width="7.33333" height="7.36364" transform="matrix(-1 0 0 1 351.333 332.273)" fill="#FED955"/>
<rect width="7.33333" height="7.36364" transform="matrix(-1 0 0 1 351.333 324.909)" fill="#FED955"/>
<rect width="7.33334" height="7.36364" transform="matrix(-1 0 0 1 344 324.909)" fill="#FED955"/>
<rect width="7.33333" height="7.36364" transform="matrix(-1 0 0 1 366 324.909)" fill="#FDEB95"/>
<rect width="7.33333" height="7.36364" transform="matrix(-1 0 0 1 358.667 324.909)" fill="#FDEB95"/>
<rect width="7.33333" height="7.36364" transform="matrix(-1 0 0 1 358.667 266)" fill="#FED955"/>
<rect width="7.33333" height="7.36364" transform="matrix(-1 0 0 1 351.333 266)" fill="#FED955"/>
<rect width="7.33334" height="7.36364" transform="matrix(-1 0 0 1 344 266)" fill="#C4925C"/>
<rect width="7.33333" height="7.36364" transform="matrix(-1 0 0 1 351.333 273.364)" fill="#FDEB95"/>
<rect width="7.33333" height="7.36364" transform="matrix(-1 0 0 1 358.667 273.364)" fill="#FDEB95"/>
<rect width="7.33333" height="7.36364" transform="matrix(-1 0 0 1 358.667 280.727)" fill="#FDEB95"/>
<rect width="7.33334" height="7.36364" transform="matrix(-1 0 0 1 344 273.364)" fill="#C4925C"/>
<rect width="7.33333" height="7.36364" transform="matrix(-1 0 0 1 351.333 280.727)" fill="#FDEB95"/>
<rect width="7.33333" height="7.36364" transform="matrix(-1 0 0 1 358.667 288.091)" fill="#C4925C"/>
<rect width="7.33333" height="7.36364" transform="matrix(-1 0 0 1 366 288.091)" fill="#C4925C"/>
<rect width="7.33333" height="7.36364" transform="matrix(-1 0 0 1 351.333 295.455)" fill="#FDEB95"/>
<rect width="7.33333" height="7.36364" transform="matrix(-1 0 0 1 351.333 302.818)" fill="#FDEB95"/>
<rect width="7.33333" height="7.36363" transform="matrix(-1 0 0 1 351.333 310.182)" fill="#FDEB95"/>
<rect width="7.33333" height="7.36364" transform="matrix(-1 0 0 1 351.333 317.545)" fill="#FDEB95"/>
<rect width="7.33333" height="7.36364" transform="matrix(-1 0 0 1 336.667 273.364)" fill="#C4925C"/>
<rect width="7.33333" height="7.36364" transform="matrix(-1 0 0 1 336.667 288.091)" fill="#C4925C"/>
<rect width="7.33333" height="7.36364" transform="matrix(-1 0 0 1 336.667 295.455)" fill="#C4925C"/>
<rect width="7.33333" height="7.36364" transform="matrix(-1 0 0 1 329.333 295.455)" fill="#C4925C"/>
<rect width="7.33333" height="7.36363" transform="matrix(-1 0 0 1 329.333 310.182)" fill="#C4925C"/>
<rect width="7.33333" height="7.36364" transform="matrix(-1 0 0 1 333 302.818)" fill="#C4925C"/>
<rect width="7.33333" height="7.36363" transform="matrix(-1 0 0 1 333 310.182)" fill="#C4925C"/>
<rect width="7.33333" height="7.36364" transform="matrix(-1 0 0 1 333 317.545)" fill="#C4925C"/>
<rect width="7.33333" height="7.36364" transform="matrix(-1 0 0 1 336.667 324.909)" fill="#C4925C"/>
<rect width="7.33333" height="7.36364" transform="matrix(-1 0 0 1 336.667 332.273)" fill="#C4925C"/>
<rect width="7.33334" height="7.36364" transform="matrix(-1 0 0 1 344 332.273)" fill="#C4925C"/>
<rect width="7.33334" height="7.36363" transform="matrix(-1 0 0 1 344 339.636)" fill="#C4925C"/>
<rect width="7.33333" height="7.36363" transform="matrix(-1 0 0 1 351.333 339.636)" fill="#C4925C"/>
<rect width="7.33333" height="7.36364" transform="matrix(-1 0 0 1 329.333 288.091)" fill="#C4925C"/>
<rect width="7.33333" height="7.36364" transform="matrix(-1 0 0 1 329.333 302.818)" fill="#C4925C"/>
<rect width="7.33334" height="7.36364" transform="matrix(-1 0 0 1 344 280.727)" fill="#C4925C"/>
<rect width="7.33333" height="7.36364" transform="matrix(-1 0 0 1 336.667 280.727)" fill="#C4925C"/>
<rect width="7.33333" height="7.36364" transform="matrix(-1 0 0 1 336.667 295.455)" fill="#C4925C"/>
<g filter="url(#filter0_f)">
<circle r="200" transform="matrix(-1 0 0 1 340 340)" fill="#64DDFB" fill-opacity="0.2"/>
</g>
<defs>
<filter id="filter0_f" x="0" y="0" width="680" height="680" filterUnits="userSpaceOnUse" color-interpolation-filters="sRGB">
<feFlood flood-opacity="0" result="BackgroundImageFix"/>
<feBlend mode="normal" in="SourceGraphic" in2="BackgroundImageFix" result="shape"/>
<feGaussianBlur stdDeviation="70" result="effect1_foregroundBlur"/>
</filter>
</defs>
</svg>
