<svg width="360" height="567" viewBox="0 0 360 567" fill="none" xmlns="http://www.w3.org/2000/svg">
<rect x="286" y="153" width="7.33333" height="7.36364" fill="#FED955"/>
<rect x="286" y="160.364" width="7.33333" height="7.36364" fill="#FED955"/>
<rect x="286" y="167.727" width="7.33333" height="7.36364" fill="#FED955"/>
<rect x="286" y="182.455" width="7.33333" height="7.36364" fill="#FED955"/>
<rect x="293.333" y="182.455" width="7.33333" height="7.36364" fill="#FED955"/>
<rect x="286" y="189.818" width="7.33333" height="7.36364" fill="#FED955"/>
<rect x="293.333" y="189.818" width="7.33333" height="7.36364" fill="#FED955"/>
<rect x="286" y="197.182" width="7.33333" height="7.36363" fill="#FED955"/>
<rect x="293.333" y="197.182" width="7.33333" height="7.36363" fill="#FED955"/>
<rect x="286" y="204.545" width="7.33333" height="7.36364" fill="#FED955"/>
<rect x="293.333" y="204.545" width="7.33333" height="7.36364" fill="#FED955"/>
<rect x="278.667" y="160.364" width="7.33333" height="7.36364" fill="#FED955"/>
<rect x="278.667" y="167.727" width="7.33333" height="7.36364" fill="#FED955"/>
<rect x="278.667" y="175.091" width="7.33333" height="7.36364" fill="#FED955"/>
<rect x="271.333" y="160.364" width="7.33333" height="7.36364" fill="#FED955"/>
<rect x="271.333" y="167.727" width="7.33333" height="7.36364" fill="#FED955"/>
<rect x="264" y="175.091" width="7.33333" height="7.36364" fill="#FED955"/>
<rect x="264" y="189.818" width="7.33333" height="7.36364" fill="#FED955"/>
<rect x="264" y="204.545" width="7.33333" height="7.36364" fill="#FED955"/>
<rect x="264" y="182.455" width="7.33333" height="7.36364" fill="#FED955"/>
<rect x="264" y="197.182" width="7.33333" height="7.36363" fill="#FED955"/>
<rect x="271.333" y="175.091" width="7.33333" height="7.36364" fill="#FED955"/>
<rect x="271.333" y="189.818" width="7.33333" height="7.36364" fill="#FED955"/>
<rect x="304.333" y="189.818" width="7.33333" height="7.36364" fill="#FED955"/>
<rect x="311.667" y="189.818" width="7.33334" height="7.36364" fill="#FED955"/>
<rect x="271.333" y="204.545" width="7.33333" height="7.36364" fill="#FED955"/>
<rect x="304.333" y="204.545" width="7.33333" height="7.36364" fill="#FED955"/>
<rect x="311.667" y="204.545" width="7.33334" height="7.36364" fill="#FED955"/>
<rect x="271.333" y="182.455" width="7.33333" height="7.36364" fill="#FED955"/>
<rect x="304.333" y="182.455" width="7.33333" height="7.36364" fill="#FED955"/>
<rect x="300.667" y="175.091" width="7.33333" height="7.36364" fill="#FED955"/>
<rect x="308" y="175.091" width="7.33334" height="7.36364" fill="#FED955"/>
<rect x="311.667" y="182.455" width="7.33334" height="7.36364" fill="#FED955"/>
<rect x="271.333" y="197.182" width="7.33333" height="7.36363" fill="#FED955"/>
<rect x="304.333" y="197.182" width="7.33333" height="7.36363" fill="#FED955"/>
<rect x="311.667" y="197.182" width="7.33334" height="7.36363" fill="#FED955"/>
<rect x="271.333" y="211.909" width="7.33333" height="7.36364" fill="#FED955"/>
<rect x="271.333" y="219.273" width="7.33333" height="7.36364" fill="#FED955"/>
<rect x="286" y="219.273" width="7.33333" height="7.36364" fill="#FED955"/>
<rect x="286" y="226.636" width="7.33333" height="7.36363" fill="#FED955"/>
<rect x="278.667" y="211.909" width="7.33333" height="7.36364" fill="#FED955"/>
<rect x="278.667" y="219.273" width="7.33333" height="7.36364" fill="#FED955"/>
<rect x="278.667" y="226.636" width="7.33333" height="7.36363" fill="#FED955"/>
<rect x="293.333" y="219.273" width="7.33333" height="7.36364" fill="#FED955"/>
<rect x="293.333" y="226.636" width="7.33333" height="7.36363" fill="#FED955"/>
<rect x="300.667" y="219.273" width="7.33333" height="7.36364" fill="#FED955"/>
<rect x="300.667" y="211.909" width="7.33333" height="7.36364" fill="#FED955"/>
<rect x="308" y="211.909" width="7.33334" height="7.36364" fill="#FED955"/>
<rect x="286" y="211.909" width="7.33333" height="7.36364" fill="#FDEB95"/>
<rect x="293.333" y="211.909" width="7.33333" height="7.36364" fill="#FDEB95"/>
<rect x="293.333" y="153" width="7.33333" height="7.36364" fill="#FED955"/>
<rect x="300.667" y="153" width="7.33333" height="7.36364" fill="#FED955"/>
<rect x="308" y="153" width="7.33334" height="7.36364" fill="#C4925C"/>
<rect x="300.667" y="160.364" width="7.33333" height="7.36364" fill="#FDEB95"/>
<rect x="293.333" y="160.364" width="7.33333" height="7.36364" fill="#FDEB95"/>
<rect x="293.333" y="167.727" width="7.33333" height="7.36364" fill="#FDEB95"/>
<rect x="308" y="160.364" width="7.33334" height="7.36364" fill="#C4925C"/>
<rect x="300.667" y="167.727" width="7.33333" height="7.36364" fill="#FDEB95"/>
<rect x="293.333" y="175.091" width="7.33333" height="7.36364" fill="#C4925C"/>
<rect x="286" y="175.091" width="7.33333" height="7.36364" fill="#C4925C"/>
<rect x="278.667" y="182.455" width="7.33333" height="7.36364" fill="#C4925C"/>
<rect x="300.667" y="182.455" width="7.33333" height="7.36364" fill="#FDEB95"/>
<rect x="278.667" y="189.818" width="7.33333" height="7.36364" fill="#C4925C"/>
<rect x="300.667" y="189.818" width="7.33333" height="7.36364" fill="#FDEB95"/>
<rect x="278.667" y="197.182" width="7.33333" height="7.36363" fill="#C4925C"/>
<rect x="300.667" y="197.182" width="7.33333" height="7.36363" fill="#FDEB95"/>
<rect x="278.667" y="204.545" width="7.33333" height="7.36364" fill="#C4925C"/>
<rect x="300.667" y="204.545" width="7.33333" height="7.36364" fill="#FDEB95"/>
<rect x="315.333" y="160.364" width="7.33333" height="7.36364" fill="#C4925C"/>
<rect x="315.333" y="175.091" width="7.33333" height="7.36364" fill="#C4925C"/>
<rect x="315.333" y="182.455" width="7.33333" height="7.36364" fill="#C4925C"/>
<rect x="322.667" y="182.455" width="7.33333" height="7.36364" fill="#C4925C"/>
<rect x="322.667" y="197.182" width="7.33333" height="7.36363" fill="#C4925C"/>
<rect x="319" y="189.818" width="7.33333" height="7.36364" fill="#C4925C"/>
<rect x="319" y="197.182" width="7.33333" height="7.36363" fill="#C4925C"/>
<rect x="319" y="204.545" width="7.33333" height="7.36364" fill="#C4925C"/>
<rect x="315.333" y="211.909" width="7.33333" height="7.36364" fill="#C4925C"/>
<rect x="315.333" y="219.273" width="7.33333" height="7.36364" fill="#C4925C"/>
<rect x="308" y="219.273" width="7.33334" height="7.36364" fill="#C4925C"/>
<rect x="308" y="226.636" width="7.33334" height="7.36363" fill="#C4925C"/>
<rect x="300.667" y="226.636" width="7.33333" height="7.36363" fill="#C4925C"/>
<rect x="322.667" y="175.091" width="7.33333" height="7.36364" fill="#C4925C"/>
<rect x="322.667" y="189.818" width="7.33333" height="7.36364" fill="#C4925C"/>
<rect x="308" y="167.727" width="7.33334" height="7.36364" fill="#C4925C"/>
<rect x="315.333" y="167.727" width="7.33333" height="7.36364" fill="#C4925C"/>
<rect x="315.333" y="182.455" width="7.33333" height="7.36364" fill="#C4925C"/>
<rect x="140" y="221" width="7.33333" height="7.36364" fill="#FED955"/>
<rect x="140" y="228.364" width="7.33333" height="7.36364" fill="#FED955"/>
<rect x="140" y="235.727" width="7.33333" height="7.36364" fill="#FED955"/>
<rect x="140" y="250.455" width="7.33333" height="7.36364" fill="#FED955"/>
<rect x="147.333" y="250.455" width="7.33333" height="7.36364" fill="#FED955"/>
<rect x="140" y="257.818" width="7.33333" height="7.36364" fill="#FED955"/>
<rect x="147.333" y="257.818" width="7.33333" height="7.36364" fill="#FED955"/>
<rect x="140" y="265.182" width="7.33333" height="7.36363" fill="#FED955"/>
<rect x="147.333" y="265.182" width="7.33333" height="7.36363" fill="#FED955"/>
<rect x="140" y="272.545" width="7.33333" height="7.36364" fill="#FED955"/>
<rect x="147.333" y="272.545" width="7.33333" height="7.36364" fill="#FED955"/>
<rect x="132.667" y="228.364" width="7.33333" height="7.36364" fill="#FED955"/>
<rect x="132.667" y="235.727" width="7.33333" height="7.36364" fill="#FED955"/>
<rect x="132.667" y="243.091" width="7.33333" height="7.36364" fill="#FED955"/>
<rect x="125.333" y="228.364" width="7.33333" height="7.36364" fill="#FED955"/>
<rect x="125.333" y="235.727" width="7.33333" height="7.36364" fill="#FED955"/>
<rect x="118" y="243.091" width="7.33333" height="7.36364" fill="#FED955"/>
<rect x="118" y="257.818" width="7.33333" height="7.36364" fill="#FED955"/>
<rect x="118" y="272.545" width="7.33333" height="7.36364" fill="#FED955"/>
<rect x="118" y="250.455" width="7.33333" height="7.36364" fill="#FED955"/>
<rect x="118" y="265.182" width="7.33333" height="7.36363" fill="#FED955"/>
<rect x="125.333" y="243.091" width="7.33333" height="7.36364" fill="#FED955"/>
<rect x="125.333" y="257.818" width="7.33333" height="7.36364" fill="#FED955"/>
<rect x="158.333" y="257.818" width="7.33333" height="7.36364" fill="#FED955"/>
<rect x="165.667" y="257.818" width="7.33334" height="7.36364" fill="#FED955"/>
<rect x="125.333" y="272.545" width="7.33333" height="7.36364" fill="#FED955"/>
<rect x="158.333" y="272.545" width="7.33333" height="7.36364" fill="#FED955"/>
<rect x="165.667" y="272.545" width="7.33334" height="7.36364" fill="#FED955"/>
<rect x="125.333" y="250.455" width="7.33333" height="7.36364" fill="#FED955"/>
<rect x="158.333" y="250.455" width="7.33333" height="7.36364" fill="#FED955"/>
<rect x="154.667" y="243.091" width="7.33333" height="7.36364" fill="#FED955"/>
<rect x="162" y="243.091" width="7.33334" height="7.36364" fill="#FED955"/>
<rect x="165.667" y="250.455" width="7.33334" height="7.36364" fill="#FED955"/>
<rect x="125.333" y="265.182" width="7.33333" height="7.36363" fill="#FED955"/>
<rect x="158.333" y="265.182" width="7.33333" height="7.36363" fill="#FED955"/>
<rect x="165.667" y="265.182" width="7.33334" height="7.36363" fill="#FED955"/>
<rect x="125.333" y="279.909" width="7.33333" height="7.36364" fill="#FED955"/>
<rect x="125.333" y="287.273" width="7.33333" height="7.36364" fill="#FED955"/>
<rect x="140" y="287.273" width="7.33333" height="7.36364" fill="#FED955"/>
<rect x="140" y="294.636" width="7.33333" height="7.36363" fill="#FED955"/>
<rect x="132.667" y="279.909" width="7.33333" height="7.36364" fill="#FED955"/>
<rect x="132.667" y="287.273" width="7.33333" height="7.36364" fill="#FED955"/>
<rect x="132.667" y="294.636" width="7.33333" height="7.36363" fill="#FED955"/>
<rect x="147.333" y="287.273" width="7.33333" height="7.36364" fill="#FED955"/>
<rect x="147.333" y="294.636" width="7.33333" height="7.36363" fill="#FED955"/>
<rect x="154.667" y="287.273" width="7.33333" height="7.36364" fill="#FED955"/>
<rect x="154.667" y="279.909" width="7.33333" height="7.36364" fill="#FED955"/>
<rect x="162" y="279.909" width="7.33334" height="7.36364" fill="#FED955"/>
<rect x="140" y="279.909" width="7.33333" height="7.36364" fill="#FDEB95"/>
<rect x="147.333" y="279.909" width="7.33333" height="7.36364" fill="#FDEB95"/>
<rect x="147.333" y="221" width="7.33333" height="7.36364" fill="#FED955"/>
<rect x="154.667" y="221" width="7.33333" height="7.36364" fill="#FED955"/>
<rect x="162" y="221" width="7.33334" height="7.36364" fill="#C4925C"/>
<rect x="154.667" y="228.364" width="7.33333" height="7.36364" fill="#FDEB95"/>
<rect x="147.333" y="228.364" width="7.33333" height="7.36364" fill="#FDEB95"/>
<rect x="147.333" y="235.727" width="7.33333" height="7.36364" fill="#FDEB95"/>
<rect x="162" y="228.364" width="7.33334" height="7.36364" fill="#C4925C"/>
<rect x="154.667" y="235.727" width="7.33333" height="7.36364" fill="#FDEB95"/>
<rect x="147.333" y="243.091" width="7.33333" height="7.36364" fill="#C4925C"/>
<rect x="140" y="243.091" width="7.33333" height="7.36364" fill="#C4925C"/>
<rect x="132.667" y="250.455" width="7.33333" height="7.36364" fill="#C4925C"/>
<rect x="154.667" y="250.455" width="7.33333" height="7.36364" fill="#FDEB95"/>
<rect x="132.667" y="257.818" width="7.33333" height="7.36364" fill="#C4925C"/>
<rect x="154.667" y="257.818" width="7.33333" height="7.36364" fill="#FDEB95"/>
<rect x="132.667" y="265.182" width="7.33333" height="7.36363" fill="#C4925C"/>
<rect x="154.667" y="265.182" width="7.33333" height="7.36363" fill="#FDEB95"/>
<rect x="132.667" y="272.545" width="7.33333" height="7.36364" fill="#C4925C"/>
<rect x="154.667" y="272.545" width="7.33333" height="7.36364" fill="#FDEB95"/>
<rect x="169.333" y="228.364" width="7.33333" height="7.36364" fill="#C4925C"/>
<rect x="169.333" y="243.091" width="7.33333" height="7.36364" fill="#C4925C"/>
<rect x="169.333" y="250.455" width="7.33333" height="7.36364" fill="#C4925C"/>
<rect x="176.667" y="250.455" width="7.33333" height="7.36364" fill="#C4925C"/>
<rect x="176.667" y="265.182" width="7.33333" height="7.36363" fill="#C4925C"/>
<rect x="173" y="257.818" width="7.33333" height="7.36364" fill="#C4925C"/>
<rect x="173" y="265.182" width="7.33333" height="7.36363" fill="#C4925C"/>
<rect x="173" y="272.545" width="7.33333" height="7.36364" fill="#C4925C"/>
<rect x="169.333" y="279.909" width="7.33333" height="7.36364" fill="#C4925C"/>
<rect x="169.333" y="287.273" width="7.33333" height="7.36364" fill="#C4925C"/>
<rect x="162" y="287.273" width="7.33334" height="7.36364" fill="#C4925C"/>
<rect x="162" y="294.636" width="7.33334" height="7.36363" fill="#C4925C"/>
<rect x="154.667" y="294.636" width="7.33333" height="7.36363" fill="#C4925C"/>
<rect x="176.667" y="243.091" width="7.33333" height="7.36364" fill="#C4925C"/>
<rect x="176.667" y="257.818" width="7.33333" height="7.36364" fill="#C4925C"/>
<rect x="162" y="235.727" width="7.33334" height="7.36364" fill="#C4925C"/>
<rect x="169.333" y="235.727" width="7.33333" height="7.36364" fill="#C4925C"/>
<rect x="169.333" y="250.455" width="7.33333" height="7.36364" fill="#C4925C"/>
<rect x="-6" y="153" width="7.33333" height="7.36364" fill="#FED955"/>
<rect x="-6" y="160.364" width="7.33333" height="7.36364" fill="#FED955"/>
<rect x="-6" y="167.727" width="7.33333" height="7.36364" fill="#FED955"/>
<rect x="-6" y="182.455" width="7.33333" height="7.36364" fill="#FED955"/>
<rect x="1.33334" y="182.455" width="7.33333" height="7.36364" fill="#FED955"/>
<rect x="-6" y="189.818" width="7.33333" height="7.36364" fill="#FED955"/>
<rect x="1.33334" y="189.818" width="7.33333" height="7.36364" fill="#FED955"/>
<rect x="-6" y="197.182" width="7.33333" height="7.36363" fill="#FED955"/>
<rect x="1.33334" y="197.182" width="7.33333" height="7.36363" fill="#FED955"/>
<rect x="-6" y="204.545" width="7.33333" height="7.36364" fill="#FED955"/>
<rect x="1.33334" y="204.545" width="7.33333" height="7.36364" fill="#FED955"/>
<rect x="12.3333" y="189.818" width="7.33333" height="7.36364" fill="#FED955"/>
<rect x="19.6667" y="189.818" width="7.33334" height="7.36364" fill="#FED955"/>
<rect x="12.3333" y="204.545" width="7.33333" height="7.36364" fill="#FED955"/>
<rect x="19.6667" y="204.545" width="7.33334" height="7.36364" fill="#FED955"/>
<rect x="12.3333" y="182.455" width="7.33333" height="7.36364" fill="#FED955"/>
<rect x="8.66667" y="175.091" width="7.33333" height="7.36364" fill="#FED955"/>
<rect x="16" y="175.091" width="7.33334" height="7.36364" fill="#FED955"/>
<rect x="19.6667" y="182.455" width="7.33334" height="7.36364" fill="#FED955"/>
<rect x="12.3333" y="197.182" width="7.33333" height="7.36363" fill="#FED955"/>
<rect x="19.6667" y="197.182" width="7.33334" height="7.36363" fill="#FED955"/>
<rect x="-6" y="219.273" width="7.33333" height="7.36364" fill="#FED955"/>
<rect x="-6" y="226.636" width="7.33333" height="7.36363" fill="#FED955"/>
<rect x="1.33334" y="219.273" width="7.33333" height="7.36364" fill="#FED955"/>
<rect x="1.33334" y="226.636" width="7.33333" height="7.36363" fill="#FED955"/>
<rect x="8.66667" y="219.273" width="7.33333" height="7.36364" fill="#FED955"/>
<rect x="8.66667" y="211.909" width="7.33333" height="7.36364" fill="#FED955"/>
<rect x="16" y="211.909" width="7.33334" height="7.36364" fill="#FED955"/>
<rect x="-6" y="211.909" width="7.33333" height="7.36364" fill="#FDEB95"/>
<rect x="1.33334" y="211.909" width="7.33333" height="7.36364" fill="#FDEB95"/>
<rect x="1.33334" y="153" width="7.33333" height="7.36364" fill="#FED955"/>
<rect x="8.66667" y="153" width="7.33333" height="7.36364" fill="#FED955"/>
<rect x="16" y="153" width="7.33334" height="7.36364" fill="#C4925C"/>
<rect x="8.66667" y="160.364" width="7.33333" height="7.36364" fill="#FDEB95"/>
<rect x="1.33334" y="160.364" width="7.33333" height="7.36364" fill="#FDEB95"/>
<rect x="1.33334" y="167.727" width="7.33333" height="7.36364" fill="#FDEB95"/>
<rect x="16" y="160.364" width="7.33334" height="7.36364" fill="#C4925C"/>
<rect x="8.66667" y="167.727" width="7.33333" height="7.36364" fill="#FDEB95"/>
<rect x="1.33334" y="175.091" width="7.33333" height="7.36364" fill="#C4925C"/>
<rect x="-6" y="175.091" width="7.33333" height="7.36364" fill="#C4925C"/>
<rect x="8.66667" y="182.455" width="7.33333" height="7.36364" fill="#FDEB95"/>
<rect x="8.66667" y="189.818" width="7.33333" height="7.36364" fill="#FDEB95"/>
<rect x="8.66667" y="197.182" width="7.33333" height="7.36363" fill="#FDEB95"/>
<rect x="8.66667" y="204.545" width="7.33333" height="7.36364" fill="#FDEB95"/>
<rect x="23.3333" y="160.364" width="7.33333" height="7.36364" fill="#C4925C"/>
<rect x="23.3333" y="175.091" width="7.33333" height="7.36364" fill="#C4925C"/>
<rect x="23.3333" y="182.455" width="7.33333" height="7.36364" fill="#C4925C"/>
<rect x="30.6667" y="182.455" width="7.33333" height="7.36364" fill="#C4925C"/>
<rect x="30.6667" y="197.182" width="7.33333" height="7.36363" fill="#C4925C"/>
<rect x="27" y="189.818" width="7.33333" height="7.36364" fill="#C4925C"/>
<rect x="27" y="197.182" width="7.33333" height="7.36363" fill="#C4925C"/>
<rect x="27" y="204.545" width="7.33333" height="7.36364" fill="#C4925C"/>
<rect x="23.3333" y="211.909" width="7.33333" height="7.36364" fill="#C4925C"/>
<rect x="23.3333" y="219.273" width="7.33333" height="7.36364" fill="#C4925C"/>
<rect x="16" y="219.273" width="7.33334" height="7.36364" fill="#C4925C"/>
<rect x="16" y="226.636" width="7.33334" height="7.36363" fill="#C4925C"/>
<rect x="8.66667" y="226.636" width="7.33333" height="7.36363" fill="#C4925C"/>
<rect x="30.6667" y="175.091" width="7.33333" height="7.36364" fill="#C4925C"/>
<rect x="30.6667" y="189.818" width="7.33333" height="7.36364" fill="#C4925C"/>
<rect x="16" y="167.727" width="7.33334" height="7.36364" fill="#C4925C"/>
<rect x="23.3333" y="167.727" width="7.33333" height="7.36364" fill="#C4925C"/>
<rect x="23.3333" y="182.455" width="7.33333" height="7.36364" fill="#C4925C"/>
<g filter="url(#filter0_f)">
<circle cx="20" cy="227" r="200" fill="#64DDFB" fill-opacity="0.2"/>
</g>
<defs>
<filter id="filter0_f" x="-320" y="-113" width="680" height="680" filterUnits="userSpaceOnUse" color-interpolation-filters="sRGB">
<feFlood flood-opacity="0" result="BackgroundImageFix"/>
<feBlend mode="normal" in="SourceGraphic" in2="BackgroundImageFix" result="shape"/>
<feGaussianBlur stdDeviation="70" result="effect1_foregroundBlur"/>
</filter>
</defs>
</svg>
