<svg width="380" height="265" viewBox="0 0 380 265" fill="none" xmlns="http://www.w3.org/2000/svg">
<path d="M265 10V30H260V45H245V35H240V30H255V25H260V20H255V15H250V10H240V15H235V20H225V15H220V10H235V5H260V10H265Z" fill="#9695F8"/>
<path d="M190 125V135H185V130H180V120H185V125H190Z" fill="#0F0DBE"/>
<path d="M235 145H230V150H235V145Z" fill="#7B79F7"/>
<path d="M185 130V135H175V120H180V130H185Z" fill="#605EE8"/>
<path d="M300 20V245H280V110H205V120H200V130H195V135H190V125H185V120H180V90H185V65H195V70H200V85H205V100H280V20H300Z" fill="#2624D0"/>
<path d="M100 0V95H175V85H180V70H185V65H195V70H200V85H205V95H280V0H100ZM265 30H260V45H245V35H240V30H255V25H260V20H255V15H250V10H240V15H235V20H225V15H220V10H235V5H260V10H265V30Z" fill="#7B79F7"/>
<path d="M355 250H330V265H355V250Z" fill="#7B79F7"/>
<path d="M50 250H25V265H50V250Z" fill="#7B79F7"/>
<path d="M235 150H230V155H235V150Z" fill="#7B79F7"/>
<path d="M255 195H250V200H255V195Z" fill="#605EE8"/>
<path d="M270 170V155H265V150H260V140H255V135H260V130H265V125H230V120H200V130H195V135H175V120H100V245H275V170H270ZM255 200H250V215H245V220H240V200H250V195H255V200Z" fill="#7B79F7"/>
<path d="M250 200V215H245V220H240V200H250Z" fill="#605EE8"/>
<path d="M355 245H330V250H355V245Z" fill="#605EE8"/>
<path d="M50 245H25V250H50V245Z" fill="#605EE8"/>
<path d="M80 120H0V245H80V120Z" fill="#7B79F7"/>
<path d="M80 115H0V120H80V115Z" fill="#605EE8"/>
<path d="M175 115H100V120H175V115Z" fill="#605EE8"/>
<path d="M160 110H100V115H160V110Z" fill="#0F0DBE"/>
<path d="M185 70V90H180V120H175V115H170V105H165V100H100V95H175V85H180V70H185Z" fill="#0F0DBE"/>
<path d="M80 95H25V100H80V95Z" fill="#0F0DBE"/>
<path d="M280 115V245H275V170H270V155H265V150H260V140H255V135H260V130H265V125H230V120H205V115H280Z" fill="#605EE8"/>
<path d="M280 95H205V100H280V95Z" fill="#0F0DBE"/>
<path d="M80 110H25V115H80V110Z" fill="#0F0DBE"/>
<path d="M170 110H165V115H170V110Z" fill="#0F0DBE"/>
<path d="M165 110H160V115H165V110Z" fill="#0F0DBE"/>
<path d="M80 20H0V95H80V20Z" fill="#7B79F7"/>
<path d="M170 105V110H100V245H80V110H25V100H80V20H100V100H165V105H170Z" fill="#2624D0"/>
<path d="M380 20H300V95H380V20Z" fill="#7B79F7"/>
<rect x="320" y="48" width="5" height="5" fill="#FED955"/>
<rect x="320" y="53" width="5" height="5" fill="#FED955"/>
<rect x="315" y="53" width="5" height="5" fill="#FED955"/>
<rect x="305" y="58" width="5" height="5" fill="#FED955"/>
<rect x="305" y="63" width="5" height="5" fill="#FED955"/>
<rect x="300" y="68" width="5" height="5" fill="#FED955"/>
<rect x="305" y="73" width="5" height="5" fill="#FED955"/>
<rect x="360" y="73" width="5" height="5" fill="#C4925C"/>
<rect x="330" y="68" width="5" height="5" fill="#FED955"/>
<rect x="305" y="78" width="5" height="5" fill="#FED955"/>
<rect x="360" y="78" width="5" height="5" fill="#C4925C"/>
<rect x="330" y="73" width="5" height="5" fill="#C4925C"/>
<rect x="325" y="78" width="5" height="5" fill="#FED955"/>
<rect x="340" y="78" width="5" height="5" fill="#FED955"/>
<rect x="340" y="73" width="5" height="5" fill="#FED955"/>
<rect x="335" y="73" width="5" height="5" fill="#FED955"/>
<rect x="335" y="68" width="5" height="5" fill="#FED955"/>
<rect x="335" y="78" width="5" height="5" fill="#FDEB95"/>
<rect x="310" y="78" width="5" height="5" fill="#C4925C"/>
<rect x="305" y="88" width="5" height="5" fill="#FED955"/>
<rect x="360" y="88" width="5" height="5" fill="#C4925C"/>
<rect x="325" y="88" width="5" height="5" fill="#FED955"/>
<rect x="340" y="88" width="5" height="5" fill="#FED955"/>
<rect x="335" y="88" width="5" height="5" fill="#FDEB95"/>
<rect x="310" y="88" width="5" height="5" fill="#C4925C"/>
<rect x="305" y="98" width="5" height="5" fill="#FED955"/>
<rect x="360" y="98" width="5" height="5" fill="#C4925C"/>
<rect x="350" y="118" width="5" height="5" fill="#C4925C"/>
<rect x="355" y="113" width="5" height="5" transform="rotate(90 355 113)" fill="#C4925C"/>
<rect x="340" y="123" width="5" height="5" fill="#C4925C"/>
<rect x="325" y="98" width="5" height="5" fill="#FED955"/>
<rect x="340" y="98" width="5" height="5" fill="#FED955"/>
<rect x="340" y="108" width="5" height="5" fill="#FED955"/>
<rect x="335" y="98" width="5" height="5" fill="#FDEB95"/>
<rect x="310" y="98" width="5" height="5" fill="#C4925C"/>
<rect x="305" y="83" width="5" height="5" fill="#FED955"/>
<rect x="360" y="83" width="5" height="5" fill="#C4925C"/>
<rect x="325" y="83" width="5" height="5" fill="#FED955"/>
<rect x="340" y="83" width="5" height="5" fill="#FED955"/>
<rect x="335" y="83" width="5" height="5" fill="#FDEB95"/>
<rect x="310" y="83" width="5" height="5" fill="#C4925C"/>
<rect x="305" y="93" width="5" height="5" fill="#FED955"/>
<rect x="360" y="93" width="5" height="5" fill="#C4925C"/>
<rect x="325" y="93" width="5" height="5" fill="#FED955"/>
<rect x="340" y="93" width="5" height="5" fill="#FED955"/>
<rect x="335" y="93" width="5" height="5" fill="#FDEB95"/>
<rect x="310" y="93" width="5" height="5" fill="#C4925C"/>
<rect x="305" y="103" width="5" height="5" fill="#FED955"/>
<rect x="325" y="103" width="5" height="5" fill="#FED955"/>
<rect x="340" y="103" width="5" height="5" fill="#FED955"/>
<rect x="340" y="113" width="5" height="5" fill="#FED955"/>
<rect x="335" y="103" width="5" height="5" fill="#FDEB95"/>
<rect x="310" y="103" width="5" height="5" fill="#C4925C"/>
<rect x="310" y="108" width="5" height="5" fill="#FED955"/>
<rect x="310" y="113" width="5" height="5" fill="#FED955"/>
<rect x="325" y="113" width="5" height="5" fill="#FED955"/>
<rect x="330" y="113" width="5" height="5" fill="#FED955"/>
<rect x="335" y="113" width="5" height="5" fill="#FED955"/>
<rect x="310" y="118" width="5" height="5" fill="#FED955"/>
<rect x="310" y="123" width="5" height="5" fill="#FED955"/>
<rect x="325" y="118" width="5" height="5" fill="#FED955"/>
<rect x="330" y="118" width="5" height="5" fill="#FED955"/>
<rect x="335" y="118" width="5" height="5" fill="#FED955"/>
<rect x="325" y="123" width="5" height="5" fill="#FED955"/>
<rect x="330" y="48" width="5" height="5" fill="#FED955"/>
<rect x="340" y="48" width="5" height="5" fill="#FED955"/>
<rect x="340" y="58" width="5" height="5" fill="#C4925C"/>
<rect x="330" y="53" width="5" height="5" fill="#FED955"/>
<rect x="340" y="53" width="5" height="5" fill="#FED955"/>
<rect x="340" y="63" width="5" height="5" fill="#FED955"/>
<rect x="340" y="68" width="5" height="5" fill="#FED955"/>
<rect x="315" y="58" width="5" height="5" fill="#FED955"/>
<rect x="325" y="58" width="5" height="5" fill="#FDEB95"/>
<rect x="315" y="63" width="5" height="5" fill="#FED955"/>
<rect x="325" y="63" width="5" height="5" fill="#FDEB95"/>
<rect x="315" y="108" width="5" height="5" fill="#FDEB95"/>
<rect x="315" y="68" width="5" height="5" fill="#FED955"/>
<rect x="315" y="73" width="5" height="5" fill="#C4925C"/>
<rect x="300" y="73" width="5" height="5" fill="#FED955"/>
<rect x="355" y="73" width="5" height="5" fill="#C4925C"/>
<rect x="355" y="68" width="5" height="5" fill="#C4925C"/>
<rect x="355" y="63" width="5" height="5" fill="#C4925C"/>
<rect x="325" y="68" width="5" height="5" fill="#C4925C"/>
<rect x="300" y="78" width="5" height="5" fill="#FED955"/>
<rect x="355" y="78" width="5" height="5" fill="#C4925C"/>
<rect x="325" y="73" width="5" height="5" fill="#C4925C"/>
<rect x="320" y="78" width="5" height="5" fill="#FED955"/>
<rect x="330" y="78" width="5" height="5" fill="#FED955"/>
<rect x="345" y="78" width="5" height="5" fill="#FED955"/>
<rect x="345" y="73" width="5" height="5" fill="#FED955"/>
<rect x="300" y="88" width="5" height="5" fill="#FED955"/>
<rect x="355" y="88" width="5" height="5" fill="#C4925C"/>
<rect x="320" y="88" width="5" height="5" fill="#FED955"/>
<rect x="330" y="88" width="5" height="5" fill="#FED955"/>
<rect x="345" y="88" width="5" height="5" fill="#FED955"/>
<rect x="300" y="98" width="5" height="5" fill="#FED955"/>
<rect x="355" y="98" width="5" height="5" fill="#C4925C"/>
<rect x="355" y="103" width="5" height="5" fill="#C4925C"/>
<rect x="355" y="108" width="5" height="5" fill="#C4925C"/>
<rect x="345" y="118" width="5" height="5" fill="#C4925C"/>
<rect x="355" y="108" width="5" height="5" transform="rotate(90 355 108)" fill="#C4925C"/>
<rect x="335" y="123" width="5" height="5" fill="#C4925C"/>
<rect x="320" y="98" width="5" height="5" fill="#FED955"/>
<rect x="330" y="98" width="5" height="5" fill="#FED955"/>
<rect x="345" y="98" width="5" height="5" fill="#FED955"/>
<rect x="345" y="108" width="5" height="5" fill="#FED955"/>
<rect x="300" y="83" width="5" height="5" fill="#FED955"/>
<rect x="355" y="83" width="5" height="5" fill="#C4925C"/>
<rect x="320" y="83" width="5" height="5" fill="#FED955"/>
<rect x="330" y="83" width="5" height="5" fill="#FED955"/>
<rect x="345" y="83" width="5" height="5" fill="#FED955"/>
<rect x="300" y="93" width="5" height="5" fill="#FED955"/>
<rect x="355" y="93" width="5" height="5" fill="#C4925C"/>
<rect x="320" y="93" width="5" height="5" fill="#FED955"/>
<rect x="330" y="93" width="5" height="5" fill="#FED955"/>
<rect x="345" y="93" width="5" height="5" fill="#FED955"/>
<rect x="300" y="103" width="5" height="5" fill="#FED955"/>
<rect x="320" y="103" width="5" height="5" fill="#FED955"/>
<rect x="330" y="103" width="5" height="5" fill="#FED955"/>
<rect x="345" y="103" width="5" height="5" fill="#FED955"/>
<rect x="345" y="113" width="5" height="5" fill="#FED955"/>
<rect x="305" y="108" width="5" height="5" fill="#FED955"/>
<rect x="305" y="113" width="5" height="5" fill="#FED955"/>
<rect x="320" y="113" width="5" height="5" fill="#FED955"/>
<rect x="305" y="118" width="5" height="5" fill="#FED955"/>
<rect x="320" y="118" width="5" height="5" fill="#FED955"/>
<rect x="320" y="123" width="5" height="5" fill="#FED955"/>
<rect x="325" y="48" width="5" height="5" fill="#FED955"/>
<rect x="325" y="53" width="5" height="5" fill="#FED955"/>
<rect x="310" y="58" width="5" height="5" fill="#FED955"/>
<rect x="310" y="63" width="5" height="5" fill="#FED955"/>
<rect x="310" y="68" width="5" height="5" fill="#FED955"/>
<rect x="305" y="68" width="5" height="5" fill="#FED955"/>
<rect x="310" y="73" width="5" height="5" fill="#FED955"/>
<rect x="295" y="73" width="5" height="5" fill="#FED955"/>
<rect x="350" y="73" width="5" height="5" fill="#C4925C"/>
<rect x="320" y="68" width="5" height="5" fill="#C4925C"/>
<rect x="295" y="78" width="5" height="5" fill="#FED955"/>
<rect x="350" y="78" width="5" height="5" fill="#C4925C"/>
<rect x="320" y="73" width="5" height="5" fill="#C4925C"/>
<rect x="315" y="78" width="5" height="5" fill="#C4925C"/>
<rect x="295" y="88" width="5" height="5" fill="#FED955"/>
<rect x="350" y="88" width="5" height="5" fill="#C4925C"/>
<rect x="315" y="88" width="5" height="5" fill="#FED955"/>
<rect x="295" y="98" width="5" height="5" fill="#FED955"/>
<rect x="350" y="98" width="5" height="5" fill="#C4925C"/>
<rect x="340" y="118" width="5" height="5" fill="#C4925C"/>
<rect x="355" y="103" width="5" height="5" transform="rotate(90 355 103)" fill="#C4925C"/>
<rect x="330" y="123" width="5" height="5" fill="#C4925C"/>
<rect x="315" y="98" width="5" height="5" fill="#FED955"/>
<rect x="295" y="83" width="5" height="5" fill="#FED955"/>
<rect x="350" y="83" width="5" height="5" fill="#C4925C"/>
<rect x="315" y="83" width="5" height="5" fill="#FED955"/>
<rect x="295" y="93" width="5" height="5" fill="#FED955"/>
<rect x="350" y="93" width="5" height="5" fill="#C4925C"/>
<rect x="315" y="93" width="5" height="5" fill="#FED955"/>
<rect x="295" y="103" width="5" height="5" fill="#FED955"/>
<rect x="315" y="103" width="5" height="5" fill="#C4925C"/>
<rect x="300" y="108" width="5" height="5" fill="#FED955"/>
<rect x="300" y="113" width="5" height="5" fill="#FED955"/>
<rect x="315" y="113" width="5" height="5" fill="#FED955"/>
<rect x="300" y="118" width="5" height="5" fill="#FED955"/>
<rect x="315" y="118" width="5" height="5" fill="#FED955"/>
<rect x="315" y="123" width="5" height="5" fill="#FED955"/>
<rect x="335" y="48" width="5" height="5" fill="#FED955"/>
<rect x="345" y="48" width="5" height="5" fill="#C4925C"/>
<rect x="345" y="58" width="5" height="5" fill="#C4925C"/>
<rect x="350" y="58" width="5" height="5" fill="#C4925C"/>
<rect x="335" y="53" width="5" height="5" fill="#FED955"/>
<rect x="345" y="53" width="5" height="5" fill="#C4925C"/>
<rect x="345" y="63" width="5" height="5" fill="#C4925C"/>
<rect x="345" y="68" width="5" height="5" fill="#C4925C"/>
<rect x="350" y="63" width="5" height="5" fill="#C4925C"/>
<rect x="350" y="68" width="5" height="5" fill="#C4925C"/>
<rect x="320" y="58" width="5" height="5" fill="#FED955"/>
<rect x="330" y="58" width="5" height="5" fill="#FDEB95"/>
<rect x="335" y="58" width="5" height="5" fill="#FDEB95"/>
<rect x="320" y="63" width="5" height="5" fill="#FED955"/>
<rect x="330" y="63" width="5" height="5" fill="#FDEB95"/>
<rect x="320" y="108" width="5" height="5" fill="#FDEB95"/>
<rect x="330" y="108" width="5" height="5" fill="#FDEB95"/>
<rect x="335" y="63" width="5" height="5" fill="#FDEB95"/>
<rect x="325" y="108" width="5" height="5" fill="#FDEB95"/>
<rect x="335" y="108" width="5" height="5" fill="#FED955"/>
<path d="M280 110H205V115H280V110Z" fill="#0F0DBE"/>
<path d="M380 155V245H300V125H340V130H355V135H360V145H365V150H370V155H380Z" fill="#7B79F7"/>
<path d="M380 115V155H370V150H365V145H360V135H355V130H340V125H300V115H380Z" fill="#605EE8"/>
</svg>
