<svg width="108" height="128" viewBox="0 0 108 128" fill="none" xmlns="http://www.w3.org/2000/svg">
<path d="M55 73V118H45V123H5V108H0V73H5V68H10V58H20V53H25V48H50V58H30V68H25V73H20V78H15V108H20V113H40V108H45V78H40V73H35V68H45V63H50V73H55Z" fill="#FED955"/>
<path d="M45 78H40V108H45V78Z" fill="#FDEB95"/>
<path d="M35 123H15V128H35V123Z" fill="#FED955"/>
<path d="M50 58H45V63H50V58Z" fill="#C4925C"/>
<path d="M40 108H20V113H40V108Z" fill="#FDEB95"/>
<path d="M40 78V108H25V103H20V83H25V78H40Z" fill="#FED955"/>
<path d="M40 73V78H25V83H20V103H25V108H15V78H20V73H25V68H35V73H40Z" fill="#C4925C"/>
<path d="M70 73V103H65V113H60V123H50V128H35V123H45V118H55V73H50V48H55V58H60V63H65V73H70Z" fill="#C4925C"/>
<path d="M45 58H30V68H45V58Z" fill="#FDEB95"/>
<path d="M93 25V70H83V75H43V60H38V25H43V20H48V10H58V5H63V0H88V10H68V20H63V25H58V30H53V60H58V65H78V60H83V30H78V25H73V20H83V15H88V25H93Z" fill="#FED955"/>
<path d="M83 30H78V60H83V30Z" fill="#FDEB95"/>
<path d="M73 75H53V80H73V75Z" fill="#FED955"/>
<path d="M88 10H83V15H88V10Z" fill="#C4925C"/>
<path d="M78 60H58V65H78V60Z" fill="#FDEB95"/>
<path d="M78 30V60H63V55H58V35H63V30H78Z" fill="#FED955"/>
<path d="M78 25V30H63V35H58V55H63V60H53V30H58V25H63V20H73V25H78Z" fill="#C4925C"/>
<path d="M108 25V55H103V65H98V75H88V80H73V75H83V70H93V25H88V0H93V10H98V15H103V25H108Z" fill="#C4925C"/>
<path d="M83 10H68V20H83V10Z" fill="#FDEB95"/>
</svg>
