<svg width="108" height="188" viewBox="0 0 108 188" fill="none" xmlns="http://www.w3.org/2000/svg">
<path d="M55 133V178H45V183H5V168H0V133H5V128H10V118H20V113H25V108H50V118H30V128H25V133H20V138H15V168H20V173H40V168H45V138H40V133H35V128H45V123H50V133H55Z" fill="#FED955"/>
<path d="M45 138H40V168H45V138Z" fill="#FDEB95"/>
<path d="M35 183H15V188H35V183Z" fill="#FED955"/>
<path d="M50 118H45V123H50V118Z" fill="#C4925C"/>
<path d="M40 168H20V173H40V168Z" fill="#FDEB95"/>
<path d="M40 138V168H25V163H20V143H25V138H40Z" fill="#FED955"/>
<path d="M40 133V138H25V143H20V163H25V168H15V138H20V133H25V128H35V133H40Z" fill="#C4925C"/>
<path d="M70 133V163H65V173H60V183H50V188H35V183H45V178H55V133H50V108H55V118H60V123H65V133H70Z" fill="#C4925C"/>
<path d="M45 118H30V128H45V118Z" fill="#FDEB95"/>
<path d="M93 85V130H83V135H43V120H38V85H43V80H48V70H58V65H63V60H88V70H68V80H63V85H58V90H53V120H58V125H78V120H83V90H78V85H73V80H83V75H88V85H93Z" fill="#FED955"/>
<path d="M83 90H78V120H83V90Z" fill="#FDEB95"/>
<path d="M73 135H53V140H73V135Z" fill="#FED955"/>
<path d="M88 70H83V75H88V70Z" fill="#C4925C"/>
<path d="M78 120H58V125H78V120Z" fill="#FDEB95"/>
<path d="M78 90V120H63V115H58V95H63V90H78Z" fill="#FED955"/>
<path d="M78 85V90H63V95H58V115H63V120H53V90H58V85H63V80H73V85H78Z" fill="#C4925C"/>
<path d="M108 85V115H103V125H98V135H88V140H73V135H83V130H93V85H88V60H93V70H98V75H103V85H108Z" fill="#C4925C"/>
<path d="M83 70H68V80H83V70Z" fill="#FDEB95"/>
<path d="M81 25V70H71V75H31V60H26V25H31V20H36V10H46V5H51V0H76V10H56V20H51V25H46V30H41V60H46V65H66V60H71V30H66V25H61V20H71V15H76V25H81Z" fill="#FED955"/>
<path d="M71 30H66V60H71V30Z" fill="#FDEB95"/>
<path d="M61 75H41V80H61V75Z" fill="#FED955"/>
<path d="M76 10H71V15H76V10Z" fill="#C4925C"/>
<path d="M66 60H46V65H66V60Z" fill="#FDEB95"/>
<path d="M66 30V60H51V55H46V35H51V30H66Z" fill="#FED955"/>
<path d="M66 25V30H51V35H46V55H51V60H41V30H46V25H51V20H61V25H66Z" fill="#C4925C"/>
<path d="M96 25V55H91V65H86V75H76V80H61V75H71V70H81V25H76V0H81V10H86V15H91V25H96Z" fill="#C4925C"/>
<path d="M71 10H56V20H71V10Z" fill="#FDEB95"/>
</svg>
